<svg xmlns="http://www.w3.org/2000/svg" viewBox="0 0 1080 1080"><g><path d="m511 913.69c.73 10.1 1.57 20.2 2.14 30.31.35 6.16.41 12.35.33 18.52 0 2.81-1.73 4.36-3.86 4.34-1.88 0-3.59-1.92-3.86-4.53-.8-7.74-1.18-15.54-2.39-23.22-1.12-7.11-1.58-14.36-4.47-21.21-2-4.81-2.91-10.1-4.35-15.15a9 9 0 0 0 -1-2c-2.32-4-4.68-8-7-12.07-4-7-7.62-14.18-13.9-19.51-.35-.3-.88-.56-1-.95-2.45-7.37-10.72-9.75-14.05-16.4-.49-1-1.87-1.54-2.92-2.14-8.18-4.65-15.22-11.06-24.61-13.9-8.26-2.49-15.86-7.06-24-10-6.52-2.35-13.14-4.79-20.24-5-.9 0-2.14 0-2.61-.57-4.3-4.94-10.93-4.2-16.19-6.8-3.63-1.8-7.52-3.09-11.28-4.63-2.66-1.08-5.3-2.2-7.95-3.32-.28-.12-.59-.5-.79-.45-6.95 1.91-12-2.8-17.69-5.16-5.29-2.21-10.25-5.25-15.26-8.07-3.7-2.08-7.56-4-10.57-7.09a9.83 9.83 0 0 0 -3.05-2 30.39 30.39 0 0 1 -8.4-5.58c-2.79-2.56-6.22-4.41-9.3-6.67-5-3.7-10-7.49-15-11.21a11.84 11.84 0 0 0 -2.71-1.7c-3-1.15-5.73-2.47-6.47-6.11-.14-.69-1.26-1.19-1.93-1.78a14.89 14.89 0 0 1 -2.74-2.49c-2.8-4.16-7.08-6.67-10.7-9.92-1.66-1.48-2.8-3.54-4.23-5.28-1.62-2-3.39-3.8-4.94-5.8-1-1.3-1.58-3-2.65-4.2-2-2.28-4.43-4.17-6.25-6.56-3.78-5-7.46-10.07-10.82-15.35-3.62-5.68-6.64-11.74-10.26-17.42-3-4.76-6.76-9.09-9.8-13.85-2.49-3.9-5-7.81-7.16-11.94-3-5.72-5.11-11.91-8.73-17.37a38.2 38.2 0 0 1 -4.48-10.68c-2.24-7.91-6.54-15.22-7-23.66a4.71 4.71 0 0 0 -.94-2 31.8 31.8 0 0 1 -4.89-21.41 8.39 8.39 0 0 0 -.73-3.95c-3.3-8-3.14-16.67-4.82-25-1.14-5.63-1.67-11.4-2.38-17.11-.25-2.08-1.17-4.08.29-6.31.61-.94-.46-2.87-.48-4.35-.24-14.23-.59-28.47-.53-42.7 0-5.74.92-11.48 1.47-17.21.58-6 1-12.11 1.87-18.11q1.92-13.5 4.33-26.91c1.9-10.58 6.26-20.42 9.61-30.56 2.69-8.13 5.14-16.35 8.15-24.37 2.37-6.34 5.37-12.45 8.19-18.62 3.27-7.16 6.31-14.45 10.09-21.33 2.88-5.25 5.23-10.76 8.59-15.84 2.56-3.87 5.62-7.9 6.46-12.93a11.18 11.18 0 0 1 3.06-5.59c4.58-4.63 6.31-11.16 10.8-15.8.65-.66 1.11-1.51 1.79-2.12 4.17-3.65 7-8.42 10.57-12.56 6.7-7.73 13.25-15.62 20.27-23.06 6.26-6.63 12.86-13 19.7-19 4.54-4 9.71-7.28 14.71-10.72 5.39-3.7 10.9-7.21 16.34-10.83a7.73 7.73 0 0 0 2.54-2c2-3.48 5.56-4.71 8.8-6.42 4.28-2.27 8.34-5.17 12.87-6.68 6.65-2.23 12.12-7.29 19.44-7.78a4.89 4.89 0 0 0 2.91-1.27c4.12-4.19 9.72-5.24 14.89-7.21 4.66-1.77 9.37-3.39 14-5.3 5.18-2.14 10.59-3.45 15.89-5.11 13-4.09 26.5-4.56 39.69-7.14 3-.59 6.2-.09 9.26-.47 2.86-.36 5.62-1.54 8.48-1.82 9.91-1 19.84-1.78 29.76-2.59 5.28-.43 10.56-.73 15.84-1.08 2.33-.15 4.66-.27 7-.4 5.06-.29 10.11-.64 15.17-.86 6-.25 12.08-.41 18.13-.58 5.71-.17 11.42-.43 17.14-.42s11.44.3 17.17.47a8.22 8.22 0 0 0 1.84.1c6.63-1.46 13.2-1 19.87 0 4.73.7 9.62.33 14.38.91 10.45 1.28 21.08.8 31.37 3.64 2.94.81 6.14.66 9.17 1.2 2.26.4 4.45 1.2 6.68 1.81a23.21 23.21 0 0 0 3.53.92c3.36.4 6.75.64 10.12 1 11.14 1.17 22.05 3.29 32.47 7.58q7.51 3.09 15.18 5.8c2.35.84 5.1.77 7.24 1.91 6.56 3.51 13.79 5.51 20 9.94 2.65 1.88 5.66 3.54 8.19 5.68a13.8 13.8 0 0 1 2.93 4.56 2.81 2.81 0 0 1 -1.49 3.93 6.07 6.07 0 0 1 -4.16 0c-1.82-.71-3.33-2.17-5.11-3-2.84-1.36-5.5-3.15-9-2.81-1.49.14-3.15-.91-4.64-1.6-1.94-.89-3.71-2.18-5.7-2.89a36.62 36.62 0 0 1 -8.1-3.86c-2.84-1.88-6.87-2.11-10.43-2.71-2.73-.45-5.55-.36-8.32-.54-4.18-.27-6.86-3.64-10.52-5.13a37.35 37.35 0 0 0 -17-2.9 27.67 27.67 0 0 1 -16-3.14c-4.52-2.34-9.65-4.55-15.4-2.62-1.94.65-4.53-.26-6.73-.81-4.42-1.09-8.79-2.39-13.17-3.67-.85-.25-1.6-.82-2.44-1.11s-1.91-.79-2.54-.49c-7.73 3.65-15.09 1-22.33-1.42-2.36-.8-4.26-1.56-6.9-.86a17.51 17.51 0 0 1 -7.89 0c-2.68-.58-5 .08-7.46.6a15.32 15.32 0 0 1 -5.51.33c-3.59-.6-7.11-1.63-10.67-2.41a4.13 4.13 0 0 0 -2.21.09c-5.08 2-10.38 1.41-15.62 1.5a4.11 4.11 0 0 1 -1.83-.2c-3.42-1.69-6.59-.31-9.86.58a33.05 33.05 0 0 1 -6.74 1.24c-6.69.37-13.4.88-20.09.7-9.33-.26-18.38 1.84-27.58 2.6-21.7 1.79-43.28 4.6-64.4 10.23a12.42 12.42 0 0 1 -4.59.67c-4.92-.63-9.46 1.19-14.06 2.18-2.83.61-5.3 2.81-8 4.22-1.46.77-3.13 2.16-4.5 1.94-3.83-.62-6.25 2.29-9.46 3.08-.29.07-.72.23-.78.44-1.13 4-4.91 3.08-7.57 4.05-6.55 2.41-13.53 3.88-19.7 7-3.88 1.94-7.53 4.85-11.69 5.94-6 1.58-9.59 6.38-14.62 9.2a200.64 200.64 0 0 0 -17.12 11.36c-2.34 1.65-4.16 4.05-6.5 5.72-2.69 1.93-5.82 3.25-8.53 5.16-3.37 2.39-6.55 5.07-9.74 7.71-2.43 2-4.74 4.18-7.1 6.28a17.12 17.12 0 0 0 -1.71 1.59 72.88 72.88 0 0 1 -5.11 5.94c-5.57 5.16-9.91 11.2-13.94 17.6-2.85 4.51-6.54 8.49-9.77 12.77-1.29 1.7-2.33 3.58-3.52 5.35-3.28 4.84-6.67 9.6-9.82 14.53a31 31 0 0 0 -2.43 5.8c-.74 2-1.12 4.15-2.13 6-3 5.41-6.17 10.7-9.34 16-.87 1.44-2 2.73-3 4.08a7.59 7.59 0 0 0 -1.37 1.84c-2.58 7.76-5.06 15.55-7.66 23.3a7.67 7.67 0 0 1 -2.06 3.49c-4.19 3.31-4.14 8.77-6.77 12.87-1.15 1.79-.86 4.45-1.41 6.67a22.8 22.8 0 0 1 -1.59 4.47 73.51 73.51 0 0 0 -5.9 15.66c-1.15 4.85-2.86 9.57-4.28 14.36a5.77 5.77 0 0 0 -.24 2.29c.69 5.4-1.79 10.08-3.2 15-1.88 6.59-3.72 13.2-5.18 19.89-1.24 5.66-2.07 11.43-2.78 17.2a14.59 14.59 0 0 0 .65 6.36 12.83 12.83 0 0 1 .2 8.45c-.47 1.49-.91 2.7.25 4.59s.26 4.73.27 7.17v4.9c0 1.08.27 2.14.38 3.21q1.41 14 2.85 28a3.19 3.19 0 0 0 .68 1.65c1.88 2.18 1.62 4.5 1.26 7.19-.94 7-.75 13.93 2.14 20.56a7.08 7.08 0 0 1 .53 1.75c.77 5.34 1.55 10.68 2.26 16a44.6 44.6 0 0 0 4.64 15.11 41.68 41.68 0 0 1 4.3 17 19 19 0 0 0 3.91 10.09 24.4 24.4 0 0 1 2.63 4.78c2.27 5.29 4.27 10.7 6.71 15.91 1.15 2.45 3.28 4.42 4.59 6.82 1.21 2.22 1.85 4.74 2.85 7.08a9.38 9.38 0 0 0 2 3.45c4.55 4 6.32 9.5 8.36 14.9a25.69 25.69 0 0 0 3.15 6c2.3 3.21 5 6.17 7.3 9.35 1.63 2.2 2.86 4.7 4.53 6.87a149.08 149.08 0 0 0 9.61 11.78 49.8 49.8 0 0 1 7.4 10.81 31.19 31.19 0 0 0 7 8.65c6.62 5.74 12.74 12.05 19.21 18 3.28 3 6.89 5.65 10.29 8.52 4.48 3.77 8.85 7.66 13.36 11.4a52.09 52.09 0 0 0 5.62 3.9c2.31 1.45 5.16 2.33 6.94 4.24 4 4.27 9.11 6.8 13.89 9.78 7.34 4.59 15 8.92 23.6 10.49 6 1.11 11.28 3.66 16.51 6.31 6.08 3.1 12.62 4.77 19.08 6.21 5.17 1.15 9.71 3.44 14.56 5.13 4.1 1.43 8.12 3.08 12.21 4.5 8.55 3 17.21 5.59 25.64 8.81 3.81 1.45 7.21 4 10.78 6a97 97 0 0 1 9.72 5.84c3.8 2.86 7.41 5.89 11.88 7.75 1.3.55 2.17 2.14 3.2 3.3s1.58 2.36 2.66 3.15c6.09 4.43 11.07 10.08 16.67 15.05 1.86 1.65 2.86 4.33 4.07 6.64 3.67 7 8.11 13.63 10.45 21.3.29.94 1.36 1.65 2 2.49a21.24 21.24 0 0 1 4.38 10.86c.41 3 .65 6.11 1 9.16z"></path><path d="m521 921c-.9-8.79 3.51-15.81 7.51-23a50.2 50.2 0 0 1 10.77-12.75c4.47-4 8-9.16 12.45-13.2 5.32-4.79 10.09-10.44 17.16-13a5.26 5.26 0 0 0 2.4-1.33c5.72-7.52 14.92-8.78 22.79-11.94 6.09-2.45 12.42-4.72 18.74-6.77s12.82-3.88 19.25-5.77a301 301 0 0 1 39-9.18c13.22-2 25.56-6.93 38.2-10.89 5.06-1.59 10.1-3.24 15.08-5.06 3.34-1.22 6.48-3 9.85-4.17 5.21-1.75 9.71-5.55 14.87-6.63 6.55-1.36 10.7-6.35 16.49-8.61a50.7 50.7 0 0 0 10-5.17c3.18-2.15 7-3.31 9.26-7.07 1.11-1.87 3.94-2.67 5.85-4.14 5.76-4.46 11.47-9 17.18-13.53 5.89-4.66 11.88-9.21 17.57-14.09 2.79-2.39 5-5.41 7.49-8.19a54.13 54.13 0 0 0 4.38-5.33c5.41-8 12.81-14.48 18-22.67-.14-4.34 4.17-5.62 6-8.66s4.22-6 6.15-9.11 3.52-6.37 5.4-9.48c2.34-3.89 4.87-7.67 7.23-11.55a39.17 39.17 0 0 0 2.93-5.59c2-4.78 3.77-9.63 5.64-14.45.72-1.85 1.4-3.71 2.19-5.52 1.45-3.33 2.34-7.15 4.6-9.81 3.83-4.53 4.32-9.87 5.45-15.18 1-4.69 2.28-9.33 3.4-14 .18-.74.18-1.53.33-2.28.35-1.79.2-4 1.21-5.29 4.22-5.41 3.31-11.64 3.48-17.75q.33-11.88 1-23.75c.12-2.22.28-4.37.18-6.63-.22-5.1-.21-10.4 2.1-15.25a2.13 2.13 0 0 0 .3-1.3c-1.59-5.24-.08-11.11-3.33-16a3.9 3.9 0 0 1 0-2.7c.77-3.09 2.24-6.12 2.38-9.22.17-3.61-.76-7.28-1.23-10.92a14.47 14.47 0 0 1 -.42-2.72c.18-2.59 1.55-5.72.53-7.61-1.24-2.32-.38-4.57-1.26-6.81s-.13-5.23-.29-7.87a27 27 0 0 0 -.89-4.49 28.16 28.16 0 0 1 -.11-12.59c.37-1.66-.38-3.6-.75-5.38-.91-4.32-2.47-8.61-2.64-12.95-.1-2.47-.19-5-.26-7.54a85.69 85.69 0 0 0 -4-24.4 5.86 5.86 0 0 1 -.61-2.64c1.2-5.92-2.17-10.66-3.78-15.89-1.47-4.78-4.44-9.31-3-14.82.31-1.17-1.11-2.75-1.61-4.18-1.16-3.3-1.87-6.8-4.76-9.24a2.68 2.68 0 0 1 -.88-2c.36-4.15-2.23-7.35-3.35-11-.81-2.66-1.55-5.33-2.34-8a6.39 6.39 0 0 0 -.79-2.09c-4-5.11-6.28-11-7.7-17.28a7.82 7.82 0 0 0 -1.46-2.27c-2.7-4-6.37-7.62-7.82-12s-3.73-7.39-6.11-10.91c-3-4.43-4.71-9.73-7.11-14.59-.85-1.72-2.18-3.2-3.2-4.84-2.36-3.81-4.19-8.06-7.1-11.38-4.74-5.42-7.76-12.15-13.66-16.75-4.1-3.19-7.31-7.53-10.89-11.38a5.28 5.28 0 0 1 -.94-1.61 4.84 4.84 0 0 1 1.52-6.24 4.65 4.65 0 0 1 6.37.72q8.73 9.45 17.23 19.1c8.71 9.85 14.93 21.4 22 32.38 2.86 4.45 5.56 9 8.37 13.48 1.25 2 2.47 3.73 1.16 6.38-1 1.94.53 3.81 2.31 4.5 2.35.92 3.12 2.71 4 4.74 2.21 4.95 4.64 9.8 7 14.71 3.59 7.6 7.23 15.17 10.7 22.82 2.68 5.93 5.27 11.91 7.63 18 .95 2.45.59 5.54 1.88 7.7 1.84 3.06 2.28 6.36 3.14 9.62 1.39 5.26 2.83 10.51 4.09 15.8 1.55 6.51 2.94 13.06 4.4 19.6.1.45.39 1 .28 1.35-1.5 5.34 1.58 9.57 3 14.3 1.49 5 1.46 10.44 2 15.7.31 2.92.49 5.85.74 8.77a14.6 14.6 0 0 0 .26 1.86c1 4.83-1 9.62.84 14.78 1.61 4.39.38 9.8.61 14.76.07 1.59 1.09 3.13 1.19 4.73.43 7.13.65 14.27 1 21.4.22 4.26-.58 8.46 1.43 12.76 1.27 2.73.84 6.48.47 9.69-.82 7.17-2.07 14.29-3.17 21.43-.12.73-.8 1.79-.53 2.12 2.71 3.22 1.33 7 1.07 10.32-.79 10.35-.54 20.89-4.78 30.76-1.31 3.05-2.69 6.39-2.71 9.61-.06 7-2.26 13.56-3.75 20.27-1.92 8.6-5.79 16.27-10.72 23.52-1.44 2.12-1.89 4.88-3 7.23a525.77 525.77 0 0 1 -28.43 51.49c-3.53 5.62-8.13 10.6-12.41 15.73-3.08 3.7-6.47 7.15-9.67 10.77-6.28 7.11-12.27 14.52-18.89 21.31-4.42 4.54-9.61 8.39-14.67 12.26-8.17 6.23-16.42 12.35-24.81 18.28-6.83 4.83-13.23 10.25-21 13.74-8.65 3.91-16.96 8.58-25.42 12.91a40.81 40.81 0 0 1 -3.85 1.64c-4.81 1.87-9.61 3.76-14.45 5.55a16.53 16.53 0 0 1 -3.17.53c-.75.13-2 0-2.19.43-1.84 3.58-5.46 3.54-8.49 3.73-5 .31-9.49 2.46-14.23 3.65-12.22 3.06-24.4 6.33-36.6 9.52a2.52 2.52 0 0 1 -.91.19c-8.41-1.15-15.39 3.08-22.74 6-2.59 1-5.35 1.62-8 2.48-1.92.61-4.08.95-5.68 2.06-7.28 5-16.19 6-24 9.73-6.88 3.28-14.43 5.18-20.64 9.93-2.55 1.94-5 4-7.62 5.88a22.08 22.08 0 0 1 -5 3.21c-3.8 1.42-6.51 4.08-9.33 6.8-4.45 4.3-9.25 8.25-13.73 12.52-6 5.72-10.74 12.23-12.44 20.6a74.91 74.91 0 0 1 -2.64 9.43 7.9 7.9 0 0 1 -2.39 3.32 2.65 2.65 0 0 1 -4.46-1.81c-.47-2.79-.47-5.62-.67-8.39z"></path><path d="m268.07 478.51c.12-2.55-.75-5.34 1.62-7.42-.93-4.31 2.86-8.13.95-12.84-.84-2.08.85-5.19 1.42-7.82.16-.74.82-1.62.59-2.16-2-4.75.58-9.49 0-14.13a32.56 32.56 0 0 1 1.57-14.26 7.82 7.82 0 0 0 -.06-2.59c-.14-2.31-.48-4.63-.4-6.93a86.77 86.77 0 0 1 1-12c.82-4.56-.41-8.6-2-12.7-1.4-3.69-2.68-7.44-4-11.17a3.17 3.17 0 0 1 -.26-2c2.47-5.1 4.76-10.33 7.78-15.1 1-1.56 3.87-2.43 6-2.67 4.42-.51 8.9-.31 12.64 2.77a3.22 3.22 0 0 0 1.62.75c4 .38 8 1.06 12 .9a33.65 33.65 0 0 1 13.57 2.14c3.35 1.28 6.31 3.64 9.34 5.67 4.06 2.72 8 5.64 12 8.37a11.63 11.63 0 0 1 4.91 8c.84 5.88 1.46 11.74.51 17.9a37.37 37.37 0 0 1 -5 14 26.47 26.47 0 0 1 -2.58 3.23c-3.13 3.68-2.56 7.44 1.55 10.06 7.81 5 12.86 11.86 16.29 20.57 2.14 5.43 1.5 10-1.42 14-2.51 3.44-6.66 5.64-9.93 8.57-2.66 2.38-6.76 2.76-8.44 6.63a4.65 4.65 0 0 1 -5 2.76c-1.06-.13-2.25.63-3.35 1.06-3.82 1.49-7.63 3-11.43 4.52-3.4 1.35-6.77 2.79-10.21 4a11.18 11.18 0 0 1 -4.07.56c-6.18-.23-12.35-.77-18.53-.82a44.82 44.82 0 0 1 -12.68-2 20.13 20.13 0 0 1 -3.33-1.48c-3.61-1.88-2.74-5.26-2.67-8.37zm28.06-17.86c0 5.89 4.63 10.09 9.51 8.92a122.8 122.8 0 0 0 13.08-3.74 32.45 32.45 0 0 0 16-11.62c3-4.1 1.6-8.93-3.17-11.28-1.61-.8-3.64-.81-5.16-1.71-7.37-4.38-15.64-5.57-23.84-7.05-1.68-.3-3.15.09-3.62 2a28.2 28.2 0 0 0 -.87 4.43c-.19 2.31 0 4.66-.25 7-.5 4.54-1.16 9.08-1.68 13.05zm9.16-73.4c-2.66-.23-4.7.21-4.56 3.61 0 .7-.6 1.39-.8 2.12-.94 3.44-.27 6.89.49 10.2.53 2.3 2.13 4.1 5 3.83.7-.06 1.44.44 2.19.56 2.7.45 5.46 1.36 8.12 1.12a32.07 32.07 0 0 0 8.72-2.48 8.69 8.69 0 0 0 5.2-6.46c.92-4.65-2.06-9.89-6.61-10.59-5.85-.9-11.81-1.3-17.75-1.91z"></path><path d="m468.79 411.92c-.5 3.74-.29 7.3-2 10.92-1.24 2.63-1.14 6-1.13 9.08 0 7.17-3 13-7.37 18.35-1.11 1.33-2.22 2.42-2.14 4.4a5.61 5.61 0 0 1 -1.15 3.41c-4.93 6.32-10.62 11.77-18 15.28-3.42 1.63-6.61 3.76-10.05 5.33-6.4 2.92-13.11 2.89-19.89 1.51-2.09-.43-4.22-.67-6.27-1.22-5.27-1.43-9.35-4.26-11.25-9.7a6.66 6.66 0 0 0 -2.16-2.41c-3.85-3.25-4.72-7.69-5.12-12.35-.45-5.2-1-10.41-1.5-15.57-.66-7.28-2.21-14.6-.59-22.14 1.05-4.91 2.46-9.75 3.31-14.65.47-2.7 1-5.42 1.59-8.1.31-1.33.32-2.88 1-3.95 5.25-7.8 9.06-16.48 16.78-22.7 4.61-3.72 9.87-6.28 14.44-10 3.74-3 8-2.47 12.26-1.13 1 .33 2 .75 3 1.05a23.25 23.25 0 0 1 13.79 10.07c1.45 2.22 4 3.77 6.23 5.43 3.77 2.86 8 5.2 10.41 9.54a17.82 17.82 0 0 1 2.65 8.66c.09 3.77 1.12 7.53 1.7 11.3.57 3.22 1.01 6.41 1.46 9.59zm-26.25 5.39c-.79-6.24-1.68-11.27-4.44-15.86-1.13-1.87-1.3-4.38-2.58-6.11-1.41-1.92-3.84-3.08-5.36-5a13.05 13.05 0 0 0 -9.38-4.87c-4.74-.4-7 1.75-9 6.22-1.7 3.89-.78 8.63-4 12-.26.27-.19.89-.22 1.35-.33 4.15-.59 8.3-1 12.44a16.79 16.79 0 0 1 -.91 3.51c-1.2 3.77-2.17 7.35-.48 11.43a56.22 56.22 0 0 0 6 11.17c2 2.88 5.21 3 7.79 4.43.41.23 1.37-.4 2-.74 1.73-.91 3.33-2.16 5.16-2.77a21.32 21.32 0 0 0 12.93-12.16c2.17-4.92 2.55-10.62 3.49-15.04z"></path><path d="m553.59 481.23a47.67 47.67 0 0 0 -5.36-1.11c-2.18-.22-4.29-1.1-6.63-.25a6.49 6.49 0 0 1 -4-.48c-6.81-2.54-13.08-5.87-17.12-12.32a4.38 4.38 0 0 0 -2-1.86c-1.83-.59-1.94-2-2.52-3.49-.83-2.05-.46-4.75-2.92-6a1 1 0 0 1 -.46-.77c1.21-5.35-3.19-10.62-.22-16a2.48 2.48 0 0 0 0-1.84c-1.74-4.52 0-8.67 1.26-12.88.13-.44.6-.86.55-1.25-1.17-9.35 2.08-17.95 4.9-26.52 2.87-8.74 7.54-16.46 15.6-21.65 2.27-1.47 4.33-3.33 6.5-4.93 4.8-3.53 9.53-2.11 14.43-1.67.91.08 1.94.62 2.7.35 4-1.45 7.86.12 11.79.1 5.46 0 10.7 1 15.05 4.62a21.52 21.52 0 0 1 4.6 4.93c2.58 4.11 4.82 8.43 7.19 12.68a5 5 0 0 1 .68 1.67c.67 5.28 2.87 10.25 2.88 15.7 0 5.72.82 11.45.65 17.17-.15 5.17-.43 10.53-2 15.4-1.36 4.36-4.49 8.15-6.86 12.19-.15.26-.56.42-.62.68-1.56 6.83-6.84 11.14-11 16.22-3 3.65-6.11 6.73-11.5 6.5a12.46 12.46 0 0 0 -6.86 2.17 17 17 0 0 1 -8.71 2.64zm23.82-63.23h-.4c0-3.28.17-6.56 0-9.82-.3-4.43-1.57-8.38-5.93-10.69-1.74-.92-3.17-2.43-4.8-3.57-3.45-2.42-7.46-4.52-11.44-3.23a15.75 15.75 0 0 0 -8.17 6.39c-2.3 4-6.06 7-6.74 12.28-.48 3.73-2.08 7.53-2.18 11.49-.12 4.36.22 8.75-.1 13.09-.32 4.19 1.77 7.36 3.58 10.72a28.4 28.4 0 0 0 2.27 3.85c1.88 2.46 3.76 5.16 7.51 4.34 2.06-.46 4.42-2.13 6-1.54 3.13 1.17 4.77-.84 7.06-1.75 7.68-3 10-10 11.87-16.84 1.26-4.72 1.06-9.81 1.47-14.72z"></path><path d="m776.45 479.31c-5.1-.26-9.76-1.06-13.21-5.39a12.46 12.46 0 0 0 -4.66-3.69c-4.6-1.89-6.84-5.9-9.58-9.54a44.84 44.84 0 0 0 -3.88-4.05c-4.26-4.33-4.73-8.07-.54-12.47a36.65 36.65 0 0 0 6.54-9.86 8.22 8.22 0 0 1 6.34-4.83c4.89-.78 7.59 1.56 7.7 6.63a18.12 18.12 0 0 0 2.71 10 17 17 0 0 0 11.63 7.46c2.46.46 5.27-1.24 8-1.59 3.57-.46 4.11-3.16 5-5.81a36.26 36.26 0 0 1 1.78-3.2 7 7 0 0 0 .87-3c-.19-4.47-.5-9-.91-13.41-.26-2.78-2.54-4.18-4.56-5.49-4.45-2.88-9.06-5.54-13.62-8.27a4.91 4.91 0 0 0 -2.06-1c-5-.13-9-2.95-11.93-6.16-4.52-4.88-10.06-9.17-12.36-15.79-.54-1.55-.17-3.39-.39-5.08-1-7.16 1.52-13.23 5.57-19 2.74-3.88 4.88-8.19 7.61-12.09a20 20 0 0 1 5-4.54c2-1.41 4.24-2.41 6.33-3.68a10.14 10.14 0 0 1 7.61-1.09c5.2 1.09 10.45 2.12 15.52 3.68a34.16 34.16 0 0 1 16 10c.57.65 1.42 1.05 2 1.7 1.6 1.81 3.52 3.34 2 6.43-.78 1.58-.4 3.83-.23 5.74a13.76 13.76 0 0 1 -2.27 8.68 9.88 9.88 0 0 1 -13.08 3.66c-2.24-1.27-4.51-2.47-6.67-3.86-.7-.46-1.06-1.44-1.62-2.14-1.53-1.92-3-3.91-4.66-5.71a6.64 6.64 0 0 0 -7.63-1.88c-2.12.94-4.8 2-4.6 5.6.15 2.63-1.72 5.45-1.3 8a7.28 7.28 0 0 0 4.66 5.8 73 73 0 0 1 7.12 2.87c1.37.63 3 1.28 3.82 2.44 3.82 5.66 10.53 7 15.6 10.81 3.7 2.76 7.6 5.26 9.1 10a4.91 4.91 0 0 1 .5 2.2c-.83 4.1 1.64 7.1 3.55 10.13 1.37 2.19 2.76 4 1.29 6.67a5.24 5.24 0 0 0 -.09 2.77c.63 6.95-2 12.74-5.72 18.45-1.82 2.78-3.14 5.81-5.59 8.26a36.86 36.86 0 0 1 -12 7.66c-5.17 2.22-10.5 4.07-15.81 6a34.69 34.69 0 0 1 -4.88.98z"></path><path d="m638.53 367c.88-1.28 1.88-2.1 2-3 .81-5.41 5.05-6.14 9.16-6.57a84.43 84.43 0 0 1 11.69-.05c5.16.18 7.56 4.2 10.2 7.78.91 1.22 1.64 2.59 2.48 3.94-5.69 5.8-5.54 13.27-5.17 20.67a5.77 5.77 0 0 0 2.68 3.91c1.69 1 3.23-.44 4.3-1.85a22.2 22.2 0 0 0 2.19-3.49 33.68 33.68 0 0 1 8.27-10.88 13.18 13.18 0 0 0 3.13-4.89 35.11 35.11 0 0 1 6.67-10.39 4.19 4.19 0 0 0 .68-1.66c1.34-4.59 4.23-6.34 8.72-4.83a33.77 33.77 0 0 1 6.88 3.5c3.31 2.07 3 3.44 2.28 7.16-1.17 6.65-5.69 10.65-9.69 15.27a93.51 93.51 0 0 0 -8.17 11.58c-2.05 3.23-3.7 6.72-5.58 10.07a24 24 0 0 1 -2.47 3.75c-2.7 3.21-3 4.38-.5 7.65a63.39 63.39 0 0 0 6 6.14 82.51 82.51 0 0 1 13.19 17.51c2 3.41 5.24 6 7.79 9.13a76.71 76.71 0 0 1 5.45 7.38c1.3 2.06.7 4.08-.34 6.32-2.17 4.68-4.57 9-9.94 10.47-1.58.45-3.56 1.26-4.84.71-3.87-1.65-7.94-3.37-8.78-8.37-.7-4.13-4.14-6.71-5.94-10.18-3.07-5.89-8.82-9.46-12.27-15a44.53 44.53 0 0 1 -2.37-3.9 2.94 2.94 0 0 0 -3.44-1.7c-1.76.23-2 1.46-2.22 3-.47 4.09-1.47 8.14-1.62 12.24a105.7 105.7 0 0 0 .73 12.42 10.68 10.68 0 0 1 -1.76 6.55 8.64 8.64 0 0 1 -5.49 4.33 35.66 35.66 0 0 1 -11.79 1.68c-2.49-.11-4.44-.87-5.54-3.32a7.6 7.6 0 0 0 -2-3c-5.24-3.87-3.1-8.66-1.92-13.41.58-2.34 1.37-4.76 1.3-7.12-.18-6.53 1-12.78 2.31-19.15 1-4.73.21-9.84.15-14.78 0-1.37-.44-2.74-.36-4.08.12-2 .78-3.94.74-5.9-.1-4.47-1.41-9.13-.52-13.36.94-4.5-.76-7.61-2.45-11.15a8.2 8.2 0 0 1 -.67-4c.2-2.82-.33-5.23-3.15-7.13z"></path><path d="m576 750.11a22.2 22.2 0 0 1 1.12-4.87 41.86 41.86 0 0 0 3.75-19.68c-.21-3.1.87-5.46 1.68-8.16 1-3.23 2.66-6.49 1.15-10.11-.29-.71.26-1.76.4-2.66s.61-1.92.36-2.71c-2-6.19.05-12.12.88-18.16.45-3.22 0-6.55.15-9.82.07-2.29.41-4.58.54-6.87a5 5 0 0 0 -.39-2.09c-.44-1.14-1.09-2.19-1.54-3.33-2.46-6.28 1.61-11.48 8.31-11.38 5.33.08 10.25.87 15 3.48a6 6 0 0 0 4.58.15c2.49-1 4.7-.26 7.11-.12 1.79.1 3.37 0 5 .94 4.12 2.33 8.41 4.4 12.44 6.88a15.76 15.76 0 0 1 3.95 4.21c1.12 1.52.66 3.21.52 5.09a31.06 31.06 0 0 1 -4.41 13.32c-1.81 3.18-4.6 4.3-7.59 5.45-.41.16-1.11-.13-1.36.12-1.3 1.24-3.22 2.43-3.54 3.94-.46 2.16 2.05 2 3.53 2.6 4.52 1.77 9.22 2.91 13 6.56 2.52 2.46 6.15 3.84 9.39 5.48 2 1 4.07 1.86 4.47 4.21.54 3.14 1.5 6.55.81 9.49-1.05 4.41-3.35 8.53-5.19 12.75a8.8 8.8 0 0 1 -1.88 3 118.26 118.26 0 0 1 -13.43 10.6c-1.56 1.06-3.62 1.37-5.4 2.13a62.69 62.69 0 0 0 -7.4 3.39c-2.29 1.34-4.49 2.11-7.14 1.44-.48-.13-1.1.43-1.67.51-2.33.33-4.6 1.21-7.05.33a5.56 5.56 0 0 0 -3.22.14c-4.36 1.32-8.65 2.85-13 4.14a14.7 14.7 0 0 1 -10.93-1.18c-2.92-1.48-2.89-5.13-3-9.21zm65.33-28.17c-4.11-3.55-8-7.07-12.06-10.26-1.22-.95-3.15-1-4.78-1.36-3.28-.66-6.55-1.36-9.86-1.78-3.92-.51-7.09-3.1-11.31-3.26-2.69-.1-4.82-.32-6.4 1.79a9 9 0 0 0 -2 6.73 35 35 0 0 1 -1 11.65c-1 4.31-2.15 8.55-1.92 13 .15 3 4.41 6.49 6.78 5.37 4.17-2 8.69-1.54 13-2.6s9.29-1.07 13.09-3.16c5.65-3.09 12.51-5.39 14.53-12.86a14.5 14.5 0 0 1 1.9-3.26zm-12.88-47.77a26.72 26.72 0 0 0 -3.21-3.29 16.82 16.82 0 0 0 -4-2c-4.11-1.49-7.84-4.42-12.63-3.49-1.64.32-3.28.73-4.95.91-3.71.41-5.69 2.68-6 6.57a93.63 93.63 0 0 1 -1.47 10.42c-1 5 2.76 8.78 7.49 7.14a24.13 24.13 0 0 0 6.74-3.67 68.59 68.59 0 0 1 13.22-8.2 7.54 7.54 0 0 0 2.05-1 42.12 42.12 0 0 0 2.73-3.39z"></path><path d="m414.28 579.27c2.36-1.82 3.68-3.5 3.72-6.43a30.53 30.53 0 0 1 1.93-8.9c1.35-4.19 3.05-8.26 4.61-12.38a13.27 13.27 0 0 0 .77-2.13 8.63 8.63 0 0 1 7-6.69c2.16-.25 7.34 2.83 7.72 5.16.47 2.9.9 6.15 0 8.82a7.23 7.23 0 0 0 .67 6c4 5.81 4 12.74 6.13 19.05.19.57.07 1.29.37 1.78s1 1.13 1.37 1.06a2.64 2.64 0 0 0 1.73-1.22 12.13 12.13 0 0 0 .31-2.75 15.47 15.47 0 0 1 .68-3.56 54.74 54.74 0 0 0 4.09-14.43c.26-2.39 1.26-4.68 1.83-7 1.27-5.16 2.45-10.34 3.76-15.49.21-.83 1-1.5 1.41-2.32 1.73-3.58 3.34-7.22 5.12-10.78 1.65-3.31 3.51-6.38 7.53-7.42 4.77-1.24 10.8 2.18 10.84 7a7.64 7.64 0 0 1 -3.29 6.73c-3.37 2.13-4.63 5.65-5.85 9.27-.69 2-2.18 3.75-3.13 5.69-1.32 2.71-2.25 5.63-3.75 8.22-2.44 4.21-2.66 8.7-2.43 13.34a4.84 4.84 0 0 1 -.23 2.29c-2.88 5.87-3.54 12.42-5.83 18.48-1.27 3.37-1.51 7.11-2.37 10.65-.92 3.78-2 7.53-3.05 11.28-.86 3.07-1.69 6.16-2.73 9.17s-5.4 4.81-7.91 3-5.08-4.12-5-7.9.47-7.62-2.37-11c-.85-1-.5-3.21-.4-4.85a39.37 39.37 0 0 0 -3.18-17.38c-.93-2.32-3.21-4.88-1.75-8.1.31-.68-.8-2.24-1.57-3.13-1.1-1.26-2.46-.77-2.86 1-.69 3-1.2 6-1.94 8.94-.49 1.91-.8 4.13-2 5.55-3.55 4.25-3.7 9.56-5 14.47-1.65 6.23-2.62 12.63-4.2 18.87-.93 3.65-4.07 5.9-6.9 5.66-3.06-.26-5.61-2.52-6.18-6.35a52.85 52.85 0 0 1 -.81-12.4 29.86 29.86 0 0 0 -.93-9.71 44.41 44.41 0 0 1 -1-12.39c.26-4.16-.66-7.88-1.52-11.87-1.53-7.13-4.7-13.86-4.49-21.53.1-3.71-.28-8.23-2.17-11.56-2.44-4.29-2.13-8.9-3-13.32-1.06-5.12 3.11-9 8.23-8.42 3.1.34 4.5 2.72 5.36 5.13 1.64 4.56 2.74 9.31 4.21 13.94a17 17 0 0 1 .5 7.3c-.38 3.73 1 7.69 2 11.48 1.18 4.84 2.61 9.61 4 14.4.41 1.43 1.32 2.64.28 4.36-.38.53 1.03 2.14 1.67 3.32z"></path><path d="m559.23 576.59c2.25-2.08 5.06-3.45 4.7-7.06a1.78 1.78 0 0 1 .32-1.32c6-5.14 3.8-12.93 6.12-19.26 1.1-3 1.64-6.09 3.82-8.65a5.92 5.92 0 0 1 6.19-2.18 5.71 5.71 0 0 1 4.48 3.94c.91 2.28 2 4 .65 6.35a2.65 2.65 0 0 0 0 1.38c.29 3.54.93 7.09.83 10.62-.18 6.85 2.47 12.78 5.21 18.72.46-.07.92 0 1-.18 3.25-5.06 4.53-10.85 6-16.55.65-2.49.89-5.15 1.94-7.46 2.55-5.62 4.85-11.22 4.68-17.56 0-1 .76-1.91 1.12-2.89a20.11 20.11 0 0 0 1.56-4.7c.46-4.72 3.85-9.17 8.24-10.36 3.31-.9 7.5 1.85 8.72 5.18 1.41 3.81.47 6.79-2.22 9.51-2.44 2.46-3.48 5.56-4.49 8.83a53.07 53.07 0 0 1 -5 11.57c-1.69 2.82-1.77 5.78-2.34 8.72-.79 4-1.13 8.19-2 12.21a29.79 29.79 0 0 1 -2.8 7.6c-3.24 6-3.69 13.21-8.46 18.57-1.12 1.25.22 3.91-1.62 5.35.69 4.49-2.92 7-5 10s-8.81 1.8-10.56-1.38c-.33-.6-.51-1.88-.19-2.13 2-1.58.79-2.74-.2-4.15-1.37-2-.36-4.08-.1-6.12.1-.85 1.11-1.92.84-2.43-2.41-4.53-.84-9.51-1.8-14.15-.7-3.37-2-6.63-3-10.17-.88.83-2.07 1.42-2.13 2.11-.27 3.3-2.45 5.53-4.11 8a24.76 24.76 0 0 0 -3.72 12.5c-.24 4.32-2.4 7.92-4 11.7-.9 2.08-2.61 3.82-3.41 5.92-1.51 4-5 5.16-8.38 6.39-1.9.68-4.66-1-5.51-3.3-1.28-3.5-1.86-7.06-.26-10.75.67-1.52.64-3.37.82-5.08a63.16 63.16 0 0 0 -1.39-23.58c-.68-2.53-1.57-5.53-.45-8.43.22-.59-.19-1.47-.41-2.18a87.61 87.61 0 0 1 -3.48-20.32c-.21-3.73-.08-7.53-.82-11.16a69.87 69.87 0 0 0 -2-7.91c-1.26-3.77-.12-7 .5-10.4.48-2.65 6.39-5.22 9.2-4.37s5 4.75 4.48 7.76c-.13.71-.63 1.47-.48 2.09 1.05 4.42 3 8.79 3.14 13.23s2.38 8.84 1.75 13c-.53 3.54.7 6.62.47 9.93a11.23 11.23 0 0 0 .48 3.63c.84 3.66 1.84 7.26 3.07 11.37z"></path><path d="m261.47 560.33c-3.69 2.52-3.27 6.08-3.29 9.32 0 1.91.95 3.82 1.34 5.76a10.91 10.91 0 0 1 .08 2.8c-.29 4.62-.19 9.31-1.05 13.83-.74 3.9.6 8.48-3.14 11.63a2.16 2.16 0 0 0 -.43 1.73c.78 4.7-2.58 7.37-5.19 10.25-3.06 3.36-6.33 3.77-9.45 1.71a7.9 7.9 0 0 1 -2.34-10.28c1.88-3.05.9-7 3.64-9.63a1 1 0 0 0 .16-.88c-2-3.89.22-7.07 1.72-10.38a2.86 2.86 0 0 0 .19-1.36c-.47-4.43-.87-8.86-1.52-13.26-.28-1.88-.62-3.52.71-5.24a5.57 5.57 0 0 0 .79-3.47 61.05 61.05 0 0 1 3.17-22.72 3.84 3.84 0 0 0 .38-1.7c-.93-5.4-1.92-10.8-2.93-16.19-.43-2.28 1.62-7.11 4.17-7.92 2.2-.7 5.71-1.19 7 0a29 29 0 0 1 6.75 9.69 55.92 55.92 0 0 0 4.77 9.26c3.62 5.4 7.07 11 6.75 18 0 .89.83 1.89 1.42 2.74 1.92 2.75 3.67 5.42 4.5 8.87 1.13 4.7 3.18 9.19 5 13.72.27.68 1.22 1.09 1.85 1.63.41-.69 1.15-1.36 1.18-2.06.12-3.43-.21-6.89.13-10.29.48-4.86 1.43-9.67 2.12-14.51.53-3.7 2.82-7.28.75-11.17a1.78 1.78 0 0 1 0-1.38c2.72-6.26 1.74-13 2.7-19.52.59-4.07 6.25-8.12 10.65-7.48 4.72.68 8.33 6.23 7 11.28-1.14 4.39-2.9 8.63-4 13-1.31 5-2.21 10.12-3.35 15.18a46.74 46.74 0 0 1 -1.7 5.71c-1.26 3.44-2.51 6.83-.53 10.43a2.35 2.35 0 0 1 .23 1.36q-.92 6.57-1.9 13.15c-.25 1.66-.65 3.29-.86 4.95-.35 2.73-.62 5.48-.87 8.22a22.43 22.43 0 0 0 .1 2.31v4.8a27.35 27.35 0 0 0 -.07 5.11c1.11 6.08-.61 11.06-5.35 15-3.35 2.77-5.19 2.27-7.95-1.06-3.42-4.15-4.13-8.8-4.33-13.95a19.71 19.71 0 0 0 -2.87-8.54 40.92 40.92 0 0 1 -5-12.61 26.62 26.62 0 0 0 -2-5.58 50.72 50.72 0 0 1 -3.76-10.75c-.64-3.43-1.79-7.15-5.37-9.51z"></path><path d="m580.19 287.76a48 48 0 0 1 -7.24 1.16c-4.33 0-8.66-.38-13-.49a3.37 3.37 0 0 0 -2.31.82c-2 2.18-4 4.45-5.87 6.82a5.7 5.7 0 0 0 -.95 2.94 36.67 36.67 0 0 1 -1.88 10.47c-1.73 4.64-2.89 9.54-5.82 13.65a12 12 0 0 1 -9.27 5.14c-4.81.3-7.45-3.17-5.76-7.71 1.47-4 3.57-7.7 5.15-11.64 1.91-4.76 3.54-9.65 5.36-14.45 1.5-4 3.34-7.82 4.57-11.87s2-8.56 3-12.85a15.45 15.45 0 0 1 .79-2.56c.22-.55 1-1.21.89-1.52-2.51-5.62 2.87-10.12 2.18-15.52-.14-1.09 1.08-2.43 1.82-3.55 1.58-2.4 3.27-4.74 4.9-7.1a2.2 2.2 0 0 0 .47-.78c.7-3.69 1.47-7.38 2-11.1.75-5.16 1.16-10.36 2-15.5.75-4.52 4.35-6.87 7.91-9 1.52-.92 6.49 1.25 8.1 3.28 1.91 2.43 2.45 5.53 4.17 8.19 2 3.13 2.2 7.48 3.12 11.32.67 2.81 1 5.76 2 8.42 1.08 2.82 2.32 6 4.45 7.88s.84 4.27 2.47 5.8c-1.38 4.64 2.38 7.5 3.88 11.13.23.55 1 .94 1.06 1.48.74 4 1.47 8.09 2 12.15.74 5.15 1.14 10.37 2.1 15.48a16.1 16.1 0 0 0 2.89 6.12c4.1 5.67 5 12.34 6.27 18.89.81 4.05-1.43 6.59-4.48 8.35a20.7 20.7 0 0 1 -6.5 2c-1.87.35-4.73-2.05-4.85-4.11a27.57 27.57 0 0 1 .38-6.91c.57-3 .81-5.73-.4-8.58-1.71-4-2.53-8.51-5.8-11.82-3.9-4-4.1-4.13-9.8-4.43zm-21-20.08v.81c0 6 1.8 7.38 7.71 6.58 2.09-.28 4.28.27 6.42.4a54.51 54.51 0 0 0 7.85.33c3.76-.34 5.34-3.12 4.57-6.76-.86-4.12-3-7.52-5.36-10.88a9.29 9.29 0 0 1 -1.47-3.66c-.47-2.69-.78-5.41-1-8.12-.26-3.3-3.19-4.84-4.7-7.3-1.7-2.75-3.61-2.18-4.69 1.12a24 24 0 0 1 -4.17 7.93c-1.71 2.15-4 5.18-2.18 8.7a2.14 2.14 0 0 1 0 1.45c-2.73.63-.06 3.41-1.72 4.31-2.45 1.41-.57 3.69-1.24 5.09z"></path><path d="m402.65 679.41c.39 5.39.67 10.79 1.2 16.16.4 4.11 4.19 6.15 8.84 4.09 6.39-2.84 12.24-1.31 18.25.79 1.72.6 3.55.87 5.27 1.47 2.36.83 2.76 2.33 2.6 4.88-.31 5.11-3.91 7.36-7.69 9.37-3.56 1.9-7 0-10-1.55-2.79-1.46-5.12-2.67-8.47-1.67-2.3.68-5 .07-7.45.18-3.06.14-4.34 1.73-4.15 4.81a16.82 16.82 0 0 1 -.15 2.92c-.24 2-1.29 4.2-.67 5.79 1.45 3.68.28 7-.45 10.37-.88 4.12 1 6.9 5.18 7a73.81 73.81 0 0 0 17.43-1.62c5.06-1.12 10.44-.79 15.67-1.21a20.11 20.11 0 0 0 5.36-1c4.17-1.55 8.63.4 8.82 4.86.16 3.68-.3 8.23-2.39 10.93a10.83 10.83 0 0 1 -11.23 3.61c-4.27-1.08-8.51-2.53-12.86-3-3.09-.37-6.32.75-9.5.88-4.27.16-8.55 0-12.83 0-.45 0-.9-.26-1.35-.23-3.85.26-7.72.43-11.55.9a13.5 13.5 0 0 1 -8.79-2.11c-1.57-.94-2.28-6.28-.72-8.17 3.29-4 3.31-8.78 4-13.41.68-4.28 1.89-8.54 1.08-13 2.9-2.6 1.28-5.6.89-8.58s.94-5.78.25-9c-.44-2.07 1.71-4.68 2.64-7.07.32-.83.89-2.33.64-2.51-2.91-2-.38-5.06-1.48-7.58-1-2.24-.28-5.22-.23-7.87.09-5.13.65-10.22-.83-15.33-.62-2.15-.25-4.71.17-7a4.71 4.71 0 0 1 2.39-3.15c3.2-1.16 6.47-2.08 10.08-1.29 4.22.91 8.31 2 12.94 1.52a76.79 76.79 0 0 1 10.79-.43 60.2 60.2 0 0 0 9.29-.41c4.74-.53 8 2.7 6.46 7.13-.86 2.49-1.78 5.21-4.7 6.53-2.41 1.09-4.37 2.12-7.34 1.08-2.5-.87-5.55-.28-8.35-.15-4 .19-8 .69-12 .77-2.78 0-4.69 1.2-4.86 3.82s0 5 0 7.48z"></path><path d="m611.63 296.62c-.11-6.24 1.43-11.19 5.93-14.94 2-1.69 4.46-3 6.75-1.66s4.7 3.16 4.21 6.62a36 36 0 0 0 -.61 7.3 9.71 9.71 0 0 0 1.82 4.91c2.53 3.32 5.64 6.19 9.79 7.28 6 1.56 11.63-.06 16.56-3.27a31.13 31.13 0 0 0 8-8.06c1.34-1.87 2.69-4.4 1.2-7.25-.82-1.57-.74-3.58-1.31-5.31-1-3.06-2.29-5.95-4.89-8.18-1.84-1.58-3.14-3.77-4.82-5.57a20.76 20.76 0 0 0 -3.54-2.92 41.74 41.74 0 0 0 -5.83-3.45 10.33 10.33 0 0 0 -4.82-1.12c-2.72.2-4-1.12-4.83-3.35-.38-1-.55-2.23-1.25-2.85-5.51-4.9-5.88-11.72-7.6-18.23a58.9 58.9 0 0 1 -1.66-13.64 7.66 7.66 0 0 1 2.55-6.19c3.7-3.42 7.14-7.22 11.25-10.06 3.17-2.2 7.15-4.31 10.84-4.43 4.85-.15 10.13.62 14.36 3.66a108.77 108.77 0 0 1 8.36 7.31c3.2 2.84 4.71 6 3.4 10.54a17.19 17.19 0 0 0 .09 8.34c.57 2.46-.42 4.39-.91 6.5a3.11 3.11 0 0 1 -3.24 2.7c-2 0-3.55-.66-4.19-2.3a54 54 0 0 1 -2.21-7.87c-1.47-6.39-4.14-11.84-10.74-14.38-.57-.22-1.34-.81-1.65-.62-3.53 2.14-8.06 1.65-11.35 4.53a9.56 9.56 0 0 0 -2.63 9.87c1.79 5.26 4.75 9.82 8 14.24.73 1 1.81 2.62 2.58 2.54 5.11-.53 7.13 3.95 10.32 6.27 4.3 3.14 9 5.79 12.51 10.06 2 2.43 3.69 4.82 4.24 8a20 20 0 0 0 1.42 4.34c2.29 5.37 1.77 10.84.51 16.29-.67 2.92-2.76 5.5-2.06 8.77a1.76 1.76 0 0 1 -.54 1.23c-3.21 3.54-4.82 8.63-10 10.31-.68.22-1.18 1-1.78 1.46a34.94 34.94 0 0 1 -14.51 7.09 9.91 9.91 0 0 1 -2.49 0c-1.08-.05-2.37-.55-3.2-.12-3.6 1.86-6.89-.24-10.32-.43-4.91-.28-7.56-3.71-10.48-6.8-2.55-2.69-4.78-5.69-7.45-8.24s-4.41-5.61-3.78-8.92z"></path><path d="m682 531.82c-2.41-.43-4.85-.7-7.21-1.32a67.37 67.37 0 0 0 -20.2-1.78c-2.93.14-4.61 2.69-3.22 5.25 1.53 2.81 1.33 5.63 1.48 8.55.22 4.16.53 8.32 1 12.47.11.92.83 2.3 1.56 2.52 2.89.88 5.58 2.68 8.86 2.1a5.46 5.46 0 0 1 3.19.3c3.19 1.59 6.56 1.4 9.95 1.62a14.87 14.87 0 0 1 6.51 1.72c2.26 1.34 4.11 3.65 3.45 6.58a10 10 0 0 1 -6 7.55c-3.92 1.64-7.27 1.1-11-.86-3.15-1.64-6.92-2.29-10.5-2.82-3-.44-5.62 1.2-5.62 4.08 0 3.52-2.86 6.48-1.48 10.07-2.27 3.48.29 6.88.24 10.35 0 2.83 3.84 5.08 7 4.09a8.22 8.22 0 0 1 4.84.16c3.42.79 6.65 2 10.56 1.42 3.4-.51 7.17.15 10.79.18 4.33 0 9.86-.77 13 4.17.38.59 1 1.32.92 1.85-1 5.13-2.49 10.28-8.3 11.82-2.19.59-4.79-.34-7.19-.62a55.54 55.54 0 0 0 -6.36-.8c-5.12 0-10-1.31-15-2.19a55.21 55.21 0 0 0 -13.84-.23 16.4 16.4 0 0 0 -8.87 3.07c-2.41 1.79-7.32-.44-9-3-1.79-2.74-2-7.92.52-9.89 3.5-2.72 3.7-6.48 4.77-10.07a2.63 2.63 0 0 0 .07-1.39c-1.71-5.85.85-11 2.63-16.26a6.59 6.59 0 0 0 .19-2.31c-.13-4-.34-8-.44-12.05a28.26 28.26 0 0 1 .37-3.4c.3-3 1.09-6.16.72-9.12-.25-2-.81-3.77 0-5.79a7.44 7.44 0 0 0 .25-3.67 115.78 115.78 0 0 0 -2.37-13.54c-1.13-4.17-.06-8.08 1-11.8.7-2.5 3.53-4.38 6.65-4.16 3.81.26 7.62.8 11.42 1.26.75.09 1.6.7 2.19.49 5.57-2 10.86.15 16.29.73 2.26.24 4.76-.83 7-1.65 2.7-1 5.46-1.84 7.86.12 2.64 2.16 3.09 5.2 1.93 8.42a29.69 29.69 0 0 1 -1.82 4.56c-2.01 3.52-5.46 2.99-8.79 3.22z"></path><path d="m315.1 603c1.07-2.77-.55-4.89-.58-7.5-.07-6-2.13-11.95-.71-18.15.49-2.14-.58-4.59-.44-6.86a59.27 59.27 0 0 1 1.34-10.3c.91-3.82 2.8-7.28 3.23-11.4.34-3.25 2.88-6.26 4.4-9.39a8.45 8.45 0 0 0 .92-2.51c.52-4 3.18-6.54 6-8.95 1.17-1 2.72-1.66 3.56-2.86 3.42-4.86 9.1-5.42 13.93-7.55a3.93 3.93 0 0 1 3.17.16c5.29 3.27 12 4.31 15.54 10.41 1.68 2.88 5.23 4.91 6.23 7.9 1.92 5.7 5.44 10.9 5.8 17.1a16.69 16.69 0 0 1 -.2 3.23c-.13.9-.7 1.8-.61 2.65.35 3.57 1.3 6.92-.74 10.59-.89 1.6.32 4.5-.09 7a33.22 33.22 0 0 1 -1.78 7.06c-.71 1.8-1.58 3.72-.8 6.19.54 1.71-.76 4.31-1.84 6.16-1.87 3.21-4.26 6.13-4.42 10.07-4.43 4.16-6 10.69-11.7 13.89-1.49.83-2.22 2.93-3.6 4.08-4.69 3.86-10.56 5-16.22 6.52a5.63 5.63 0 0 1 -4.32-1.1 79.92 79.92 0 0 1 -10.26-9.35c-1.46-1.67-2-4.45-2.21-6.81-.25-2.53-.53-4.8-2.26-6.83-.74-.89-.9-2.27-1.34-3.45zm25.34 7.47c1.56-.47 3.56-.47 4.67-1.47a150.21 150.21 0 0 0 10.43-11.12c.91-1.05.69-3.07 1.6-4.12 5.36-6.27 6.19-13.83 6.34-21.54.07-3.21-.62-6.43-.82-9.66a16.56 16.56 0 0 1 .51-3.14 8.76 8.76 0 0 0 .29-3.18c-.89-3.52-1.35-7.4-3.19-10.39-2.83-4.6-5.39-9.63-10.39-12.57a5.86 5.86 0 0 0 -6.09-.2c-4.37 2.36-6.89 6.76-8.93 10.72s-3 8.48-5.16 12.49-1.47 8.19-1.52 12.23a85.46 85.46 0 0 1 -.6 10.28c-.22 1.67-.57 2.55.87 3.86.48.43-1.36 2.87-1.24 4.31.49 5.86 2.69 11.33 4.65 16.79 1.3 3.57 3.63 6.9 8.58 6.74z"></path><path d="m348.11 699.78c2.26.38 4.52.83 6.79 1.15a74.38 74.38 0 0 0 14.62.15c2.82-.16 6.26-.36 8.09 2.89s0 7.88-3.83 10.06c-2.92 1.64-5.91 3.13-8.92 4.6s-4.87 2.93-5.66 7a53.6 53.6 0 0 1 -9.11 21.88c-2.15 2.93-3.64 6.69-6.41 8.73-3.61 2.67-6.9 6-12.08 6.6-13.24 1.66-23.38-7.71-27.09-16.8-2.12-5.21-4.39-10.56-4.74-16.47-.21-3.57-1.42-7.06-.84-10.73.43-2.72.23-5.63 1.08-8.19 1.67-5-.43-10.61 2.61-15.33-1.2-4.82.89-9.17 1.94-13.67s2.52-8.89 5.89-12.7c3.11-3.5 5.2-7.87 8.65-11.3 3.66-3.63 8.26-4.79 12.81-6.41 6.88-2.45 12.42 1.08 17.5 4.46 4.55 3 6.23 8.41 5.6 13.92-.6 5.19-4.76 6.66-8.67 3.17a23.17 23.17 0 0 1 -4.24-5.42c-1.81-3-4-4.22-7.54-3.12-2.17.68-4.55.63-6.79 1.12a5.59 5.59 0 0 0 -2.7 1.51c-1.58 1.66-3 3.52-4.44 5.3-.29.35-.77.67-.85 1.07-1.58 7.89-5.82 15.12-5.08 23.64.36 4.18-.93 8.5-1.42 12.76-.14 1.22-.55 2.66-.07 3.63.79 1.61.52 2.78-.07 4.34-.53 1.38-1.3 3.21.76 4.42.26.16.06 1.2 0 1.82-.17 1.29-.93 2.78-.53 3.83 1.8 4.66 3.74 9.29 6 13.75 2.59 5.13 9.7 6.94 14.68 4.26 4.11-2.21 6.36-6.17 9.4-9.38.52-.55.25-1.78.48-2.66.44-1.6.63-3.43 1.57-4.68 1.15-1.52 1-2.52.91-4.41-.22-2.91-.52-4.61-3.12-6.36s-4.27-3.1-7.46-1.65c-2.34 1.06-5-1.21-5.9-4.41-1.28-4.45 2.15-10.46 6.67-11.16 3.79-.58 7.66-.66 11.5-1z"></path><path d="m329.19 336.53c-7.7-2.22-6.42-9-7.69-14.4-1-4.24.37-9.06-3.32-12.65-.31-.3 0-1.36.17-2 1.54-4.82-.07-6.74-5.26-6.31-4.3.36-8.61.84-12.91.87-3.37 0-6.74-.53-10.11-.83-4.59-.42-8.22.53-11 4.95a67.32 67.32 0 0 0 -7.32 17.17 25.05 25.05 0 0 1 -2.75 5.67c-1.27 2.08-3.22 2.57-5.52 1.74s-3.28-2.17-2.92-4.57a16.61 16.61 0 0 1 .35-3.21c1.59-4.27 3.41-8.46 5-12.73 1.74-4.7 3.54-9.39 4.87-14.21.89-3.22 2.14-6.06 4.64-8.25a5.74 5.74 0 0 0 2.06-4.88 20.41 20.41 0 0 1 2.52-10.51c1.42-2.63 1.45-6.09 3.08-8.52 2.73-4 2.1-8.73 3.49-13a36.34 36.34 0 0 1 3.6-7.52c2.35-4 5.17-7.9 5.16-13.08 0-3 1.28-6.4 4.44-7.51s5.82.49 8.33 2.75c4.39 3.94 5.69 8.85 5.66 14.42 0 1.61-.19 3.53.57 4.77 1.69 2.76 1.31 5.65 1.49 8.55a7.9 7.9 0 0 0 .9 2.51c2.06 4.58 5.3 9 5.91 13.78.78 6.12 4.66 10.91 5.46 16.85.2 1.44 1.32 2.75 1.94 4.15 1.24 2.83 2.48 5.66 1.16 8.84-.16.39-.39 1.08-.22 1.24 2.69 2.57 1.65 5.87 1.56 8.84a10.33 10.33 0 0 0 2.25 7.26c3.35 4 2.28 8 .53 12.27-1.31 3.3-2.75 6.41-6.12 7.55zm-15.27-55.78a2.44 2.44 0 0 0 -.08-1.14c-1.35-2.53-2.81-5-4.16-7.52-.84-1.58-2.08-3.21-2.19-4.87-.21-3.25-.05-6.31-2.69-8.94-1-1-.82-3.15-1.17-4.78a13.3 13.3 0 0 0 -.7-3.08 3 3 0 0 0 -1.83-1.54c-.53-.1-1.74.66-1.77 1.1-.37 5-5 8.23-5.48 13.33-.32 3.17-2.39 6.12-3.26 9.28-.65 2.37-1 4.73-2.81 6.6-.56.57-1.14 2.06-.86 2.36 1.5 1.67 3.2 4.3 4.95 4.39 5.55.31 10.79 3.39 16.67 1.33 3.13-1.1 5.46-2.78 5.38-6.52z"></path><path d="m357.71 324.08q1-8.22 2-16.44a8.29 8.29 0 0 0 0-2.33c-1-6.32.06-12.62.12-18.93.08-9.44-.38-18.75-2.76-27.92-.18-.67.23-1.48.32-2.22.13-1.05.7-2.45.24-3.09-2.21-3.07-1-6.24-.75-9.41.12-1.55.06-3.12 0-4.68a7 7 0 0 0 -6.36-7.12c-2.16-.21-4.51-.5-6.5.13a9.31 9.31 0 0 1 -5.26 0c-2.54-.56-5.48-.21-6.16-3.55-.84-4.06-.49-7.57 3-10.86 4.91-4.61 10.22-2.5 15.47-2.15 3.69.25 7.22 2.64 11 1.57 4.84-1.39 9.68 1.15 14.65-.78 2.56-1 6 .13 9.05.63 4.81.8 9.55 2 14.35 2.81 5.1.84 7.38 3.64 8.39 8.78s-1.3 7.66-5.11 9.8-7.39 1.6-10.93-.36c-3.18-1.76-6.22-3.77-9.4-5.52s-8.88-.45-10.2 2.37a8.08 8.08 0 0 0 -.4 3.78c.19 2.87 1.21 5.74-1 8.42-.47.58-.27 2.06.1 2.92a26.67 26.67 0 0 1 2.18 11.66q-.21 6.54 0 13.09c.07 2.28.56 4.54.81 6.82a6.58 6.58 0 0 1 0 2.79c-1.56 4.3-.11 8.32.48 12.56.6 4.4-.44 9-.72 13.55a8.87 8.87 0 0 0 .2 2.41c.28 1.3 1 2.58 1 3.87.1 6.38-4.65 13.59-10 15.45-3.08 1.07-7.34-1.52-7.68-4.71a32.41 32.41 0 0 1 0-3.27z"></path><path d="m692.21 216.43 17.73-.9c.13 0 .28-.28.38-.25 7.69 1.76 15-2.12 22.77-1.33 5.21.53 10.58-.34 15.87-.68 4.48-.29 8.36 3.36 7.75 7.5a4.48 4.48 0 0 1 -1.13 2.39c-2.4 2.42-5.22 3.12-8.75 3.56-3.91.49-8.3-.91-12 1.95-.91.71-2.7.37-4.08.34s-2.93-.85-3.82-.32a13.15 13.15 0 0 0 -3.8 4 9.92 9.92 0 0 0 -.72 10.33 17 17 0 0 1 1.06 4.91c.53 3.68 1.14 7.37 1.35 11.08.11 1.93-.84 3.92-.79 5.87.13 5.86 1.39 11.85.51 17.52-.64 4.16.51 7.87.48 11.8s.6 8.1-1 12a2.54 2.54 0 0 0 0 1.84c2.88 6.13-2.38 10.07-4 15-.15.44-1 .69-1.51.95-4.57 2.22-11.82-1.9-12.23-7a3.31 3.31 0 0 1 .16-1.36c1.85-5.45 2.08-7.05 1.66-12.13 0-.16-.07-.37 0-.46 2.89-3.41.35-6.77 0-10.19-.16-1.77.47-3.6.73-5.41a71.73 71.73 0 0 0 .42-18.47c-.54-5.06-2.12-10.12-1.33-15.37.34-2.24-1.16-5.12-.21-6.8 1.57-2.8.52-5.21.22-7.69a37.69 37.69 0 0 0 -2.14-7.86c-.36-1-1.24-1.18-2.62-.8a54.23 54.23 0 0 1 -11.64 2.15c-2 .09-4.28-1.29-6.17-2.44-2.28-1.4-1.45-3.43-1-5.72.58-2.75 1.53-5 3.64-6.69 1.32-.97 2.61-2.39 4.21-1.32z"></path><path d="m690.3 746.22c.3-1.32.92-3.53 1.26-5.78.43-2.75 2.78-5.36.73-8.32 2-3.63.66-8 2.37-11.59a14.48 14.48 0 0 0 -.2-13c-1.69-3.61-2.53-7.8-6.32-10.12-1.66-5.25-4.86-9.49-8.66-13.35-2.07-8.92-9.61-13.65-15.21-19.86a18.84 18.84 0 0 1 -2.78-3.11 9.26 9.26 0 0 1 1.31-10.62 3.88 3.88 0 0 1 2.92-.9 13.4 13.4 0 0 1 9.4 5.11c2.38 3.15 4.17 6.73 7.9 8.76 1.22.67 1.94 2.32 2.78 3.59 2.25 3.41 4.36 6.91 6.67 10.27a65.21 65.21 0 0 0 5.8 7.68c2 2.14 4 .14 5.58-.95a15.4 15.4 0 0 0 4.27-4.28c1.45-2.33 3-4.19 5.83-4.72.55-.11 1.33-.49 1.49-.92.94-2.59 2.91-4.07 4.93-5.81 2.5-2.14 4.28-5.17 6.15-8s3.49-6 5.44-8.88a7.57 7.57 0 0 1 10.27-1.82c2.38 1.69 3.29 3.85 1.79 6.39-2.08 3.53-4.21 7.37-7.28 9.89-3.3 2.7-5.39 6.09-7.85 9.3a56.39 56.39 0 0 1 -7.2 8.11c-4 3.56-7.62 7.5-8.23 13.35-.29 2.82-2.65 5-2.76 8.1a113.77 113.77 0 0 1 -1.75 15c-.63 3.65.4 7.52-1.65 11-.38.64-.09 1.83.16 2.68 2.17 7.4 0 13.49-5.27 18.85-2 2.06-3.92 2.57-6.59 1.35-4.71-2.13-5.33-2.72-5.3-7.4z"></path><path d="m485.72 304.81c3.59 5 9.66 5.95 15.79 6.64 3.82.43 7.7.41 11.48 1.07a9 9 0 0 1 6.79 5.7c1 2.43-1.27 6.31-3.66 8.28-4.07 3.34-8.49 3.07-12.9 1.39-7.14-2.74-14.45-1.36-21.7-1.31-1.41 0-2.78 1.21-4.22 1.72a6 6 0 0 1 -7.76-3.36 35.43 35.43 0 0 1 -1.85-5.61 7.17 7.17 0 0 1 .26-3.13 20.28 20.28 0 0 1 1.49-4.64c2.27-4.39 1.42-9.35 2.71-13.9a18 18 0 0 1 1-3.49c1.93-3.7 4-7.31 1.85-11.63 1.41-2.38-.2-5.29 1.39-7.72.53-.8.39-2.08.45-3.15.33-5.69.69-11.38.89-17.08a10 10 0 0 0 -.75-4.22 27.09 27.09 0 0 1 -2.06-10.27 3.75 3.75 0 0 0 -.49-1.72c-2.63-4.63-1.31-9.34.09-13.85.91-2.9 3.5-4.51 6.62-4.79 3.29-.3 5.82.57 7.61 3.84a22.08 22.08 0 0 1 2.54 10.52 13.76 13.76 0 0 0 .88 5.16c.2.51.5 1.42.29 1.61-2.76 2.37-.32 5.12-.13 7.44.11 1.39.37 3 .42 4.57.09 2.65-.14 5.19.65 7.94.75 2.59-.31 5.72-.66 8.61-.58 4.71-1.15 9.42-1.92 14.1-.21 1.27-1.93 2.72-1.61 3.59 1.59 4.32-2.4 7.22-2.46 11.07a50.39 50.39 0 0 1 -1.03 6.62z"></path><path d="m476.11 728.92c-3.06-1.3.7-4.21-.79-6.2 2.85-2.5 1.41-6.14 2.2-9.18 1.16-4.56 1-9.49 1.12-14.27.05-2.25-.65-4.52-.92-6.8a65.11 65.11 0 0 1 -.77-8.21c0-2.91.69-5.8.77-8.71a5.15 5.15 0 0 0 -4.51-5.46 83.9 83.9 0 0 0 -8.67-1c-3.07-.23-6-.62-8.63-2.51-3.63-2.6-4.47-4.54-3.4-9.24.39-1.7 3.85-4.16 6.6-4.11a99.44 99.44 0 0 1 14.75 1c6.26 1.09 12.37 3 18.59 4.39 2.45.54 4.92-.57 7.55 0 4.46 1 9.12 1.12 13.59 2.11 1.94.43 3.7 2 5.35 3.28a2.79 2.79 0 0 1 .86 2.43c-1.42 4-2.77 8.23-7.07 10.19a7.65 7.65 0 0 1 -4.43.71 52.78 52.78 0 0 1 -9.12-2.79 6.87 6.87 0 0 0 -5.74-.26c-1.79.76-2.81 1.78-2.58 3.83.28 2.44.5 4.88.73 7.33a16.83 16.83 0 0 1 .19 3.24c-.52 4.86-1.25 9.71-1.66 14.59-.13 1.61.65 3.28.71 4.93.12 3.43.15 6.87 0 10.29-.06 1.28-.8 2.52-1.2 3.8-.16.53-.47 1.2-.29 1.62 2.06 4.72 0 9.15-1 13.61a72.33 72.33 0 0 1 -3.15 10.47c-1.36 3.62-2.2 7.69-6.71 9.2-1.28.42-2.08.93-3.23-.23s-2.73-2-3.94-3.14c-2.34-2.24-2.5-5.32-1.17-8.37 1.5-3.46 2.6-7.1 3.87-10.67.64-1.79 1.28-3.55 2.1-5.87z"></path><path d="m830.21 537.31a57.81 57.81 0 0 0 -1.22 6.18c-.13 1.33.36 2.71.41 4.07.15 5.15 2.09 10.41.24 15.39-2.29 6.2-2.54 12.54-2.6 18.93a99.86 99.86 0 0 0 1 12.91c.57 4.62 2.85 6.52 7.69 6.9 4.45.35 9 .37 13.36 1.06a17.21 17.21 0 0 1 6.57 2.91c1.95 1.31 2.13 6.69.67 9.28-.3.53-.83.93-1.14 1.45-2.95 5-5.36 6.26-10.83 4.67-4.33-1.26-8.77-2-12.83-4.62-2.34-1.51-6.1-.83-9.23-1.11a58.64 58.64 0 0 1 -7.64-.72c-2.25-.5-3.73-3.57-3.54-5.88.36-4.45.72-8.91.91-13.37.38-8.67.65-17.34 1-26 0-.31-.1-.71 0-.92 2.25-3 .71-6.42.91-9.64s.75-6.73.83-10.11a30.85 30.85 0 0 0 -.69-7.3c-1.08-5-2.43-10-3.69-15-1-3.87 1.34-10 4.4-12.14a7.74 7.74 0 0 1 12.07 4.37c1.59 6.15 2.28 12.58 3.35 18.69z"></path><path d="m792.79 607.33c-.37 4.87-2.28 7-6.94 7.45-3.36.36-7 1.64-10 .73-6.26-1.92-11.74 2.39-17.72 1.21a3.5 3.5 0 0 0 -2.23.41c-3.88 2.24-7.66 1.21-11.5-.11-4.5-1.54-6.19-4.32-5.41-8.91a33.3 33.3 0 0 0 .87-7.45c-.3-5.19 1-10.11 2.14-15 .74-3.26.41-6.3.29-9.52a67.23 67.23 0 0 1 1.45-14.45c.55-2.94 2.1-5.69 3.11-8.55a4.22 4.22 0 0 0 0-2.06c-1-5.7-2.72-11.38-2.94-17.11-.16-4.26.11-8.91 2.59-12.86a7.32 7.32 0 0 1 7.81-2.55 6.85 6.85 0 0 1 3.82 7.4 16.4 16.4 0 0 0 -.4 4.13 136.83 136.83 0 0 0 2.15 19.23c.57 3.15 1.35 6.69-.49 9.93a4.52 4.52 0 0 0 -.7 2.6c1.09 7.36-1 14.56-1.11 21.87-.06 3.43-1.3 6.84-2.06 10.25-1 4.37 1 6.52 5.31 5.72.43-.08.94-.73 1.2-.62 4.69 2 9-.57 13.46-1 1.94-.2 3.95.35 5.93.56.76.09 1.69.49 2.25.2 2.41-1.29 4.47-.71 6.26 1a9.06 9.06 0 0 1 2.86 7.5z"></path><path d="m848.52 402.22c0-2.49 0-5 0-7.49a5.77 5.77 0 0 1 .07-2.32c3.2-6.68.25-13.09-.76-19.59-.19-1.22-.63-2.7-.14-3.65 1.21-2.36 1.56-4.36-.51-6.39-.21-.21.16-1.09.35-1.63 2.19-6.1.55-12.19-.17-18.26-.36-3-1.14-6-1.53-9-.11-.8.55-1.69.76-2.56.38-1.59 3-2.66 1.11-4.8-.1-.12.12-.57.25-.84 1.29-2.61 8.12-6.36 11-5.75 3.32.7 5.11 3.44 6.51 6.16 1.78 3.43 3.41 7 2.89 11.12a23 23 0 0 0 .52 5.57 75 75 0 0 1 -.68 24.42c-.12.6-.28 1.51 0 1.83 2.14 2.22.46 4.36-.12 6.43a24 24 0 0 0 .18 14.06 4 4 0 0 1 .21 2.45c-1.51 3.4-2.94 6.65-2.42 10.65.25 1.88-1.36 4-2 6a28.46 28.46 0 0 0 -1.5 6.15 8.46 8.46 0 0 1 -9.65 8c-.84-.14-2.09-.6-2.31-1.21-1-2.81-3.92-4.73-2.55-8.73 1.1-3.2.22-7.08.22-10.66z"></path><path d="m788.64 632.93c2.75.23 3.82 1.38 5.16 3.3 4.63 6.63 3.87 13.72 2.6 21 0 .3-.29.6-.25.88.85 6.42-1.79 12.47-2 18.78a14.82 14.82 0 0 1 -.31 2.29c-.8 4.51-2.54 9.09-2.13 13.49.31 3.42.16 7 .93 10.51a58 58 0 0 1 1.19 20.25c-.3 2.16-.28 4.22-1.64 6.06-2.15 2.93-5.7 3.39-8.37.9a8.24 8.24 0 0 1 -3.12-6.51c0-4.32-1.69-8.6-2.55-12.92a23.41 23.41 0 0 1 -.14-3.85c0-2.3-.1-4.6-.13-6.9q0-4.81-.06-9.61c0-1.82.65-4-.09-5.38a7.49 7.49 0 0 1 -.4-6q1.61-5.91 3.19-11.83a4.46 4.46 0 0 0 .26-1.71 43.77 43.77 0 0 1 .19-17.44 15.46 15.46 0 0 0 .07-4.66c-.25-3 1.15-5.46 2.89-7.55 1.18-1.42 3.13-2.11 4.71-3.1z"></path><path d="m792.61 185.06c7 .16 9.73 3.74 8.5 9.66a73.72 73.72 0 0 0 -1.11 10.19c-.5 7.77-.79 15.56-1.34 23.33-.23 3.23-.93 6.42-1.39 9.64-.13.91 0 1.87-.25 2.76-.61 2.59 2.11 4.67.5 7.76-1.2 2.3-.39 5.64-.48 8.52-.14 4.76-4.72 10.86-8.57 12.61-2 .93-2.75.1-3.91-1-3-2.78-2.67-6.71-3.36-10.22-.88-4.49-1.29-9 .72-13.45.39-.87-.27-2.39-.78-3.45a7.71 7.71 0 0 1 -.16-6.62c1.44-3.78 1-7.46-.13-11.59-1.3-4.77-.39-10.14-.38-15.25 0-.57.74-1.28.57-1.68-1.85-4.42.21-8.48.87-12.71a7.64 7.64 0 0 1 2.85-5.09 17 17 0 0 1 7.85-3.41z"></path><path d="m869.11 453.55c0 3.71-.87 6.44-3.31 8.74-3.81 3.58-7.86 6.73-13 8.06a4.33 4.33 0 0 1 -3.11-.13c-3.86-2.74-8.13-5.29-8.89-10.58a18.84 18.84 0 0 1 .26-5.23c1-7.26 7.09-14.12 14.07-15.49a9.13 9.13 0 0 1 8.52 2.39 18.63 18.63 0 0 1 5.46 12.24z"></path><path d="m710.89 521c-.76-3 1.46-5.15 3.34-7.31a13.18 13.18 0 0 0 3.36-6.35c.77-3.86 2.51-7.43 2.86-11.51s5.33-6.71 9.16-5.44c2.26.74 2.19 3.33 2.67 5.09.89 3.31 1.22 6.65-.37 10.19-1.18 2.63-.63 5.81-2.41 8.64-2.88 4.55-5.57 9.06-10.64 11.52-1.53.75-2.62 2.5-4.86 1.08-2.72-1.69-3.08-1.91-3.11-5.91z"></path><path d="m781.7 762.14c-1.94-.39-3.9-1.21-5.79-1.06-3.88.3-4.72-2.6-5.56-5.05s-.54-5 1.07-7.77c3.52-6.09 8.67-8.15 15.09-7.92 3.27.11 5.57 2 6.8 5.25 3.53 9.3-2.05 16.46-11.61 16.55z"></path><path d="m789.74 296.49a9.24 9.24 0 0 1 8.91 6.05c.15.41.35 1.08.15 1.33-1.92 2.35-1.41 6.07-4.35 7.79-2.72 1.6-5.09 4.36-8.68 3.48-2-.48-4.68-1.1-5.54-2.56a12.08 12.08 0 0 1 -1.66-7.79c1.06-5.28 5.76-8.34 11.17-8.3z"></path></g></svg>