<svg xmlns="http://www.w3.org/2000/svg" viewBox="0 0 1080 1080"><path d="m207.66 333.63c4.43-6.77 5.68-14.08 7.65-21.08 2.44-8.66 4.67-17.4 6.45-26.22a268.42 268.42 0 0 1 7.69-29.33c2.24-6.94 5.12-13.68 7.39-20.62 2-6.13 4.56-12.18 4.56-18.8 0-5.75 1.69-11.13 3.4-16.51a6 6 0 0 1 8.63-3.65c1.24.66 2.31 1.62 3.52 2.34 6.76 4.08 12.45 9.59 19 14a33 33 0 0 1 11.6 13.3c.43.89 1.44 1.51 2.17 2.24.68-.61 1.39-.94 1.46-1.37.83-5.7 4.12-10.4 6.53-15.39 3.75-7.74 6.37-15.6 6.19-24.31a39.07 39.07 0 0 1 .79-8.42 10.48 10.48 0 0 1 3.61-6.44c3.21-2.69 5.85-6.07 9.2-9.66 4.53 3 9.39 5.84 13.72 9.31 4.12 3.3 7.7 7.29 12.07 11.53.95-2.36 1.73-4 2.29-5.75a45.64 45.64 0 0 0 1.2-4.91c1.14-5.52 2.1-11.08 3.44-16.55a8 8 0 0 1 2.8-3.94 4.07 4.07 0 0 1 6.47 1.39c2.38 4.48 4.47 9.12 6.9 13.57a32 32 0 0 0 11.24 12.31 31.45 31.45 0 0 1 10.52 10.6 28.68 28.68 0 0 0 10.09 10.06 25.86 25.86 0 0 0 3.21 1.28c2.34-2.59 4.64-5 6.78-7.57 1.07-1.29 2.71-2.88 2.61-4.23-.5-6.78 4.6-11.25 6.55-17 1.27-3.72 2.74-7.23 2.85-11.32.13-5.22 2-9.93 6.59-13.06 1.33-.9 2.66-1.05 3.86 0a36.69 36.69 0 0 1 4.82 4.75 86.84 86.84 0 0 0 16 16c3.55 2.69 6.27 6.47 9.35 9.77 1.33 1.44 2.42 3.2 4 4.33a241 241 0 0 1 26.8 23.24c4.13 4 9.77 5.33 14.28 8.75 5.6 4.22 11.86 7.56 17.86 11.24a11.37 11.37 0 0 0 3.79 1.84c6.34 1.06 11.55 4.36 16.75 7.82 1.85 1.23 4.15 1.76 6.14 2.81 2.73 1.45 5.66 2.74 8 4.72 9.39 8.07 18.58 16.37 27.84 24.59 5 8.2 13.42 12.6 20.31 18.72 3.15 2.8 6.48 5.49 9.14 8.72 5.81 7.05 14.06 10.15 21.79 14 6.25 3.14 13 5.21 18 10.6 1.47 1.59 4 2.16 5.8 3.47 3.9 2.79 8 5.43 11.45 8.71a90 90 0 0 0 31.53 19.38 38.83 38.83 0 0 1 15.09 10.41c4.1 4.41 7.74 9.66 13.76 12.26 2.14.93 3.5 3.59 5.35 5.32 6.59 6.15 13.75 11.74 18.89 19.32a5.68 5.68 0 0 0 1.17 1.23c6.32 5.11 12.6 10.24 18.43 16 2.88 2.83 7.35 4 11.08 6 7.84 4.17 14.45 9.52 19.4 17.2 3.32 5.16 8.17 9.32 12.19 14 2.52 3 4.77 6.16 7.14 9.25a34.56 34.56 0 0 0 7.95 7.44 41.83 41.83 0 0 1 8.31 8.34 5.27 5.27 0 0 1 .58 4.66 91.41 91.41 0 0 1 -7.1 11.46c-3.3 4.56-7 8.85-10.44 13.28a15.54 15.54 0 0 0 -1.8 2.87c-1.54 3.27-.34 6.53 3.1 7.44 4.63 1.22 9.35 2.15 14.08 2.91a162 162 0 0 1 22.85 5.79 19.81 19.81 0 0 1 11.26 8.53c4.1 6.61 9.9 10.34 17.31 12.64 6.13 1.89 11.87 5.11 17.69 7.95 3.6 1.76 4.28 5 1.34 7.25a70.61 70.61 0 0 1 -10.76 6.56 61.38 61.38 0 0 1 -7.93 2.88 20.92 20.92 0 0 0 -7.74 4.81c-3.87 3.64-8.6 6.33-12.8 9.64a87.39 87.39 0 0 0 -6.7 6.37c-2.37 2.32-2.45 4.89-.82 7.67s2.92 5.48 4.65 8a12.39 12.39 0 0 0 3.7 3.35c3.6 2.23 7.13 4.75 11 6.25a59.41 59.41 0 0 1 14.61 8.29c6.45 4.89 13.77 7.14 22 7.42 5.57.19 11.11 1.63 16.6 2.83a14.25 14.25 0 0 1 5.21 2.72c3.74 2.8 4.2 7.1.74 10.18a25.91 25.91 0 0 1 -8 4.62c-7.36 2.79-14.42 6.44-22.31 7.8-2.05.36-3.93 1.66-6.56 2.81 2.57 2.24 4.42 3.92 6.35 5.5 4.36 3.56 8.72 7.14 13.17 10.59a12.36 12.36 0 0 1 4.3 7.09c2.5 10 8 18.61 13.34 27.24a22.06 22.06 0 0 0 7.6 7.77c4.4 2.58 7.6 6.48 10.55 10.78 4.6 6.74 10 13 15 19.38 1.23 1.56 2.52 3 3.7 4.64 5.55 7.45 4.61 15.18-2.71 20.67-2.69 2-5.76 3.52-8.63 5.28-1.14.69-2.24 1.46-3.8 2.48 1.16 1.11 1.8 2.1 2.72 2.53a81.09 81.09 0 0 0 10.78 4.74c7.34 2.28 13.75 6.44 20.67 9.55a9.31 9.31 0 0 1 3.51 2.25 5 5 0 0 1 1.13 3.76c-1 3.62-2.94 6.74-6.79 8.1-1.6.56-3.18 1.16-4.81 1.59-6.2 1.65-12.44 3.16-18.63 4.86-4.06 1.11-8 2.54-12.1 3.65-4.61 1.26-9.26 2.35-13.91 3.44-9.55 2.25-19.37 3.3-28.67 6.77-4.44 1.65-9.25 2.38-13.93 3.26-7.72 1.45-15.37 3.26-23.09 4.7-8 1.49-15.91 3.5-24 4.77-9.73 1.53-19.45 3.07-29.16 4.71a31.12 31.12 0 0 0 -5.6 1.7c-5.79 2.16-11.5 4.24-17.83 4.81a61.07 61.07 0 0 0 -16.37 3.83c-7 2.7-14.21 3.08-21.34 4.44a139 139 0 0 0 -15.58 3.86 112.54 112.54 0 0 1 -18 4c-9.44 1.34-19 1.94-28.46 2.93-2.78.29-5.94.13-8.21 1.42-6.81 3.89-14.7 3.65-21.78 6.37-2.6 1-5.43 1.38-8.13 2.12-1.08.3-2.13 1.24-3.14 1.16-8.25-.64-15.23 3.58-22.58 6.09-5 1.7-9.43 5.06-14.25 7.39-4.29 2.07-8.82 3.64-13.15 5.62-3.84 1.76-7.64 3.64-11.29 5.75a88.29 88.29 0 0 0 -8.39 5.75 37.21 37.21 0 0 1 -21.39 7.14c-7.63.27-15.28.15-22.91 0a29 29 0 0 1 -18.71-7c-11.5-9.84-25-16.42-38.07-23.58-9.89-5.4-19.67-11-30.45-14.68-5.55-1.9-10.58-5.29-15.88-7.94a34.65 34.65 0 0 0 -6.91-3.11c-7.76-1.94-14.54-6-21.76-9.19a209.66 209.66 0 0 1 -29.29-15c-7.57-4.8-16.13-8-24.26-12-3.29-1.57-6.59-3.13-9.93-4.6-9-4-18.18-7.71-27.1-11.91a69.67 69.67 0 0 1 -10.64-6.79c-8.07-5.79-16.38-11.42-26-14-10.5-2.78-20.08-7.54-29.85-11.91-7.2-3.21-13.86-7.48-21.38-10.22-6.29-2.29-12.09-6-18-9.16-8-4.28-16.59-6.93-25-10.16-5.28-2-10.29-4.6-15.41-6.9-6.09-2.75-11.5-6.77-18.07-8.68-6.26-1.81-11.58-5.75-16.47-10.11a29.37 29.37 0 0 1 -8.19-11.69c-2.74-7.37-5.05-14.91-7.39-22.42a23.39 23.39 0 0 1 -1.13-6.62 21.7 21.7 0 0 0 -3.09-11.33c-4.72-7.58-7-16-9-24.51-2.58-11.25-5-22.56-6.94-33.93-1.15-6.6-1.29-13.36-2-20-.5-4.76-.94-9.55-1.86-14.24-1.67-8.58-3.77-17.07-5.51-25.63-.84-4.12-1.94-8.34-1.78-12.46.38-9.77-3.25-18.79-4.51-28.23-.22-1.67-1-3.33-.94-5 .64-11.42-2.28-22.38-4-33.51-1.43-9.47-2.3-19-3.56-28.51-1.07-8.1-2.35-16.16-3.51-24.24-.36-2.5-.64-5-.9-7.53-.85-8.13-1.61-16.27-2.54-24.4q-1.58-13.86-3.38-27.69c-.58-4.48-1.5-8.92-2.05-13.41a69.61 69.61 0 0 1 1.38-23.55 112 112 0 0 0 2.67-22.64 68.24 68.24 0 0 1 1.32-10c1.32-7.89 1.69-15.79-.32-23.57-1.49-5.8-1.13-11.65-1.31-17.5-.17-5.35-.42-10.7-.51-16.05-.07-3.65-.48-7.42.27-10.93 1.4-6.59 6.1-8.45 12.05-5.3a122.25 122.25 0 0 1 30 21.78c5.7 5.75 11.53 11.53 18.49 16 2.75 1.77 4.58 4.92 7 7.3 9.18 9.15 18.59 18.09 26.34 28.57 1.3 1.76 3.34 3 5.13 4.35 2.24 1.69 4.61 3.23 6.88 4.88a87.78 87.78 0 0 1 20.02 19.47 14.48 14.48 0 0 0 2.66 1.99zm346.49 580.58c1.29-.12 2.72-.15 4.1-.41 4.36-.81 5.41-2.23 5.74-6.93a21.94 21.94 0 0 0 -4-14.38 134.82 134.82 0 0 1 -9-14.31c-2.69-5.24-3.19-10.46 1-15.81 3.43-4.37 5.87-9.58 8.41-14.58a17 17 0 0 0 1.93-7.27c0-8.46-.22-16.89-2.2-25.22s-3.46-16.5-5.08-24.78c-1-5-1.45-10-2.7-14.93a323.41 323.41 0 0 1 -9.19-60.08c-.28-4.47-1.29-8.89-2-13.33-.36-2.22-.95-4.41-1.29-6.63q-3.32-22.14-6.56-44.3c-1.06-7.24-2.54-14.47-3-21.75-.55-9.61-2.46-18.9-4.62-28.21-1.83-8-3.86-15.93-2.44-24.27.37-2.18-.1-4.5-.24-6.76a187.11 187.11 0 0 1 .88-30.3 40.81 40.81 0 0 0 -2.69-18.14 9.11 9.11 0 0 0 -2.35-3.45c-4.71-4.17-9.8-7.71-16.36-8.16-7.58-.51-13.95-3.72-20.18-7.92a198.69 198.69 0 0 0 -19.84-11.29c-10-5.18-20.06-10.11-30.15-15-2-.95-4.19-2.15-6.2-2-3.08.25-5.48-.91-8.06-2-6-2.59-12-5-17.9-7.72-3.57-1.64-6.94-3.71-10.39-5.6-1.48-.81-2.91-1.7-4.41-2.48-6.48-3.39-12.87-7-19.51-10.06-7.93-3.66-14.87-9.19-23.25-12-7.53-2.54-14.17-6.87-20.79-11.18a14 14 0 0 0 -3.68-2.05c-7.25-2-12.88-6.76-19-10.68-3.55-2.26-6.94-4.84-10.7-6.66-8.92-4.34-17-10-25.22-15.46-6.3-4.22-12.32-8.87-18.31-13.54-10-7.81-21.4-13.56-31.9-20.66a137.41 137.41 0 0 1 -26.4-23.58 45 45 0 0 0 -5.52-5.17c-8.29-6.74-16.71-13.31-23.49-21.7a52.66 52.66 0 0 0 -4.64-4.93c-11.62-11.12-23.21-22.27-34.93-33.28-5.08-4.78-10.32-9.44-16.41-12.92-4.43-2.53-7.37-1.47-9.45 3.17a13.66 13.66 0 0 0 -.78 2.42c-1.73 6.8-3.35 13.95-2.27 20.68 2 12.73.5 25.37.65 38a86.17 86.17 0 0 1 -2.11 20.13c-1.19 5.24.47 10.58-1.51 15.62 1.36 12 2.47 24.09 4.17 36.07 1.06 7.51 3 14.9 3.35 22.52a93.06 93.06 0 0 0 3.19 20.76 72.37 72.37 0 0 1 1.53 10c1.22 9.21-.52 18.66 2.2 27.76a17.66 17.66 0 0 1 .09 2.54c.48 3.9.27 8.09 1.66 11.64 2.8 7.13.63 14.64 2.58 21.74-1.84 5.47.34 10.56 1.64 15.68 2 7.93 4 15.82 4.3 24.06a138.51 138.51 0 0 0 3.64 24.1c1.51 6.88 3.17 13.73 4.43 20.65 3.25 17.7 6.24 35.45 9.48 53.15 1.07 5.81 2.82 11.49 3.85 17.3a29.34 29.34 0 0 0 3.81 10.2 48.23 48.23 0 0 1 6.94 19.78c.84 7.63 2.67 15 6.84 21.62 2 3.1 4.25 6.26 5.06 9.71 1 4 3.83 5.37 6.65 7.06 3.12 1.88 6.58 3.21 9.62 5.19 9.56 6.23 20.34 9.72 30.93 13.44 5.59 2 10.8 4.6 16.21 6.87 3.59 1.5 7.52 2.89 10.32 5.41s5.7 3.37 9 4.16a59.44 59.44 0 0 1 9.71 2.82c13.7 6 27.3 12.23 40.94 18.36 11.59 5.2 23.37 9.91 33.49 18a44.28 44.28 0 0 0 17.09 8.87 25.94 25.94 0 0 1 5.46 2.27c5.28 2.67 10.5 5.46 15.77 8.15 9.51 4.85 19.66 8.19 29.18 13.11s18.89 9.78 28.52 14.32c6.32 3 12.39 6.64 19 9.15 6.75 2.58 12.71 7 19.94 8.53 2.12.45 4 2 6 3.06 2.5 1.28 5 2.61 7.53 3.74 9.81 4.33 19.67 8.55 29.47 12.9a35.69 35.69 0 0 1 5.86 3.39 31.74 31.74 0 0 0 12.34 5.4 37 37 0 0 1 21.67 12.17c3.74 4.31 8.89 5.81 14.55 6.21zm17.58-33.38c.73-2.69 1.66-4.83 1.85-7 .64-7.16 3.13-13.69 6.2-20.07 2.93-6.1 6.08-12.09 8.75-18.29a46.75 46.75 0 0 0 2.57-9.76c.91-4.69 1.57-9.43 2.27-14.16 1.31-8.92 2.65-17.86 2.34-26.89-.21-6.18-1-12.34-1.52-18.51-.35-4.2-.78-8.4-.92-12.61-.26-7.89-.82-15.75 1.17-23.6a79.77 79.77 0 0 0 1.91-15c.59-10.71.4-21.48 1.41-32.15a106.1 106.1 0 0 1 4.56-22.24c5.62-17.43 13.22-34.11 20.22-51 5-12 9.73-24.07 13.75-36.39 6.11-18.74 10.2-38.07 15.19-57.13a24.34 24.34 0 0 0 .38-8.35 6.24 6.24 0 0 0 -2.35-4.17 103.78 103.78 0 0 0 -14-7.95c-10-4.39-21.16-5.91-30.52-12a2.69 2.69 0 0 0 -.79-.3c-8.16-2.17-16.23-4.89-24.52-6.35a84 84 0 0 1 -29.68-11.8 277.36 277.36 0 0 1 -24-17.2c-4.66-3.61-9.43-7-14.17-10.5-2-1.49-4.05-3-6-4.63a173.57 173.57 0 0 0 -25-17.16 245.46 245.46 0 0 1 -25.91-17 199.57 199.57 0 0 0 -22-14.3c-10.75-6.09-21.92-11.48-32.92-17.23-4.75-2.49-9.22-5.61-14.16-7.64-10.84-4.45-20.01-11.45-28.63-19.13-5.46-4.88-10.48-10.25-15.58-15.51-4.88-5-9.79-9.93-13.83-15.87-6-8.81-12.2-17.41-16.83-27.07-1.45-3-3.69-5.64-5.52-8.48-2.13-3.32-4.21-6.67-6.3-10-3-4.76-5.73-9.7-9-14.25-4.8-6.61-9.69-13.2-15.11-19.29-4.1-4.6-9.08-8.42-13.71-12.55a7.67 7.67 0 0 0 -2.21-1.22c-2.61-1.09-5.4 0-6 2.63-1.58 6.88-4 13.48-6.09 20.19a138.49 138.49 0 0 1 -7.53 19.69 67.41 67.41 0 0 0 -3.64 10.34c-3.77 12.71-5 26-8.9 38.72-3 9.9-3.6 20.52-8.88 29.8-.91 1.61-.38 3.16 1.08 4.51 4.78 4.44 9.91 8.46 15.9 11 7.63 3.25 14.11 8.29 20.55 13.21a320.44 320.44 0 0 0 31.39 21.45c15 8.88 30.1 17.67 44.63 27.36a46.52 46.52 0 0 0 9.53 5.32 184.72 184.72 0 0 1 33.84 16.79 9.16 9.16 0 0 0 3.06 1.34c6.29 1.17 11.69 4.54 16.75 7.95 9.59 6.45 20.48 9.54 31.18 12.87 5.47 1.71 10.56 3.47 15.21 6.77a91.24 91.24 0 0 0 20 10.94 122.42 122.42 0 0 1 25.31 13.65c6.17 4.24 12.75 6.84 20.31 6.77 13-.1 24.64 12 26.16 22.61 1.38 9.73 3 19.52.8 29.44-1.28 5.84-.71 11.79 0 17.71.63 5.31 1 10.66 1.48 16 .24 2.51.53 5 .91 7.52 1.76 11.42 4.14 22.77 5.22 34.25 1.76 18.52 6.26 36.65 7.51 55.23a24.9 24.9 0 0 0 1 3.24c3.23 14.91 6 29.88 5.77 45.23a31.9 31.9 0 0 0 .23 5.08q3.12 21.78 8.35 43.15c1.33 5.48 2.89 10.85 3.55 16.51a129.18 129.18 0 0 0 3.4 17.4 151.68 151.68 0 0 1 3.53 18.16 47 47 0 0 1 -6.24 30.78c-.86 1.46-1.79 2.88-2.6 4.37-1.65 3-3 6.19-1.91 9.71s3.5 5.64 7.75 7.06zm32.16-48.83c1.89-4 2.94-8.18 6.74-10.68 1.24-.81 1.85-2.81 2.43-4.38 4.46-12.19 8.23-24.5 8.92-37.65a190.37 190.37 0 0 1 2.92-24.29c1.77-9.67 4.72-19.14 6.34-28.83a60.58 60.58 0 0 1 6.89-18.93 34.23 34.23 0 0 0 3.42-7.69c3.16-12.84 8.7-25 11.47-37.91.4-1.9 1.45-3.67 2.12-5.53 1.91-5.3 4-10.57 5.62-16 1.82-5.94 3.15-12 4.93-18a36.57 36.57 0 0 1 3.5-8.58 107.38 107.38 0 0 0 8.72-18.35 130.76 130.76 0 0 1 10.45-22.21c2-3.35 3.37-7.13 5-10.71 3.13-6.64 5.92-13.72 11.54-18.56 5.85-5 10.5-11 15.19-16.94a29.1 29.1 0 0 0 4.53-8c2-5.57 3.36-11.34 5.14-17 1.57-5 .26-8.6-3.95-11.75-7.66-5.75-15.14-11.74-22.52-17.85-8.23-6.79-16.25-13.84-24.39-20.75a35.2 35.2 0 0 0 -4.7-3.59c-11.1-6.62-21.72-13.95-32.34-21.3-12.27-8.5-24.78-16.63-37.22-24.89-1.16-.77-2.55-1.2-3.75-1.93-7.46-4.53-15.15-8.74-22.27-13.77-8.23-5.81-15.56-12.91-24.77-17.35a3.61 3.61 0 0 1 -.69-.49c-8.43-7-18.31-12.23-25.48-20.77-13.23-9-22.73-21.82-33.62-33.19a221.27 221.27 0 0 1 -16.22-19.13c-2.33-3.06-5.72-5.39-8.87-7.71-5.46-4-11.14-7.73-16.69-11.62-4.61-3.24-8.88-7.13-13.85-9.67-6.14-3.12-11.21-7.56-16.71-11.48-4.13-2.93-8.14-6.11-12.54-8.58-4.66-2.61-9.3-5.21-13.72-8.21-2.8-1.9-5.73-3.61-8.65-5.32-7.06-4.11-14-8.29-20.07-13.91s-12.74-10.1-19.43-14.82-13.05-9.83-18.08-16.5a22.12 22.12 0 0 0 -7.27-5.67c-3.79-2-8.19.42-9 4.68-.32 1.66-.36 3.37-.58 5.05-.72 5.3-.81 10.8-2.35 15.85-2.86 9.42-6.36 18.66-10 27.79-1.23 3.05-1.06 5.34.62 7.88 1.86 2.81 4 5.52 5.34 8.57a44.92 44.92 0 0 0 8 11.8 72.8 72.8 0 0 1 8.23 11.72c2.78 4.84 4.78 10.15 7.78 14.93 3.55 5.7 6.13 12.12 11 16.9 6.39 6.31 12.81 12.59 19.07 19a112.15 112.15 0 0 0 31.51 22.5q11.73 5.75 23.11 12.17c7.32 4.12 14.18 9.09 22 12.24 8.53 3.42 15 9.89 22.59 14.76 4 2.6 7.7 5.62 12.77 6.2 1.85.22 3.64 1.49 5.33 2.49q6.92 4.11 13.7 8.4a264.9 264.9 0 0 1 36.22 27.83 164.53 164.53 0 0 0 24.9 18.9c13 8 27.14 12.1 41.87 15 5.47 1.07 11.21.91 16.34 3.6a111.85 111.85 0 0 0 26.84 10c3 .69 5.77 2.27 8.51 3.7 4.25 2.21 8.29 4.81 12.57 6.94 7.79 3.87 8.6 5.2 7.34 13.78a9.61 9.61 0 0 1 -.39 2.5c-2.93 6.48-4 13.48-5.79 20.27-3 11.45-6.27 22.84-9.48 34.23-1.46 5.15-3.08 10.24-4.61 15.36-3.63 12.16-9.28 23.57-13.09 35.68-2.35 7.5-6.09 14.56-8.79 22-4 10.81-8.89 21.29-11.59 32.54-2.16 9-4.7 18-3.6 27.5.63 5.34.06 10.63-.29 15.93a51.09 51.09 0 0 0 -.27 5.92 51.38 51.38 0 0 1 -1.86 17.6c-1.77 5.87-1.12 11.75-.77 17.65.19 3.08.61 6.15.9 9.22.58 6.1 2.3 12.15.63 18.34a4.86 4.86 0 0 0 .28 2.5c3.06 10.06 1.49 19.72-1.49 29.61-1.84 6.1-1.79 12.77-2.53 19.19-.07.36.43.83.96 1.77zm9.34 45.87c3.33 1.69 5.44 0 7.43-1.45a204.54 204.54 0 0 1 26.81-16.11c10.86-5.45 21.77-10.33 34.39-10.57 7-.13 13.88-2.12 20.83-3.14 9.16-1.34 18.07-4.48 27.5-4a12.73 12.73 0 0 0 3.35-.39c9.08-1.92 18.15-3.89 27.23-5.8a36.51 36.51 0 0 1 4.2-.53c6.46-.58 12.93-1 19.38-1.74 5-.54 10.09-1.11 15-2.14 4.66-1 9.16-2.69 13.79-3.81s9.14-2.41 13.67-3.67c10.3-2.88 20.52-6.15 30.58-9.8 10.91-4 22.27-6.16 33.52-8.53 5.78-1.22 11.61-2.1 17.14-4.2 7.63-2.89 15.78-5.23 21.94-10.58 7.53-6.55 16.73-9.23 25.48-12.88a58.07 58.07 0 0 0 10.51-5.2c4.48-3.05 5.17-6 1.87-10.56-3.94-5.49-8.18-10.77-12.54-15.92-4.5-5.32-7.49-12.17-14.62-14.91-7.25-8-13.73-16.64-17.21-26.87a46.18 46.18 0 0 0 -15.31-21.7c-4.57-3.68-9.14-7.49-10.8-13.88-6.3 1-12.12 1.77-17.92 2.73a75 75 0 0 0 -9.9 2.07c-4.56 1.4-9 3.21-13.47 4.86-5 1.84-10.07 3.53-15 5.57-7.53 3.12-14.92 6.61-22.47 9.68a19.31 19.31 0 0 0 -8.71 6.38 23.66 23.66 0 0 1 -4.59 4.83c-2.9 2.19-6.21 3.85-9.08 6.08-6.27 4.86-12 10.21-15.35 17.7a32.36 32.36 0 0 1 -5.38 7.5c-4.6 5.3-9.5 10.34-14 15.68-7.66 9-15.42 17.95-22.58 27.35-4.18 5.5-8.6 10.35-14.86 13.39a4.9 4.9 0 0 0 -2 1.54c-2.68 4.23-7 6.43-10.87 9.26-4.3 3.15-8.84 6.25-11.19 11.34-4.44 9.58-13.13 13.84-22.31 16.7-4.44 1.38-8.48 2.87-12 5.84a49.61 49.61 0 0 1 -20 10.47 24.19 24.19 0 0 0 -11 6c-6.05 5.89-12.21 11.67-18.13 17.69-1.44 1.47-2.17 3.68-3.33 5.72zm36.12-101.14c2-3.15 3.62-6.59 6.08-9.18 10.45-11 13.49-25.13 17.26-39 1.26-4.6 2.22-9.29 3.59-13.86 1.21-4 3.27-7.87 4.15-12 2.77-12.92 10.06-23.68 16.14-35a11.49 11.49 0 0 1 2.15-2.58c4-3.92 6.22-9.13 9.91-13.36 3.85-4.42 5.77-10.27 7.38-16.06a143.32 143.32 0 0 1 16.29-36.23 70.19 70.19 0 0 1 9.5-11.87c5.27-5.46 11-10.44 14.55-17.38 1-1.9 3-3.3 4.68-4.81a29.72 29.72 0 0 0 6.88-8.5 103.68 103.68 0 0 1 5.85-9.31c2.63-4.05 5.38-8.13 9.63-10.55 7.55-4.29 13.17-10.49 18.32-17.25a23.76 23.76 0 0 1 7.53-6.65 14.52 14.52 0 0 0 5.11-5.43 106.11 106.11 0 0 1 9.57-13.47c4.49-5.6 4.83-9 0-14a98.79 98.79 0 0 1 -16.1-22.6 29.28 29.28 0 0 0 -4.37-6.16 97.79 97.79 0 0 0 -24.17-18.19 68.77 68.77 0 0 1 -14.37-10.29c-7.37-7-14.53-14.2-22-21.08-3.93-3.61-8.48-6.55-12.49-10.08-7-6.14-13.86-12.44-20.68-18.79-5.8-5.41-12.33-9.68-19.08-13.83-7.92-4.86-16-9.61-22.66-16.31-6.88-7-15.14-11.84-24-15.61-8.31-3.52-16.68-6.85-24.24-11.86-4-2.64-8.21-5-11.72-8.21-11-10-22.25-19.81-32.32-30.93-6.35-7-14.48-12.46-21.74-18.69-5.06-4.33-11.47-7.09-17.28-10.54a12.42 12.42 0 0 0 -3-1.6c-7.45-1.9-13.9-5.88-20.49-9.59s-13.28-7.42-19.83-11.28c-3.36-2-7-3.83-9.66-6.56a168.64 168.64 0 0 0 -15.72-14.04c-4.62-3.68-9.35-7.28-12.78-12.28-1.24-1.81-3.23-3.11-4.89-4.64-5.18-4.79-10.41-9.52-15.52-14.37-1.67-1.6-3.23-3.16-6-3.26-4.19 3.91-5.67 9.41-7.62 14.66-2.65 7.1-4.14 14.67-8.84 20.94-2.06 2.74-1.84 4.42 1 6.35a95.63 95.63 0 0 0 12.23 7.37c11.51 5.51 21.88 12.67 32 20.38 7.15 5.44 14.83 10.28 23.43 13.3a32.11 32.11 0 0 1 12.64 8.16 84.93 84.93 0 0 0 16.25 13.47c9.87 6.07 18.82 13.36 25.87 22.67a55.05 55.05 0 0 0 19.23 16.25 45.39 45.39 0 0 1 16 13.55 27.75 27.75 0 0 0 10.44 8.38 49.39 49.39 0 0 1 8.08 4.59c8 5.87 15.69 12 23.6 17.93 2.46 1.84 5.25 3.25 7.8 5 7.47 5.09 16.3 7.8 23.38 13.59 2.39 2 5.39 3.17 7.69 5.21 4.83 4.28 10.58 7.27 15 12.23 3.68 4.1 8.65 7.32 13.56 10 7.25 4 13.08 9.76 19.93 14.21 2.3 1.49 4 4 5.92 6 8.05 8.23 14.73 17.8 24 24.84.85.65 1.21 1.89 1.94 2.73 6.15 7 12.42 13.95 21.63 17.2a13.37 13.37 0 0 1 5.13 2.88c4.72 4.89 9.38 9.7 16.65 10.51.48.06.91.63 1.37.95 3.76 2.59 4.72 5.56 2.48 9.4a21.84 21.84 0 0 1 -4.92 5.67c-3.35 2.76-6.1 5.77-7.53 10a11.64 11.64 0 0 1 -3.09 4.95c-5.08 4.33-8.1 10-11.36 15.64-2.82 4.86-5.49 9.91-9 14.29-8 10.07-12.67 21.89-18.41 33.12-3.3 6.48-4.77 13.87-7.2 20.8-4.6 13.08-9.57 26-17.54 37.51a20.84 20.84 0 0 0 -3.75 9.23 24.37 24.37 0 0 1 -2.62 9.64c-5.27 9.33-7.79 20-14.23 28.75a7.93 7.93 0 0 0 -1.3 3.11c-1.34 7-4.42 13.34-7.91 19.5-1.94 3.41-3.82 6.88-5.44 10.45-3.26 7.18-6.46 14.39-9.43 21.69-2.65 6.52-5.45 13-7.29 19.82-1.61 5.91-2 12.17-2.88 18.34zm158.91-245.88c-2.6-.57-4.59 1.4-6.63 3.48-3.14 3.21-6 6.91-9.72 9.3a44.1 44.1 0 0 0 -10.91 10.49c-5.48 7.11-10.26 14.73-15.58 22-5.83 7.93-12 15.57-17.95 23.43-.49.66-1.1 1.63-1.75 1.72-3.75.49-4.94 3.57-6.36 6.23-5.57 10.48-11 21-14.09 32.6a77.41 77.41 0 0 1 -3.12 8.76c-4 10-10.09 18.81-16.49 27.43a60.37 60.37 0 0 0 -6.09 10.07c-3.51 7.37-7.1 14.74-8.62 22.87-5.93 11.17-6.51 23.81-9.8 35.71-1.73 6.26-3.17 12.64-7.41 17.82a114.08 114.08 0 0 0 -10.74 16.07c-4.15 7.32-9 14.22-13.26 21.51a121.35 121.35 0 0 0 -6 13 1.93 1.93 0 0 0 2.86 2.3 31.55 31.55 0 0 0 3.75-3.29c4.91-4.65 9.86-9.24 14.68-14 4-3.95 8.43-7.68 11.67-12.22a209.18 209.18 0 0 0 16.69-28.34 277.42 277.42 0 0 1 14-24c4.35-6.9 9.32-13.4 13.81-20.2 3.58-5.41 6.56-11.22 10.32-16.48 4.07-5.72 8.07-11.52 13.82-15.92a37.21 37.21 0 0 0 7.75-7.66 82.93 82.93 0 0 1 12.48-13.66c8.05-7 16.44-13.75 25-20.19 6.52-4.92 12.47-10.47 19.35-15a281.06 281.06 0 0 0 35.61-27.24c5.39-5 10.87-9.83 16.32-14.74a98.9 98.9 0 0 1 20.28-13.68 34.5 34.5 0 0 0 4.32-2.62c2.27-1.69 2.1-4.08-.33-5.36a26.15 26.15 0 0 0 -3.86-1.73c-5.25-1.8-9.29-5.19-12.75-9.41-1.6-2-3.48-3.73-5-5.78-2.45-3.43-5.94-5.24-9.77-6.31a98.61 98.61 0 0 0 -12.41-2.56c-11.12-1.53-22.27-2.88-34.07-4.4zm116.23 116c-2.13-2-4.75-2.51-7.64-2.35a25.15 25.15 0 0 1 -12.41-2c-4-1.93-8-3.89-12-6-4.48-2.34-8.68-5.38-13.37-7.09a93.44 93.44 0 0 1 -19.53-9.79c-7.5-5-15-2.94-22.68-1.15a1.41 1.41 0 0 0 -.74.4c-4.13 5.14-11 6.57-15.33 11.59-1.23 1.45-3.22 2.26-4.79 3.44-2.23 1.67-4.45 3.36-6.57 5.16-5.8 4.92-11.67 9.76-17.27 14.89-7.69 7-16.52 12.78-23.61 20.48-3.44 3.73-6.47 7.82-9.76 11.69-2.54 3-4.66 6.56-8.74 7.68-4.68 1.29-7.82 4.24-10.23 8.29-1.73 2.92-3.74 5.66-5.52 8.54-6.81 11-12.56 22.69-20.69 33-4.52 5.71-8.82 12-11.55 18.64-3.45 8.45-8.56 15.89-12.83 23.78-4.52 8.35-11.4 15.35-19.07 21.29a42.36 42.36 0 0 0 -4.43 3.92c-3.92 4.07-7.85 8.14-11.58 12.37a103.26 103.26 0 0 0 -6.69 8.72 2.35 2.35 0 0 0 .17 2.25 2.32 2.32 0 0 0 2.15.21c2.8-1.34 5.48-2.92 8.26-4.29 4.79-2.36 9.43-5.27 14.48-6.78a32.34 32.34 0 0 0 17.65-12.3c4.67-6.45 10.74-11.42 17.08-16.23a136.15 136.15 0 0 0 25.33-24.76c7.56-9.68 15.24-19.35 23.93-28.14 6.13-6.21 11.93-12.78 16.28-20.47a56 56 0 0 1 14.84-17.15c4-3.08 8.24-6 11.78-9.6a55.57 55.57 0 0 1 17.31-11.75c14.38-6.46 28.45-13.56 44.11-16.67 8.84-1.76 17.62-3.84 26.4-5.91a111.23 111.23 0 0 0 13.74-3.8c6.31-2.38 12.39-5.33 19.17-6.3a4.63 4.63 0 0 0 4.35-3.79zm-281.13 77.34a8.75 8.75 0 0 0 .3 2.17c.32.7.76 1.68 1.33 1.83a2.59 2.59 0 0 0 2-1 20.27 20.27 0 0 0 2.21-3.55c3.92-7.51 7.93-15 11.67-22.58 3.86-7.82 7.46-15.77 11.15-23.67a5.7 5.7 0 0 0 .39-1.64c.69-5.16 3.22-9.59 5.35-14.22 2.72-5.89 5.4-11.83 7.58-17.93 2.4-6.68 4.71-13.31 9.29-18.92a23.38 23.38 0 0 0 3.29-5.91c3.87-9.4 7.82-18.78 11.34-28.32 3.61-9.8 6.45-19.9 11.49-29.14 1.89-3.46 4.2-6.77 5.49-10.44a32.53 32.53 0 0 1 5-8.7c2.19-2.93 4.6-5.73 6.51-8.84 5.61-9.13 11.12-18.3 17.61-26.86a53.55 53.55 0 0 0 4.7-8c2-3.82 1.45-6.61-1.77-9.88-2.17-2.22-5.15-3.86-6.72-6.41-3.49-5.63-9.05-8.28-14.31-11.57-4.28-2.68-8.66-5.45-12.18-9-6.18-6.19-11.72-13-17.54-19.53-8.85-9.95-18.56-18.91-29.93-26-3.35-2.08-6.74-4.13-9.92-6.47-7.27-5.34-14.25-11.08-21.66-16.22-6.92-4.81-14.47-8.72-21.33-13.61-13.52-9.63-27.62-18.44-40.63-28.79q-17.18-13.66-34.46-27.21c-2.42-1.89-5.29-3.23-7.58-5.25-8-7-16.77-13.1-23.24-21.79-2.11-2.84-5.48-4.76-8.34-7-4.19-3.32-8.6-6.39-12.63-9.91-6.17-5.4-12.38-10.64-19.91-14.17a106.62 106.62 0 0 1 -14.1-7.57c-9.37-6.27-18.54-12.86-27.64-19.52a74.8 74.8 0 0 0 -12.35-7.3 52.1 52.1 0 0 1 -12.23-7.5 70.58 70.58 0 0 0 -14.62-10 37.82 37.82 0 0 1 -13-10.61 37.65 37.65 0 0 0 -7.16-7.05 77.67 77.67 0 0 1 -14.33-14.31 17.4 17.4 0 0 0 -2.93-2.95 2.55 2.55 0 0 0 -4.14 1 52.49 52.49 0 0 0 -1.92 6.49c-1.09 4.88-.1 8.71 4.84 11.3 5.78 3 10.37 7.71 15.32 11.91 6.16 5.25 12.13 10.64 19.46 14.61 8.6 4.65 18.08 7.83 25.55 14.61 3.51 3.2 7.73 5.63 11.68 8.33 1.61 1.11 3.38 2 5.05 3 8.63 5.3 17.78 9.75 25.58 16.41 6 5.12 12.62 9.51 18.48 14.77 6.27 5.63 12.86 11.25 17.63 18.06 4 5.66 8.65 10.34 13.31 15.2 7.8 8.1 15.23 16.5 23.73 24 10.46 9.2 21.47 17.34 33.94 23.57a66.41 66.41 0 0 1 10.75 6.66c11.37 8.78 23.35 16.65 35.35 24.5 4.48 2.94 9.54 5.2 13.49 8.72 4.71 4.19 10.06 7.1 15.37 10.28 7 4.14 13.56 8.84 20.57 12.9 3.65 2.12 7.14 4.52 10.64 6.88 3.27 2.2 6.62 4.34 9.67 6.82 7.65 6.23 15 12.87 22.76 18.89 5.16 4 10.28 7.91 14.26 13.09 3.73 4.84 8.72 7.9 13.95 10.75a62.75 62.75 0 0 1 8.6 5.35c4.09 3.16 4.78 7.15 1.39 11-5.21 5.92-7.69 13.12-10.24 20.23a60.65 60.65 0 0 1 -16.57 25.11c-3.44 3.09-6.27 6.45-7.27 11.15a16.12 16.12 0 0 1 -2.08 4.58c-3.86 6.58-8 13-11.64 19.71-3.35 6.2-6.39 12.59-9.12 19.09-2.84 6.78-5.45 13.63-9.36 19.93a31.84 31.84 0 0 0 -3.19 7.79c-1.67 5.69-2.91 11.52-4.68 17.18-1.85 5.92-4.16 11.69-6.16 17.56a52.94 52.94 0 0 0 -2.26 8.12 92.94 92.94 0 0 1 -5.29 20.42 105.26 105.26 0 0 0 -4.59 15.36c-.75 3.07-1.54 5.79-3.87 8.22-3.16 3.33-4.27 7.82-5.18 11.79zm66 147.45c1.1-.2 3.57-.71 6.06-1.09 5.55-.84 11.11-1.69 16.68-2.39 5.87-.74 11.71-1.41 17.37-3.35a106 106 0 0 1 21.26-5.42c5.58-.69 11-2.22 16.57-3.4 7.71-1.64 15.5-3 23.08-5.07 3.72-1 8-.61 11.17-3.51a5.71 5.71 0 0 1 3.12-.86c8.67-.84 17.35-1.6 25.6-4.73a6 6 0 0 1 2.5-.29c8.91.63 17.24-2.24 25.69-4.28 7.95-1.92 15.82-4.16 23.73-6.25 10-2.65 20.49-3.65 30.2-7.82a37.24 37.24 0 0 1 12.3-2.45c8.44-.52 15.55-4.6 23-7.81a13.18 13.18 0 0 0 3.37-2.53c1.77-1.59 1.64-3.76-.47-4.83-3.77-1.9-7.63-3.61-11.5-5.3a20.08 20.08 0 0 0 -16.42-.1c-7 2.89-14.38 5.07-21.24 8.29-12.68 5.94-26.26 8.4-39.79 11.11-8.18 1.64-16.95.92-24.21 6.18-11.21 3.67-22.88 5.94-33.61 11.11-1.22.59-2.73.57-4.1.88l-21.43 4.93c-4.93 1.13-9.82 2.9-14.81 3.23-7.65.49-15 2.23-22.57 3.27-9.47 1.31-18.73 4.34-28.35 4.15-9.15-.18-18 1.55-26.77 3.46-9.33 2-18.56 4.39-28.13 5.2-6.45.55-12.89 1.87-18.56 5.19-10.45 6.13-21.21 11.81-30.64 19.55-1.09.9-2.67 1.53-1.38 3.07.46.56 2.08.47 3 .21s1.9-1.19 2.91-1.67c5-2.41 10-4.89 15.59-6.09 12.64-2.73 25.3-5.47 37.82-8.72 6.85-1.78 13.5-3.91 20.64-1.88a17.35 17.35 0 0 0 2.34.01z"></path></svg>