<svg xmlns="http://www.w3.org/2000/svg" viewBox="0 0 1180.61 468.01"><g fill="#0c5156"><path d="m430.17 93.77c-.1 0-.18 0-.32 0-.29 0-.29 0-.47 0s-.47 0-.65 0a1.62 1.62 0 0 1 -.61-.11c-.21-.11-.39 0-.61 0a1.78 1.78 0 0 1 -.61 0c-.22-.11-.22 0-.43 0s-.33 0-.36 0a1.34 1.34 0 0 0 -.62 0 1.75 1.75 0 0 1 -.46 0c-.18 0-.33.08-.44.08a3.23 3.23 0 0 1 -.64 0c-.11 0-.15-.14-.15-.14s-.07-1.62-.07-2.09.07-.87.07-1.48-.07-1.83-.07-2.27.07-2.15.07-2.19a15.22 15.22 0 0 0 -.07-1.8v-.22c0-1 0-2.12.07-3.16v-2.99c0-1.44 0-1.55 0-3.06a9.87 9.87 0 0 1 0-1.44v-3c0-.07 0-1.47 0-1.54 0-1.48 0-1.66 0-3.1 0-.07 0-.68 0-.93 0-.44 0-.87 0-.87s.15-.25.43-.25h.65c.25 0 .18-.07.51-.07h1 .5.47c.14 0 .32.11.5 0s.22 0 .36 0h.36c.18 0 .22.07.36.07s.26-.07.4-.07.4-.07.79-.07.54.21.54.32v2.61 1.69 4.93s0 1.15 0 1.19v.93 3.06 1.59.61.75 1.26.15c0 .47.07 1 .11 1.47a21.63 21.63 0 0 1 0 2.67c0 .54-.07.9-.07 1.29v2.27 1 1.37.86s0 .25 0 .47 0 .25-.18.25-.07-.04-.36-.04z"></path><path d="m447.43 63.25c.33 0 .22.14.54.14s.36-.14.65-.14a4.45 4.45 0 0 0 .51.07c.39 0 .46-.07.82-.07s.51.07.69.07.39-.11.57-.11.4.08.58.08.4-.08.58-.08a4.34 4.34 0 0 0 .54.08 2.17 2.17 0 0 1 .46-.08.44.44 0 0 1 .44.4v2.7 4.79 1.9c0 2 0 4-.07 6.08v2.85 2.87c0 .69.08 1.41.08 2.45s-.08 2-.11 2.92v4.1a.21.21 0 0 1 -.22.22.4.4 0 0 1 -.25-.11c-.36-.54-.86-.94-1.33-1.55a24 24 0 0 0 -2.7-3.09 21.54 21.54 0 0 1 -2-2.38l-.54-.57c-.36-.44-.29-.37-.65-.8l-.11-.11a20.1 20.1 0 0 1 -2.19-2.55c-.18-.22-.54-.58-.72-.79l-1.59-2s0 8.5 0 11.88v.94s-.18.43-.36.43-.28.07-.5.07-.36-.07-.54-.07-.43.18-.68.14-.36 0-.69 0-.39 0-.57 0-.33-.07-.51-.07-.29 0-.61 0-.32-.15-.5-.15-.4.11-.62.11-.75-.07-.9-.07-.25 0-.25-.32c0-.08 0-.33 0-.51 0-.39-.07-.83-.07-1.37 0-1.08 0-2.16 0-3.38v-1.4s0-1.26 0-1.77v-4c0-1.9 0-3.88 0-5.79v-7.6a26.49 26.49 0 0 1 0-3.78v-1a.21.21 0 0 1 .22-.22.4.4 0 0 1 .25.11s1 1.11 2.27 2.7c1 1.29 2.23 2.84 3.63 4.39a39.71 39.71 0 0 1 3.53 4.1c.76 1.12 2.59 3.21 2.59 3.21v-7.35c.15-1.59 0-3.21 0-4.79v-1.44c.08-.15.15-.29.33-.29z"></path><path d="m467.76 93.77c-.11 0-.18 0-.32 0-.29 0-.29 0-.47 0s-.43 0-.61 0a1.64 1.64 0 0 1 -.62-.11c-.21-.11-.39 0-.61 0a1.78 1.78 0 0 1 -.61 0c-.22-.11-.22 0-.43 0s-.33 0-.36 0a1.19 1.19 0 0 0 -.58 0 1.83 1.83 0 0 1 -.47 0c-.18 0-.32.08-.43.08a3.39 3.39 0 0 1 -.65 0c-.1 0-.14-.14-.14-.14s-.07-1.59-.07-2.06.07-.86.07-1.47-.07-1.8-.07-2.23.07-2.13.07-2.16c0-.61 0-1.23-.07-2 0-1 0-2.09.07-3.13v-3c0-1.41 0-1.52 0-3a7.2 7.2 0 0 1 0-1.4v-2.92c0-.29 0-.68-.25-.68s-.4 0-.61 0h-.79-2.85c-.36 0-.29-.22-.29-.43s-.1-.29-.1-.47a3.09 3.09 0 0 1 .07-.4c0-.14-.07-.18-.07-.39s.07-.11.07-.29-.07-.22-.07-.43.07-.29.07-.54c0-.07.07-.22.07-.4s-.11-.29-.11-.39.11-.18.11-.33a1.85 1.85 0 0 0 0-.25c0-.11.08-.18.08-.29s0-.21 0-.32 0-.29 0-.4.15-.18.15-.32-.07-.29-.07-.36c0-.29.14-.33.43-.33s.5 0 .68 0c.36 0 .69-.07 1-.07.14 0 .58.07.86.07s1.12-.07 1.41-.07 1.11.07 1.51.07h3 5 1.65.51a.25.25 0 0 1 .25.26 1.51 1.51 0 0 1 -.07.39 1.07 1.07 0 0 0 -.08.29c0 .14.08.43.08.65s-.11.21-.11.32.07.22.07.33-.07.21-.07.36a2.86 2.86 0 0 1 .07.36c0 .18-.07.32-.07.46s.07.18.07.29-.11.29-.11.43l.07.33v.36.61a1.76 1.76 0 0 1 0 .5.36.36 0 0 1 -.4.4h-1.83c-.69 0-1.37 0-2.06 0-.28 0-.32.07-.36.5s0 1.3 0 2.77v1.19.99 3 1.59.61s0 .65 0 .72c0 1.76.11 3.53.11 5.47 0 .54-.07.9-.07 1.29v2.24 1 1.37.83s0 .25 0 .47 0 .25-.18.25-.18-.07-.47-.07z"></path><path d="m489.76 94.35-1.58-3c-.51-1-1.8-2.77-2.16-3.71a35.53 35.53 0 0 0 -1.8-3.38c-.36-.65-.9-1.69-.9-1.69-.22-.36-.29-.43-.4-.61s-.11-.22-.14-.22-.08 0-.08.11v2.66c0 1.77.11 3.53.11 5.29 0 1.23-.08 2.56-.08 3.82 0 .29-.21.25-.28.25s-.11-.07-.47-.07a.52.52 0 0 0 -.25 0c-.11 0-.18.07-.29.07s-.22 0-.29 0-.18-.11-.32-.11-.36.08-.62.08-.25-.08-.57-.08c-.11 0-.25 0-.33 0s-.21.11-.28.11c-.07 0-.18 0-.32 0a4.19 4.19 0 0 0 -.47 0 .79.79 0 0 1 -.29-.08h-.29c-.07 0-.32.08-.39.08-.29 0-.26-.08-.44-.08a1.41 1.41 0 0 0 -.36 0c-.1 0-.14.08-.21.08s-.22 0-.29-.11a1.21 1.21 0 0 1 0-.43c0-.8-.07-1.66-.07-2.6 0-1.83.11-3.74.11-5.61 0-7.09-.14-14.76-.14-21.31 0-.65.72-.58.9-.58s1.11-.1 1.58-.1c1 0 1.8.07 2.77.07 1.23 0 2.45 0 3.71.11a14.58 14.58 0 0 1 3.78.82.45.45 0 0 0 .22.08 10.93 10.93 0 0 1 4 2.73 8.37 8.37 0 0 1 2 5.47 11.69 11.69 0 0 1 -.54 3.82 7.76 7.76 0 0 1 -3.45 4.07l-.15.07a2.62 2.62 0 0 1 -.64.29l2.19 3.74c.76 1.26 1.48 2.27 2.16 3.38a16.43 16.43 0 0 1 1.44 2.81 1.24 1.24 0 0 1 .11.36c0 .14-.15.11-.25.18s-.15.14-.22.18-.18 0-.32.07-.11.15-.33.29-.39.18-.43.22l-.29.21a2.22 2.22 0 0 1 -.54.25c-.14.08-.18.22-.29.29a1.33 1.33 0 0 1 -.36.15c-.18.07-.18.14-.28.21a3.11 3.11 0 0 1 -.58.29c-.18.11-.18.22-.4.36a1.76 1.76 0 0 1 -.39.18c-.14.07-.14.14-.32.25s-.19 0-.44.15-.21.32-.46.32-.25-.13-.29-.2zm-7.06-24.19c0 .4.15 1.37.15 1.91 0 1-.11 2-.15 3v1.8c0 .39.15.28.47.25a10.69 10.69 0 0 0 1.69-.33 4.8 4.8 0 0 0 2.27-1.26 3.13 3.13 0 0 0 .9-2.3 4 4 0 0 0 -.47-1.94 3.35 3.35 0 0 0 -1.56-1.45 4.11 4.11 0 0 0 -1.66-.36c-.4 0-.9.07-1.26.07s-.38.22-.38.61z"></path><path d="m513.86 63.93a9.92 9.92 0 0 1 4.25 4 19.71 19.71 0 0 1 2.41 6.76 27.4 27.4 0 0 1 .33 3.85c0 .76-.11 1.48-.11 2.2a12.33 12.33 0 0 1 -.76 4.57c-.75 1.91-1.22 4.25-3 5.65a25.67 25.67 0 0 1 -2.88 2.09 9.21 9.21 0 0 1 -4.65 1.26 10.57 10.57 0 0 1 -4.86-1.08 14.6 14.6 0 0 1 -4-3.53 15.18 15.18 0 0 1 -2.59-6.44 19.46 19.46 0 0 1 -.43-4c0-5.18.47-6.84 2.59-10.83a11.41 11.41 0 0 1 2.56-3.06 10 10 0 0 1 11.15-1.41zm-.21 18.61c0-1.15.36-2.48.36-4s-.29-2.7-.29-3.81a6.59 6.59 0 0 0 -1.08-3.49 4.21 4.21 0 0 0 -3.42-2.09 3.31 3.31 0 0 0 -1.94.61 7.4 7.4 0 0 0 -1.59 2.24c-1.15 2-1.15 3.78-1.29 6.45a17.29 17.29 0 0 0 .9 6 11.41 11.41 0 0 0 .75 1.66 3.49 3.49 0 0 0 3.17 1.69c2.88 0 4.43-3.2 4.43-5.26z"></path><path d="m544.34 83.19a14.31 14.31 0 0 1 -2.51 4.75 12.25 12.25 0 0 1 -4.11 3.82 7.36 7.36 0 0 1 -1 .54c-.9.32-1.72.72-2.59 1.08a11.94 11.94 0 0 1 -3 .61s-.1 0-.18 0h-.68-1.48c-.57 0-1.18-.07-2.19-.07-.47 0-.5 0-1 0a5.37 5.37 0 0 1 -1.15 0c-.22 0-.44-.08-.44-.51 0-.75 0-1.58 0-2.34s0-1.44 0-2.12c0-1.37.18-2.7.18-4.07 0-14.76 0-14.83 0-15.44 0-.87-.11-1.87-.11-2.63s.22-1.65.22-2 0-.65 0-.9a.7.7 0 0 1 .76-.76c.18 0 .9.07 1.08.07.89 0 3-.07 3-.07a19 19 0 0 1 5.69.79 14.39 14.39 0 0 1 3.31 1.48c.69.39.69.61 1.26 1.11a16 16 0 0 1 4.39 5.91 18.28 18.28 0 0 1 1.08 6.37 16 16 0 0 1 -.53 4.38zm-13 4.28a6.61 6.61 0 0 0 2.13-.46 6.24 6.24 0 0 0 2.23-1.41 7.17 7.17 0 0 0 1.58-2.34 10 10 0 0 0 .76-3.45v-.15a18.12 18.12 0 0 0 -.14-3.45 10.05 10.05 0 0 0 -1.62-3.71s-.08-.07-.08-.11a7.12 7.12 0 0 0 -1.54-1.39 2.33 2.33 0 0 0 -.32-.25 9 9 0 0 0 -1.77-1 4.61 4.61 0 0 0 -1.29-.14c-.11 0-.22 0-.22.18v.86c0 .9-.07 1.76-.11 2.66s.11.87.11 1.84c0 3.09-.11 5 0 8.42v3.74c0-.02-.06.16.25.16z"></path><path d="m559.6 87.15a2.64 2.64 0 0 0 .57-1.44s.07-1.87.07-3.17c0-1.76-.21-4.1-.21-5 0-1.12 0-2.92.07-4.86s0-4.1.07-5.79c0-2 0-3.39 0-3.39a.26.26 0 0 1 .29-.29c.18 0 .25.11.47.11s.21-.07.36-.07a2.58 2.58 0 0 1 .39.07c.07 0 .33-.11.44-.11a3.33 3.33 0 0 1 .39.11c.18 0 .25-.11.36-.11s.22.08.4.08a2 2 0 0 0 .36-.08 2.84 2.84 0 0 0 .46.11h.51s.36.1.54.1.29-.07.54-.07.25.07.43.07h.25a.76.76 0 0 1 .18 0c.11 0 .22-.07.29-.07s.18 0 .18.22c0 1.94 0 3.89.07 5.72v3.82 11.69a14.62 14.62 0 0 1 -.29 2.7 11.69 11.69 0 0 1 -.79 2.5 11.14 11.14 0 0 1 -2.74 2.74 8.27 8.27 0 0 1 -5.76 1.76 15.36 15.36 0 0 1 -3.85-.43 8.45 8.45 0 0 1 -3-1.95 7.93 7.93 0 0 1 -2.12-3.59 14.3 14.3 0 0 1 -.61-4.83v-2.38c0-1.44 0-2.92 0-4.32 0-2 0-4.25 0-6.34 0-3.09 0-5.72 0-5.9s0-.86 0-1c0-.29 0-.47.36-.47a3.89 3.89 0 0 0 .5.07c.07 0 .36-.07.47-.07s.39.11.54.11.18-.11.43-.11.25.11.61.11c.18 0 .36-.11.54-.11s.29.11.43.11.33-.07.47-.07a3.3 3.3 0 0 1 .58.11c.32 0 .43-.15.68-.15s.4.11.61.11a2.22 2.22 0 0 0 .33-.07c.32 0 .29.21.29.72v2.84c0 1 .14 2.74.14 3.78 0 .83-.1 2-.1 2.84v8.75 2.63a4.94 4.94 0 0 0 .25 1.62 2.5 2.5 0 0 0 1.26 1.4 2.56 2.56 0 0 0 1.22.33c.18 0 .76-.18.94-.18.53-.12.73-.41 1.13-.91z"></path><path d="m589.7 90.71c0 .26-.25.36-.43.62a5.39 5.39 0 0 1 -1.19 1c-.21.15-.43.29-.71.47a10.85 10.85 0 0 1 -5.55 1.44 9.6 9.6 0 0 1 -2.3-.25.43.43 0 0 1 -.22 0 7 7 0 0 1 -2.81-1.22c-.07 0-1.22-.79-1.26-.83a7.38 7.38 0 0 1 -1.18-1.19c-.51-.68-.87-1.33-1.34-2a5.51 5.51 0 0 1 -.71-1.35s0-.11-.07-.18a21.33 21.33 0 0 1 -1.69-8.71 22.63 22.63 0 0 1 .32-3.92s0-.07 0-.11a10.65 10.65 0 0 1 1.33-4.43c.46-.68 1.33-2.55 1.9-3.24a8.18 8.18 0 0 1 1.44-1.44 11.57 11.57 0 0 1 1.77-1.11 9.59 9.59 0 0 1 4.86-1.48 10.33 10.33 0 0 1 4.9 1.19c.28.18.57.36.83.5a1.92 1.92 0 0 0 .32.26 1.44 1.44 0 0 1 .36.32c.11.11.21.07.36.25a1.14 1.14 0 0 1 .29.29c.18.18.21.14.28.29s0 .21.11.32a.47.47 0 0 1 .15.36.25.25 0 0 1 -.22.29.47.47 0 0 0 -.4.32 1 1 0 0 1 -.36.47 1.47 1.47 0 0 0 -.21.33c-.11.28-.15.17-.22.32s-.25.18-.29.39a.15.15 0 0 1 -.07.11s-.18 0-.25.11 0 .15-.25.32-.07.18-.18.29 0 .08-.25.18-.18.25-.29.33a1.35 1.35 0 0 0 -.29.25c-.07.18-.07.11-.32.32s-.33.26-.51.26a.74.74 0 0 1 -.43-.19 1.71 1.71 0 0 1 -.39-.32 2.8 2.8 0 0 0 -.29-.32l-.15-.15a4.62 4.62 0 0 0 -.68-.43 3.55 3.55 0 0 0 -1.55-.32c-.79 0-.9-.15-1.55.36a5.67 5.67 0 0 1 -.79.57 4.92 4.92 0 0 0 -1.52 2.27v.14a10.22 10.22 0 0 0 -.57 2s0 .11 0 .14a15.56 15.56 0 0 0 -.29 2.13.51.51 0 0 0 0 .21 10.48 10.48 0 0 0 0 1.12 20.06 20.06 0 0 0 .22 3v.21c.11.8.29 1.55.47 2.34a9.16 9.16 0 0 0 .33 1 3.53 3.53 0 0 0 1.47 2.16 3.48 3.48 0 0 0 2.34.94 3.4 3.4 0 0 0 1.73-.44l.18-.1.36-.33s.14-.1.22-.18a1.72 1.72 0 0 0 .46-.54.54.54 0 0 1 .36-.29.62.62 0 0 1 .33.11c.14.11 0 .07.21.22a1.82 1.82 0 0 0 .36.18c.22.07.26.29.36.4a1 1 0 0 1 .29.46c.11.25.32.47.36.43.22.08.14.08.29.22s.18 0 .25.15.11.25.32.32.22.18.29.29.25.1.29.28.22.26.25.33a1 1 0 0 0 .25.36c.11.11.08.18.26.32s.18.11.21.22.15.14.25.21-.15.24-.15.38z"></path><path d="m602.64 93.77c-.11 0-.18 0-.32 0-.29 0-.29 0-.47 0s-.43 0-.61 0a1.64 1.64 0 0 1 -.62-.11c-.21-.11-.39 0-.61 0a1.78 1.78 0 0 1 -.61 0c-.22-.11-.22 0-.43 0s-.33 0-.36 0a1.19 1.19 0 0 0 -.58 0 1.83 1.83 0 0 1 -.47 0c-.18 0-.32.08-.43.08a3.39 3.39 0 0 1 -.65 0c-.1 0-.14-.14-.14-.14s-.07-1.59-.07-2.06.07-.86.07-1.47-.07-1.8-.07-2.23.07-2.13.07-2.16c0-.61 0-1.23-.07-2 0-1 0-2.09.07-3.13v-3c0-1.41 0-1.52 0-3a9.57 9.57 0 0 1 0-1.4v-2.92c0-.29 0-.68-.25-.68s-.4 0-.61 0h-.79-2.85c-.36 0-.29-.22-.29-.43s-.1-.29-.1-.47a3.09 3.09 0 0 1 .07-.4c0-.14-.07-.18-.07-.39s.07-.11.07-.29-.07-.22-.07-.43.07-.29.07-.54c0-.07.07-.22.07-.4s-.11-.29-.11-.39.11-.18.11-.33a1.85 1.85 0 0 0 0-.25c0-.11.08-.18.08-.29s0-.21 0-.32 0-.29 0-.4.15-.18.15-.32-.07-.29-.07-.36c0-.29.14-.33.43-.33s.5 0 .68 0c.36 0 .69-.07 1-.07.14 0 .58.07.86.07s1.12-.07 1.41-.07 1.11.07 1.51.07h3 5 1.65.51a.25.25 0 0 1 .25.26 1.51 1.51 0 0 1 -.07.39 1.07 1.07 0 0 0 -.08.29c0 .14.08.43.08.65s-.11.21-.11.32.07.22.07.33-.07.21-.07.36a2.86 2.86 0 0 1 .07.36c0 .18-.07.32-.07.46s.07.18.07.29-.11.29-.11.43l.07.33v.36.61a1.76 1.76 0 0 1 0 .5.36.36 0 0 1 -.4.4h-1.83c-.69 0-1.37 0-2.06 0-.28 0-.32.07-.36.5s0 1.3 0 2.77v1.19.99 3 1.59.61s0 .65 0 .72c0 1.76.11 3.53.11 5.47 0 .54-.07.9-.07 1.29v2.24 1 1.37.83s0 .25 0 .47 0 .25-.18.25-.18-.07-.47-.07z"></path><path d="m617.06 93.77c-.11 0-.18 0-.32 0s-.29 0-.47 0-.47 0-.65 0a1.58 1.58 0 0 1 -.61-.11c-.22-.11-.4 0-.61 0a1.78 1.78 0 0 1 -.61 0c-.22-.11-.22 0-.44 0s-.32 0-.36 0a1.29 1.29 0 0 0 -.61 0 1.83 1.83 0 0 1 -.47 0c-.18 0-.32.08-.43.08a3.23 3.23 0 0 1 -.64 0c-.11 0-.15-.14-.15-.14s-.07-1.62-.07-2.09.07-.87.07-1.48-.07-1.83-.07-2.27.07-2.15.07-2.19a15.22 15.22 0 0 0 -.07-1.8v-.22c0-1 0-2.12.07-3.16v-2.99c0-1.44 0-1.55 0-3.06a7.42 7.42 0 0 1 0-1.44v-3c0-.07 0-1.47 0-1.54 0-1.48 0-1.66 0-3.1 0-.07 0-.68 0-.93 0-.44 0-.87 0-.87s.15-.25.43-.25h.65c.25 0 .18-.07.5-.07h1 .5.47c.14 0 .32.11.5 0s.22 0 .36 0h.36c.18 0 .22.07.36.07s.25-.07.4-.07.39-.07.79-.07.54.21.54.32v2.61 1.69 4.93s0 1.15 0 1.19v.93 3.06 1.59.61.75 1.26.15c0 .47.07 1 .11 1.47a21.63 21.63 0 0 1 0 2.67c0 .54-.07.9-.07 1.29v2.27 1 1.37.86s0 .25 0 .47 0 .25-.18.25-.06-.04-.35-.04z"></path><path d="m637.17 63.93a10 10 0 0 1 4.25 4 19.71 19.71 0 0 1 2.41 6.76 27.39 27.39 0 0 1 .32 3.85c0 .76-.1 1.48-.1 2.2a12.33 12.33 0 0 1 -.76 4.57c-.76 1.91-1.22 4.25-3 5.65a24 24 0 0 1 -2.88 2.09 9.14 9.14 0 0 1 -4.64 1.26 10.54 10.54 0 0 1 -4.86-1.08 14.64 14.64 0 0 1 -4-3.53 15.3 15.3 0 0 1 -2.62-6.48 19.49 19.49 0 0 1 -.44-4c0-5.18.47-6.84 2.6-10.83a11.19 11.19 0 0 1 2.55-3.05 10.06 10.06 0 0 1 11.16-1.41zm-.17 18.61c0-1.15.36-2.48.36-4s-.28-2.7-.28-3.81a6.59 6.59 0 0 0 -1.08-3.45 4.22 4.22 0 0 0 -3.42-2.09 3.36 3.36 0 0 0 -1.95.61 7.55 7.55 0 0 0 -1.63 2.2c-1.15 2-1.15 3.78-1.3 6.45a17.29 17.29 0 0 0 .9 6 10.8 10.8 0 0 0 .76 1.66 3.49 3.49 0 0 0 3.17 1.69c2.88 0 4.47-3.2 4.47-5.26z"></path><path d="m660.28 63.25c.33 0 .22.14.54.14s.36-.14.65-.14a4.2 4.2 0 0 0 .5.07c.4 0 .47-.07.83-.07s.51.07.69.07.39-.11.57-.11.4.08.58.08.39-.08.57-.08a4.67 4.67 0 0 0 .54.08 2.48 2.48 0 0 1 .47-.08.43.43 0 0 1 .43.4v2.7 4.79 1.9c0 2 0 4-.07 6.08v2.85 2.87c0 .69.07 1.41.07 2.45s-.07 2-.1 2.92v4.1a.22.22 0 0 1 -.22.22.4.4 0 0 1 -.25-.11c-.36-.54-.87-.94-1.33-1.55a24.78 24.78 0 0 0 -2.7-3.09 20.48 20.48 0 0 1 -2-2.38l-.54-.57c-.36-.44-.29-.37-.65-.8l-.11-.11a21.35 21.35 0 0 1 -2.2-2.55c-.18-.22-.53-.58-.72-.79l-1.58-2s0 8.5 0 11.88v.94s-.18.43-.36.43-.29.07-.5.07-.36-.07-.54-.07-.43.18-.69.14-.36 0-.68 0-.4 0-.58 0-.32-.07-.5-.07-.29 0-.61 0-.33-.15-.51-.15-.39.11-.61.11-.75-.07-.9-.07-.25 0-.25-.32c0-.08 0-.33 0-.51 0-.39-.08-.83-.08-1.37 0-1.08 0-2.16 0-3.38v-1.4s0-1.26 0-1.77v-4c0-1.9 0-3.88 0-5.79v-7.6a26.49 26.49 0 0 1 0-3.78v-1a.21.21 0 0 1 .22-.22.4.4 0 0 1 .25.11s1 1.11 2.27 2.7c1 1.29 2.23 2.84 3.63 4.39a39.71 39.71 0 0 1 3.53 4.1c.75 1.12 2.59 3.21 2.59 3.21v-7.35c.14-1.59 0-3.21 0-4.79v-1.44c.07-.15.17-.29.35-.29z"></path><path d="m691.06 93.77c-.11 0-.18 0-.32 0s-.29 0-.47 0-.43 0-.61 0a1.55 1.55 0 0 1 -.61-.11c-.22-.11-.4 0-.62 0a1.78 1.78 0 0 1 -.61 0c-.21-.11-.21 0-.43 0s-.32 0-.36 0a1.19 1.19 0 0 0 -.58 0 1.75 1.75 0 0 1 -.46 0 4.28 4.28 0 0 0 -.43.08 3.34 3.34 0 0 1 -.65 0c-.11 0-.15-.14-.15-.14s-.07-1.59-.07-2.06.07-.86.07-1.47-.07-1.8-.07-2.23.07-2.13.07-2.16c0-.61 0-1.23-.07-2 0-1 0-2.09.07-3.13v-3c0-1.41 0-1.52 0-3a9.57 9.57 0 0 1 0-1.4v-2.92c0-.29 0-.68-.25-.68s-.39 0-.61 0h-.79-2.85c-.36 0-.28-.22-.28-.43s-.11-.29-.11-.47a3.09 3.09 0 0 1 .07-.4c0-.14-.07-.18-.07-.39s.07-.11.07-.29-.07-.22-.07-.43.07-.29.07-.54c0-.07.07-.22.07-.4s-.11-.29-.11-.39.11-.18.11-.33a2.43 2.43 0 0 0 0-.25c0-.11.07-.18.07-.29s0-.21 0-.32 0-.29 0-.4.14-.18.14-.32-.07-.29-.07-.36c0-.29.14-.33.43-.33s.5 0 .68 0c.36 0 .69-.07 1-.07.15 0 .58.07.87.07s1.11-.07 1.4-.07 1.12.07 1.51.07h3 5 1.65.51a.25.25 0 0 1 .25.26 1.51 1.51 0 0 1 -.07.39 1 1 0 0 0 -.07.29c0 .14.07.43.07.65s-.11.21-.11.32.07.22.07.33-.07.21-.07.36a2.86 2.86 0 0 1 .07.36c0 .18-.07.32-.07.46s.07.18.07.29-.11.29-.11.43l.08.33v.36.61a2.12 2.12 0 0 1 0 .5.36.36 0 0 1 -.4.4h-1.91c-.69 0-1.37 0-2.05 0-.29 0-.33.07-.36.5s0 1.3 0 2.77v1.19.99 3 1.59.61s0 .65 0 .72c0 1.76.11 3.53.11 5.47 0 .54-.07.9-.07 1.29v2.24 1 1.37.83s0 .25 0 .47 0 .25-.18.25-.1-.07-.39-.07z"></path><path d="m714.18 63.93a10 10 0 0 1 4.25 4 19.71 19.71 0 0 1 2.41 6.76 27.39 27.39 0 0 1 .32 3.85c0 .76-.1 1.48-.1 2.2a12.33 12.33 0 0 1 -.76 4.57c-.76 1.91-1.22 4.25-3 5.65a24 24 0 0 1 -2.88 2.09 9.14 9.14 0 0 1 -4.64 1.26 10.54 10.54 0 0 1 -4.86-1.08 14.64 14.64 0 0 1 -4-3.53 15.3 15.3 0 0 1 -2.62-6.48 19.49 19.49 0 0 1 -.44-4c0-5.18.47-6.84 2.6-10.83a11.19 11.19 0 0 1 2.54-3.05 10.06 10.06 0 0 1 11.16-1.41zm-.18 18.61c0-1.15.36-2.48.36-4s-.28-2.7-.28-3.81a6.59 6.59 0 0 0 -1.08-3.45 4.22 4.22 0 0 0 -3.42-2.09 3.36 3.36 0 0 0 -1.95.61 7.55 7.55 0 0 0 -1.63 2.2c-1.15 2-1.15 3.78-1.3 6.45a17.29 17.29 0 0 0 .9 6 10.8 10.8 0 0 0 .76 1.66 3.49 3.49 0 0 0 3.17 1.69c2.89 0 4.47-3.2 4.47-5.26z"></path><path d="m172.83 131.56a2.21 2.21 0 0 1 1.82-1.59c1.36 0 1.82.91 2.27 2.5.69 2.73.92 3 2.05 6.6s1.14 4.32 2.51 8.88 2.5 7.51 2.5 7.73c2.5 7.29 4.1 14.57 6.37 21.63.23.45.23.91.46 1.36 2.5 8.65 4.1 17.53 8 25.72.23.23 3 9.1 3 9.33 5.19 17.28 6.52 22.28 6.52 22.28h.46s2.5-9.33 5.92-22.54c.22-.22.22-.45.22-.91 2.28-7.51 3.87-15.47 6.15-23.21a4.05 4.05 0 0 1 .45-1.14 73 73 0 0 1 3.47-15.45c.23-.91.45-1.82.68-2.5 2.73-7.51 4.33-15 6.37-22.76a18.15 18.15 0 0 0 .91-3.41c2.05-7.29 3.19-12.29 3.19-12.52.23-.91.46-1.59 1.59-1.59.91 0 1.37.68 1.6 1.59.22.23 1.82 8.19 4.55 20.71 0 .46.23.91.23 1.37 1.82 8.65 4.09 17.29 5.46 25.94.45 2.73 2.28 8.65 3.19 13.89s3.64 18 5.91 29.81c.91 4.1 3.87 12.75 3.87 16.62 0 6.37 3 13.43 4.55 21.62 1.37 6.14 2.51 11.83 3.65 17.52a3 3 0 0 1 .22 1.37c2.05 8.42 3.87 16.61 5.24 25a2.84 2.84 0 0 1 .23 1.36c.91 5.24 1.59 10.47 2.73 15.71.68 2.5 1.82 4.09 2.5 7.51a12.94 12.94 0 0 1 .68 3.18c0 .69-.45 1.14-2 1.14-1.83 0-6.83-.45-7.52-.45s-3.64.45-4.55.45c-1.82 0-1.82-1.14-3.87-.45a10.73 10.73 0 0 1 -3.87.45c-2.95 0-3.18-.91-4.78-.91-.68 0-1.82.68-2.73.68-1.59 0-3.87-.68-5-.68a29.92 29.92 0 0 1 -4.1.68c-2.05 0-3.19-.45-3.41-3-.46-2-.23-4.55-1.6-7.28-1.14-2.05-3.41-15.48-4.78-19.8a52.85 52.85 0 0 1 -1.36-8c-2.05-9.33-3.87-16.84-3.87-16.84h-.46l-9.1 30.27s-2.28 7.51-3.42 12.52c-.68 3.19-3.41 12.75-3.41 12.75l-2.73 8.42a1.65 1.65 0 0 1 -1.37 1.36c-.68 0-.91-.45-1.13-1.36 0 0-.91-2.73-3-11.16-1.14-4.78-3.19-9.78-4.55-14.56-2.51-8.88-4.78-17.07-7.74-25.72-1.37-3.87-2.51-9.1-3.87-13h-.46c0 3.87-4.55 21.62-5.23 25.72-.91 5-1.14 9.78-2.51 14.56-.45 2.28-1.13 4.78-1.82 7.06a51.57 51.57 0 0 0 -1.36 6.14c-.23 2.28-2.51 1.82-4.1 1.82-2 0-3.64-.45-6.14-.45-1.37 0-1.6.68-3.87.68s-2.28-.45-3.19-.45-4.55.45-5.46.45c-1.37 0-1.82-.45-3-.45-2.51 0-1.37.45-3.42.45-2.5 0-2.5-.45-3.41-.45s-2.05.45-2.73.45c-1.82 0-1.59-.45-3.41-.45h-1.37a1.19 1.19 0 0 1 -1.14-1.14 8.31 8.31 0 0 1 .46-2.05c2.73-8.19 2.27-14.57 4.09-22.76 0-.46 1.6-5 3-11.61s1.37-10.7 3.42-20.94v-.91c2.27-11.61 5.69-22.76 6.37-34.59.91-4.33 1.59-8.65 2.5-13 0-.22.69-5 1.14-7.28 1.14-5.92.68-5.69 1.59-11.84.91-5.23 2.05-10.46 3.42-15.47a1.71 1.71 0 0 0 .23-.91c.22-1.37.45-2.51.68-3.64a.84.84 0 0 1 .23-.69c1.82-9.33 3.64-20 4.32-23.44s.91-6.83 1.37-8.42l1.82-7.51c.85-5.08 1.08-10.77 2.68-16z"></path><path d="m391.23 145c9.56 5.69 17.29 9.78 26.85 25.49 6.15 10 14.11 30.27 15.25 42.79a172.5 172.5 0 0 1 2.05 24.35c0 4.78-.68 9.33-.68 13.88 0 9.79-1.14 19.58-4.78 28.91-4.78 12.06-7.74 26.86-18.89 35.73-5.46 4.33-11.61 9.33-18.21 13.2a58.18 58.18 0 0 1 -29.36 8c-10.47 0-20.94-1.82-30.73-6.83-10.92-6.37-17.52-13.2-25.26-22.3-8.88-10.7-13.43-26.18-16.61-41a124 124 0 0 1 -2.74-25.49c0-32.78 3-43.25 16.39-68.51 4.1-7.74 9.79-13.43 16.16-19.35 11.15-10.47 25.72-15.7 41.2-15.7 9.56-.01 20.48 1.58 29.36 6.83zm-1.37 117.67c0-7.29 2.28-15.71 2.28-25 0-9.1-1.82-17.07-1.82-24.13a41.7 41.7 0 0 0 -6.83-22.07c-5-7.51-12.52-13.2-21.62-13.2-4.1 0-9.11 1.36-12.29 3.87-4.78 3.86-7.06 9.1-10 14.11-7.28 12.74-7.28 23.9-8.19 40.74 0 14.56 1.82 27.54 5.69 37.78a68.84 68.84 0 0 0 4.78 10.47c4.09 6.6 10.47 10.7 20 10.7 18.21-.05 28-20.31 28-33.28z"></path><path d="m554 145c9.56 5.69 17.3 9.78 26.86 25.49 6.14 10 14.11 30.27 15.25 42.79a172.5 172.5 0 0 1 2 24.35c0 4.78-.69 9.33-.69 13.88 0 9.79-1.13 19.58-4.78 28.91-4.78 12.06-7.73 26.86-18.89 35.73-5.46 4.33-11.6 9.33-18.2 13.2a58.21 58.21 0 0 1 -29.37 8c-10.46 0-20.93-1.82-30.72-6.83-10.93-6.37-17.53-13.2-25.26-22.3-8.88-10.7-13.43-26.18-16.62-41a124.71 124.71 0 0 1 -2.73-25.49c0-32.78 3-43.25 16.39-68.51 4.09-7.74 9.78-13.43 16.16-19.35 11.15-10.47 25.72-15.7 41.19-15.7 9.63-.01 20.56 1.58 29.41 6.83zm-1.36 117.67c0-7.29 2.27-15.71 2.27-25 0-9.1-1.82-17.07-1.82-24.13a41.61 41.61 0 0 0 -6.83-22.07c-5-7.51-12.51-13.2-21.62-13.2-4.09 0-9.1 1.36-12.29 3.87-4.78 3.86-7.05 9.1-10 14.11-7.29 12.74-7.29 23.9-8.2 40.74 0 14.56 1.82 27.54 5.69 37.78a69.94 69.94 0 0 0 4.78 10.47c4.1 6.6 10.47 10.7 20 10.7 18.25-.05 28.04-20.31 28.04-33.28z"></path><path d="m643.21 131.56a2.21 2.21 0 0 1 1.79-1.56c1.37 0 1.82.91 2.28 2.5.68 2.73.91 3 2.05 6.6s1.14 4.32 2.5 8.88 2.5 7.51 2.5 7.73c2.51 7.29 4.1 14.57 6.38 21.63.23.45.23.91.45 1.36 2.51 8.65 4.1 17.53 8 25.72.23.23 3 9.1 3 9.33 5.23 17.3 6.6 22.31 6.6 22.31h.45s2.51-9.33 5.92-22.54c.23-.22.23-.45.23-.91 2.27-7.51 3.87-15.47 6.14-23.21a3.85 3.85 0 0 1 .46-1.14 72.38 72.38 0 0 1 3.41-15.48c.23-.91.46-1.82.69-2.5 2.73-7.51 4.32-15 6.37-22.76a19.81 19.81 0 0 0 .91-3.41c2.05-7.29 3.19-12.29 3.19-12.52.22-.91.45-1.59 1.59-1.59.91 0 1.36.68 1.59 1.59.23.23 1.82 8.19 4.55 20.71 0 .46.23.91.23 1.37 1.82 8.65 4.1 17.29 5.46 25.94.46 2.73 2.28 8.65 3.19 13.89s3.64 18 5.92 29.81c.91 4.1 3.87 12.75 3.87 16.62 0 6.37 3 13.43 4.55 21.62 1.36 6.14 2.5 11.83 3.64 17.52a2.88 2.88 0 0 1 .23 1.37c2.05 8.42 3.87 16.61 5.23 25a2.84 2.84 0 0 1 .23 1.36c.91 5.24 1.59 10.47 2.73 15.71.68 2.5 1.82 4.09 2.51 7.51a13.42 13.42 0 0 1 .68 3.18c0 .69-.46 1.14-2.05 1.14-1.82 0-6.83-.45-7.51-.45s-3.64.45-4.55.45c-1.82 0-1.82-1.14-3.87-.45a10.79 10.79 0 0 1 -3.87.45c-3 0-3.19-.91-4.78-.91-.68 0-1.82.68-2.73.68-1.6 0-3.87-.68-5-.68a29.35 29.35 0 0 1 -4.1.68c-2 0-3.18-.45-3.41-3-.46-2-.23-4.55-1.59-7.28-1.14-2.05-3.42-15.48-4.78-19.8a51.87 51.87 0 0 1 -1.37-8c-2.05-9.33-3.87-16.84-3.87-16.84h-.45l-9.11 30.27s-2.27 7.51-3.41 12.52c-.68 3.19-3.41 12.75-3.41 12.75l-2.74 8.42a1.64 1.64 0 0 1 -1.36 1.36c-.68 0-.91-.45-1.14-1.36 0 0-.91-2.73-3-11.16-1.14-4.78-3.19-9.78-4.55-14.56-2.5-8.88-4.78-17.07-7.74-25.72-1.36-3.87-2.5-9.1-3.87-13h-.47c0 3.87-4.56 21.62-5.24 25.72-.91 5-1.14 9.78-2.5 14.56-.46 2.28-1.14 4.78-1.82 7.06a51.92 51.92 0 0 0 -1.37 6.14c-.23 2.28-2.5 1.82-4.1 1.82-2 0-3.64-.45-6.14-.45-1.37 0-1.59.68-3.87.68s-2.28-.45-3.19-.45-4.55.45-5.46.45c-1.36 0-1.82-.45-3-.45-2.5 0-1.36.45-3.41.45-2.5 0-2.5-.45-3.42-.45s-2 .45-2.73.45c-1.82 0-1.59-.45-3.41-.45h-1.34a1.18 1.18 0 0 1 -1.13-1.14 8.23 8.23 0 0 1 .45-2.05c2.73-8.19 2.28-14.57 4.1-22.76 0-.46 1.59-5 3-11.61s1.36-10.7 3.41-20.94v-.91c2.28-11.61 5.69-22.76 6.37-34.59.91-4.33 1.6-8.65 2.51-13 0-.22.68-5 1.14-7.28 1.13-5.92.68-5.69 1.59-11.84.91-5.23 2.05-10.46 3.41-15.47a1.71 1.71 0 0 0 .23-.91c.23-1.37.46-2.51.68-3.64a.84.84 0 0 1 .23-.69c1.82-9.33 3.64-20 4.33-23.44s.91-6.83 1.36-8.42l1.82-7.51c.89-5.11 1.12-10.8 2.71-16.03z"></path><path d="m807.53 333.67c-.68 0-1.13.23-2 .23-1.82 0-1.82-.23-3-.23-1.82 0-3 .23-4.1.23a9.74 9.74 0 0 1 -3.87-.69c-1.37-.68-2.5.23-3.87.23s-2.73.46-3.87 0c-1.36-.68-1.36.23-2.73.23-.68 0-2.05.23-2.28.23a7.52 7.52 0 0 0 -3.87-.23 12.49 12.49 0 0 1 -3 0c-1.14 0-2 .45-2.74.45a24.11 24.11 0 0 1 -4.09-.22c-.68 0-.91-.91-.91-.91s-.46-10.25-.46-13.21.46-5.46.46-9.33-.46-11.61-.46-14.34.46-13.65.46-13.88a92.28 92.28 0 0 0 -.46-11.38v-1.37c0-6.6 0-13.42.46-20v-19.37c-.23-9.1-.23-9.79-.23-19.35s.23-8.64.23-9.1v-18.66c0-.46.23-9.34.23-9.79 0-9.33-.23-10.47-.23-19.57 0-.46-.23-4.33-.23-5.92 0-2.73.23-5.46.23-5.46 0-.91.91-1.6 2.73-1.6h4.1c1.59 0 1.13-.45 3.18-.45h6.15c1.14 0 1.82.23 3.18.23.91 0 2-.23 3-.23s2.05.68 3.19.23c.91-.46 1.36.22 2.28.22h2.27c1.14 0 1.37.46 2.28.46.91.23 1.59-.46 2.5-.46 1.37 0 2.5-.45 5-.45s3.41 1.36 3.41 2v15.79c.23 3.64.23 7.06.23 10.7v31.18c0 .23-.23 7.28-.23 7.51v5.92c0 9.56.23 9.33.23 19.34 0 .23-.23 9.79-.23 10v3.87c0 .45-.23 4.32-.23 4.78 0 3.87.23 4.32.23 8v.91c0 3 .46 6.15.68 9.33.69 8.2-.22 8.65-.22 16.85 0 3.41-.46 5.69-.46 8.19 0 6.6-.23 9.1-.23 14.34 0 .45.23 6.14.23 6.37v8.65c0 .91-.23 4.32-.23 5.46 0 .91.23 1.6.23 3 0 1.14-.23 1.6-1.14 1.6s.02-.33-1.8-.33z"></path><path d="m914.77 140.66c2.05 0 1.37.91 3.42.91s2.27-.91 4.09-.91c.91 0 1.37.46 3.19.46 2.5 0 3-.46 5.24-.46 1.59 0 3.18.46 4.32.46s2.5-.68 3.64-.68c1.37 0 2.51.45 3.64.45 1.37 0 2.51-.45 3.64-.45s1.37.45 3.42.45a16.09 16.09 0 0 1 3-.45 2.73 2.73 0 0 1 2.73 2.5v17.06c.23 9.79-.23 19.35-.23 30.27v11.84c0 12.51.23 25-.45 38.46 0 5.23.22 10.7.22 18v18.21c0 4.32.46 8.87.46 15.47 0 6.15-.46 12.3-.68 18.44v25.95a1.31 1.31 0 0 1 -1.42 1.36 2.51 2.51 0 0 1 -1.59-.68c-2.28-3.41-5.47-5.92-8.42-9.79a150 150 0 0 0 -17.06-19.53c-4.78-4.33-8.43-10-12.52-15-.23-.23-3.19-3.42-3.42-3.64-2.27-2.74-1.82-2.28-4.09-5l-.69-.68c-6.14-5.47-12.51-14.57-13.88-16.16-1.14-1.37-3.41-3.65-4.55-5s-10-12.29-10-12.29.23 53.71.23 75.11c0 2.73-.23 4.32-.23 5.91 0 2-1.13 2.74-2.27 2.74s-1.82.45-3.19.45-2.27-.45-3.41-.45-2.73 1.13-4.33.91c-1.13 0-2.27-.23-4.32-.23-1.59 0-2.5.23-3.64.23s-2.05-.46-3.19-.46c-1.82 0-1.82.23-3.87.23s-2-.91-3.18-.91-2.51.68-3.87.68-4.78-.45-5.69-.45c-.69 0-1.6.22-1.6-2 0-.46.23-2.05.23-3.19 0-2.5-.45-5.23-.45-8.65-.23-6.83.22-13.65.22-21.39v-8.88c0-.23-.22-8-.22-11.15v-25c0-12.06.22-24.58.22-36.64v-48a168.7 168.7 0 0 1 0-23.9v-6.38a1.31 1.31 0 0 1 1.37-1.36 2.51 2.51 0 0 1 1.59.68s6.13 6.87 14.32 16.87c6.6 8.2 14.11 18 23 27.77 7.51 8.42 16.61 17.3 22.3 25.95 4.78 7.05 16.39 20.25 16.39 20.25v-47.11c.91-10-.23-20.26 0-30.27v-9.11a1.61 1.61 0 0 1 1.58-1.82z"></path></g></svg>