<svg xmlns="http://www.w3.org/2000/svg" viewBox="0 0 1080 1080"><g><path d="m158.05 275c-.46.71-.75 1.7-1.41 2.09a242.71 242.71 0 0 0 -33.64 25.23c-.65.57-1.92.43-2.36.51 2.47-5.45 4.86-10.8 7.32-16.12 4.35-9.46 12.27-15.87 20-22.19a173.89 173.89 0 0 1 43.61-25.71c14.12-5.91 29.15-7.9 44.17-10a122 122 0 0 1 30.66-.29 38.18 38.18 0 0 1 17.32 6.32c5.73 3.82 12.06 6.87 17.36 11.2 4.93 4 8.86 9.29 13.21 14 .3.32.79.75.75 1.07-.78 6.24 4.33 6.5 8.14 8.05 6.18 2.53 12.43 4.92 18.54 7.6 1.52.67 3.7 2.23 3.75 3.45.17 4.5 3.6 7 5.38 10.45a52.6 52.6 0 0 1 4.13 11.24c3.21 13.17 3.22 26.47 1.1 39.83-.51 3.19-.68 6.45-1 9.69 8.26-1.05 15.67-2.43 23.13-2.82 9-.46 17.43 1.32 22.33 10.15 5.5 9.92 8.58 20.11 2.8 31.11a42.6 42.6 0 0 0 -1.46 4.39c-1.39 3.51-6.17 5.21-8.61 2.54-2.78-3.05-4.75-6.88-6.77-10.54-.27-.5 1-2.26 1.92-2.84.46-.29 2.17.54 2.61 1.28 1.12 1.87 1.5 4.22 2.79 5.92 2.28 3 3.93 2.63 6-.61 3.75-6 3.3-12.46 1.78-18.79a29.53 29.53 0 0 0 -9.45-15.82 11 11 0 0 0 -4.59-2.3c-10.11-2.21-19.95-.55-29.66 2.44-2.55.79-3.82 2.35-4.26 5.26-1.56 10.4-4.31 20.48-9.58 29.71a32.94 32.94 0 0 1 -2.57 3.91c-.33.43-1.09.54-2.14 1 1.69-5.77 3.94-11 4.61-16.47s-.26-11-.48-16.48c-3.36-.73-4.82.47-5.31 3.09-.58 3.12-1.32 6-4.59 7.68-.81.42-1.2 3.94-.58 4.4 2.66 2 1.72 4.39 1.54 6.71-.53 6.62-1.18 13.22-1.82 20.12 6.24-.23 9.19 4.39 12.22 8.25 12.06 15.49 21.79 32.48 31.06 49.77 1.19 2.22 2.61 4.79 0 7.74-2.72-5.57-5.16-10.88-7.87-16a252.61 252.61 0 0 0 -25.62-39.85c-2.38-3-4.94-5.77-9.45-6.19-3.07 6.16-2.39 12.94-3.29 19.41-2.64 18.93-3 38.18-8.53 56.68a128.74 128.74 0 0 1 -15.11 32.33 121.16 121.16 0 0 1 -30.29 32.22c-6.89 5.11-14.07 10-22.8 12-5.91 1.37-6.44 2.82-6 9.2.11 1.55.18 3.1.15 4.65-.15 6.21 1.82 8.57 8 8.89 2.64.13 5.56.19 7.93-.77 11.73-4.74 22.39-11.14 29.7-21.85 1.95-2.85 5.12-5.32 3-10-1.13-2.45 4.48-6.13 9.09-6.42-4.47 17.92-28.47 45.62-56.2 42.13a12.24 12.24 0 0 0 -.56 2.45c-.11 8.05 1.6 10.17 9.44 11.91 6.51 1.45 13.15 2.55 19.5 4.52 5.32 1.66 8.75-.5 11.56-4.25a54.13 54.13 0 0 0 5.65-9.76c.9-1.93.44-4.52 1.43-6.38s3.53-2.69 4.41-4.46c4.24-8.56 8.9-17 12-26 5.92-17 11.16-34.26 16.19-51.56 3.29-11.31 6-22.8 8.4-34.33 1.68-8 2.37-16.29 3.55-24.44a9 9 0 0 1 2.32-5.35 20.76 20.76 0 0 1 .76 3.44c.66 11.78-2.54 23-5.29 34.26-3 12.31-5.94 24.66-9.49 36.83-4.24 14.51-8.88 28.92-13.78 43.22-2.2 6.43-5.45 12.49-7.68 19.21a22.48 22.48 0 0 0 9.15-6.77c6.77-8.24 13.81-16.3 19.92-25 6.37-9.07 12.05-18.65 17.5-28.31a204.37 204.37 0 0 0 10.31-21.68c2.57-6.14 4.37-12.61 6.63-18.89a13.33 13.33 0 0 1 2.14-3c.6 1 1.18 2 1.8 2.92 1.66 2.59 3.15 5.33 5 7.74a389.34 389.34 0 0 1 36.51 55.68c5.19 9.61 10.87 18.94 14.92 29.1 10 25.14 20.18 50.27 26 76.81 2.59 11.85 5.16 23.8 4.32 37.3 3.74-4.38 7-7.7 9.66-11.4 6.82-9.35 13.53-18.78 20-28.37 1.77-2.63 3.21-3.19 5.91-1.68 3.89 2.18 7.93 4.1 11.88 6.18 17.56 9.21 35.16 18.36 52.63 27.75 3.24 1.75 5.6 1.88 8.38-.62 2.47-2.21 5.32-4 8-6 4.51-3.31 8.42-7.1 9.77-13.43l7.47 5.4c1.35-1.28 1.61-3.83 4.77-2.61 23.26 9 46.63 17.77 69.93 26.7a14.07 14.07 0 0 1 5.41 4c-25.59-9.27-50.6-19.78-77.92-27.65.89 1.92 1 2.79 1.54 3.24 12.44 10.84 25 21.52 37.34 32.51 4.51 4 9.46 5.14 15.29 5.28 26.51.62 53 1.54 79.52 2.38a6.46 6.46 0 0 1 3.8 1.22h-85.85c-.19 3.15 1.76 3.93 4.09 4.07 8.67.52 17.34.95 26 1.39q20 1 40 2c11.57.57 23.14 1 34.69 1.67a48.37 48.37 0 0 1 14.37 2.79c-1 .31-2.09.95-3.11.89q-15-.89-30-2c-8.42-.62-16.83-1.62-25.27-2-10.47-.43-21-.26-31.44-.54-5.56-.14-11.11-.72-16.67-1a36.46 36.46 0 0 0 -4.76.37l-.48 1.41c2 2 3.95 4 6 5.86a2.47 2.47 0 0 0 1.81.66c13-2.36 26-.3 39.07-.63s26.34.44 39.51.84a42.13 42.13 0 0 1 13.17 2.22 23.67 23.67 0 0 1 -4.6.73c-13.59-.42-27.18-1.16-40.78-1.37-14-.21-28.1.07-42.15.17a12.5 12.5 0 0 0 -2.66.93l20.15 21.24c-18.74 14.66-36.12 29.77-55.67 42.09 15.93-15.15 34.27-27.46 50.57-42.64-7.78-8.49-14.92-17-22.81-24.7-10.61-10.36-21.66-20.42-32.88-30.21-9.89-8.65-20.22-16.8-30.43-25.08-4.32-3.5-4.3-3.28-8.58.52-3 2.66-6.33 4.92-9.47 7.41-2.24 1.78-4.41 3.65-6.34 5.25.46 4.42 7.53 3.54 5.92 9.46-4.25-2.46-8.09-4.82-12.05-7q-22.31-12.1-44.68-24.08c-7.07-3.78-14.27-7.35-21.36-11.1-2.83-1.49-4.44-1.33-6.4 1.83-11.67 18.81-26.37 35.28-41 51.8-11.36 12.84-22.52 25.89-34.35 38.3a286 286 0 0 1 -24.64 22.4c-8.2 6.78-17 12.87-25.53 19.21a13 13 0 0 1 -2.64 1.24c-1.23-1.61-2-3.45-3.34-4.23-9.83-5.62-19.74-11.11-29.75-16.39a6.91 6.91 0 0 0 -5.53-.31c-17 8.89-33.81 18-50.68 27.08a22.85 22.85 0 0 0 -2.45 1.91c3.87 1.93 7.1 3.78 10.52 5.18 9.42 3.88 19.14 7.12 28.33 11.48 6.62 3.13 11-.21 15.87-3.32 2.56-1.63.76-3.48.47-5.28-.63-3.84.78-5 4.38-3.69 26.83 9.91 54.63 16.32 82.57 21.95 13.3 2.68 26.94 3.6 40.39 5.57a13.75 13.75 0 0 0 10.07-2.38c12.59-8.21 25.24-16.32 38.11-24.62.89 3.16-1.57 4.7-3.57 6.08-7.49 5.13-15.13 10-22.67 15.09-2.67 1.79-5.22 3.78-7.82 5.67.14.47.27.94.4 1.42l29.26 3c-4.27 3.87-8 2.23-11.18 2-16.6-1.39-33.19-3.07-49.76-4.88a170.5 170.5 0 0 1 -17.78-3c-15.67-3.43-31.35-6.85-46.92-10.71-12.27-3-24.37-6.74-36.57-10.08a31 31 0 0 0 -4.95-.47c1.38 2.86 2.15 5.23 3.52 7.18 8.19 11.65 14.79 24.22 21.82 36.56 5.06 8.87 11.31 17.05 16.83 25.67 1.65 2.58 2.43 5.69 4 8.37 2.42 4.26 5.45 8.2 7.63 12.57 2.26 4.55 5.79 6.45 10.54 7.06 11.26 1.43 22.46 3.32 33.75 4.42 22.6 2.19 45.2 4.51 67.86 5.74 14.16.77 28.45.59 42.56-2.21 5.85-1.16 11.91-1.41 17.89-1.77a323.88 323.88 0 0 0 52.25-7.21c15.19-3.44 30.42-6.67 45.61-10.09 3.45-.78 6.8-2 10.21-3 1.83-.51 3.71-.9 5.87-1.43.62-11 1.37-22.3 1.85-33.62.36-8.47.82-17 .33-25.42-.21-3.57-.71-6.87 1.11-10a8.17 8.17 0 0 1 3.05-3.38c10.07-4.63 20.47-5 31-2.59 0 .56.11 1.13.16 1.69a25.76 25.76 0 0 1 -5.2.52 46.4 46.4 0 0 0 -20.47 2c-5.59 2-7 7.45-2.86 11.42 4.91 4.66 11.48 5.7 17.72 7.19.83.2 2.48-1.55 3.22-2.73q7.83-12.43 15.4-25c6.52-10.89 13.92-21.4 19-32.91 3.68-8.26 10.3-13.77 14.9-21 .56-.88 2.23-1.05 3.38-1.54.26 1.14 1 2.46.69 3.4a59.14 59.14 0 0 1 -3.94 9.14 3.67 3.67 0 0 1 -3.27 1.27c-2.56-.75-3.45.4-4.61 2.42-7.86 13.67-15.89 27.25-23.86 40.86q-3.7 6.33-7.41 12.66c-2.13 3.61-4.34 7.18-6.34 10.86-.43.8-.12 2-.16 3 1.16-.06 2.7.33 3.4-.27a17.21 17.21 0 0 0 3.08-4.25c7.26-11.94 14.59-23.84 21.69-35.88 3.48-5.92 6.52-12.11 9.77-18.17 1.25-2.33 2.55-4.63 4-7.2 1.59.69 3.18 2 4.09 1.61 1.19-.48 1.88-2.26 2.76-3.5 6.57-9.18 10.9-20 19.7-27.54 1-.87 1.86-2.05 3-2.58a3.78 3.78 0 0 1 3 .36c.45.26.61 1.62.4 2.33-1 3.41-2 6.81-3.33 10.12-.51 1.3-1.69 2.34-2.57 3.5-.87-1.13-1.78-2.24-2.61-3.4a25.94 25.94 0 0 1 -1.33-2.86l-53.25 88.2h9.21c3.12-5.16 6.15-10.2 9.21-15.21 3.57-5.85 6.91-11.88 10.85-17.48 6.18-8.81 10.86-18.61 18.71-26.39 3.57-3.54 5-9.21 7.69-13.69 3.93-6.42 8.15-12.67 12.37-18.92a21.47 21.47 0 0 1 3.38-3.2l-.19-.2a79.22 79.22 0 0 0 6.65 5.14c2.28 1.43 3.26 2.59 1.52 5.26-5 7.63-9.4 15.63-14.61 23.09-10.81 15.47-22 30.69-33.34 46.46 3.37 1.75 4.14 4.2 3.81 7.66-1.29 13.72-2.21 27.47-3.32 41.92 14.76-3.72 28.51-9.38 42.59-16.46-10.94-10.26-26.67-12.52-36.77-23.1.28-.53.57-1 .86-1.58a44.47 44.47 0 0 1 6 3.24c3.59 2.71 7.62 3.42 11.92 3.48 23 .29 46 .36 68.94 1 10.68.28 21.35 1.5 32 2.44 12.42 1.09 24.83 2.32 37.24 3.55a3.73 3.73 0 0 1 2.6 1.75c-11.51 1.31-22.63-2.18-34-2.26-11.57-.09-23.12-1.72-34.7-2.24-11.35-.51-22.72-.53-34.08-.63s-22.72 0-35.11 0l22.7 15.4a44.85 44.85 0 0 1 -4.72 2.77c-9.69 4-19.37 8-29.14 11.69a137 137 0 0 1 -14.54 4.6c-3 .79-3.25 2.41-3.58 5.24-1.28 11.26-3.12 22.45-4.88 33.64a4.09 4.09 0 0 1 -2 2.41c-19.71 10.82-39.75 11.59-60.15 2-6.21-2.93-8.88-7.79-8.6-14.49a26.7 26.7 0 0 0 .06-2.68c-.18-2.84-.4-5.68-.6-8.52-2.44.6-4.87 1.23-7.32 1.79-13.22 3-26.42 6.16-39.67 9-9.78 2.11-19.58 4.26-29.46 5.72-12.32 1.82-24.72 3.08-37.11 4.34-12.19 1.25-24.57 1.37-36.61 3.48-24.09 4.21-48.37 7.67-71.91 14.66-2.34.69-4.86.79-7.21 1.45-2.64.74-5.19 1.79-7.8 2.71-8-7.46-16.83-15-24.78-23.33-5-5.27-11-5.59-17.09-5.22-3.06.18-4.21-.32-5.66-2.72-6-9.91-12-19.82-18.42-29.42-3-4.52-6.94-8.5-10.76-12.43-8.09-8.3-16.35-16.44-24.61-24.57-2.64-2.61-5.5-5-8.25-7.48l.75-1.54h15.25c-2.54-6.42-6-10.92-9.54-15.28-.58-.72-3.47-.26-4.87.47-10 5.23-19.76 11.16-30 15.93-12.1 5.62-24.61 10.38-37 15.33-6 2.39-12 4.9-18.25 6.41-11.66 2.82-22.23 9.29-34.47 10.08a6.82 6.82 0 0 0 -1.28.36q-17.29 4.77-34.59 9.69c-.38.11-.67.51-1.31 1a11.9 11.9 0 0 0 1.83 1.69 343.38 343.38 0 0 0 44.14 22.14c23.32 9.48 46.59 19.08 69.95 28.45a146.53 146.53 0 0 0 17.13 5.49 9.9 9.9 0 0 0 6.35-.6c8-3.92 15.88-8 23.61-12.38 11.58-6.57 23-13.4 34.45-20.21 2.83-1.69 5.44-3.74 9-5-.39 1-.5 2.34-1.22 2.86-2.69 1.91-5.56 3.56-8.38 5.29-7.2 4.43-14.31 9-21.64 13.24q-18 10.32-36.21 20.16a7.57 7.57 0 0 1 -5.52.51c-12.77-4.59-25.42-9.53-38.16-14.19-25.75-9.42-50.69-20.72-75.38-32.55-8.4-4-16.29-9.13-24.37-13.82a16.75 16.75 0 0 1 -2.75-2.52c23.83-6.48 47.39-12.48 70.65-19.48s45.38-16.57 67-27.48c-17.07 2-34.13 4.13-51.23 5.79s-34.16 2.68-52.26 1c-2.34-18.71-3.83-37.32-7.2-55.57-2.82-15.31-.67-30.7-2.83-45.95-.88-6.27.16-12.79.09-19.19-.08-7.7-.42-15.39-.64-23.09l-1.55-.17a14.81 14.81 0 0 0 -1.13 3.83c-.15 5.77 0 11.56-.17 17.33-.24 6.62-.82 13.24-1.15 19.86-.5 10-.82 20-1.4 30-.16 2.79-.45 5.87-4.64 6.9 5.44-21.51 3.6-42.37-2.9-63.11q-.3 5.18-.62 10.36l-1.43.1a11.41 11.41 0 0 1 -1.12-3.16c-.7-18-1.41-36.05-1.94-54.08-.37-12.9-1-25.82-.61-38.71.39-14 1.26-28 2.83-41.95 2.11-18.59 5-37.1 10.31-55.13a62.58 62.58 0 0 1 3-7c-3.34-6.08-7-12.9-10.81-19.69-5.4-9.76-8.68-20.3-11.57-31-.72-2.63-1.34-4.23-5-2.86-11.34 4.24-20.36 11.56-29.31 19.45-10.48 9.21-16 21.39-21.22 33.52a390.64 390.64 0 0 0 -23 69.65 16.33 16.33 0 0 1 -3.48 7.22c-.16-.7-.58-1.46-.43-2.09 6.63-27.57 14.52-54.74 26.56-80.53q3.24-7 6.74-13.8c4.91-9.63 13.33-16.09 21.36-22.75 4.26-3.54 7.18-6.54 7.62-12.88.54-7.83 3.8-15.48 6-23.17.18-.64 1.19-1 2.92-1.07-.33 1.55-.61 3.11-1 4.65-1.46 5.83-3.3 11.59-4.34 17.5-.91 5.14.71 6.15 5.53 4.3 9.43-3.6 9.43-3.6 7.39-13.26a54.4 54.4 0 0 1 -1.2-5.89c-.74-7.38-5.33-11.76-11.21-15.49a10 10 0 0 1 -4.16-5.48c-1.14-4.9-2.52-9.69-2.82-14.91-.48-8.39-2.84-16.67-4.38-25-.48-2.63-.94-5.27-1.3-7.91-.22-1.61.79-3.72-2.11-4-.28 0-.7-1.93-.47-2.81a67.66 67.66 0 0 1 3.22-10.84c2.33-5.33 1.47-10.76-3.55-13.51-2.54-1.39-3.06-2.83-3.8-5.39-.93-3.23-3.31-6.21-5.59-8.84-3.49-4-7.21-7.93-12.93-8.89-4-.67-7.48-.17-10.41 2.89-6.8 7.09-8.77 21.62-3.88 30a30.36 30.36 0 0 0 3.73 4.69c1.64 1.82 3.49 2.64 5.92 1.15.78-.48 2-.3 3-.42 0 1.2.3 2.53-.09 3.6-1.8 5-2 5-6.86 2.06-11.29-6.87-15.65-20.59-10.22-32.38a60.1 60.1 0 0 1 4.83-9.4c5.17-7.38 13.83-9 21.68-3.71 2.87 1.94 5.19 4.72 7.66 7.22 1.37 1.39 2.52 3 4.4 5.25a64.24 64.24 0 0 0 3.86-5.88c4.21-8.52 10.9-15.11 17.06-22.09 3.53-4 7.45-7.66 11.3-11.37 1.48-1.43 2-2.42-.42-3.21 11.52-9.36 25.85-17.44 32.53-17.78a44.51 44.51 0 0 0 -4.78 2.57c-6.45 4.68-13.37 8.89-19.13 14.33a219.19 219.19 0 0 0 -20.1 22.19c-5.39 6.68-10 14-14.75 21.15-2.2 3.28-2.54 6.58 1.37 9.34.8-.57 1.53-1 2.21-1.57 12.59-9.95 24.8-20.3 35.72-32.15 2.32-2.51 6.08-6 8.52-5.58 4 .75 5.69-1.73 8.11-3 4.88-2.65 9.41-6 14.21-8.76 2.49-1.46 5.14-2.83 8.29-2.55-12.62 7.14-23.88 16.06-35.34 24.74-12.57 9.51-24.13 19.76-31.49 34-1.31 2.52-5.74 4.7-2.67 7.77 1 1 5.71-.69 8.16-2.11 11-6.36 21.93-12.77 32.52-19.72 19-12.45 37.7-25.32 56.57-37.95a51.14 51.14 0 0 1 6-3 346.87 346.87 0 0 1 -33.77 26.09c-17.15 11.52-34.63 22.52-52.19 33.41-3 1.85-4.81 3.63-5.11 7.07-.4 4.63-.32 9.43-1.62 13.81-.87 2.95-.15 5 .56 7.59 1.42 5.17 6 5 9.74 6.64 21.31 9.58 42.79 18.92 61.31 33.58 2.45 1.94 4.54 2.38 7.35.54a27.19 27.19 0 0 1 -3-3.84c-1.55-3-.45-8.06 2.22-8.76 5.11-1.34 10.39-2 15.6-3 1.39-.24 2.81-.34 4.31-.52-1.18-7.17-2.29-13.75-3.35-20.33-.35-2.18 0-3.93 3-3.84.71 6 1.42 11.72 2.07 17.45.62 5.39 2.38 9.87 8.58 11.07a112.16 112.16 0 0 1 29.12-18.53c12.92-5.62 25.74-11.23 40.14-11.8a7.92 7.92 0 0 0 7.9-8.55c-.32-8.45-.62-16.92-1.53-25.32-1.73-15.95-3.71-31.88-9.74-47-.23-.58.36-1.48 1-3.82 1.67 3.11 3.07 4.85 3.58 6.81 2.07 7.93 4.12 15.88 5.69 23.93 1.1 5.67 1.42 11.49 2.09 17.25.29 2.55.65 5 3.68 4.21-1-13.76-2-27.3-3-40.84 4.78 10.17 4.63 21.12 5.59 31.85 1 10.91 1.56 21.86 2.33 33 5.47-2.14 5.6-2.13 6-6.42.82-8.65 1.82-17.3 2.12-26a57.92 57.92 0 0 0 -6.84-30.36c-2.48-4.5-4-10.08-9.22-12.64-10.35-5.05-20.23-11.25-31.9-13.15a34.91 34.91 0 0 1 -5.29-1.8c4-5.24 8 1.1 12.07-.92-2.63-5.27-6.4-9.23-10.48-13-6.13-5.61-13.17-9.79-20.43-13.74-3.68-2-7-4.82-11.32-5.05-10.32-.55-20.49-3-31-.86-9.55 2-19.39 2.48-29 4.18-11.29 2-21.61 6.73-31.71 12.07-16.45 8.69-31.67 19-43.79 33.28-2.44 2.88-3.95 6.55-5.89 9.86l1.16.86c6.39-4.26 12.72-8.63 19.22-12.74a71.22 71.22 0 0 1 8.05-3.85zm-2.83 140.51c1.35 6.69 2.68 14.82 4.69 22.78 2.77 11 5.34 22.06 9.29 32.62a121.06 121.06 0 0 0 25.71 41.13c6.1 6.41 11.85 13.27 20.05 17.48 3 1.54 5.34 1.82 8.08.42 9.87-5.05 19.77-10 29.53-15.29a33.16 33.16 0 0 0 7.81-6c5.44-5.6 10.29-11.78 15.9-17.17 5.27-5.06 7.85-11.05 9.3-18 2.81-13.5 5.67-27 9.14-40.35 1.82-7 7.83-11.35 13.69-14.73 2.09-1.2 3.31-2.06 4.12-4.1.68-1.72 1.55-3.37 2.34-5.05a8 8 0 0 0 -4.19 1.81c-4.55 3.16-8.79 7-13.73 9.34-15.09 7.19-25.37 4.89-36.27-7.57-1.44-1.65-2.4-.95-3.94-.81-2.94.28-4.07-1.64-2.7-4.16.52-1 1.53-1.66 2.06-2.61 2.67-4.84.33-10.53-5-11.77-6.77-1.59-13.31-.44-19.57 2.36-2.78 1.25-3 3.09-1 5.86 1.62 2.24 3.22 4.5 5.33 7.46a30.34 30.34 0 0 0 -4.79.89c-2.43.94-5.12 1.68-7.08 3.27-3.42 2.79-6.29 6.25-9.52 9.28-10.4 9.74-22.09 13.75-36 8.17-12.78-5.12-21.35-13.83-24.24-27.61-1.9-9.07-3.76-18.12-3.36-27.5.09-2.26-.89-4.56-1.38-6.85a6 6 0 0 0 -2 4.57c0 6.46.28 12.92.21 19.37 0 1-1.24 1.93-1.9 2.89a9 9 0 0 1 -1.74-2.5 13.68 13.68 0 0 1 -.22-4c.3-7.12.24-14.29 1.07-21.36.93-7.89-2.79-14.22-5.78-20.85-.91-2-2.74-2.11-4.41-.59-2.32 2.1-2.1 3.91.23 6.45.69.76.76 2.22.84 3.38.17 2.6 0 5.24.29 7.81 1 7.73 2.69 15.4 3.32 23.16.77 9.61 3.17 18.4 10 25.46 1.25 1.27 3.29 1.69 5.82 2.92zm152.49 5.49c-5.18 5-9.78 8.38-11 14.52-1.85 8.93-4.48 17.73-5.75 26.73-2.06 14.56-6.3 27.74-18.5 37.13a22.49 22.49 0 0 0 -2.68 3c-5.78 6.51-11.68 12.79-19.78 16.62-10.46 4.89-20.61 10.44-31 15.55-7.6 3.74-12.79 9.32-14.92 17.67a228 228 0 0 0 -7.18 46c-.47 10.45-2 20.88-2.09 31.32-.11 12.39.76 24.8 1.3 37.2.24 5.56.37 5.63 5.93 5 12.85-1.49 25.7-3.06 38.54-4.57 3.26-.39 6.53-.68 9.89-1 0-1.89.11-3.21 0-4.52-.8-8.39-1.77-16.75-2.43-25.15-.69-8.87-1.12-17.76-1.62-26.65-.7-12.44-1.25-24.9-2.09-37.33-.28-4.23-1.23-8.42-2-13.16a41.59 41.59 0 0 0 4.76-.65c3.85-.92 7.93-1.44 11.46-3.1 19.51-9.16 33.61-24.78 46.32-41.39 8.85-11.58 13.39-25.64 15.55-40.13 2.39-16.07 4.36-32.2 6.25-48.34.52-4.51.08-9.14.08-14.82-1.12 1.5-1.93 2.09-2 2.78-1.72 13.22-3.19 26.47-5.07 39.67-1.18 8.35-2.22 16.83-4.63 24.86-3.11 10.38-10.35 18.62-16.73 27.2-.3.41-1.06.49-2.66 1.16 1-2.13 1.41-3.56 2.25-4.63 9.84-12.5 17.05-26.05 17.3-42.46a25.41 25.41 0 0 1 .59-3.28c1.86-11.65 3.8-23.28 5.52-34.95.65-4.41.79-8.89 1.27-14.64-2.1 1.92-3.4 2.76-4.23 3.94a61.23 61.23 0 0 0 -9.94 25.18c-1.6 9.63-1.61 19.51-2.64 29.25-.56 5.26-.71 11-3 15.54-3.71 7.5-8.93 14.27-13.65 21.25-.54.81-2 1-3 1.52a4.46 4.46 0 0 1 1.19-3.27c7.44-9.27 14.38-18.7 15.25-31.26.76-11.1 1.9-22.17 3-33.24.49-4.35 1.28-8.63 2.14-14.55zm129.61 290c-9-8-17.24-15-25.21-22.37-6.38-5.87-12.8-11.77-18.57-18.23s-6-6.81-14.05-3.32c-1 .45-2 .9-3 1.39-9.17 4.53-18.37 9-27.49 13.64-5.32 2.7-10.5 5.69-15.76 8.5q-9.42 5-18.87 10c-2.65 1.38-5.35 2.68-7.94 4 3.3 7.82 9.12 12.26 14.91 16.72 5.09 3.94 10.44 7.6 15.26 11.85a215.24 215.24 0 0 0 41.09 28.38c3.43 1.84 6.25 1.73 9.12-.94 3.74-3.47 7.79-6.63 11.41-10.22 13.06-13.08 26.03-26.24 39.1-39.4zm240.31 110.77c-.35.5-.8.84-.82 1.2-.47 10.15-1.06 20.29-1.29 30.45-.32 13.49.17 27-.75 40.48-.4 5.94 2.3 8.94 6.47 10.9a78.1 78.1 0 0 0 15.76 5.2 57.22 57.22 0 0 0 31.56-2c6.34-2.16 11.12-5.48 11.87-13.68 1.69-18.57 4.63-37 6.88-55.56.58-4.83.52-9.75.74-14.3-24.43 9.37-47.66 9.42-70.42-2.69zm-523.32-441h-.21c.47 3.74.69 7.53 1.44 11.21 2.21 10.88 4 21.79 13.92 29.28 8.3 6.27 22.93 11.71 34.84 4.16a74.9 74.9 0 0 0 11.7-8.81c8-7.64 7.66-9.48-2.18-14.84-11.69-6.36-23.38-12.72-35.22-18.8a181.79 181.79 0 0 0 -17.7-7.72c-5.61-2.16-6.45-1.37-6.54 4.85zm176.49-14.36c-6.83 1.22-12.52 1.83-18 3.29a145.56 145.56 0 0 0 -35.47 15.13c-7.21 4.21-15.73 8.15-16.2 18.56a14 14 0 0 0 .48 5.54c3.44 8.66 17.59 13 24.49 11.07 11-3 20.34-8 27.3-17.69 7.68-10.62 12.52-22.31 17.4-35.9zm-117.34 167.67c-5.39-5-10.35-9.39-15-14.06s-9-9.66-13.5-14.49c-3.68 2.62-1.7 4.79-.16 7l15.15 21.69c-10.15-3.62-11.76-14-18.13-20-1.43 5.28-1.57 5.42 1.41 9.9 4.79 7.2 9.81 14.24 14.66 21.39.41.6.28 1.56.41 2.35-.95-.1-2.33.15-2.76-.38-2.53-3.09-4.92-6.3-7.22-9.57-2.95-4.2-5.77-8.49-9-13.21-8 21 .78 38 16.49 53.59 1-5.6 1.93-11 2.94-16.42 2.04-10.82 4.25-21.54 14.71-27.79zm282.27 374.46-.06-1.73c-9.36-.66-18.73-1.24-28.09-2s-18.94-2.12-28.43-2.49c-9.27-.37-18.35-3.3-29.1-2.76 7.71 7.38 14.31 13.66 20.86 20 1.85 1.79 3.74 1.6 6.12 1.08 16.73-3.65 33.5-7.11 50.27-10.6 2.79-.61 5.62-1.04 8.43-1.5zm-194.06-186c3.13 2.69 5.62 5.11 8.4 7.16q9.63 7.11 19.49 13.9c13 9 25.95 17.92 40.14 24.93 3.64 1.8 6.16 1.37 8.26-2.15-.63-.69-1-1.33-1.53-1.64-19.6-11-37.43-24.34-54.36-39-5.45-4.74-11.43-8.62-20.4-3.21zm-2.67 9.26c6.08 8.77 58.5 40.2 70.64 42-1.64-1.64-2.44-2.82-3.55-3.48-2.27-1.36-4.85-2.22-7.06-3.65-7.08-4.59-14.08-9.32-21.08-14-9.37-6.34-18.92-12.45-28-19.24-3.68-2.87-6.83-3.2-10.95-1.63zm-112.34-115.86c.59 2.56 1.6 5.07 1.65 7.6.08 5.35-.68 10.72-.46 16.05.26 6.09-.95 12.22 1.65 18.33 1.12 2.65-.14 6.49-.87 9.67-.37 1.61-2 2.35-3.56.57a31.38 31.38 0 0 0 -2.79-2.38c0 2.34-.28 4.57.05 4.67 3.44 1 7 1.64 10.2 2.32.58-1.14.76-1.33.76-1.52-.67-19.45-2.14-38.88.21-58.33a135.12 135.12 0 0 0 .62-16c0-.85-1.36-1.7-2.09-2.55-.36 1-1.33 2.42-1 3 2.34 3.94-.94 5.41-3.22 6.9 4.19 9.66 4.19 9.66-1.15 11.67zm98.56 119.9 1.22-.52c.25-1.72.84-3.47.68-5.16-1.11-11.42-2.28-22.83-3.61-34.23-.89-7.65-2.1-15.26-3.11-22.89-.49-3.73-.72-7.51-1.43-11.2-.16-.88-1.79-1.47-2.75-2.19-.44 1-1.35 2-1.24 3 .52 4.63 1.28 9.24 2 13.85 2.93 18.44 5.58 36.89 5.86 55.61.03 1.23 1.56 2.48 2.38 3.73zm72.49 112.16c-4.26-7.49-8.48-15-12.83-22.44-.84-1.46-2-3.53-3.32-3.75a24.75 24.75 0 0 0 -11.29.48c10.38 8.32 16.83 19.21 27.44 25.71zm-26.06-466.75-1.74-.33c-4.47 8.52-9 17.05-13.48 25.66 2.94.83 7.12-5.72 9.68 1a3.27 3.27 0 0 0 1.74-.58 7.76 7.76 0 0 0 1.82-3.37c.77-7.46 1.33-14.93 1.98-22.38zm-59.81 280c-5.16-3.94-9.63-1.81-13.78-1.86-5.28-.06-5.6 1-2.76 6.51z"></path><path d="m964.91 497.65c-5.73-.37-11.45-1-17.18-1.07-17.38-.27-34.76-.29-52.14-.52-4.68-.07-9.35-.6-14-.84-4.23-.21-7.55 1.44-10.83 4.25-9.63 8.29-16.34 18.56-22.75 29.4-8.14 13.79-13.11 28.71-18.32 43.62-.36 1-.51 2.16-.95 4.12 20.72.39 41.11.73 61.49 1.17s40.58 2.83 62.38.14c-2.23-2.1-3.2-3-5-4.75 22.08-12.13 44.53-22.27 66.9-32.54 1-.45 2.35-.06 3.74.77l-9.8 4.44c.12.5.23 1 .34 1.5h8.59a35.55 35.55 0 0 1 -4.37 3.13c-17.71 8.42-35.49 16.7-53.16 25.21-5.78 2.78-11.29 6.12-16.24 8.84-2.52-1-4.66-2.53-6.93-2.75-10.2-1-12-.56-16.1 2.64 7 5.29 15.24 3.82 24.59 4.64-2.38 1.26-3.32 2.16-4.31 2.21-2.89.14-6 .61-8.65-.26-7.51-2.48-13.07 1.32-18.29 5.37-5.6 4.34-4.18 10.94 2.58 13.44 2.49.92 5.25 1.08 7.83 1.78a5.35 5.35 0 0 0 5.91-1.74c8.6-9 17.37-17.85 26.09-26.74.92-.94 2-2.56 2.92-2.51 3.27.19 5.47-.78 5.53-4.69l23.05 14.09c-5.38 2-9.79 3.69-14.17 5.4-7.45 2.92-14.92 5.81-22.32 8.86-6.74 2.77-13.7 5-19.45 10-2.48 2.15-6.34 2.9-9.71 3.74-1.52.38-3.51-.29-5-1-14.42-6.53-28.71-13.36-43.2-19.74-9.16-4-18.61-7.44-27.92-11.15-2.83-1.13-5.62-1.88-8-4.33-3.71-3.79-11.09-1.17-12.55 3.89-.8 2.77-1.87 5.46-2.68 8.23-.94 3.25-.1 5.27 3.46 6.66 19.41 7.6 38.81 15.44 58.21 23.34q19.21 7.8 38.36 15.79a6.49 6.49 0 0 1 3.65 3.54 13.76 13.76 0 0 1 -2.9-.53c-15.25-6.31-30.41-12.8-45.72-19-11.95-4.81-24.1-9.14-36.11-13.78-5.36-2.07-10.57-4.54-15.94-6.57-4.33-1.64-5.5-.89-6.69 3.51-.58 2.14-1.11 4.3-1.63 6.46 0 .19.12.42.39 1.23l89.43 34.21-.66 1.76c-15.34-4.14-29.67-11.21-44.62-16.46s-29.37-11.6-44.53-15.91c-.34.77-.68 1.53-1 2.3 2.38 1.22 4.69 2.61 7.15 3.65q45.9 19.38 91.85 38.67c3.49 1.47 7 3 10.33 4.74a16.27 16.27 0 0 1 3 2.59l-.74 1.16c-2.16-.84-4.36-1.6-6.48-2.52-17.56-7.6-35.08-15.3-52.67-22.84-12.9-5.52-25.89-10.84-38.83-16.25-3.86-1.62-7.72-3.22-11.56-4.88-2.19-1-3.73-1-4.46 1.87s-2.81 3.78-5.6 2.23a13.09 13.09 0 0 0 -1.83-.82c-7.21-2.7-8.46-1.83-8.64 6 0 .63-.09 1.27-.2 2.72l-16-6.54-1.85 9.36c-5.05-1.47-10.12-2.88-15.14-4.44q-15.9-4.93-31.76-10c-4-1.29-8-2.79-12-4.19-12.41-4.37-25-8.14-38.08-9.78a20.19 20.19 0 0 1 -3.31-.51c-4.07-1.26-4.78-2.62-3.88-7 1.84-8.92 3.66-17.84 5.6-27.32l-35.43-2.56c9.88 4.51 21.21 3.46 30.61 9.89a16.72 16.72 0 0 1 -3.32 0c-14.15-2.87-28.36-5.54-42.43-8.79-15.79-3.65-31.9-2.2-47.82-3.73a37.22 37.22 0 0 1 -5.12-1.2c.08-.63.17-1.25.25-1.87 1.78.14 3.55.32 5.33.4 17.4.78 34.79 1.45 52.18 2.33 13.55.69 27.1 1.57 40.64 2.47 3.67.24 7.26.88 7.88-4.39.07-.66 1.55-1.15 2.37-1.71.21.94.91 2.16.56 2.79-5.89 10.47-4.8 22.6-8.18 33.65-.68 2.24.15 3.38 2.24 3.94a27.38 27.38 0 0 0 3.2 1c19.12 2.75 36.95 9.91 55.09 16 4.62 1.56 9.56 2.16 14.23 3.59 7.62 2.34 15.15 5 23.26 7.69a41.92 41.92 0 0 0 1.86-6 214.93 214.93 0 0 1 17.3-58.13c6.59-14.62 13.53-29.27 22.17-42.72 7.36-11.45 15.67-22.73 27.23-30.79a17.44 17.44 0 0 0 2.21-2.52c-6.43-1.89-12.54-1.72-18.54-1.73-5 0-10.11 1.11-15.15 1-5.66-.14-11.29-1.19-16.94-1.7-2.3-.21-4.63 0-7.23 0 .91 3.31 2.45 4.34 5.09 4 .69-.07 2.11.79 2.08 1.13-.07.94-.56 2.45-1.2 2.64-2.44.71-2.2 2.12-1.86 4.09.48 2.76-.11 5.45-2.73 7s-4.69.54-6.58-1.45c-1.41-1.49-2.73-1.55-4.68-.4-3.37 2-5.49 1.39-7.62-2-2.37-3.75-4.42-7.72-6.57-11.61a9.52 9.52 0 0 0 -15.08-1.83 54.49 54.49 0 0 1 -4.72 4.65c-2.14 1.75-4.67 3.11-7.35 1.37-2.43-1.59-4.72-3.55-3.78-7.12.12-.49-.25-1.1-.41-1.77-5 4.22-14.06 36.95-20 72.07 1.19 0 2.86-.45 3.33.11.66.79.45 2.32.71 4.23-3.17-1.09-5.83-2.68-8.09.44-.4.55-2.5 0-3.77-.24-14.35-3.12-28.69-6.33-43-9.44-17.39-3.77-34.81-7.44-52.2-11.23a51.16 51.16 0 0 1 -8.29-2.62c-.65-.26-.81-1.73-1.19-2.64.8-.18 1.7-.7 2.37-.49 18.72 5.83 38 9.48 57.08 13.69 7.6 1.68 15 4.3 22.64 5.81 8.45 1.69 17.06 2.6 26.36 4 1.58-7.19 3-13.86 4.51-20.54s2.61-13.58 4.47-20.21q5.86-20.89 12.37-41.62c7.57-24.16 18.16-46.9 33.1-67.42 3.37-4.62 7.71-8.52 12-13.16-11.41-2.87-22.68-.95-34.94-2.38 2.92 3.56 1.76 5.63-.08 8.58-16.48 26.37-29.42 54.33-37.2 84.58-3.26 12.72-7.19 25.26-10.86 37.87a7 7 0 0 1 -1.17 1.65c-6.47-3.72-13.5-5.42-20.6-7.14-12.07-2.92-24-6.46-36-9.49-3.81-1-4.15-2.53-3.33-6.19a458.24 458.24 0 0 1 17.7-60.18c5.77-15.44 12.6-30.42 21.56-44.34.58-.89.73-2.06 1.94-2.36.83 5.9-3.61 9-5.34 13.31-1.8 4.52-4.34 8.75-6.6 13.21 2.5 2.93 8.06.92 9.06 6.31l-11.67-1.71c-4.78 12.82-9.34 25.58-14.5 39.58 7.06-2.44 12.77-4.85 19.78-3.36-3.14 2.56-3.08 5.64-3.24 9-.52 11.24-5.38 21-11.57 30.19-1.1 1.63-2.38 3.14-4 5.28 15 5.6 30.1 8.79 45.5 12.39 7.83-27.37 15-54.5 26.72-80.4-3.37-1.1-6.58-2.32-9.89-3.17-3.11-.81-6.32-1.25-10.71-2.07 6.46-4.4 11.43.14 17.34.66l-9.46-11.66a26.91 26.91 0 0 1 3.08.4 16.65 16.65 0 0 1 1.88.81c.27-2.11.06-4.27.85-6 1.54-3.31-.1-4.94-2.48-6.63-1.42-1-2.33-1.68-3.85.15-.75.91-2.74.78-4.55 1.22 0 4.11 2.68 8.81-.34 14.52-3.12-6.44-1.84-12.2-2.68-18.22l4.43.82c-1.57-6.77-3-13.11-4.52-19.45h-1.44c-.6 5.55-1.21 11.1-1.84 17-3-1.39-2.35-3.91-2.14-5.83.6-5.54.91-11.23 2.51-16.51 3.68-12.14 8-24.08 12.15-36.1a4.18 4.18 0 0 1 .5-1.23c3-4 5.59-7.8 5.61-13.28 0-4.81 2-9.59 2.33-14.45a95.88 95.88 0 0 0 -.29-15.34c-.7-7.92-1.66-15.83-2.8-23.7a84.87 84.87 0 0 0 -2.88-13c-4.14-13.35-4.12-27.3-6.15-40.94-1.87-12.56-4.18-25.07-5.8-37.66-.48-3.64-3.57-2.54-5.37-4.2 3.51-10.5 4.3-21.2 3.35-33.27-4.76 3.88-5.11 8.68-6.69 12.75-1.65 4.25-2.78 8.72-4.39 13.91-6.19-8.33-.92-17.15-3.09-25.2a23.92 23.92 0 0 0 -4.85 16.35 4.87 4.87 0 0 1 -1 3.38c-8.19 9.42-16.52 18.72-24.74 28.11-1.61 1.84-2.8 4-4.41 5.87-6.36 7.22-10.75 16-22.32 17.89-7.72 1.25-14.11 7.29-16.53 15.93a8.81 8.81 0 0 0 .5 7c4.73 9.48 13.55 13.45 22.73 16.29a108.39 108.39 0 0 0 22.21 4.08c3.52.31 7.48-1.14 10.82-2.69a85.41 85.41 0 0 0 28-20.27 5.69 5.69 0 0 1 1.55-1.22c.34-.17.83 0 1.92 0-.41 1.23-.44 2.59-1.15 3.29-9.56 9.54-20.22 17.44-32.91 22.49-5.29 2.1-10.62 1.52-15.79.75-6-.89-9.19 1.83-11.78 6.41-.43.78-.76 1.62-1.15 2.42-3.65 7.52-4.21 8 1.11 14 4.79 5.35 10.42 10.59 16.74 13.79 10.37 5.24 21.26 3.62 31.38-2 3.31-1.84 6.37-4.13 9.64-6a34.08 34.08 0 0 1 5-2l.7 1.16c-.4.67-.63 1.6-1.22 2-3.94 2.51-7.92 5-12 7.33-6.67 3.92-13.75 6.11-21.62 5.12-5.07-.64-7.94 1.78-11.18 10l8.69-8.1 1.13.8-5.51 9.65c4.43-.21 4.41-3.24 5.64-5 2.16-3.08 2.87-3 4.68.66 1.7 3.47 3.73 5.81 8.32 5.16 6.7-1 13.91 1.13 19.93-3.86.71-.59 2.68.34 4.06.56l.3 1.54c-3.37 1.24-6.65 3.14-10.12 3.56-6.16.74-12.56 1.44-18.61.52a27.42 27.42 0 0 0 -14.81 1.46c-3.13 1.32-4.39-2-6.43-1-3.32 1.68-3.5-.55-4.42-2.7-.39-.92-2.18-1.29-3.38-1.8-5.72-2.46-11.47-4.87-17.65-7.49-2.59 4.2.89 8.58.62 13-.11 1.79 3.28 3.49.79 5.13-.94.62-3.35-1-5.86-1.85-1 2-1.86 4.92-3.77 6.79s-4.76 2.58-2.56 6c.09.16-.9 1.39-1.16 1.32-.92-.26-2.21-.67-2.53-1.39-1.45-3.25-2.51-6.67-3.93-9.93a8.16 8.16 0 0 0 -3.34-3.58 62.87 62.87 0 0 0 8 24.27c1.49 2.57 3.52 3.15 6.19 1.64 5.6-3.16 11.26-6.25 17.1-9.49-.28-1.67-.53-3.18-1-5.71 3.88 1.88 6.83 3.28 9.74 4.74 2.54 1.27 3.82.6 3.81-2.3a9.69 9.69 0 0 1 .11-3.24c1.17-3.25 3.72-3.76 6-1.2 1.76 2 3.3 4.14 5.51 6.94 2.13-2.75 4-5.09 5.79-7.5 2.2-3 4.65-4.61 8.58-2.93 2.44 1 5.17 1.43 8.14 2.2-2.37 3.9-4.56 1.63-6.33 1.09-4-1.23-7.3-1.08-9.46 3.18a11.88 11.88 0 0 1 -2.63 3c-3.06 2.89-3.08 6.08-1.47 9.73.51 1.14.36 3.8 0 3.92-2.67.8-2.52-1.58-3-3.19-2.63-8.69-2.64-8.69-7.71-13.62-.4 7.07-.91 13.53 2.34 19.63 1.91 3.6 5.31 5 8.82 3.05 8.71-4.93 17.24-10.18 25.83-15.31 1-.57 2.09-1.92 2.73-1.7 5.68 1.92 9.72-1.91 14.33-3.74.31-.13.8.21 1.21.34a5.89 5.89 0 0 1 .25 1.08c-6 2.61-5.78 8.84-7.48 13.67-2.88 8.18-4.92 16.66-7.1 25.07-.72 2.77-.75 5.72-1.1 8.59-.18 1.55.19 3.48-.61 4.59-6.25 8.69-3.13 17.82-1.59 26.89.32 1.9 1.6 3.93-2 5.5-3.87-12.9-3.86-25.38 1.2-37.95-3.67 4.95-5.14 10.49-6.12 16.27-1 5.62.94 11.72-2.72 16.89-1.6-12.53.07-24.51 6.43-36.4-9.42-2.66-19-1.14-28.37-2.77.7 4.44 1.27 8.1 1.91 12.16-3.86-.5-5.81 1.92-8 5.06-10.88 15.26-18 32.32-24.2 49.77-1.53 4.32-3.92 8.2-5.15 12.58-1.32 4.73-2.9 9.38-4.12 14.13s-2.22 9.55-3.19 14.35-1.88 9.64-2.61 14.49c-.85 5.71-1.48 11.44-2.21 17.16a9 9 0 0 1 -.54 3.14c-.27.51-1.48.71-2.24.66-.35 0-1-1-.91-1.48.31-2.21.86-4.38 1.24-6.57.73-4.23-.11-5.43-4.25-5.38-3.79 0-7.57.52-11.36.68a11 11 0 0 1 -2.86-.65l.06-1.48 20.29-1.61c-7.95-4.46-15.78-.58-22.49-3.83 7.08-.5 14.09-2.25 21.55.47.45-1.62.92-3 1.22-4.41 1.69-7.85 3.33-15.71 5-23.57.92-4.32.39-4.94-4-5.41-12.16-1.29-24.32-2.65-36.47-4-1.1-.13-2.41-.07-3.21-.66-1.59-1.16-2.54-3.12-.43-4.36 2.72-1.59 5.83-2.52 8.77-3.73.21.46.43.93.65 1.39l-6.47 4.13a38 38 0 0 0 3.71 1.34c11.57 2.64 23.36 3 35.15 3.66 3.4.18 5-.64 5.75-3.83s1.72-6.41 2.84-10.51c-4.4-.31-8.31-.66-12.22-.84-9.15-.42-18.3-.68-27.44-1.19-2.65-.15-5.7.13-8.4-3.42 2 0 3-.05 4 0 13.8.92 27.61 1.76 41.4 2.84 3.4.26 4.87-1.17 6-5-7.7 0-14.92.07-22.14 0-8-.1-16.06-.25-24.08-.59-1.54-.07-3-1.15-4.55-1.76 1.18-1.42 2.15-3.12 3.58-4.18s3.49-1.66 5.32-3.84l-7.26-2.1a5.1 5.1 0 0 1 6.34-2.53c7.12 3 14.51 1.21 21.72 2 6 .65 12 1.21 18 2a5 5 0 0 1 3.59 2.64c-2.82-.24-5.64-.55-8.47-.7-9.35-.5-18.72-.9-28.07-1.41-2.27-.13-3.83 0-4 3 0 1-2 1.91-3.7 3.41 2 .49 3.63 1.17 5.23 1.2 10.49.2 21 .16 31.47.4 5.76.13 9-1.75 11.36-7.7 4.43-11.13 10.33-21.67 15.6-32.47.38-.78.65-1.63 1.09-2.76a20.76 20.76 0 0 0 -2.5-.66c-1.66 4.13-5.06 2.86-8.07 2.66-16.25-1.06-32.5-2.1-48.73-3.28a23.66 23.66 0 0 1 -8.07-2.27c4.72-2.9 9.25.43 13.89.08s9.36.28 14 .7c4.88.43 9.74 1.25 14.62 1.68a53.57 53.57 0 0 0 14.22-.31c-2.53-.5-5-1.2-7.59-1.47-12.87-1.39-25.76-2.63-38.63-4-2.54-.28-5-1.07-9-1.94 2-1.25 2.71-2.06 3.3-2 17.23 2.15 34.45 4.42 51.67 6.61 3.76.47 7.55.72 11.33 1.05 3.36.29 4.31-1.5 4-4.36l-72-7.84c1.09-3.33 3-2.57 4.59-2.38 15.71 1.83 31.41 3.74 47.13 5.47 6 .65 12 .9 18 1.31 5.48.37 5.48.35 8.8-5.14-6.73 0-13.24.24-19.73-.06-6.67-.32-13.31-1.15-20-1.77-6.43-.59-12.86-1.2-19.29-1.77a132.85 132.85 0 0 1 -19.09-2.58c24.61-1.6 48.87 5.63 73.68 1.76a13.75 13.75 0 0 0 -3.1-.93c-18-1-36-1.93-54-3-5.77-.35-11.52-1.1-17.25-1.87-1.37-.18-2.64-1.16-4-1.78.91-1.65 1.43-3.82 2.8-4.84 2.24-1.65 5-2.54 7.54-5l-18.54-3.35c4.43-7.66 11.44-9 17.16-12.34l1 1.55-14 8.64c6.82 1 12.38 2 18 2.6 19.73 1.95 39.47 3.85 59.23 5.53 12.4 1.05 24.84 1.68 37.26 2.48 2.09.13 2.1.08 4.41 3.53-3.71 0-7.16.2-10.57 0-10.88-.75-21.77-1.52-32.62-2.56-15-1.44-30.1-2.94-45.09-4.83-6-.76-11.45-.39-16.47 3.25-1.69 1.23-3.63 2.12-6.63 3.84 10.47 1.05 19.64 2.25 28.84 2.84 13.79.89 27.61 1.29 41.42 2 11.31.6 22.61 1.39 33.92 2.1a9.5 9.5 0 0 1 2 .22c1.6.46 4.14 1.88 4.59 1.38a15.58 15.58 0 0 0 2.8-5.8c2.36-7.68 4.58-15.4 6.84-23.11.48-1.64.88-3.3 1.65-6.21l-10.74 3-.89 1.64 5.44 2.36c-.34.54-.69 1.08-1 1.61-1.23 0-2.74.47-3.62-.08-3.75-2.35-6.87-1.08-10.19 1-4.36 2.68-8.88 5.08-13.38 7.54-7.33 4-11.6 2.46-14.54-5.34a34.9 34.9 0 0 1 -1.5-5.81c-.44-2.22.7-4.81-2.78-6s-6.47-2.93-10.13-.69c-6.8 4.15-13.71 8.13-20.66 12.23-4.31-2-6.74-5.82-7.78-10.12-1.1-4.57-4.38-5.32-7.9-5.71-6.59-.73-13.26-.8-19.82-1.69-4-.54-6.2 1.05-8.33 4.66 11.05 1 21.85-.92 32.27 1.37 0 .48 0 1-.08 1.44h-41.5l9.09-7.43c-.15-.42-.3-.84-.46-1.27l-9.16.65c1-1.83 1.67-4.17 2.58-4.29 7.6-1 12.09-7.26 18.36-10.45 8.14-4.14 16-8.92 24-13.24 4.47-2.39 9.22-4.25 13.67-6.69 1-.57 1.59-2.44 1.92-3.82a119.84 119.84 0 0 1 11.93-30.4c1.16-2.09 2.33-4.17 3.66-6.54-4.48-1.88-8.78-3.59-13-5.49a41 41 0 0 1 -13.73-10.35c-5.34-5.94-4.59-15-.24-20.23 4.76-5.73 10.06-11.06 17.69-12.42 7.12-1.27 11.13-6.33 15.24-11.21 9.75-11.59 19.25-23.4 28.7-35.24 1.46-1.82 2.23-4.24 3.08-6.47 2.47-6.43 4.68-13 7.31-19.33.52-1.27 2.48-2 3.77-2.89.63 1.3 1.71 2.58 1.79 3.93.25 3.84.09 7.71 1.12 11.72 1.41-3.13 2.82-6.27 4.25-9.39.47-1 .75-2.37 1.56-2.9a8 8 0 0 1 4.6-1.65c.87.07 2.22 2.13 2.23 3.3a187.66 187.66 0 0 1 -.54 20 34.51 34.51 0 0 0 .41 10.38c4 20.54 7.95 41.09 9.31 62.06.5 7.68 3.09 15.21 4.65 22.82q1.74 8.5 3.28 17c.7 3.89.88 7.91 2 11.66.39 1.3 3 2.74 4.53 2.73 5.54 0 11.07-.76 16.62-1 8.37-.41 16.77-.54 25.14-1 4-.23 7.91-1.27 11.89-1.55 7.78-.55 15.61-.64 23.39-1.26 12.2-1 24.37-2.34 36.56-3.4 14.8-1.29 29.65-2.14 44.42-3.7 20.59-2.18 41.22-4.25 61.67-7.43 24-3.72 47.76-8.71 71.68-12.85 4.45-.76 8.72-1.44 12.69-3.71.84-.48 2.33.17 3.52.29-.16 1 0 2.25-.53 3-6.07 9.32-12.3 18.53-18.37 27.85-2.53 3.87-4.78 7.91-7.7 12.78 5.35 1 10 2.17 14.77 2.61a112.76 112.76 0 0 0 15.27.23c5.34-.24 6.45.61 5.93 5.82a32.9 32.9 0 0 1 -.71 3.36c-8-.4-13 5.58-19 9-17.89 10.37-35.31 21.54-52.92 32.39-.75.46-1.52 1.23-2.29 1.24-7.49.09-15 .05-22.71-.56 3.49-.58 7-1.53 10.47-1.66a39 39 0 0 0 18.92-5.9c17-10.18 34.1-20.28 51.1-30.51 4.32-2.6 8.44-5.55 13.68-9-3.64-.63-6.09-1.2-8.57-1.45-7.52-.74-15.06-1.32-22.57-2.06a5.94 5.94 0 0 0 -5.79 2.4c-4.73 5.91-9.55 11.76-14.55 17.44-5.88 6.69-12.11 13.08-17.94 19.81-5.59 6.47-13.39 6.67-20.79 7.54-18.56 2.19-37.17 3.93-55.81 5.86l2.7 1.41a684.8 684.8 0 0 1 -97.88 1.16c15.26-2 30.65-.4 46-2.13-21.85-2.94-43.88-3.44-65.81-5.1s-43.92-2.76-67-4.17l-8.39 22.9c2.83.23 4.75.43 6.69.52 18.88.89 37.77 1.95 56.66 2.59 17.81.6 35.63.9 53.45 1 13.36.1 26.74.07 40.09-.48 20.46-.83 40.9-2.05 61.33-3.31 13.33-.83 26.68-1.7 39.93-3.26 4.45-.52 8.73-3 12.92-5 11.87-5.62 23.9-11 35.39-17.32 9.92-5.47 19.18-12.13 28.82-18.33-.21-.65-.52-1.66-1-3.2l12.51 1.19-32.17 18.23.35 1.52h11.21l.31 1.27c-3 2-6 4.13-9 6.13q-23.42 15.52-46.78 30.97a73.41 73.41 0 0 1 -7 3.87c-2.76 1.4-5.35 2.29-8.84 1.55-4-.86-8.44-.3-12.66 0a739 739 0 0 1 -81 1.24c-6.57-.24-13.16 0-19.74 0l-.17-1.45a12.08 12.08 0 0 1 3.33-1c8.48 0 16.95.13 25.43.08 16.27-.11 32.55-.18 48.81-.54 9.58-.21 19.2-.52 28.71-1.61 5.37-.61 11 1.72 16.13-1.63 4.47-2.93 9.08-5.64 13.57-8.55q17.37-11.26 34.69-22.62c1.29-.85 2.5-1.82 4.17-3-1.87-2.4-2.89-4.39-6.76-2.36-11.62 6.1-24.07 10.78-35.18 17.65-12.2 7.56-25.62 6.6-38.67 8.09-11.92 1.36-24 1.26-36 1.88-15.12.78-30.24 2.06-45.37 2.38-23.19.48-46.39.48-69.59.36-13.15-.06-26.3-.63-39.44-1.22-13.34-.59-26.66-1.42-40-2.3-5.74-.38-6.08-.24-7 7.11 43.35 1.82 86.63 4.25 130 5.31 0 .67.07 1.35.1 2a11 11 0 0 1 -3.14.88c-11.56-.35-23.14-.42-34.65-1.36-6.22-.51-10 2.1-14.1 7.21 13.92.41 27 .59 40.1 1.22 22.91 1.1 45.8 2.83 68.73 3.61 14.91.5 29.87-.25 44.8-.37 3.88 0 7.75.17 11.63.27v1.58c-3.55.36-7.1 1-10.66 1-17.17.19-34.37.72-51.52.19-20.05-.62-40.07-2.3-60.11-3.33-11.57-.6-23.17-.8-34.75-1.22a46.7 46.7 0 0 1 -7.3-.63c-4.82-1-5.84-.19-5.41 4.63.05.62.14 1.24.08.73-3.17 2.79-6.43 4.59-8.16 7.35-11.4 18.16-21.05 37.19-27.14 57.86-.49 1.69-.81 3.43-1.4 6 3.1.2 5.87.44 8.65.55q19.2.83 38.4 1.59c.89 0 1.79.05 2.68.06 6 0 12 0 17.92.1 11.14.15 22.29.25 33.43.57 12 .34 24 1 36 1.34 14.47.37 29 .45 43.42.73 7.81.15 15.61.43 23.41.7 6 .2 12 .57 17.95.66 1.5 0 3-.79 4.52-1.12 4-.89 4.45-.35 4.16 4.53zm-71.91 102.91c1.39 4.49 6 4.11 9 6.6l6.82-9.26c-3.14.18-5.14.93-6 .24-3.75-2.92-5.85-.6-8.16 1.91-.39.42-1.21.46-1.83.68.79-2.83 1.59-5.66 2.17-7.72-2.3-2.77-4.44-5.21-6.4-7.78-.65-.85-.57-2.39-1.32-3-1-.83-2.49-1.07-3.77-1.56-.19 1.13-.69 2.32-.48 3.36a28.84 28.84 0 0 0 1.7 4.65c-5.06 3.26-10.8-.29-15.5 3.28a32.68 32.68 0 0 0 7.85 2.4c1 .22 2.46.23 2.91.88 3.17 4.69 8.01 5.09 13.01 5.32zm-122.27-281.33a7 7 0 0 0 .49 1.93c4.71 7.46 4.52 8.62-2.49 13.91-.89.66-1.88 1.21-2.74 1.9-.26.21-.25.75-.42 1.33l5.32 1.44c3.7-6.68 7.2-13 11.27-20.36h-11.59c1.5-.75 2.95-1.94 4.53-2.18 9.44-1.4 18.89-2.89 28.39-3.78 16.18-1.51 32.26-4.44 48.63-3.52a38.89 38.89 0 0 0 8.64-.84c7.88-1.35 15.7-3.11 23.61-4.24 18.73-2.65 37.52-4.9 56.25-7.58 11.22-1.6 22.37-3.78 33.58-5.49 1.45-.22 3.1.87 4.66 1.34-.48 1.38-.65 3-1.51 4.08q-12.29 15.29-24.8 30.4c-3.11 3.78-6.29 7.53-9.7 11a9.34 9.34 0 0 1 -5.05 2.79c-13.29 1.61-26.58 3.15-39.91 4.33-17.11 1.51-34.24 2.69-51.37 3.95-4.39.32-8.81.41-13.22.61 0-.5-.07-1-.11-1.48 6.61-2.34 14.21 0 20.5-3.28-1.52-1.73-2.74-3.1-4-4.56a1.89 1.89 0 0 0 -.8.33c-.33.28-.46.77-.75 1.1-3.13 3.6-7.61 4.39-10.47 1.87-2.43-2.14-1.9-5.43 1.52-9.35a6 6 0 0 1 .93-1c2.3-1.61 3.07-4 4.2-6.47 2.3-5.05 4.89-10.41 12.21-11.94v14.33c5.12-.57 8.41-2.81 9.93-7.66.57-1.84 2.18-3.35 3.14-5.1 1.12-2 2-4.18 3.43-7.08-2 .1-2.87.06-3.68.19-5 .78-10 2.41-15 2.27-19.28-.55-38.22 2.7-57.31 4.33-2.35.2-4.22.71-5.39 3.14-3.37 7-7 13.91-10.4 20.9-.67 1.36-.79 3-1.37 4.4a1.87 1.87 0 0 1 -1.64.62c-.51-.11-1.3-.83-1.27-1.22a11.15 11.15 0 0 1 .87-3.82c2.22-4.62 4.71-9.1 6.85-13.75 1.22-2.68 3.3-5.14 3.27-9.91-4.48 3.16-5 7.33-6.91 10.44s-3.89 6.5-5.67 9.84-4.78 6.42-3.24 11.74h17.93c11.8-.1 23.6-.27 35.4-.31a19.47 19.47 0 0 1 4.35 1c-.09.44-.18.89-.26 1.33-4.36-.28-8.87-1.4-13.06-.69-14.71 2.5-29.37.73-44 .31-12.24-.35-24.48-1-36.72-1.6-3.11-.15-6.2-.64-9.29-1 .59-5.52-3.9-.89-6.54-3.92l6.66-2.88c-4.71-3.38-6.4-1.29-8 1.32-2.59 4.14-5.34 8.17-8 12.31a20.39 20.39 0 0 0 -1.28 3.63c6.14.46 11.61.93 17.09 1.27 14.19.88 28.38 1.63 42.56 2.59 3.28.23 6.51 1.44 9.8 1.59 10 .47 20 .42 30 1 10.9.62 21.77 1.79 32.67 2.54 6.64.46 13.36 1.21 20 .73 26.86-2 54-.87 80.53-6.53a23.27 23.27 0 0 1 3.33.06c8.46-.56 16.12-2.61 21.65-9.91 2.94-3.9 6.85-7.05 10-10.8 7.28-8.66 14.58-17.33 21.48-26.3 5.42-7 10.42-14.42 15.26-21.88 3.6-5.54 6.65-11.44 10.39-17.95a25.71 25.71 0 0 0 -4.18 0c-17.87 3.69-35.65 7.84-53.61 11-16.66 3-33.49 5.11-50.28 7.28-15.26 2-30.55 3.79-45.87 5.19-21.69 2-43.42 3.57-65.14 5.22-15.1 1.14-30.21 2.11-45.32 3.12-12.44.83-24.9 1.56-37.34 2.48-1.32.1-3.27.89-3.72 1.9-1.56 3.54.76 6.84 4.78 7.28 1.77.19 3.56.31 5.34.33q20.91.25 41.98.39zm85.27 176.85-1.3-1.08c-4.63 3.68-9.77 6.89-13.81 11.14-11 11.63-21.19 23.9-28.34 38.57-11.92 24.47-24.25 48.69-28.82 75.93-1.11 6.65-1.4 6.63 4.93 9.48 1.56.7 3.22 1.16 4.65 1.66.63-.67 1.1-.94 1.2-1.31 3.83-13.7 7.48-27.45 11.48-41.1s8.21-27.27 14.55-40.09c8.29-16.76 17-33.26 30.26-46.8 1.91-1.99 3.48-4.27 5.2-6.4zm14.38-.62c-5-1.34-8.85-.21-12 3.07a135.39 135.39 0 0 0 -10.34 11.38 227.46 227.46 0 0 0 -35.84 68.88c-4.13 12.94-7.64 26.07-11.31 39.15-.38 1.35-.41 3.87.27 4.24a20.66 20.66 0 0 0 8 2.67c.94.06 2.34-2.73 3.09-4.42a39.64 39.64 0 0 0 1.58-5.8c2-7.53 3.66-15.17 6.12-22.54 4.93-14.79 10.06-29.53 15.56-44.12a135.73 135.73 0 0 1 20.37-36.59c3.84-4.86 8.51-9.05 12.77-13.57a23.79 23.79 0 0 0 1.73-2.35zm67.25-194.23c-1.5-.51-1.93-.82-2.32-.76-16.06 2.28-32.11 4.64-48.18 6.89-6.79.95-12.15 2.65-15.07 10.39-3 8-8.52 15-12.71 22.59-2.5 4.53-1.82 5.55 3.27 5.29 8.66-.45 17.32-1.08 26-1.69 7.53-.54 15.06-1.11 22.57-1.84 1-.1 1.93-1.27 2.89-2a10.79 10.79 0 0 0 -2.8-1.89c-2.87-.81-5.82-1.34-8.76-2 1.82-7.25 1.82-7.25 4.67-9.08.1.19.29.38.28.57a14.47 14.47 0 0 1 -.21 2c-.9 5 1.25 7.12 6.07 5.87 5.42-1.39 8.34-7 6.94-13.62-1.88 1.29-3.53 2.9-5.52 3.63-1.61.59-4.05.79-5.33-.05-1.81-1.19-2.39-3.32-1.16-5.88 2.56-5.33 5.58-10.05 11.23-12.73 4.6 3.56 7.17 7.65 5.43 13.7a114.29 114.29 0 0 0 -2.64 12.38c-.12.7.9 1.6 1.39 2.42.68-.79 1.79-1.49 2-2.38 1.15-5.37 2.09-10.79 3.11-16.18a2.28 2.28 0 0 1 .43-1.25c4.31-3.79 3.73-10.16 8.42-14.38zm-337.7 52c-1.66-7.22-5.18-13.14-.53-20.56l10.6 15.05c2.86-4.13 6.86-7.86 8.19-12.38 1.18-4-.61-8.92-1.19-14.44-16.62 9.67-34.06 15.72-48 27.86l.21 1.61zm47.16 145.17c0 3.84-2.73 2.9-4.68 3.14-3.41.42-5.32 1.94-4.61 5.7.24 1.31.08 2.7.37 4 .88 3.81 3 4.67 5.52 1.93a55 55 0 0 0 15.12-34.88c.32-5.33-1.55-5.81-6.63-4.51-4 1-2.32 3.83-2.76 6.14-2.18.51-4-3.89-5.73-.4a16.92 16.92 0 0 0 -2 7c0 1.46 1.79 2.94 3.08 4.87-4.09.17-6.41 2-6 7zm3.91-176.1c-8.2-7.21-16.62-14.3-23.62-23.24-4.31 5.56-4.33 12.23-5.85 18.37a3.89 3.89 0 0 0 2.56 4.82c3.87 1.69 7.65 3.58 11.5 5.34 9.41 4.3 10.13 4.06 15.41-5.29zm85 90-1-1.09a18.23 18.23 0 0 1 -3.14 2.12c-.9.37-2.48.64-3 .15-3.45-3.33-7.6-6.39-9.77-10.47s-4.39-4-7-3.23c.33 4.43.62 8.38.95 12.82l5.87 2c-1.39-2.1-2.27-3.42-3.12-4.69.56-.47.75-.75.9-.73a5.11 5.11 0 0 1 1.9.47c4.6 2.81 7.15 6.49 6.86 12.35-.21 4.22-.68 5.2-4.6 3.69a12.16 12.16 0 0 1 -2.43-1.11c-2.45-1.63-4-.32-4.53 1.82a11.82 11.82 0 0 0 .1 5.79c1.1 3.92 2.63 7.73 4.37 12.68zm19.51-74.77c4.88 0 11.48-3.42 14.52-6.89 2.4-2.74 1.65-5.31-1.75-6.48-5.18-1.78-10.46-1.21-15.38.32-2.32.72-4.52 3.47-5.6 5.84-.46 1 1.78 3.78 3.35 5.06s3.97 1.75 4.94 2.15zm-24.37-13.07 1.26 1.12c-1.44 2.2-3.2 4.27-4.19 6.65-.58 1.39.07 3.29.17 5 1.62-.13 3.64.3 4.78-.51a26.39 26.39 0 0 0 6.67-6.4c1.36-2 1.57-4.78 2.29-7.21-2.1-.34-4.2-.7-6.31-1a7.85 7.85 0 0 0 -2-.13c-3 .32-6.68-1.52-8.25 3.3-.44 1.36-3.11 1.16-4-1.11a25.83 25.83 0 0 0 -1.55-2.73c-2.76 6.84-2.76 6.84 4 11zm211.13-10.11c4.61-1.79 9.18-3.38 13.56-5.39 1-.44 2-2.91 1.63-3.54-1.46-2.29-2.8-5.18-6.55-4.48-1 .19-2.18-.47-3.28-.68a10.81 10.81 0 0 0 -3.33-.45c-3.46.53-5.27 3.18-6.66 6-.82 1.66-2 4.25-1.3 5.3 1.09 1.52 3.66 2.05 6.01 3.24zm10.87 259.65c.22.41.45.82.68 1.23 18.23-7.61 36.17-15.88 54.12-25-2.26-2.88-4.32-2.42-6.75-1.21-12.89 6.42-25.87 12.67-38.73 19.14-3.26 1.7-6.22 3.92-9.32 5.84zm27.4 15.76c-4-2.66-7.17-4.27-9.73-6.53-3.15-2.77-5.85-1.14-8.39.4-2.94 1.78-3.76 4.92-2.9 8.14.78 2.88 3.32 4.67 6 3.9 4.75-1.32 9.24-3.54 15.02-5.88zm-89.66-8.76c1 7.21 3 9.14 9.59 9.11a43.55 43.55 0 0 0 6.57-.89c2.05-.33 4.24-.92 3.83-3.57s-1.66-4.65-4.74-4.65zm-150.88-245-1.4-1.1c-1.37 1.86-4.1 3.94-3.85 5.55.68 4.37-2.72 3.85-5.27 4.8 1 .79 1.49 1.51 2 1.54 5.54.34 11.1.72 16.65.7 1.24 0 2.72-1.31 3.66-2.38 3.94-4.51 5.55-4.62 9.22-.31 4.06 4.78 4.67 4.67 8-2l-5.55 1.27c-.43-1.86-.76-3.28-1.09-4.65-6 .13-11.49.27-15.74 4.95-2.28 2.52-5.8 1.92-8 .33s-.87-4.35.59-6.47a8.91 8.91 0 0 0 .78-2.23zm201.71-5.3c.51-3.94 1-7.4 1.53-12-4.78 3-2.5 7.17-3.83 10-1.5 3.26-3.35 6.34-5.74 10.77 11.12-1.9 13.13-11.26 18.62-16.89-5.96-.73-5.04 6.52-10.55 8.11zm-161.59 162.82c.46 6 2.24 11.13 7 14.86 2.17 1.69 3.64.94 4-1.82.88-7.09-2.91-11.71-11-13.04zm-1.72 14.88c1.54-5.28 1-10-2.6-14-2.09-2.38-4.7-3-7.5-1 2.1 7.17 5.21 11.87 10.1 15zm-73.65-92.34c5.09-6.39.56-12 3-17.13h-7.28c1.38 5.61 2.68 10.75 4.28 17.13zm207.31-92.58c2.93.3 10-5.91 9.86-8.38a3.49 3.49 0 0 0 -1.73-2.46c-1-.47-3.07-.77-3.49-.23a68.46 68.46 0 0 0 -5.68 8.77c-.26.49.74 1.68 1.04 2.3z"></path><path d="m684.82 765.84 4.6-1.72.74 1.14c-6.53 6.27-12.73 12.94-19.65 18.74-10.59 8.87-21.59 17.25-32.58 25.62-3.42 2.61-5.52 6.56-10.46 7.85-3.24.85-1.18 5.31-1.06 8.66 12.18-8.63 24.32-16.41 35.49-25.38 11-8.82 21-18.85 31.87-28.77.66 3.89-1.82 5.71-3.66 7.65a213.42 213.42 0 0 1 -39.37 32.74 116.38 116.38 0 0 0 -15 11.74c7.55-.08 14.47-2.06 21.29-4.54a42.73 42.73 0 0 1 6.34-2c.78-.14 1.77.82 2.67 1.28-.62.77-1.12 2-1.89 2.22-10.12 2.51-20.28 4.88-30.44 7.26-.87.2-1.76.27-2.64.43-3 .54-4.35 1.79-4.39 5.35a238.94 238.94 0 0 1 -1.59 24.5c-.89 7.81-6.27 12.59-12.85 15.93-11.35 5.76-23.57 7.67-36.2 7.55-5.53-.05-11.26 1-16.54-.16-9.06-1.95-18.67-.1-27.35-4.34-4.79-2.34-9.82-4.21-14.63-6.5-7.87-3.75-9.68-11.44-10.76-18.82a227.33 227.33 0 0 1 -2.26-29.84c-.1-8.14 1.17-16.3 1.75-24.45.31-4.39-.35-9 .85-13.14 2.45-8.4 6.2-16.39 14.54-20.69 5.32-2.75 11-4.87 16.51-7.15 1.2-.49 3-1.08 3.88-.55 4.69 2.8 5.79-.45 6.68-3.78 1.13-4.23 3.07-8.37 1.58-13-.27-.84.28-2.69.85-2.88a4.47 4.47 0 0 1 3.42.53c2.34 1.5 4.41 3.1 7.18.67.4-.35 2.37 1.39 3.06 1 4.4-2.17 8.57.65 12.69.3 5.32-.44 4.79-1 5.74 3.92a116 116 0 0 0 5.15 18.49c1.49 4 3.3 4 6.91 1l-5.57-4c.05-.48.11-1 .17-1.44 2.24-.17 4.64-1 6.7-.41 10.73 2.84 19.71 8.7 25.47 18.18 2.4 4 3.07 9.25 3.57 14 .8 7.73.79 15.53 1.15 23.3a8.21 8.21 0 0 0 .49 1.75c.59.1 1.18.38 1.4.2 16.19-13.23 32.42-26.42 48.47-39.83 3-2.52 5.31-5.91 7.94-8.9zm-159.31 66.67h-.27c0 6 .23 12-.07 18-.2 3.94 1.39 5.8 5.07 6.42 5.26.9 10.47 2.15 15.76 2.83a139 139 0 0 0 60.12-5.28c3.33-1 4-2.47 4.1-5.55.63-14.69 1.77-29.37 2.22-44.07.37-12.17 1-9.76-9.46-8.46-24 3-47.58 2.21-71.05-3.41-4.46-1.06-5.62-.25-6.27 4.26a29.45 29.45 0 0 0 -.15 4q-.01 15.64 0 31.26zm82-51.06c-7.74-10.25-18.92-8.81-25.84 2.47 9.33 6.08 16.78-1.66 25.89-2.47z"></path><path d="m165.87 776.45 3.52-4.24 3.81 4.2c.42-.86.94-1.4.86-1.85-.38-2.18-1.08-4.32-1.32-6.52-.09-.88.74-1.86 1.15-2.79a10.33 10.33 0 0 1 2.7 1.42c.84.83 1.34 2 2.77 4.29v-13.87c4 3.18 4 6.87 4.42 10.13.74 5.69 1.07 11.45 1.46 17.18.16 2.32 2.08 5.55-3.15 5.17-2-.15-1.41 5.78 1.15 7.51.72.48 1.72.54 2.44 1 .5.34.75 1.06 1.24 1.79-1.9 2.69-4.73 2.92-7.61 3.05-3.79.17-7.61.75-11.36.44-6.56-.55-12.61 1.93-19 2.56-11 1.09-21.66 4.6-32.9 4.41-4.12-.07-8.27 1.42-12.4 2.22a47.51 47.51 0 0 1 -5.2 1.07c-17.83 1.42-35.08 5.85-52.44 9.77-3.79.86-7.66 1.36-11.6 2.05-.68-3.09 1-3.18 2.88-3.54 11.15-2.18 22.29-4.46 33.42-6.75a22.15 22.15 0 0 0 3.29-1.09c.33-3.91.61-7.35.91-10.79.82-9.31 1.56-18.64 2.53-27.93.66-6.26-.28-12.82 3.28-18.58a2.29 2.29 0 0 0 .14-1.31c-.66-7.22-1.33-14.44-2-21.94l-3.48 1.85c1.11-11.86 2.18-23.26 3.25-34.66h1.56c.41 3.4 1.06 6.79 1.2 10.21.33 8-.07 16 .72 23.91 1 9.73 2.65 19.41 4.48 29 .44 2.33 2.68 4.31 4.83 7.58a68.43 68.43 0 0 0 2.09-20.21c-.28-7-.44-14-.67-21.06a20.56 20.56 0 0 1 1.55-9c1.37-3.3.91-7.36 1.32-11.86 1.23 1.07 2.5 1.62 2.63 2.37 1.81 10.48 3.61 21 5.12 31.49 1.41 9.9 2.4 19.86 3.77 29.77a10.86 10.86 0 0 0 3.06 5.58c3.63-20.83 1.88-41.6 1.88-62.68a10.76 10.76 0 0 1 1.82 2.75c2.14 7.45 4.26 14.9 6.14 22.41.87 3.45 1.1 7.05 1.81 10.54 1.14 5.66 2.27 11.34 3.76 16.91.5 1.89 2.08 3.5 4.07 5a390.61 390.61 0 0 0 3.41-64.41l1.61-.08q5.67 28.89 11.33 57.79l1.82-.15a221.43 221.43 0 0 0 .44-29.48c-.5-9.87-1.8-19.69-2.75-29.53l1.62-.29a14.42 14.42 0 0 1 1.12 3.23c1.17 11.07 2.12 22.17 3.44 33.23.33 2.78 1.95 5.38 2.62 8.16 1.16 4.75 1.83 9.62 3.13 14.33.46 1.66 2.31 4.29 3.33 4.2 4.28-.41 4.11 2.94 4.98 6.04z"></path><path d="m924.33 708.42c-4.32-1.81-8.79-3.34-12.94-5.48a501.88 501.88 0 0 0 -56-24.61 15.35 15.35 0 0 0 -5.12-.69c-11.81-.11-23.65-.48-35.45-.07-8.73.31-17.43 1.69-27.62 2.74l9.83 7.45-.78 1.22c-6.67-2.15-11.93-7.76-19.42-8.31 7.17 7.84 17.18 12.47 24.34 21.12-3.65 1.57-4.95-.72-6.56-1.94-6.73-5.07-13.25-10.42-20.13-15.27-5.27-3.71-11.37-3.85-18.05-1.9 3.88 3.12 7.86 6.11 11.6 9.38 7.22 6.31 14.32 12.77 21.44 19.19a5.28 5.28 0 0 1 1.65 2.06 10 10 0 0 1 0 3c-.92-.25-2.13-.23-2.73-.81-4.32-4.18-8.51-8.49-12.77-12.74-7.28-7.26-14.84-14.19-24.05-19a5.6 5.6 0 0 0 -3.79-.5c13.46 12 28.63 21.9 40.2 35.74l-.89 1.24a11.08 11.08 0 0 1 -2.82-1.47c-10.22-9.94-20.59-19.7-32.75-27.33a49.45 49.45 0 0 1 -8-6c-3.14-3-6.69-2.93-10.55-2.59-8.85.78-17.71 1.32-26.56 2.11-6.62.59-13.23 1.41-19.84 2.16-2.37.27-4.93 1.37-6.88-2.64 18.17-3 36.25-3.33 54.17-4.87 18.26-1.58 36.61-2.08 54.93-3s36.44-1.71 55-2.58c-1.8-3.52-5.91-4.93-8.12-4-6.37 2.77-12.79 1.66-19.09 1.55a388 388 0 0 0 -49.34 2.42c-7.72.85-15.57.34-23.35.69-5.1.23-10.17.93-15.26 1.39q-20.91 1.93-41.83 3.84a35.83 35.83 0 0 0 -4.64.55c-3.78.86-6.71 1.08-10-2.53-2.78-3.08-7.66-4.36-11.73-6.15-8.29-3.63-16.66-7.08-25.26-10.06 3.14 3.92 8.16 4.2 12.22 6.31s8.58 3.76 12.61 6.08 8.89 3.35 12.06 6.93l-.73 1.23c-5.88-2.87-11.79-5.68-17.63-8.62a431.57 431.57 0 0 0 -49.93-20.86c-8.18-2.91-16.6-5.18-24.67-8.36-7.44-2.93-13.8.44-20.57 1.59l-.12 1.69c3.32.5 6.62 1.21 10 1.48 6.89.56 7.16.59 13.52 6.56a20.73 20.73 0 0 1 -4.13 0c-7.3-1.79-14.62-3.6-21.86-5.62-1.91-.53-3.59-1.84-5.38-2.8.08-.51.17-1 .25-1.53l13.11-3.81-3.75-5.58c12.28 2.83 23.35 5.83 34.07 10.18 10.42 4.23 21 8.06 31.76 11.4-20.25-9.3-40.76-17.91-62.11-24.77v-9.48h14.59c.09-.47.19-.93.28-1.4l-15.76-6.73.26-1.78c10-3.42 20.69-3.16 30.92-5.32s20.42-4.35 30.64-6.53l.18-1.36c-9.38-1.9-18.8-3.62-28.13-5.77-9.08-2.09-18.43-3.11-27.49-5.28v-2.32l11.42-3.74-15.8-2.89c0-.56 0-1.11 0-1.67 1.25-.21 2.55-.76 3.74-.58 18.5 2.85 37 5.52 55.46 8.81 14.24 2.54 28.34 5.88 42.49 8.91.75.16 1.4.75 1.77 2.13-4-.64-8-1.18-11.91-1.92q-25.92-4.83-51.83-9.75c-2.85-.53-5.86-.59-8.56-1.54-6.76-2.38-12.87-1.11-20 3.11 38.37 6.78 74.92 16.57 111.16 27.54 36.4 11 73.26 20.66 108.46 36.66-1.26.13-2.83.81-3.73.3-7.73-4.35-15.56-4-24.19-2.8-16.29 2.23-32.82 2.63-49.21 4.28-14.17 1.42-28.28 3.55-42.43 5.25a69.24 69.24 0 0 1 -8.15 0 15.25 15.25 0 0 1 0-1.63c0-.21.07-.49.21-.59a2.83 2.83 0 0 1 1.17-.62l103.65-10.6c-4.23-1.84-7.43-3.59-10.85-4.66q-34.08-10.65-68.26-21c-17-5.15-34.16-10-51.2-15.09a33.88 33.88 0 0 0 -17.17-.55c-12.65 2.66-25.34 5.19-38.06 7.51-5.65 1-11.41 1.44-17.12 2.12l-1 1.54 2.49 1c15.45 5.8 31 11.34 46.31 17.46 13.66 5.45 27.09 11.49 40.56 17.41 1.87.82 3.41 2.4 5.1 3.64l-.84 1.35c-6.73-3.07-13.36-6.37-20.2-9.17-17.11-7-34.31-13.78-51.49-20.62q-3.1-1.24-6.29-2.26c-1-.33-2.25-.83-3.17-.55-2.94.92-5.78 2.15-9.75 3.69 3.18 1.16 5.6 2 8 2.9q38 14.88 75.94 29.82c4.35 1.72 8.4 4.24 12.8 5.77a25.77 25.77 0 0 0 9 1c3.76-.1 7.5-.9 11.26-1.26 17-1.61 34-3.37 51.08-4.69 14.22-1.11 28.48-1.83 42.74-2.44 7.51-.33 15-.06 24.2-.06l-6.85-5c8.74-.27 118.33 47.33 124 54.64zm-183.61-41.89.33 1.51c-1.59.22-3.18.54-4.78.65-12.42.92-24.86 1.62-37.26 2.77-6.63.61-13.17 2.1-19.78 2.91a9.3 9.3 0 0 1 -5-1.18c-3.14-1.59-6-3.74-9.16-5.28-28.68-14-59-24-88.49-35.89-1.51-.61-3.3-.52-5-.76a6.84 6.84 0 0 0 3.65 3c7.48 2.88 15.05 5.54 22.47 8.6q31.8 13.11 63.5 26.53a71.43 71.43 0 0 1 12.48 6.35 12.93 12.93 0 0 0 8.78 2.19c8.41-.66 16.81-1.54 25.22-2.2q22.32-1.74 44.64-3.3c4.9-.35 9.83-.29 14.7-.85 17.75-2 35.53-3.17 53.41-2.41 1.89.08 3.8-.2 5.71-.31-6.39-3.26-13.26-2.26-19.89-2.69s-13.36.14-20 .42c-6.89.28-13.79 1-20.68 1-6.57 0-13.21 1.75-19.75.5v-2l72-3.13-.07-1.37c-36.95-1.4-73.7 1.69-110.43 5.46v1.29z"></path><path d="m990.78 793.52c-22.41 1.79-44.84 3.27-67.21 5.47-16.15 1.6-32.2 4.16-48.3 6.29-3.81.51-3.7.33-3.16-3.44a8.16 8.16 0 0 0 -1.54-5.83c-9.4-11-18.81-22-28.67-32.64-8.66-9.29-17.85-18.08-26.94-27a84.4 84.4 0 0 0 -8.86-7.09 2.36 2.36 0 0 0 -2.27.18 2.49 2.49 0 0 0 -.49 2.32 15.49 15.49 0 0 0 2.58 3c15.09 15.84 30.23 31.63 45.26 47.52 3.83 4 7.41 8.34 11 12.63 1.16 1.4 1.89 3.17 3.63 6.17-2.4-.82-3.38-.84-3.78-1.34a510.87 510.87 0 0 0 -38-42.28c-8.24-8.11-16.27-16.42-24.6-24.42-1.94-1.86-4.49-3.72-7.7-1.41-.83.6-2.49 0-3.78 0l.19.2c2.58-4.6 5.14-9.21 7.74-13.8 4-7.15 8.09-14.31 12.25-21.4a80.78 80.78 0 0 1 4.79-6.52c1.41 4.36-1.41 5.89-2.54 7.95-2.6 4.71-2.42 6 1.71 9.45 16.45 13.65 33.1 27.08 49.24 41.1 10.93 9.49 21.17 19.78 31.62 29.82 2.4 2.31 4.69 3.63 8.27 3 4.53-.72 9.19-.69 13.8-1l.6-1.33c-10-8.65-19.73-17.53-29.91-25.9s-20.55-16.27-31-24.11-21.29-15.4-32-23.08l.74-1.33a16 16 0 0 1 3.79 1.38c9.17 6.34 18.27 12.76 27.38 19.17 10 7 19.86 14.14 28.94 22.37 10.91 9.88 22.26 19.25 33.43 28.83 3.89 3.34 8 6.43 11.65 10 2.36 2.37 4.48 2.2 7.21 1.23 18.25-6.49 36.51-13 54.83-19.3 13.44-4.62 27-9 41.58-13.78-16.18-18.44-32.35-36-51.12-51.12l1.1-1.55c2 1.07 4.27 1.79 5.87 3.27 11.75 10.89 23.75 21.51 34.08 33.86 4.8 5.73 10.24 10.94 15.79 16.82l-60.16 20c4.38 4.58 7.6 8.57 11.47 11.77 2.37 2 1.75 3.74 1.36 5.88zm-5.58-4.23c-1.41-5.79-6.23-8.47-10.27-11.16-1.6-1.07-5.58 1.39-8.46 2.27-1.28.39-2.56.81-3.82 1.26-7.75 2.77-15.59 5.32-23.22 8.4-8 3.24-7.85 3.4-14.18-2.59-1.53-1.45-3.59-3.23-5.45-3.29-6.22-.21-12.57-.29-18.66.77-3.19.56-5 0-7-2q-9.72-9.21-19.55-18.28c-5.88-5.41-11.73-10.86-17.81-16-7.3-6.21-14.9-12.06-22.22-18.25s-14.4-12.58-21.64-18.81a13.92 13.92 0 0 0 -4-2.35c-.86-.33-2.35-.37-2.89.15a4.08 4.08 0 0 0 -.64 3 4.75 4.75 0 0 0 1.31 2.28c2.83 3.3 3 6.7.24 9.93 4.39 4.43 8.46 8.52 12.51 12.63 13.3 13.53 26.89 26.78 39.76 40.7 6.69 7.24 14.13 14.12 17.75 23.48z"></path><path d="m964.74 497.78c6.41-3.4 12.88-6.67 19.2-10.22a98.21 98.21 0 0 0 14.18-9.56 194.13 194.13 0 0 0 -31.72 14.45 17.64 17.64 0 0 1 1.44-3.18c1.09-1.52 2.41-2.87 3.64-4.29 1.68-.2 3.55 0 5-.66q15.69-7.26 31.21-14.9c3.81-1.88 7.36-4.3 11.13-6.54-2.65-3.26-4.58-2.19-6.91-.82-9 5.25-18.07 10.29-27.11 15.44-4.41 2.52-8.78 5.1-13.16 7.66l-4.64 1.62c-.22-.48-.44-1-.67-1.43 8-6 17.6-9.5 26.11-14.72 8.69-5.34 17.5-10.49 26.58-15.92-1.94-2.68-3.57-3.23-6.3-1.83-14.88 7.56-29.89 14.85-44.75 22.44-5.16 2.63-5.28 2.91-9.6.49l57.54-26.91c-5.12-1.43-9.38-2.73-13.72-3.72-.81-.19-1.93.83-2.87 1.37q-16.56 9.4-33.11 18.8a9.37 9.37 0 0 1 -2.56.54c1-6.06 4.89-8.42 9.8-10.7 12.72-5.92 25.1-12.55 37.61-18.92a22.3 22.3 0 0 0 2.47-1.67c-.2-.39-.41-.77-.62-1.16l-46.56 21.35-.67-1.41c8.57-5.44 18.18-8.89 27.35-13.19s18.46-8.81 28.44-13.59l-5.63-5c-8 4.23-16.05 8.49-24.1 12.77q-10.93 5.81-21.83 11.67c-1.57.84-3.63 1.46-4.49 2.8-2.59 4-6.45 3.84-10.4 4-18.94.66-37.87 1.75-56.81 2-19.41.29-38.83.1-58.24-.42-21-.56-41.9-1.75-62.85-2.68a38.34 38.34 0 0 1 -3.85-.66c2.55-2.6 5.06-1.9 7.27-1.82 21.85.81 43.68 2 65.54 2.47 20.27.46 40.57.56 60.84.18 16.25-.31 32.49-1.45 48.72-2.52 2.67-.18 5.36-1.69 7.85-3 7.33-3.77 14.54-7.75 21.82-11.6 9.66-5.09 19.37-10.06 29-15.23a40.82 40.82 0 0 0 9.15-6.71c-6.24-1.11-12.06-3.45-18.39-.31s-13.16 5.47-19.66 8.37c-4.85 2.17-9.54 4.69-14.29 7.07-.4.2-.74.77-1.08.74a23.18 23.18 0 0 1 -3-.55c.35-.91.45-2.35 1.09-2.65 5-2.4 10.14-4.6 15.25-6.82 13.07-5.7 26.15-11.36 39.21-17.09.52-.22.85-.89 1.91-2.07-5.46-.47-10.2-.91-14.95-1.27-1.33-.1-3.09.56-4-.07-4.82-3.52-8.22.11-12 2-2.88 1.42-5.84 2.7-8.76 4-.23-.47-.45-.94-.67-1.41q6.45-3.56 12.91-7.09c6.07-3.3 12.18-6.53 18.21-9.92 2-1.11 4-1.76 4.87-4.78 1-3.32 3.81-1.09 7.29.34l-21.22 12.46c4.32 2.17 8.54 1.5 12.47 2.12s7.8 1 12.12 1.51c-2.29 6.81-9.9 5.81-13.41 10.43 3.76 2.38 8.8-.15 12.4 4.35l-11.56 8.51 11.89 4-13 6.32c.08.32.17.64.26 1h4.4l.36 1-18.11 9.72c6.35 3.75 13.05 1.58 19 4.81-1.32 1.16-2.49 2.16-4.6 4l7.83.59-8.4 6.3 5.27 4.45-12.23 7.65c.11.28.23.55.34.83l6.52-1.26c.06.23.12.45.19.68-5.38 3.14-10.76 6.26-16.13 9.43-9.2 5.43-18.33 11-27.62 16.29-2.79 1.59-5.73 4.76-9.29 1.12z"></path><path d="m751.31 599.22c-4-2.61-7.24-4.86-10.61-6.8-4.1-2.36-5.82-7.88-3.43-11.77 1.48-2.4 3.44-2.61 6-.6 3.11 2.43 6.18 4.89 9.27 7.33l1.22-.69c-.15-1.64.3-3.77-.56-4.83a59.91 59.91 0 0 0 -8.1-7.9c-.72-.59-2.41-.13-3.63 0-3.33.47-6.65 1.06-10.36 1.66-3 3.13-6.24 7.49-10.42 10.53-7 5.1-10.47 3.55-13.09-4.77-.32-1-.62-2-1.45-4.64-.79 2.86-1.26 4.16-1.5 5.5-1 5.65-1 5.66 4.53 7.32 8.74 2.63 17.49 5.21 26.23 7.86q11.83 3.58 23.59 7.35c.5.16.81.92 2 2.34-2.22-.11-3.61.1-4.81-.28-11.67-3.73-23.28-7.65-35-11.32-5.51-1.73-11.14-3.14-16.75-4.53-3.19-.8-4.47-2.09-3.24-5.65 1.58-4.54 2.54-9.3 4-15.08 1.66 1.94 2.86 2.87 3.41 4.09.73 1.6.87 3.45 1.41 5.14 2.45 7.64 4.22 8.27 10.78 3.94a20.46 20.46 0 0 0 8.4-21.49c-.79-3-1.77-6-2.46-9-.19-.85.34-1.86.81-4.11 3.83 6.36 4.33 12.34 5.74 18 .87 3.52 2.83 5.94 5.27 5.2 3-.92 3.89-3.29 3.45-6.35-.8-5.67-1.49-11.36-2.23-17.14-5.68-2.33-11.53-4.72-17.35-7.17a12.48 12.48 0 0 1 .43-1.55l21.85 6.9v-6.86l5.27 1.78c-3.36-4.32-8.12-6-12.7-7.82-4.26-1.71-9.4-1.77-12.77-7.91l52.89 22.21c.92-2.21 1.73-4.24 2.61-6.24.8-1.83 1.28-4 2.56-5.38 7.74-8.56 11.58-19.53 18.12-28.81a52.61 52.61 0 0 1 10-10.89c-.09.88.16 2-.31 2.59-7 8.46-11.59 18.52-17.8 27.35-6.53 9.29-10.63 19.36-15.41 29.35-4.45 9.31-7.65 19-10.74 28.74-1.54 4.87-3.38 9.65-5.07 14.48-.3.85-.54 1.71-1.32 2.06-.71-7.84 6.56-28.82 16.88-51-7.22-2.78-14.31-5.92-21.68-8.07-1.94-.56-4.77 1.92-5.76 2.36l7.17 8.52 2.94-3.29 3.81 8.89 4.45-5.87c.34 5.32-.75 9.69-6 11.43.35 2.89 1.11 5.75.93 8.56a12.19 12.19 0 0 1 -2.27 6.74c-2 2.42-5 4.07-2 7.65a1.39 1.39 0 0 1 -.06 1.25c-2.35 3.65-4.85 7.31-7.14 10.69zm-8.17-48.45c.63 5.21.89 10.28 2 15.16a19.53 19.53 0 0 0 8.09 11.78c3.24 2.3 6.08 1.31 6.87-2.55a13.63 13.63 0 0 0 -.17-6.54c-2.68-8.39-5.12-17.16-16.79-17.85z"></path><path d="m540.67 699.66c2.12 3.39 3.88 5.12 6.94 4.07 4.15-1.43 6.72 2.45 10.24 3.24 1 .24 2 1.37 3 1.38 4.25.09 8.66-1.07 12.17 3.67l.54-1.89-2.22-2.93 25.66-2.57c.11 1.49.61 3.4.34 5.19-3 19.53-12.51 26.84-30.54 24.61-1.52-.19-3.07-.88-4.54-.73-5.38.55-9.64-1.69-14.38-4-5.26-2.53-7.79-6.27-9.19-11.21-1.69-5.87-1.09-11.71 1.98-18.83z"></path><path d="m903.7 473.23c-26.26-2.16-52.5-5-78.81-6.26s-52.42-.84-78.87-1.17c.63-3.61 2.7-2.8 4.27-2.78 9.54.11 19.08.35 28.63.43 10.23.09 20.48-.21 30.7.15 12.47.44 24.93 1.34 37.39 2.12 10.9.67 21.79 1.5 32.7 2.15 10 .59 20 1.57 30 1.42 13.33-.21 26.63-1.4 39.95-2.05a59.85 59.85 0 0 1 12.73.67c-6.71 2.33-13.67 2.24-20.55 2.84s-13.73 1.32-20.6 2c0 .63.07 1.26.11 1.88h32.43v2c-4 0-8.1 0-12.15 0-19.37-.2-38.68 1.38-58 2.05s-38.7.21-58.05.16q-36.16-.09-72.31-.36a5.21 5.21 0 0 1 -3.48-1.26c12.7-1.69 25.43-.55 38.12-.81 12.94-.27 25.89-.22 38.84-.35 12.71-.13 25.43-.27 38.15-.51 12.93-.24 25.85-.62 38.78-.94z"></path><path d="m929.35 657.18 7.33-2.73c2.87-1.05 7.51.29 7-5.25 2.82-1.28 5.6-2.65 8.46-3.81 4.12-1.68 8.32-3.15 12.45-4.8q29.79-11.94 59.57-24c1.8-.73 3.47-1.78 5.77-3-5.19-3.77-9.45-6.46-15.65-3.42-11.79 5.77-23.8 11.11-35.82 16.38-13.64 6-27.4 11.71-41.12 17.51a27.08 27.08 0 0 1 -3.65.89c.43-3.26 2.4-3.9 4.4-4.74 18.47-7.83 36.95-15.63 55.34-23.63 12.46-5.41 24.79-11.11 37.15-16.73a32.71 32.71 0 0 0 3.81-2.51c-16.73-10.88-32.84-21.55-52.13-28.37 3.49-2.88 6-1.5 8.17-.42 6 2.94 12 5.94 17.85 9.2 8.74 4.9 17.28 10.13 26 15 2.49 1.39 4 3.37 3.3 5.83-.43 1.4-2.76 2.4-4.42 3.18-3.13 1.48-6.39 2.68-9.83 4.09 3.74 4.36 10.35 3 12.41 8.92l-7.42 3.13v1.26l7.41 1.69c.11.46.21.92.31 1.38-4.14 1.67-8.23 3.53-12.45 5-18.33 6.27-36.79 12.18-55 18.7-10 3.59-19.73 8.2-29.62 12.23-3 1.22-6.14 2.34-9.26.75-.15-.54-.26-1.13-.36-1.73zm42.65-17.64c.16.48.31 1 .47 1.42 1.82-.47 3.68-.82 5.46-1.43 15.16-5.2 30.31-10.46 45.48-15.66 1.93-.67 3.77-1.26 3.22-4.82-18.72 5.95-35.9 15.26-54.63 20.49z"></path><path d="m990.61 793.69 27.41 4.5c-.56.88-.78 1.71-1.24 1.88-32.39 12.16-63 27.88-93.07 44.94-.43.24-1.19-.09-3.34-.33 13.91-11 28.72-17.72 43.41-24.59 14.85-7 29.91-13.42 44.75-21.23-2.3.13-4.89-.4-6.83.49-7.47 3.43-14.68 7.39-22.06 11q-28.78 14.15-57.64 28.15a42.86 42.86 0 0 1 -4.2 1.53l-.72-1.14 11.71-6.95c-5.07-.86-8.65-1.74-12.27-2.05-16-1.4-31.95-2.5-47.9-4-11.31-1-22.57-2.48-33.85-3.74-.67-.07-1.33-.24-2-.26q-32.74-.57-65.47-1.14a27.11 27.11 0 0 1 -5.92-.49c-.64-.16-.94-1.71-1.4-2.63.74-.35 1.49-1 2.22-1 20.93.66 41.88 1.05 62.77 2.24 16.43.94 32.79 3 49.2 4.39 11.31 1 22.66 1.52 34 2.54a177 177 0 0 1 21.18 2.88 13.2 13.2 0 0 0 9-.89q29-13.74 57.94-27.52a27.76 27.76 0 0 0 3.06-2.16c-2.55-.42-4.1-.75-5.68-.91-2.34-.23-2.84-1.77-2.85-3.73z"></path><path d="m685.19 443.47c7.13 6.9 7.14 6.91 3.34 15.93 4.77 4.59 9.41 8.93 13.88 13.44 1.68 1.7 2.38 3.78.33 5.9-4 4.17-4.64 9.39-4.3 14.91l-9 1.14a8.26 8.26 0 0 1 .85 2.15 20.07 20.07 0 0 1 -.23 3c-.86-.43-2-.65-2.54-1.34-1.32-1.7-2.37-3.62-3.41-5.26l-6.92 5.25c4.47 2.06 7.94 3.42 11.18 5.22 2.18 1.21 4.07 2.77 1.51 5.78-1.15 1.35-1.08 3.71-1.75 5.54-1.48 4.07-2.77 4.49-6.31 2.14-1.48-1-3.34-1.76-4.28-3.14-1.79-2.65-3.36-2.82-6.07-1.23-1 .61-3.49-.08-4.65-1-3.35-2.63-4.53-6.5-4.67-10.64-.06-1.77.59-3.62.3-5.32-.48-2.76-.09-5.4 2.57-6.11s6.69-1.13 8 .28c3 3.26 5.51 2.56 8.77.76-1-2.89-2.15-4.65-5.17.19-.68-3.85-4.53-5.87-1.85-10 .48-.74-2-3.39-3.25-5.38-4 2.61-1.75 6.4-2.41 9.57-6.14-4.67-6.28-9.36-.9-12.22-2.38-7.22-9.47-9.36-14.76-13.64 5.62 0 10 2.72 13.26 6.59 5.17 6.12 9.71 12.76 14.51 19.19.8 1.07 1.3 2.77 2.33 3.18 3 1.19 6.17 2.63 9.23 2.51 3.25-.12 3.26-3.83 3.74-6.36 1.09-5.69 2.42-11.34-2.81-16.18-4.74-4.39-8.23-5.29-14.16-2.55a31.16 31.16 0 0 1 -3.86 1.18c0-3.49 2.62-3.21 4.08-4 3.66-2 6.84-4.49 7.59-8.75a8.07 8.07 0 0 0 -1.37-5.35c-1.49-2.21-3.5-.87-5.3.1-4.27 2.31-8.57 4.58-12.9 6.89.93 1.38 1.58 2.33 2.22 3.29l-2.93 1.33c-.9-4.41-4.32-1.13-6.36-2.08-1-.47-2.34-.61-3-1.35-1.08-1.16-2.75-3.5-2.4-4 1.85-2.4 3 .13 3.89 1.26 1.88 2.29 3.59 1.79 5.8.51 6.51-3.8 13.14-7.41 20.18-11.33zm-11.19 58.86c-.15-2.86-.15-4.2-.32-5.52-.47-3.7-1.33-3.95-4.74-2.69-4.3 1.6-3.37 5.7-3.63 8.47-.21 2.31 2.36 4.94 4 7.26.13.19 2.77-.61 3.1-1.42a36.39 36.39 0 0 0 1.59-6.1z"></path><path d="m1014.76 820.93-31.66-2.34c4.28-2.56 4.27-2.45 13.39-1.55 4.2.41 8.46.26 12.69.41s8.62.34 14 .56c-4.52 5.81-9 8.66-15.06 10.3-20.66 5.59-40.31 13.93-59.56 23.23-2 1-3.61 2.88-5.66 3.47a42 42 0 0 1 -10.16 1.56c-7.32.23-14.65.2-22 0q-29.7-.61-59.42-1.47c-9.77-.29-19.53-.9-29.29-1.45-.69 0-1.34-.76-1.81-2.24 1.85-.12 3.71-.36 5.56-.32 18.24.32 36.49.54 54.73 1.08 12.89.39 25.77 1.27 38.66 1.85 10.21.46 19.79-.38 29.53-5.17 19.93-9.82 40.4-18.68 61.94-24.63a41.79 41.79 0 0 0 4.22-1.64z"></path><path d="m990.36 843.8c9.57-1.44 18.25-5.81 27.56-7.75.21.63.41 1.25.61 1.87-12.1 4.38-24.28 8.54-36.27 13.18-12.18 4.71-24.18 9.88-37.4 15.32 3.79 1.81 5.75-.06 7.7-.77 19.67-7.17 39.29-14.46 58.93-21.71 2.92-1.08 5.81-2.25 8.76-3.23.69-.22 1.58.19 2.38.31-.4.85-.59 2.21-1.23 2.47-3.7 1.5-7.48 2.8-11.26 4.07-13.49 4.55-27.09 8.81-40.46 13.69-9.53 3.48-18.77 7.78-28.12 11.72-2.82-6-2-9.26 3.4-11.71q20.09-9.13 40.31-18c10-4.37 20-8.55 30.07-12.82.61-.27 1.22-.9 1.79-.84a19.34 19.34 0 0 1 3.34.87c-.72.69-1.32 1.68-2.17 2-8.07 3.15-16.2 6.17-24.29 9.29a28.87 28.87 0 0 0 -3.65 2.04z"></path><path d="m168.22 485.66c-3.34 5.91-6.76 11.78-10 17.75-7.95 14.6-12.68 30.43-16.91 46.36-4.17 15.69-8.37 31.43-11.16 47.4-4.61 26.31-8.78 52.74-8.25 79.62a27.34 27.34 0 0 0 .79 6.56c4-6.45 2.87-14.65 7.85-20.89a10 10 0 0 1 .25 2.84c-1.74 8.05-3.56 16.08-5.36 24.11a7.65 7.65 0 0 1 -.65 2.57c-.58.82-1.61 1.9-2.38 1.85a3.14 3.14 0 0 1 -2.05-2.16c-.79-4.56-1.76-9.16-1.83-13.76a154.26 154.26 0 0 1 .89-19.93c1.86-16.11 3.69-32.25 6.31-48.25 2.76-16.9 5.66-33.85 9.87-50.43 5.15-20.27 11.06-40.42 21-59 2.96-5.61 5.61-11.48 11.63-14.64z"></path><path d="m731.2 506.84c10.85 4.21 18.85-.09 26.74-6.37 4.25 4.37.15 7.62-1.28 11.08-1.54 3.7-2 8.55-8.08 7.44 1.76 5.27 5.18 5.2 9.07 3.74-.49-1.11-1.7-3-1.4-3.3 1.35-1.23 3.3-3 4.7-2.73 4.57.81 4.44-1.09 3.48-4.4a38.55 38.55 0 0 1 -1.19-7.19 2.53 2.53 0 0 1 1.23-2 2.24 2.24 0 0 1 1.93 1c1.05 3.85 2.36 7.73 2.58 11.65.08 1.6-2.37 3.34-4.35 5.92 4.48 1.32 8.45 2.5 12.44 3.65 5.13 1.48 5.08 1.45 3 6.56-1.09 2.65-1.76 5.49-3 8.08-1.1 2.37-4 2.77-5.05.51-1.18-2.5-2.76-2.74-5-3.35a21.12 21.12 0 0 1 -8.12-4.22c-7.22-6.27-14.11-12.91-21.16-19.36-1.47-1.35-3.19-2.42-4.62-3.81a14.08 14.08 0 0 1 -1.92-2.9zm24.52-.75c-4.5 2-7.94 3.3-11.09 5.12-.79.45-1.19 2.83-.72 3.84.39.85 2.34 1.47 3.53 1.37 5.56-.42 6.2-5.09 8.28-10.33z"></path><path d="m1034.32 630.93c-29.3 11.42-59.2 21.31-87.56 35.12 28.6-6.13 56.37-15 84.57-24.54l-4.71-4.45c3.9-.09 8.94 2.56 9.28 5a3.48 3.48 0 0 1 -1.89 2.76c-23.71 6.82-47.48 13.45-71.19 20.27-7.06 2-14.06 4.29-20.92 6.88-3.26 1.23-6 3.66-9.23 5.18-1.06.5-3.28.37-3.9-.37-1.58-1.87.41-2.65 1.8-3.25 1.63-.7 3.43-1.06 5-1.85 1.09-.55 2.77-1.6 2.76-2.41-.05-4.92 4-5.6 7.08-6.8 16.14-6.41 32.4-12.54 48.62-18.76 10.6-4.07 21.22-8.09 31.78-12.24a16.79 16.79 0 0 0 3.73-2.64c2.46-1.94 2.46-1.95 4.78 2.1z"></path><path d="m927.07 883.22c-4.38 0-8.78.21-13.15 0-21.12-1.15-42.22-2.56-63.34-3.61q-32.33-1.61-64.68-2.61c-8.85-.27-17.72.28-26.58.46-.67 0-1.49.31-2 0-1.41-.84-3.62-1.74-3.83-2.92-.48-2.77 2.31-2.26 3.8-2.22q15.69.34 31.38 1c14.9.65 29.81 1.4 44.71 2.15q26.69 1.34 53.36 2.73c11.33.57 22.67 1.06 34 1.72a48.25 48.25 0 0 1 6.64 1.35c-.08.73-.19 1.32-.31 1.95z"></path><path d="m1026.23 690.73a10.16 10.16 0 0 1 -2.48 1.13c-22.69 2.5-44.56 8.8-66.59 14.35-7.53 1.9-14.84 4.69-22.3 6.9a4.22 4.22 0 0 1 -3.5-.67c-.55-.52 0-2.18.06-3.33.28-3.71 2.91-4.81 6-5.83 27.13-8.92 55-15 82.73-21.52 2.36-.56 4.79-1.74 6.94 1.76-29.09 6.66-58.26 12.1-86.21 22l.33 1.38c3.15-.77 6.29-1.59 9.45-2.31q32-7.32 63.9-14.61c2-.45 3.84-1.2 5.8-1.58 2.16-.4 4.37-.55 5.87 2.33z"></path><path d="m935.3 878c-2.83 0-5.68.24-8.47 0-17.91-1.77-35.78-3.82-53.7-5.43-9.91-.9-19.88-1.09-29.82-1.66-17.34-1-34.66-2.09-52-3-5.55-.3-11.11-.19-16.67-.34-2.77-.07-5.19-.81-6.35-4.43 34.29 2 68.2 3.26 102 6.18 21.73 1.88 43.68 2.57 65.19 6.56-.09.65-.14 1.38-.18 2.12z"></path><path d="m1016.56 523.6-2.92-4.39.86-1 7.89 6-11.89 4.05 6.39 4.95c-3 4.68-7.64 5.47-11.64 7.45-14.35 7.11-28.5 14.6-42.74 21.92-1.47.75-3 1.3-5.63 2.4 1-2.89 2.39-4.74 2-6.16-.94-3.76.83-5.33 3.81-6.64 10.19-4.5 20.35-9.07 30.53-13.61a75.35 75.35 0 0 0 13.85-7.36c-1.24-.15-2.62-.73-3.7-.38q-16.51 5.37-32.93 11a24.12 24.12 0 0 0 -5.3 2.77c-1.38.9-2.77 2.06-3.82.12-.24-.44 1.41-2.37 2.54-3a42.87 42.87 0 0 1 6.81-2.74c14.15-4.75 28.31-9.44 42.47-14.17 1.05-.21 2.03-.66 3.42-1.21zm-11.62 14.09-.64-1.42c-7.18 3.17-14.32 6.46-21.56 9.5-15.52 6.52-17.94 8-20.09 12.84z"></path><path d="m960.85 425.81c-62.42-.88-124.68-5.29-188-8.61 2.63-3.57 5.25-2.49 7.36-2.4 13.36.61 26.72 1.4 40.07 2.16 27.36 1.55 54.71 3.35 82.08 4.62 17.34.81 34.72.82 52.09 1.29a48.79 48.79 0 0 1 6.72 1.11z"></path><path d="m78.63 581.73c-.21 2.59-.24 5.22-.65 7.78-1.78 10.92-4 21.77-5.41 32.74-1.15 9.2-1.29 18.53-1.91 27.8-.27 4-.82 8-.88 12-.07 4.61.45 9.24.37 13.86-.24 13.48-1 27-.86 40.42.07 6.84 1.62 13.66 2.5 20.49a18.77 18.77 0 0 0 1.89 7c.61-1.88 1.22-3.75 1.84-5.63l1.46.32q-.77 10-1.54 20l-1.86.22c-1.28-4.78-2.86-9.5-3.77-14.34-1.15-6.1-1.72-12.32-2.61-18.47-1.77-12.21-1.44-24.36-.06-36.63.83-7.46-.36-15.13 0-22.68.71-14.39.47-28.8 3.5-43.11 2.67-12.5 3.58-25.38 5.36-38.12a31.41 31.41 0 0 1 1.12-4.06z"></path><path d="m1024.49 853.2a43.59 43.59 0 0 1 -5.13 2.6c-14.53 5-29.15 9.68-43.62 14.82-11.53 4.1-23.31 7.68-33.84 14.22a7 7 0 0 1 -3.08 1.14 2.62 2.62 0 0 1 -2.07-1.21c-.26-.52.26-2.07.59-2.12 4.13-.62 1.12-3.2 1.48-5.81l75.33-27.84c5.5-2 5.49-2 10.34 4.2zm-5.23-.77c-11 .54-57 16.84-62.24 22.23z"></path><path d="m963.39 487.7c-1 .18-2.18.68-3.16.47-15.19-3.11-30.51-2.57-45.85-1.82-.67 0-1.34.1-2 .08-29.62-.9-59.23.72-88.86.28-9.11-.13-18.22 0-27.33-.12a36.74 36.74 0 0 1 -6.16-1.11c.06-.61.11-1.22.17-1.83q11.77 0 23.56 0c9.36 0 18.71-.08 28.06 0 8.69 0 17.38.36 26.07.23 9.78-.14 19.54-.89 29.32-.95 16.89-.1 33.79-.1 50.67.32 5.25.13 10.46 1.76 15.69 2.7z"></path><path d="m957.06 408.85 26.41-17.4c10-6.61 20-13.27 30.12-19.83 6.7-4.35 6.74-4.29 15.94-1.85-1.63 1.26-2.9 2.42-4.33 3.33-19.33 12.3-38.76 24.45-58 36.93-4.02 2.62-6.49.12-10.14-1.18zm27.78-15.09 1.27 1.89 36.39-24.19-1-1.55c-12.94 6.84-24.18 16.31-36.66 23.85z"></path><path d="m548.63 698c9.43-3.52 18.7-7.79 29.24-5.85a4.64 4.64 0 0 1 2.87 1.37c2.3 3.63 5.91 4.19 9.66 4.8 1.1.18 2 1.26 3.06 1.92-1 1-1.86 2.77-2.93 2.9a78.33 78.33 0 0 1 -13.92.77c-9.44-.56-19.08-.43-27.98-5.91z"></path><path d="m1021.41 505.82c-11.58 5.88-22.64 11.53-33.73 17.11-4.57 2.3-9.33 4.24-13.79 6.73-2.62 1.46-4.78 3.74-7.27 5.48-.69.49-1.82.35-2.75.5 0-1.12-.39-2.75.19-3.27a21.09 21.09 0 0 1 5.07-3.16c13.77-6.81 27.58-13.56 41.36-20.37a16.8 16.8 0 0 0 5.37-4c-7.37-.45-14.64-3.18-21.76.25-9 4.33-17.85 8.95-26.81 13.37-.82.41-1.92.26-3.32.42 4.11-6 50.26-27.09 57.35-25.67l-15.62 6.84c5.17 2.32 11.14-.64 15.71 5.77z"></path><path d="m801.78 641.88c5.1 1.85 10.26 3.57 15.3 5.57 15.73 6.24 31.46 12.48 47.09 18.94 9.24 3.82 18.27 8.15 27.45 12.11s18.54 7.58 27.65 11.72c3.79 1.72 8.56 2.5 10.87 8a16.77 16.77 0 0 1 -3-.59c-14.34-6.59-28.6-13.37-43-19.77-11.36-5-22.88-9.77-34.42-14.38-14.26-5.7-28.63-11.11-42.92-16.73a51 51 0 0 1 -5.77-3.19z"></path><path d="m983.09 798.62c-5.24.57-9 1-12.67 1.35-12.62 1.1-25.27 1.9-37.86 3.29-12.35 1.37-24.64 3.29-37 5-7 1-14.05 2.14-21.11 3-.89.11-2-1.24-2.93-1.91.92-.65 1.79-1.75 2.78-1.89 10.79-1.48 21.6-2.9 32.42-4.16 7.51-.88 15-1.45 22.57-2.22 14.82-1.52 29.64-3.16 44.47-4.53 2.62-.24 5.67-1.23 9.33 2.07z"></path><path d="m1030.52 662.1c-1.84 1.41-2.55 2.34-3.45 2.58-10.92 3-22 5.57-32.77 8.93-17 5.26-34.7 8-51 15.55-1.39.64-2.63 1.73-4.07 2.14-1 .28-2.25-.23-3.38-.38.64-1 1.06-2.47 2-2.86a111.92 111.92 0 0 1 11.81-4.55q12.74-4 25.58-7.58c15-4.21 30-8.25 45-12.51 2.06-.58 3.79-2.32 5.84-2.95.92-.29 2.34.8 4.44 1.63z"></path><path d="m842 563.3a7.84 7.84 0 0 1 1.87-.45c17.77-.07 35.55.09 53.33-.23 12.23-.23 24.45-1.13 36.67-1.74.89 0 1.89-.61 2.61-.34a13.64 13.64 0 0 1 2.91 2.08c-.84.55-1.67 1.56-2.53 1.58-14.65.36-29.3.62-43.95.87-12.21.2-24.42.41-36.63.47-4.78 0-9.55-.33-14.33-.52.05-.57.05-1.15.05-1.72z"></path><path d="m1030.18 676c-2.11 1.14-3.47 2.27-5 2.62-7.36 1.68-14.79 3.08-22.17 4.71-19.07 4.2-38.24 8-56.61 14.87a28.62 28.62 0 0 1 -5.73 1.67c-.61.08-1.67-1.12-2-1.94-.17-.42.68-1.75 1.28-1.91 10-2.8 20.06-5.64 30.17-8.15 17.27-4.28 34.59-8.33 51.89-12.47 2.43-.6 4.92-1.94 8.17.6z"></path><path d="m921.35 674.15-103.25-40.79c2.68-.56 3.95-1.27 4.81-.93 13.21 5.25 26.34 10.71 39.54 16 13 5.16 26.08 10.15 39.12 15.21 5.18 2 10.41 3.92 15.53 6.07a40.38 40.38 0 0 1 5.28 3.26z"></path><path d="m163 472.8c.08 1.6.27 2.2.09 2.35-15.87 13.38-25.63 31.25-35 49.14-5.71 10.92-9.14 23-13.64 34.61-1.07 2.77-2.33 5.47-3.51 8.2l-1.47-.39c0-1.08-.32-2.28 0-3.22 4.75-12.22 9.14-24.61 14.55-36.54a169.44 169.44 0 0 1 20.33-34.34c3.67-4.73 7.18-9.6 11.12-14.09 1.97-2.16 4.69-3.59 7.53-5.72z"></path><path d="m1030.11 656.55c-20.91 5.14-41.9 10-62.7 15.55-9.6 2.58-18.83 6.55-28.22 9.93-1 .38-1.94 1.31-3 1.46a13.08 13.08 0 0 1 -3.56-.48c.62-1 1-2.55 1.88-2.87 7.09-2.65 14.15-5.45 21.42-7.47 19.72-5.5 39.5-10.85 59.38-15.76 4.69-1.15 9.6-3.44 14.8-.36z"></path><path d="m850.56 804.61c-5.47.08-9.81.21-14.14.2-21 0-41.92-.16-62.88-.19-2 0-4 .47-6 .64-1.1.1-2.44.41-3.26-.07-1-.61-1.66-1.93-2.47-3 1-.6 2.08-1.7 3.14-1.72 6.67-.09 13.34 0 20 .12l57.58.75c2.56.08 5.31-.5 8.03 3.27z"></path><path d="m866.32 463.11c2.26-.2 4.51-.48 6.77-.58 19.82-.82 39.65-1.51 59.47-2.48 6.21-.31 12.37-1.57 18.58-2a51.43 51.43 0 0 1 9.73.67c.59.07 1 1.18 1.56 1.81-.66.49-1.3 1.38-2 1.4-12.85.4-25.71.54-38.56 1-15.56.6-31.11 1.53-46.67 2.23-2.94.14-5.91-.14-8.86-.22z"></path><path d="m964.91 503.54c-31.4.15-62-1.16-92.63.94l-.15-1.65c5.14-.76 10.27-2.1 15.42-2.16 10.92-.13 21.85.63 32.77.59 12.93 0 25.85-.53 38.78-.82 2.13-.05 4.48-.56 5.81 3.1z"></path><path d="m674.27 595.56c-11.83-2.68-22.48-4.65-32.87-7.55-12.3-3.42-24.87-5-37.45-6.61-8.61-1.11-17.23-2.12-25.81-3.39a7.66 7.66 0 0 1 -3.74-2.41c-1.32-1.34-1.17-2.9.63-3.82 1.59-.8 2.15 0 2.76 1.6.37 1 2 1.85 3.18 2 14.72 2.33 29.49 4.28 44.16 6.83 13.36 2.33 26.64 5.16 39.9 8 3.03.73 6.5 1.27 9.24 5.35z"></path><path d="m872.16 518q42.62 0 85.24.07c1.27 0 2.54 1 3.55 2.69l-88.68-1.08c-.04-.55-.07-1.11-.11-1.68z"></path><path d="m685 765.63c-5 .41-7.09 4.86-10.24 7.63a310.25 310.25 0 0 1 -33.1 25.61c-3.44 2.29-6.87 4.6-11.15 6a13.62 13.62 0 0 1 2-2.52c12.32-9.44 24.82-18.65 37-28.31 4.67-3.72 8.57-8.41 12.79-12.68.94-1 1.62-2.27 2.71-2.9s2.31-.34 3.48-.47a11.62 11.62 0 0 1 -.67 2.82c-.89 1.73-2 3.34-3 5z"></path><path d="m686.28 751.77a48.47 48.47 0 0 1 -3.62 5c-8 8.62-48.68 42.5-54.07 44.6 1.68-2.16 2.49-3.64 3.68-4.68q26.41-22.92 52.9-45.72z"></path><path d="m162.07 705.59c4.34 7.28 5.57 15.31 6.54 23.35 1.12 9.28 2 18.59 2.89 27.89a16.66 16.66 0 0 1 0 5.32c-.33 1.38-1.52 2.56-3 4.83-2.22-21.5-4.32-41.45-6.43-61.39z"></path><path d="m654.75 229.4c10.1.12 13-7.07 7.48-18.7 1.68.74 3.1.91 3.61 1.67 2.65 3.95 3.27 8.62 1.34 12.69a12.45 12.45 0 0 1 -11.2 7.23c-7.68.34-12-3.51-11-10.07.91-5.85 6.14-11.11 13-12.79l-10 10.79c2.63 1.5 4.87 2.09 5.85 3.53s.65 3.75.92 5.65z"></path><path d="m683.25 211.58c-1.57 1.41-2.42 2.22-3.33 3-2.6 2.17-4.49 4.09-1.27 7.62 1.37 1.49 1.12 4.47 1.61 6.81 5.15.26 6.93-.94 9.14-5.06 3.22-6-2.27-8.1-5.31-12.16 1.49-.12 2.8-.65 3.61-.22 6.08 3.23 7.62 10.48 3.07 15.54a17.18 17.18 0 0 1 -7 4.74c-3.86 1.27-8 1.33-11-2.36s-1.09-7.17.45-10.55c1.93-4.34 4.91-6.51 10.03-7.36z"></path><path d="m973.86 366.91c24.23-11.34 46.81-25.49 69-40.47-.26 3.53-2.91 4.77-5.16 6.25-20.27 13.31-40.7 26.16-63.84 34.22z"></path><path d="m753.73 738.36c-21.68-.83-42.76-1.62-63.83-2.55-1 0-2-1.29-4.32-2.82 6.95-2.15 12.31 1.15 17.8.71 5.71-.45 11.52.46 17.28.69 5.56.22 11.11.39 16.67.48 13.26.22 13.26.2 16.4 3.49z"></path><path d="m152 711.07c4.7 5.95 4.73 13.06 5.87 19.91 1.86 11.16 3.83 22.31 5.67 33.48a13.27 13.27 0 0 1 -.34 3.51c-1.11-.74-3-1.32-3.21-2.25q-2.47-12.45-4.42-25c-1.43-9.24-2.64-18.51-3.9-27.77a6.24 6.24 0 0 1 .33-1.88z"></path><path d="m674 587.24c-.65.32-1.28.92-1.71.8-22.13-6-44.81-8.57-67.5-11.12-.41 0-.74-.86-1.22-1.45 13.23-1.47 62.43 6.73 70.43 11.77z"></path><path d="m620.37 557.76c-1.7.09-3.41.34-5.1.27-11.11-.48-22.21-1-33.32-1.55-.44 0-1 .19-1.32 0-1-.62-2-1.39-3-2.1.76-.93 1.36-2.43 2.32-2.7 5.68-1.65 11.43-3 17.35-4.51-1 3.1-1 3.05-3.87 3.79a18.78 18.78 0 0 0 -5.68 2.38c5.29 2 10.84 1.51 16.31 1.76s10.9-.62 16.16 1.08z"></path><path d="m607.55 491.07c-1.59 1.14-2.11 1.83-2.59 1.8-6.41-.32-12.81-.9-19.23-1.05-2.77-.07-5.56.78-8.35 1.05a11.52 11.52 0 0 1 -3-.49 10.74 10.74 0 0 1 2-2.7c.8-.59 2-.63 3.14-1.92l-8.65-1.76c4.14-1.92 10.2-1.72 13.26.92a8.52 8.52 0 0 0 6.6 2.15 72.65 72.65 0 0 1 10 .31 54.33 54.33 0 0 1 6.82 1.69z"></path><path d="m978.23 498.42c13.53-7.41 27.06-14.84 40.63-22.18.55-.29 1.56.26 4 .73l-43.61 23.37z"></path><path d="m762.14 371.72c-15.56 1.68-31-.13-46.41-2.24 15.56-1.63 30.94.8 46.41 2.24z"></path><path d="m626.73 425.28c-16.43.35-32.69-2-49-3a11.65 11.65 0 0 1 0-1.55c0-.19.13-.46.27-.51a4.58 4.58 0 0 1 1.84-.58q23.49 2.1 47 4.31c-.04.45-.08.89-.11 1.33z"></path><path d="m566.49 502.14 37.69 1.13c-3.77 3.55-8.12 1.58-12.17 1.92a91.82 91.82 0 0 1 -12.63-.11c-4.33-.24-8.65-.81-13-1.24z"></path><path d="m567 498.05c3.76-1.35 7.34-3.92 11.56-.06.9.82 3.9 1.05 4.23.51 2.41-3.88 5.5-1.3 8.31-1.33 2.66 0 5.33-.32 8-.58 2.43-.24 4.75-.37 6.4 2.29-6.67.59-13 1.49-19.23 1.59s-12.68-.62-19-1c-.1-.47-.17-.94-.27-1.42z"></path><path d="m669.16 451c-1.41-2.51-2.16-5-5.75-3.82-2 .63-4.2-1.25-2.18-4.23 1.1-1.63 1.92-3.44 2.87-5.17 1.71 1.58 3.72 2.94 5 4.79 1.72 2.26 2.72 4.99.06 8.43z"></path><path d="m693.62 436.53c-5.82-2.43-8.16-10.07-6-21.68z"></path><path d="m157.53 345.25c25.15-14.86 46.05-33.9 68.61-50.67l1.18 1.48-46.24 38.59.7 1.09c8.88-5.16 18-10 26.57-15.56s16.59-11.93 25-17.78 14.8-14.1 23.62-19.34c-12.27 21.55-74.32 61.88-99.44 62.19z"></path><path d="m299.38 284.41c2.34 5.24 1.44 10.39-.57 15-2.09 4.81-5.32 9.13-8.16 13.85 1.37.6 2.57 1.15 3.79 1.66s2.75.69 3.66 1.53c3.5 3.28 6.7 6.87 10.45 9.91.53.42.24 1.86.49 4.65-3.81-4.69-7.17-4.48-10.87-2.81-1.32.59-3.05.38-4.58.37-1.1 0-2.36-.76-3.27-.42-8.81 3.24-18.95 2.68-26.48 9.66-2.4 2.23-4.89 5-10.28 5.37 2.35-2.14 3.49-3.36 4.81-4.36 11.84-8.88 21.93-19.48 31.09-31.07a42.17 42.17 0 0 0 8.61-18.57c.31-1.6.86-3.18 1.31-4.77z"></path><path d="m284.73 277.72c-.66 2.13-.73 3.48-1.4 4.39-7.46 10-15.09 19.85-25 27.67-2.78 2.2-5.06 5.05-7.89 7.17-8.15 6.11-16.45 12-24.75 18-2.59 1.85-5.28 3.12-8.67 1.29-1.28-.69-3.24-.11-6.56-.11 21.53-15.4 37.69-34.55 55.26-53.56-1.56 7.67-32.3 40.52-46.62 51.87 1.43-.36 3.1-.34 4.23-1.12 7.72-5.28 15.87-10.1 22.86-16.24 13.19-11.58 26.3-23.38 36-38.27.25-.34.81-.39 2.54-1.09z"></path><path d="m313.51 300.63c5.27 16 4.06 32.61 5.25 48.93 0 .26-.6.56-1.78 1.57-.36-2.25-.75-4-.9-5.72-.81-9.77-.82-19.67-2.54-29.27a171.62 171.62 0 0 0 -8.24-29.51c-1.66-4.46-.06-8.67-2.65-14 11.2 10.48 32.38 74.44 29 87.35-3.81-10.8-5-21-7.61-30.88s-5.41-19.51-10.53-28.47z"></path><path d="m182.52 345.9c16.44-1.79 28.59 5.57 39.24 17.12-1.22 2.39-1.9 6.09-3.59 6.63-4.54 1.46-9.59 2.48-14.27 2-6.35-.65-12.25-2.84-17-8.14s-6.7-10.32-4.38-17.61zm7.64 2.24c-5.44.31-6.35 1.36-5.38 6.6a8 8 0 0 0 .84 2.5c4.18 7.45 11 10.58 19.1 11.62 2.16.28 3.37-.85 2.78-3.25s-1.78-4.8-1.58-7.1c.43-4.83-2.57-6.77-6.09-8.1-3.08-1.15-6.43-1.54-9.67-2.27z"></path><path d="m277.17 371.7a87.92 87.92 0 0 1 -10.43-5c-2.72-1.66-2.21-5.1-.63-7.18a47.45 47.45 0 0 1 8.76-8.81c7.18-5.53 15.61-5.92 24.17-4.71 2.37.34 3.31 1.58 2.89 4.7-1.38 10.06-12.85 21.3-24.76 21zm8.64-22c-6.59 1.09-11.13 5.26-15.32 9.91-2.27 2.51-1.91 4.29 1.11 6.33 6.48 4.38 14.61 3.41 19.37-2.68 1.28-1.63 1.56-2.82.24-4.65-1.91-2.61-3.4-5.61-5.4-8.94z"></path><path d="m235.83 332.65c24-16.49 43.11-37.82 62.84-59-.22 1.12-.09 2.53-.73 3.33-5.59 7.05-10.21 14.73-17.6 20.49-7.08 5.51-12.44 13.19-19.31 19-6.71 5.71-14.34 10.36-21.66 15.35-.92.71-2.37.6-3.54.83z"></path><path d="m236.11 346.75c14.83-11.88 27.17-26.3 39.56-40.66-1.51 9.16-29.81 38.33-39.56 40.66z"></path><path d="m207.05 383.6a34.34 34.34 0 0 1 3.23-1.45c5.86-1.95 12.21-3.07 15.19-9.63.23-.51 1.45-.57 2.2-.83.22.74.81 1.65.58 2.22-2.22 5.5-14.6 11.85-20.69 10.71-.12-.02-.18-.33-.51-1.02z"></path><path d="m256.83 418.64c.7 3.57 1.66 7.11 2 10.71a13.47 13.47 0 0 0 4.78 9.19c3.49 3.1 6.94 6.27 10.21 9.59 1 1 1.36 2.65 2 4-1.31.62-2.57 1.63-3.94 1.8-11.22 1.4-22.54 2.19-33.66 4.14-5.42.94-10.56.38-15.81.05a13.6 13.6 0 0 1 -5.57-1.78 3.54 3.54 0 0 1 -1.39-3.09c2.84-7.95 5.89-15.83 9-23.69.26-.67 1.14-1.1 2.81-2.64 0 6.23-3.82 9.56-4.85 13.85s-2.49 8.45-4 13.49c17.94 3.73 34.35-1.45 51-3.34.13-.53.26-1.07.4-1.61q-4.65-4.65-9.29-9.31c-2.61-2.62-5.91-4.78-4.2-9.54.51-1.42-.69-3.43-1-5.19-.32-2.09-.48-4.2-.71-6.3z"></path><path d="m237.32 490.47a13.41 13.41 0 0 1 3.39-1.29c5.51-.51 11-.95 16.56-1.12.83 0 1.71 1.54 2.57 2.37-.87.46-1.73 1.32-2.61 1.33-6.56.11-13.12.06-19.68.06z"></path><path d="m718.43 898.86a44.39 44.39 0 0 1 -4.58 5.25c-1 .87-3.13 1.66-4 1.17s-1.64-2.56-1.72-4c-.12-2.1.38-4.24-.35-6.81-.73.84-1.76 1.57-2.14 2.56-.63 1.64-.5 3.62-1.31 5.12-1 1.89-2.39 3.81-5.21 3.2s-3.28-2.6-3.18-5c.07-1.92 0-3.86 0-6.05-3.88.61-2.64 3.18-2.74 5.11a18.58 18.58 0 0 1 -1.1 6.09c-3.37-3.37.87-10.64-7.86-10.9 4-3.92 8.14-3 11.72-3.41 4.55-.48 9.21.1 13.8-.17 2.91-.16 3.61.89 3 3.45-.45 1.95-.87 3.9-1.55 7 5.26-3.1 4-7.47 5.4-11.27l4.88 2.78c.54-1.15.73-2.45 1.47-3 1.52-1 3.34-2.32 5-2.28 1.3 0 3.49 1.81 3.61 3a8.82 8.82 0 0 1 -1.71 5.82c-1.41 1.76-3.74 2.79-5.3 5.44l8.09-1 .51 1.52c-2.89 1.2-5.7 3.1-8.7 3.45-4.73.58-2.46-5.64-6.03-7.07z"></path><path d="m813.45 340.38c1.4 1.34 4.2 3.29 3.94 3.89-1.36 3.09-4 .88-5.66.19a22.67 22.67 0 0 0 -10-2.29c-3.37.11-6.79-1.44-10.53-2.35.37-2.38-.3-5 3.73-4.64 1 .1 2.14-1.06 3.16-1.74 4.4-2.94 8.64-6.15 13.21-8.79 3.7-2.13 8.92-2.1 9-9.34l4.26 4.71 3.88-3.3c.42.68.8 1.2 1.08 1.78.69 1.48.94 3.48 2.07 4.36 2.66 2.06 3.24 4.64 3.1 7.66-.12 2.73.34 4.83-4.34 4.2-6.07-.83-11.96 1.7-16.9 5.66zm-14.32-1.84c3 .33 5.34 1 7.5.71a34.09 34.09 0 0 0 8.13-2.71c4.55-2 5.65-5.2 3.3-9.44-.42-.75-1.89-1.66-2.5-1.44-6.49 2.26-12.48 5.34-16.43 12.88zm22.87-15.6c0 2.52-.69 5 .2 6.59s3.31 2.61 5.18 2.82c1.19.13 3.24-1.44 3.77-2.72 1-2.43-.69-4.22-2.89-5.1a48.38 48.38 0 0 0 -6.26-1.59z"></path><path d="m903.26 319.3c-1.67 3.74-3 6.46-7.46 5.83-2.87-.4-5.59 3.14-5.32 7.74.26 4.26-.58 5.58-4.91 5.17-2.3-.22-4.71 1.07-7.11 1.4a17.83 17.83 0 0 1 -5.87.11c-4.19-.82-4.92-2.37-2.55-5.85 3.23-4.76 6.78-9.3 10.3-13.86 1.1-1.42 2.78-2.45.51-4.3-.32-.26.09-2.3.63-2.56a69.32 69.32 0 0 1 9.76-4.07c.81-.26 2.91.9 3.08 1.69.99 4.78 4.78 6.63 8.94 8.7zm-13-1.47-.49-.09a19.21 19.21 0 0 0 .29-4 2.36 2.36 0 0 0 -1.57-1.63c-.56-.06-1.82 1.16-1.75 1.29 1.52 3-1.37 3.88-2.55 5.49-3 4.12-6.31 8-9.19 12.25-1.18 1.72-2.49 4.95.46 5.5s6.58-.59 9.66-1.67c1.18-.41 2.08-2.6 2.47-4.13 1.12-4.28 1.85-8.66 2.72-13.01z"></path></g></svg>