<?xml version="1.0" encoding="UTF-8"?> <svg xmlns="http://www.w3.org/2000/svg" viewBox="0 0 2400 2400"><path d="m1608.55 1300.75 59.08-17 59.09-12.24 42.59 9 2.12 11.17-38.32 8.52-36.2 6.39-1.6 9.58 65 36.2s49.5 35.66 50.57 37.26 18.63 34.6 18.63 36.2v17.56l-13.84.54-44.19-35.67-41.52-25-36.73-7.45-7.45 6.39 41.52 42 29.81 36.2 24.49 32.47s-1.07 9-3.19 9.58-19.7-2.13-19.7-2.13l-25-27.15-16.5-23.42-41.52-19.16 3.72 18.63s23.43 28.75 25 30.87 21.3 37.27 21.3 37.27l-13.31 8-18.63-9.05-34.07-45.78s-70.8 6.92-70.27 1.07 19.12-170.85 19.12-170.85z" fill="#fff"></path><path d="m1665 1064.41c-3.19 35.13-14.9 283.19-13.84 319.39s-12.24 183.11 55.36 308.74c29.39 54.61 85.17 67.07 44.72 82s-188.44 36.19-254.45 91.55-397.11 125.63-544 124.57-170.34-37.27-250.19-28.75-265.15 2.09-265.15 2.09l-78.78-275.74 52.16-384.26 86.24-349.2 76.65-126.69 124.56-105.4s103.27-66 106.47-68.14 116-53.23 116-53.23l159.7-106.46 126.73-96.88 127.76-32 77.71 19.16 34.78 13.84 36.91 31.23 41.16 43.65 35.5 58.56 27 61.75 29.1 82.69 18.1 74.88 8.52 66.36 152.6 61 63.16 49s18.81 36.91 19.17 38-3.91 26.27-3.91 26.27l-19.87 20.93-53.94 22.36-93.33 17.74-40.1 5.68z" fill="#fff"></path><g fill-rule="evenodd"><path d="m1969.46 1348.66-5.33-47.91-13.84-10.11h-20.76l-22.35 6.92-8.52 7.99-.53 43.11 3.19 88.37-4.79 42.58-18.1 76.12-13.84 87.3 10.65 60.69 23.95 37.79 14.91 19.17 10.64 8.51 69.2-2.13 7.46-12.77 4.79-20.76-23.69-19.43-1.6-21.03-27.15-30.61 1.87-50.83 15.17-36.2 14.64-20.5 22.89-18.09-18.64-55.36-11.97-49.78z" fill="#fef065"></path><path d="m1577.14 637-24.14-2.71-11.89 7.1-11.17 21.61 2.84 31.94 15.44 18.1s14.55 2.84 17 2.3 25.37-10.82 25.37-10.82 2.67-21.12 2.67-22.54-4.79-29.1-4.79-29.1z" fill="#fef065"></path><path d="m1408.75 744c.89-.53 22.36-19.52 22.36-19.52s7.8-24.48 7.8-25-6.38-28.92-6.38-28.92l-25.73-17.57-16.86 3.91-22.18 22.89s-1.42 25.19-1.06 25.73 7.09 23.6 7.63 24.66 16.68 16.33 18.45 16.5 15.97-2.68 15.97-2.68z" fill="#fef065"></path><path d="m258.41 1994.36 13.7-26c3.05-5.79 6.11-11.59 8.72-17.59 5.8-13.35 9.31-27.51 13.5-41.41 4.38-14.52 9.26-28.91 13.81-43.39 2.43-7.72 4.85-15.45 6.8-23.3 1.56-6.28 2.81-12.64 4.06-19l5.22-26.52c6.95-35.31 13.35-70.79 16.5-106.61l1.58-13.86c9.48-187.1 10.66-383.17 49.92-547.5 2.18-1.85 2.29-5.77 4.53-7.57 37-148.57 114.73-256.32 211.74-344.83 89.12-88.41 201-141.51 316.1-199.64 112.72-56.93 189-160.74 307-208.72 31-5.4 58.94-13.56 92.26-13.61 94.77-.14 147 51.12 195.1 104.36 73.28 81.13 104.79 215.36 131.58 331.22v13.61c76.72 62.46 225.86 60.47 234.43 186-36.56 58.73-130.37 60.2-213.25 72.6-10.93 72.76-13.78 137.58-13.62 214.77 16 1.12 27.66-9 39.33-12.1 31.64-8.31 108 4.21 102.84 31.76-4.61 24.48-79.67-2.35-98.31 15.12 64.73 26.63 129.83 60.6 140.66 136.12-2.77 5.81-6.65 10.49-13.61 12.1-40.8-30.28-74.11-68.06-133.1-80.16 12.45 16.79 31 27.48 46.89 40.84 18.62 29.09 59.53 59 48.4 102.84-53.15-11.38-62.64-66.42-107.38-86.21 10.53 31.21 63.83 62 46.88 105.88-39.94 1.59-44.57-45.15-71.08-62-1.73 33.1 24.3 46.12 21.17 75.62-3.58 4.17-10.53 1.62-13.62 3 10.38 54.66 27.17 102.91 51.43 143.68v1.51c-1.23.29-1.51 1.52-3 1.52-24.43-16.46-34.74-50.72-43.86-81.67a771.82 771.82 0 0 1 -22.69-102.85c-6.59-165.87-4.72-294.77 7.56-456.76-102.76 9.66-238.72 10.41-344.83 12.1-47.93.77-139.47 8.9-151.25-51.42 2-29.27 14.67-47.85 30.25-63.52-3.9-2.15-9-3.13-9.07-9.08 25.29-11.5 37.64-36 62-48.39 1.08 3.09 4.74 6 1.51 9.07 14.38-2.95 27.58-21.33 42.35-25.71 2.71 12.29-7.69 11.47-9.08 19.66-2.2.93.16 1.83 0 0 8.16-5 14-12.25 24.2-15.12-3.56 10.56-15.77 12.46-19.66 22.68-.73 4.77 4.64 3.43 3 9.08 4.6 1 13-1.94 15.13 1.51 11.88-11.81 19.49-27.89 31.76-39.32 4.75-.22 5.2 3.88 6 7.56 19.32-11.43 18-43.56 39.32-52.94-.34 17.12-19.18 36-16.63 56 12.19-5.94 3.52-32.77 22.68-31.76 3.82 8.23-7.83 21.12-3 30.25 10.31-24.1 16.26-72 39.32-83.18-1.88 16.87-15.53 34.81-19.66 54.45 24.22-26.2 36.08-77.86 66.54-102.85 5.25-1.21 5.82 2.25 10.59 1.51-.15-9.52 1.75-13.55 6.06-21.17a136.72 136.72 0 0 0 -15.13-15.12c6.45-28.91-22.52-66.24-10.59-98.31a58.8 58.8 0 0 0 -12.02-13.59c.28-9.79 5-15.14 6-24.19-2.88-4.71-6.57 2.36-10.59 1.51.83-9.59-.28-9.08-3-19.66 1.61-6.45 8.93-7.21 12.1-12.1 2.2-.93-.15-1.83 0 0-5.3.74-9.85 2.25-16.64 1.51-3.26-3.24-.77-8.45 1.51-10.59-41.71 2.17-69.82 25.93-107.38 27.23 4.17-10.46 22.43-6.82 30.25-13.62-46.75-15.11-99.27 12.65-133.09 30.25 35.27-2 75.13-20.65 105.87-27.22-44.69 23.38-101.56 34.57-149.73 54.45 7.83 6.7 18.47 6.29 31.75 4.53-21.65 15.65-54.48 20.13-77.12 34.79.25 4.46 4.06 9.37 1.5 12.1-24.61 9.16-58.25 9.3-74.1 27.22 6.08-1 16.08 2 19.66-1.51-33.55 9.31-69.05 29.76-95.29 51.42-6.12-1.54-7 1-10.58-3-2 5.07-9.29 4.83-10.59 10.58 16-3.19 43.72-7.69 59-16.63 37.14 4.64 48.48-29 75.63-39.32-1.18 1.34-1.63 3.41-1.52 6 31.18-18.72 57-42.84 92.26-57.47-12.32 15.41-31.15 24.31-45.37 37.82 6.42 8.55 11.73-6.44 18.15-7.57-20.33 20.5-53.5 41.28-72.6 68.06-1.28-.28-1.42.59-1.51 1.51-3.89 1.65-7.27 3.83-9.07 7.56-2.2.94.15 1.83 0 0 4-1.52 8.6-2.48 9.07-7.56 1.29.28 1.43-.59 1.51-1.51h4.53c-35.92 35.67-73.61 69.57-104.36 110.41 1 4.53 3.24-1.45 6.05 0-22.77 34.16-53.43 69.53-83.18 101.33-5.34-.8-6.76-4.44-12.1-1.51 8.86-11.81 19.21-22.13 30.25-31.76-1.13-4.42-8.17-2.93-7.57-9.08 15.36-14.89 33.58-26.93 51.43-39.32 1.19-6.23-7.24-2.84-6-9.07 6.35-18.36 24-25.44 31.76-42.35 2.2-.93-.15-1.83 0 0-51.32 29.85-76.17 94.23-116.46 130.07-7.75.22-3.06-7.51-3-12.1-54.79 40.22-106 82.46-133.1 149.73 37.7-19.77 47.25-67.7 78.65-93.77 3.28 2.16 8.53 7.35 4.54 12.1 23.27-18.07 44.44-38.24 69.57-54.45-22.58 27.33-46.59 53.23-69.57 80.16-3.73.2-7.29.23-9.08-1.51-20.48 18.84-39.71 38.93-54.44 63.52 8.33-.74 7.67-10.47 18.14-9.08 1.5 8.56-5.72 8.4-7.56 13.62-2.2.92.15 1.82 0 0 20-7.2 25.77-28.68 42.35-39.33-13.68 45.47-41.28 69.31-60.5 110.41-9.66-8.67-11.38-2.08-21.17-6 8.64-19.64 38.23-31.3 45.37-57.47 1.29.28 1.43-.59 1.51-1.52 2.2-.92-.15-1.82 0 0-1.28-.27-1.42.6-1.51 1.52-24.75 23.64-55.36 41.43-72.6 72.6 0 5 4.92 5.16 4.54 10.58-14.24 26.6-29 52.69-42.35 80.16-12.86 9.83-25.53 19.84-33.27 34.79 14-5.73 26.66-25.77 42.35-34.79 15.22-26.33 26.4-66.5 57.47-81.67 4.34 5.44-2.41 9.91-4.54 13.61 3.14 4.08 10.72 6 6.05 13.61 26.68-28.27 39.45-70.46 72.6-92.26 7.65-5.45 6.8-19.41 16.64-22.68 3.91 17.67-13.63 37-19.66 54.44 28-5.72 37.89-42.76 56-63.52 5.64-1.61 4.31 3.76 9.07 3 11.79-18 16.11-43.38 37.81-51.42 4.18 14.82-12.5 20.36-15.12 33.27 18.9-6.31 28.76-21.65 48.39-27.22-19 13.25-33 31.48-45.37 51.42-4.73-.31-6.18-3.9-9.07-6-37.74 18.22-54.21 57.71-77.14 90.75 12-6.22 21.21-36.18 37.81-37.82-10.3 30.06-38.73 55-52.93 86.21-4.55 1.53-2.68-3.37-3-6.05-13.37 12.85-21.28 31.15-31.76 46.89 12.7-5 13.72-21.58 28.74-24.2-1.19 18.36-20.7 38.32-39.33 39.32-5.66 4.49 5.83 9.29 0 13.61 3.42 1.18 12.47-1 13.62 6-29.41 27.06-41.46 71.48-77.14 92.27 8-24.3 29-35.58 36.3-60.51 2.2-.93-.15-1.82 0 0-21.09 25.8-46 47.8-57.47 83.19 2.56-2.22 13.71-7.75 18.15 1.51 2.53-5.54 5.28-10.85 9.07-15.12 5.86-1.32 5.38 3.69 9.08 4.53 5.13-6 10.3-11.88 16.64-16.63 16.23-17 23.17-57.86 46.88-57.48 2.57 9.46-8.29 17.69-12.1 25.72 7.59 9.35 22.26-5.53 25.71 9.07 16.42-15.35 20.59-42.93 34.79-60.5 3.76-.23 4.68 2.38 7.56 3a459.21 459.21 0 0 1 52.93-71.09c-3-2-7-3-7.56-7.56 14.31-18 22.46-42.07 40.84-56 1.48 2 4 3 6.05 4.54-1.72 10.38-10 14.24-12.1 24.2-1.29-.28-1.43.59-1.51 1.51-2.2.93.15 1.83 0 0 1.28.28 1.42-.59 1.51-1.51 19.19-14.79 35.38-54.39 62-46.89-29.5 21.42-48.39 53.45-75.62 77.14a18.76 18.76 0 0 1 3-13.61c-6.11.94-5 9.1-10.59 10.58 2.27 3.28 7.57 3.53 7.57 9.08-17.36 25-42.12 42.57-54.45 72.59 2.18 3.31 7.41-8.55 12.1-3 3.45 15.23-13.22 22.94-16.64 36.3-2.2.93.15 1.82 0 0 17.8-14.47 29.08-35.46 39.32-57.48 5.11-11 16.83-15.43 21.18-27.22 15.6-11.57 26.38-29.58 39.32-45.37 12.13-14.79 22.71-36.78 42.35-39.32-20 36-56.89 68.1-83.18 102.84-12.54 29.81-36.08 48.62-48.4 78.65.64 3.88 8.08-5.76 10.59 0 18.74-13.69 25.31-41.22 37.81-63.53 11.47-20.5 25.29-47.27 46.88-48.39-19.17 31.76-48.94 66-62 108.89 17.36-12.89 29.16-44.45 48.4-60.5 13.75-19.24 25.94-55.43 49.91-54.44-18.59 30.33-49.48 61.42-69.57 95.28 1.28 3.92 6.63-2.91 9.07 1.51-2.49 16.66-17.06 21.26-21.17 36.3h-1.51c.28 1.72 1.51.84 1.51 0 8.82-.76 12.24-6.91 19.66-9.07-1.21-5.25 2.25-5.82 1.51-10.59 18.51-17.48 26.08-61.39 52.94-60.5-4.9 19.37-27 34.48-34.79 56 38.51-25 71.71-55.33 104.36-86.21 18-13.71 39.37-24.14 59-36.29 21.88-3.1 46.47-31.43 68.07-15.13 2.43 9.41-9 15.51-13.62 22.69-47.83 27.78-97 54.23-124 102.84 76.7-35.93 134.44-115.44 248-95.28-.07 2.59 1.13 3.92 3 4.54-4.39 25.57-36.58 24.17-54.45 30.24-60.37 20.52-115.75 55-154.27 98.31 51.75-20.85 95.38-49.81 161.83-56 23.15.39 49.72-2.44 62 12.1 1.9 12.49-4.75 16.43-10.59 21.18-67.89 3-134 20-169.39 60.49 51-5.83 96.26-34.67 157.3-27.22 7.14 5.46 19.71 5.49 19.66 18.15-1.87 13.75-19.09 12.17-28.74 18.15-62.57 10-121 24.23-170.9 46.89 34.24-2.32 110-23.4 137.63 4.53-10.78 25.38-46.38 20.55-72.6 27.22s-51 18.66-71.08 27.23c-48.77 17.28-80.23 51.85-107.39 90.75 10.35-1.87 23.7-18.71 31.76-4.55-29 19.88-66.17 31.64-83.18 63.53 12.92-.92 30.37-36.78 46.88-19.66-11.72 12.48-28.42 20-39.32 33.27 2.73 5.85 12.59 4.55 12.1 13.61-23.48 1.22-34.45 15-48.4 25.71 50.46-3 65.66-54.32 93.78-84.69 9.69 19-19.84 33.36-24.21 52.93 6.68 3.34 21.8-5.8 24.21 4.54-10.73 11.46-37 7.33-42.35 24.2 14.22 17.75-11.9 27.24-7.57 43.86-38.11 24.4-44.29 80.73-80.15 107.38-5.62 18.94-17.24 38.76-12.1 63.52h-10.66c-8.71-43.25 20-74.56 30.25-108.89-20.83 13-34.58 46.08-45.37 74.11-8.95 1.74-12.59-4.17-9.08-10.59-4.45.59-3 7.13-6.05 9.08 3 2 7 3 7.56 7.56-.29 9.94-6.34 16.46-3 25.71-8.26 4.46-16.65-3-13.61-9.08-6.1 2.48-11.54 5.61-15.13 10.6 10 1.62 17.64 5.54 28.74 6 5.9-3.68 2.25-16.9 10.59-18.14 7.52-.32 8.7 8 6 13.6 9.34 1.76 7.39 14.8 21.18 12.1 23.21-42.33 63.75-67.32 84.69-111.92-12.54 2.59-23.72 19.63-34.78 28.74-3.2 3.18 1.78 5.9 3 9.07-13.48 12.8-22.84 37.58-45.37 36.3-.94-13 9.82-14.37 15.12-21.17-.62-3.4-8.29.23-7.56-4.53 22.23-42.82 52.92-77.16 75.62-119.49 10.07-5.56 11.59-19.67 19.67-27.22 17.07 16.31-9.66 37.83-19.67 51.42-12.81 17.39-25.24 35.94-34.78 51.43 47.32-18.73 47.77-84.32 84.7-113.44 7.07 19.31-22.72 38-27.23 60.5 17.69-7.58 25.76-32.64 48.4-30.25-.25 1.75.33 2.69 1.51 3-16.32 19-38.5 32.08-56 49.91 4.07 2.27 8.37-.31 12.1 4.54-8.12 18.1-27.53 24.9-34.79 43.86 3.9 3.88 6.54 1.18 10.59 6 10.34-10.33 13.18-28.16 27.22-34.79 9.7 20.36-20.52 37.18-25.71 57.48 10.88 2.61 9.77-15.28 18.15-6.05 7.25-10.91 5-31.27 21.18-33.28 3.67 37.51-41.28 59-31.76 107.39 2.09 3.45 10.52.56 15.12 1.51 1.12-22.47 28.06-54.62 39.32-81.67 17.53 9.41-5.72 27.42-9.07 39.32-7.38 13.79-13.58 28.77-22.69 40.84 26.58-11.74 28.22-48.41 51.43-63.53 7.5 20.95-22.53 40-30.25 60.5 23.55 4 42.73-.41 62 0 2-17.4 16.93-34.3 25.71-49.91 19.55 16.47-24.26 36-15.13 57.48-7.91 6.19-26 2.25-36.29 6-35.54 1.77-70.36 4.25-105.88 6-3.57-3.49-13.57-.55-19.66-1.52h-4.4c.27-1.28-.59-1.43-1.52-1.51-71.55-.28-122.69-32.3-192.08-28.74-77.92 4-140.82 40-222.32 36.3-64.65-2.93-128 7.66-175.44 24.2-15.09 5.26-29.63 12.12-45.16 16.07a87.14 87.14 0 0 1 -24 3c-4-.12-8.79-.22-12.53-1.63-7.57-2.85 5.54-20 8.12-24 5.07-7.79 10-15 14.32-23.22zm1074.59-1601.72c1.75 3.69 7.12-1.69 3-3-.37 1.64-3 1-3 3-2.55-1.1-7-8-10.59-3 2.59.95 7.46 7.43 10.59 3zm15.12 12.1c7.79 9.08 30.26 11.8 43.86 6.05-14.74-9.32-24.18-10.49-43.91-6.05zm66.55-3c-3.95 1.25-8.3-4.58-10.59 0 2.65-.03 8.75 4.05 10.54-.02zm37.81 19.66c-2.21 6.28-10.28 13.34-18.15 9.07 1.18-3.36 3.18-5.89 3-10.58h-13.62c3.5 7.43.43 12.25 1.52 18.14 8.22-.15 15.62.52 19.66 4.54-19.44.36-55.36 3.18-72.6-4.54 2.25-1.78 6.76-1.3 6-6-5.55-6.05-14.24-9-27.22-7.57.37-7.48-14.21-7.9-18.15-6 4 3.09 12 2.12 15.12 6 2.1 6.12-3.28 4.79-3 9.08 23.59 6.7 44.23 20.27 77.13 15.12 7.69 4.42 25.78-1.58 24.21 12.1-12.13.44-41-7-42.36 12.1 26.93-10.72 59.49 9.29 78.65-9.07-8.92-3.31-15.08-15.32-27.22-10.59 1.82-10.75-7.59-14.73-7.57-21.17 7.26 1.81 9.17 9 16.64 10.58 5.25-1.81 11.75-2.37 15.12-6.05-10.24-11.95-25.45-27-39.32-30.25 3.12 5.9 11.14 6.97 12.11 15.07zm-187.54-4.54c15.15 2.84 32.84 9.17 45.37 3-11.71-3.76-31.06-9.78-45.42-3.02zm119.48 4.54c-4 5.9 8.71 5.78 6.05 15.12 6.73-3.7 17.27 3.22 27.23-1.51-1.53-16.91-18.19-16.59-33.33-13.63zm-72.59 1.51c1 1-.64-.63 0 0zm-87.72 6.05h16.63c.07-5.4-16.57-4.2-16.68-.02zm66.49 12.04c13.19 5.37 32-.18 46.89 0-15.49-2.35-32.68-3-46.89 0zm-42.35 12.1c13.18 2.08 13.94-8.24 24.2-9.08-5.2-2.36-11.57-3.55-19.66-3-1.69 4.66-.09 7.98-4.54 12.12zm-19.66-3c2 1.55 5.58 1.49 7.56 3 1.62-5.82-7.59-7.44-7.56-2.99zm21.18 10.59c-.12 5.43-5.85 5.24-7.57 9.08 38 3.28 108.74-3.33 152.76-10.59-36.42-22.96-94.38 2.64-145.19 1.52zm226.86-10.59c6.73 3.36 11.81 8.36 21.17 9.08-1.26-10.54-11.51-14.65-21.17-9.07zm-249.55 15.13c.61-4.43 8.87-1.21 10.59-4.54-5-.06-7.53-2.55-13.61-1.51-.43 3.46.36 5.69 3.02 6.06zm-108.88 107.41c-2.21.93.15 1.83 0 0 89.23-.28 132.78-62.37 214.76-60.49-56 12.52-99.17 38-143.68 62-3.7-.84-3.22-5.85-9.07-4.53-71 22.48-148.24 35.28-207.21 66.54 5.34.71 14.57-2.47 13.61 4.54-12.63 10.81-43.2.36-60.5 9.08 1.23 7.49-8.61 11-15.12 15.12 33.4-.88 57.21-11.35 81.67-21.17 4.32-1.88-6.57-4.4-1.51-7.57 38.35-10.6 80.86-33 114.94-37.81-22.54 15.77-54 22.64-77.13 37.81 5.27-1.45 18.78-6.78 22.69 0-48.47 19.59-98.32 37.81-146.71 57.48 15.06.77 32.41 3.18 46.89 0 7.43-16.27 37.42-18 52.93-21.18-9.61 12.57-29.1 15.26-46.88 19.67-3 3.84 3.77 8.42 0 13.61 23.45-8.82 43.41-21.12 72.59-24.2 3.13 4.41 4.88 5.69 3 12.1-38.39-3.37-62.2 31.25-90.75 22.68 2.4-4.66 8.81-5.3 12.1-9.07 2.2-.93-.15-1.83 0 0-35.43 2.89-56.63 20-89.23 25.71-4.39-10.06-14.89-3-25.71-3-3.86 5.22-3.95 14.19-10.59 16.63 34.8 1.53 49-17.53 78.65-21.17-1.25 4.27 2.13 3.91 1.51 7.56-29.8 12.11-67.45 32.28-95.28 36.3-2.17-8.22 7.77-4.33 7.56-10.59-37.57 3.49-64 8.8-81.67 31.76 18.35-3.4 41.42-24.32 57.47-15.12-16 14.2-43.07 17.43-60.5 30.25 33.58-6.76 59.86-20.8 90.75-30.25 4.26.27 1.88 7.19 7.56 6.05 11.71-5.27 27.68-20.63 40.83-10.59 18.5-6.72 32.11-18.31 54.45-21.17-.19 2.71 1.85 3.19 1.51 6-55.24 24.42-108.31 51-161.82 77.14-6.09 1-3.72-6.37-9.08-6-3.48 4.55-18.06 4.5-13.61 12.1 5.88 1.54 14.48-4.4 18.15 4.54 39.89-10.36 72.49-28.23 107.38-46.89 47.86-9.74 87.36-40.59 124-66.54-15.94 3.71-28.26 11.06-42.35 16.63-2.21-3.33-4.59-6.5-4.54-12.1-27.2 5.26-54 26.4-80.15 22.69 34.49-21 82.77-28.14 121-45.38 5.63 3.12-5.88 7.68 1.51 7.57 12.13-.21 7.25-8 15.13-12.1 26.94-10.37 59.11-15.5 81.67-30.25 11.06-3.56 32.63-2.94 36.29-18.15-30 3.72-49.93 17.62-80.15 21.17-.48-3.55-2.39-5.67-1.51-10.58 29-5.52 62.56-26.5 90.74-18.15 8.57-8.57 18.71-15.57 33.28-18.15 0-5-4.93-5.17-4.55-10.59-7.89 4.74-11.34-2.26-15.12-6-38.62 20.87-90.89 36.16-127 54.45 5.17-4.91 3-10.39 4.53-16.64 25-14.87 59-20.62 86.22-33.27.33-4.87-2.68-6.4-1.52-12.1 76.22-37.22 186.22-40.64 257.12-83.19-5.4-1.28-.19-3.72-1.52-9.07 23.67-23.74 64.16-22.1 90.75-21.17-.52 5.32-11.51 5.54-7.56 10.59 21.48-3.38 41.56-23.76 62-18.16-9.18 8-26.73 7.56-36.3 15.13 4.64 8.44 1.7 13.44-3 19.66 13.11-1.09 32.37-16.52 42.35-6.05-1.49 10.61-20.78 3.42-24.19 12.1 9.52 9.33 19.41-2.2 30.24-4.54.31 5.24 4.15 6.95 6 10.59-9 9.18-25.45 10.85-31.76 22.69 21.37-3.64 35.66-35.09 59-18.15-.17 8.39-11.14 6-16.63 9.07-.65-2.88-3.26-3.8-3-7.56-12.27 7-29.37 16.89-33.28 27.22 7.66 4.58 17.11-12.94 24.2-4.53-6.7 12.73-31.15 14.85-30.25 30.25 7.53 2.24 16.51-14.42 25.71-10.59-4.74 8.37-12.8 13.41-19.66 19.66.92 4.63 3.21 7.88 4.54 12.1-8.76 103.54 65.43 145.3 128.56 177-10.31-94.57-43.26-179.58-80.17-252.58a104.28 104.28 0 0 0 -24.2-42.35c-10.11 1-21.87 14.65-28.73 9.08 4.22-9.01 16.15-10.22 24.15-15.22-4-12.64-12.51-20.76-22.69-27.22-6.75 5.85-17.82 7.38-25.71 12.1.37 4.58 8.88 10.51 1.51 13.61-13.21-21.2-46.1 11.88-57.47-4.54 3.68-3.38 13.82-.3 15.12-6-31.57-1.88-58 7.89-83.18 16.64-.76 4.75 3.57 6.18-1.51 7.56-4.35.31-7.69-.38-9.08-3-2.46-7.52 5.68-9 1.52-13.61-18.61-20.36-61.84 2.83-83.19-10.58-23.5 5.56-58.07-2.66-78.64 15.12 41 11.09 98.2-26.6 133.09 6.05-1.47 0-1.17 1.85-1.51 3-32.49-12.42-78-5.94-110.41 9.08 26.68 6.38 46-1.17 72.6-4.54 12.43 5.85 40.26-9.89 46.88 4.54-41.56-6.1-74.14 9.07-113.43 13.61 2.15 4.65.68 6.8-1.51 10.59-31.29 11.43-65.86 19.71-89.2 39.21zm237.45-99.82c9.68 6.76 24.1-1.41 31.76-6.05-11.56 1.03-25.41-.18-31.77 6.03zm-228.38 16.64c8 1.64 1.79-4.6 0 0zm1.51 22.69c12.8 1.54 41.31-1.93 49.91-4.54-14.91 2.1-50.5-15.4-49.92 4.52zm273.75-6.05c-2.2.93.15 1.82 0 0 6.27 1.42.3-4.56-.01-.02zm39.32 1.51c-1.75-.25-2.69.33-3 1.51-3.44-.42-5.68.36-6 3 2.81-.21 5-1 6-3 1.76.25 2.69-.33 3-1.51 2.15-.95-.16-1.85-.01-.02zm27.23 0c-10.89 3.73-17 12.23-25.71 18.14 12.13-1.66 26-9 25.71-18.14 2.19-.95-.16-1.85-.01-.02zm-269.21 1.51c1 1-.64-.63 0 0zm202.66 6c7.44 1.45 2.63 5.78 0 9.07 4.87-2.69 15.71.59 16.64-6.05-2.65-1.38-5.26-2.81-4.54-7.56-4.22 1.36-9.21 1.92-12.11 4.57zm-275.26 12.1c6.28 9.17 23-1.23 30.24 6-2.32 8.25-15.85 5.32-21.16 10.59 23.32-1.88 41.85-8.56 57.47-18.16v-4.45c-20.82-2.54-48.14 1.2-66.56 6.05zm257.11 3c5.23-1.32 10.48-2.63 13.61-6-5.07 1.5-11.78 1.34-13.62 6.05zm31.76 1.51h-1.51c-1 1.23-2.35 4.15 0 4.54a7.07 7.07 0 0 0 1.51-4.54c2.19-.87-.14-1.73-.01.05zm-101.34 24.27c22.84-2.37 45.58-4.84 68.06-7.57 4.21 2.25-3.2 6.76 3 6.05 13-4.62 32.53-2.76 43.86-9.07-17.41-7.92-24.77 0-48.39 1.51-13.24-27.57-47.09 2.39-66.53 9.08zm130.07-10.59c9.16-.86 24.93-3.12 24.2-12.1-7.5 4.59-20.27 3.92-24.2 12.09zm34.78 6.05c9.78-1.83 18.87-4.34 24.2-10.59a94.49 94.49 0 0 0 -24.2 10.58zm-415.91-4.54c9.94-.64 23 1.78 27.22-4.54-6.21 4.37-23.52-2.38-27.22 4.53zm-12.1 31.76c25.83 4.87 45.34-6.27 62-18.15-21.31 5.39-48.2 5.23-62 18.14zm396.25 4.54c7.82-6.3 20.57-7.67 25.71-16.64-10.16 2.95-25.06 9.18-25.71 16.63zm-276.77 15.12c6.31 5 16.22-7.19 21.17 1.52-1.22 6.84-9.21 6.92-12.09 12.09 19.42 1.28 20.27-16 34.78-19.66-1.17-3.87-1.51-8.57-4.54-10.58-13.17 5.47-29.19 8.1-39.32 16.62zm59-13.61c1 1-.64-.63 0 0zm-9.08 3c3.76.22 6.27-.78 7.56-3-3.76-.24-6.29.77-7.6 3.02zm-161.83 1.51c-28.73-2-44.13 9.31-68.06 12.1-2.3 4.75-5.88 8.23-7.56 13.61-14.41.22-30.53-1.29-40.84 3 3.53 3.53 5 9.08 9.08 12.1 17-1.11 30-6.33 42.35-12.1q-6.57-1-7.57-7.56c23.57-7.69 52.62-9.89 72.6-21.17 6.27 1.48.29-4.49-.01.04zm428 39.32c1 1-.64-.63 0 0zm-586.83 7.56c10.31.22 19.61-.56 25.71-4.53-9.89.19-18.97 1.2-25.7 4.55zm-57.47 25.71c12-.13 23.9-.3 28.74-7.56-11.56.55-21.49 2.73-28.73 7.58zm75.62 13.62c-11.67-.59-21.48.7-28.73 4.53-8-1.64-1.79 4.6 0 0 12.27 4.28 19.74 1.36 28.73-4.53 2.21-.91-.14-1.81.01.02zm-84.69 18.15c21.27 1.11 33.48-6.85 48.39-12.1-16.01 4.15-39.39.95-48.38 12.12zm-18.15-7.57c6.28 1.45.3-4.53 0 0zm4.54 33.28c29.51-1.63 62.44-3.9 89.23-13.61-10.57-3.62-51.46 2.53-42.35-6.05-16.48 4.93-43.92 6.18-46.87 19.68zm-56 1.51c14.94-3.46 39.18-6 51.42-16.64-17.97-1.24-35.16 11.11-51.37 16.66zm335.77 7.58c2.2-.93-.15-1.83 0 0-3.75.22-7.33.29-7.56-3-.67-5.71 3-7.1 4.54-10.59-10.84 5.3-18.41 13.86-25.71 22.69 11.26-1.4 21.92-3.34 28.73-9.1zm-299.46 3c-2.19.93.16 1.82 0 0 6.31 1.47.34-4.5.03.03zm-43.8 6.11c1 1-.63-.64 0 0zm282.83 33.27c15-1.74 33-13.3 40.83-27.22-21.83.86-32.27 13.1-40.86 27.19zm-260.17-16.67c6.69-.87 11.75-3.37 15.12-7.56-8.16-.55-11.85 3.27-15.12 7.56zm-56 12.1c4.86-1.33 2.07 5 6 4.54 8.22-6.4 20.26-9 27.22-16.64-12.74 2.3-25.75 4.42-33.18 12.1zm242 19.67c2.73-8.87 14.05-9.14 18.15-16.64-35.45 1.86-53.57 21-81.67 30.25-.43 4.6 4.84 5.88 1.51 9.07-25.33 28.94-68.41 39-102.85 52.94 5.78-21 32.95-20.49 45.38-34.79-39.55 14.4-72.82 35.07-104.36 57.47 19.71-.91 44.08-30.8 57.47-13.61-1.85 5.21-10.25 3.87-12.1 9.08.93 2.09 5.82.22 6 3-15.36 14.89-37.77 22.73-54.45 36.3 3.11.42 3 4 4.54 6-20.62 18.7-45.82 32.82-66.55 51.42 49.9-31.32 92.45-54.1 139.15-90.74 4.86-1.33 2.07 5 6 4.53 6.58-6.52 12.73-13.48 19.66-19.66-.29-5.25-5.35-5.74-6-10.59 29.28-13.07 53.85-30.84 83.18-43.86a38.34 38.34 0 0 0 -3 12.1c-61.12 37.69-109.36 88.27-149.73 146.71 16.87-4.3 20.87-21.48 39.32-24.2 1.26 4.79-.61 12.71 4.54 13.61 4-3.14 2.52-13.23 1.51-19.66 9.35-7.79 20.88-13.4 25.71-25.71 2.2-.93-.15-1.83 0 0-10.23 5.9-17.71 14.55-25.71 22.68-1.34-3.19-4.61-4.46-4.54-9.07 9.32-17.9 27.66-26.79 43.86-37.81 3.31.22 3.25 3.81 3 7.56-1.29-.28-1.43.59-1.51 1.51q-6.57 1-7.57 7.57c-1.28-.28-1.42.59-1.51 1.51-2.2.93.15 1.83 0 0 1.29.28 1.43-.59 1.51-1.51 4.43-.62 4.91-5.18 7.57-7.57 1.28.28 1.42-.58 1.51-1.51 16.5-10.72 27.15-27.3 46.88-34.78 6.87-.82 4 8.06 10.59 7.56 9.09-14.1 20.18-26.2 30.25-39.33-31.38 4.92-43.26 29.34-68.06 40.84-2.36-2.17-5.26-3.81-6-7.56 24.11-23.28 55.14-39.64 86.21-56-9 1.08-14.87 5.29-22.69 7.56-3.46-1.58-4.2-5.88-7.56-7.56 7.37-6.24 15-12.21 24.2-16.64.28 1.29-.59 1.43-1.51 1.51 31.56-1.73 76.4-16.33 92.26-43.86-31.99 2.88-48.22 21.43-72.56 31.88zm25.71 39.32c-5.6-1-8.43-4.68-7.56-12.1-8.07.59-10.53-2.55-15.13 1.51-1 5.53 3.28 5.8 3 10.59-9.76 10.41-22.89 17.44-30.25 30.25-2.2.93.15 1.83 0 0 17-9.69 35.55-17.89 49.91-30.25 26.64-18.26 69.08-36.76 81.67-59-32.18 8.61-63.88 30.85-81.61 59zm530.87-59c1 1-.64-.63 0 0zm-850 12.1c7.77 4.63 15.79-1.89 24.19-1.51v-7.56c-8.4 2.66-20.17 2-24.17 9.08zm821.25 4.54c1.61-2.69 11-11.12 3-13.61-.67 3.9-6.03 10.93-2.96 13.62zm-39.33 30.25c13.76-6.91 12.35-29 25.71-36.3 1.52 0 1.81 1.23 3 1.51-15.94-11.15-23.98 20.05-28.67 34.8zm-760.71-9.09c-.23 3.77 2.38 4.69 3 7.57 6.73-.85 10.73-4.41 12.1-10.59-6.7-.66-11 1.09-15.1 3.02zm815.2 12.1c7.94 2.79 12.16-12.2 6-13.61-1.31 5.22-6.48 6.59-6 13.63zm-10.59-9.07c1 1-.63-.64 0 0zm-756.21 18.17c15.66-14.93 41.55-4.15 54.44-18.15-24.44-1.25-49.35 5.09-54.44 18.15zm780.42 3c1.38-5.22 9.3-11.8 4.53-18.15-.33 6.3-8.54 12.55-4.54 18.17zm21.17-10.58c4.56 2.33 4-7.83 1.51-7.57-1.27 1.78-1.99 4.08-1.51 7.59zm-890.83 7.58c6.14.56 22.76-1.42 24.2-10.59-8.39 3.2-19.14 4.05-24.2 10.59zm34.79-1.51c-.45 3.08-4.09 3-4.54 6 12.36 8.67 30.28 7.49 45.38 0-5.38-7.16 6.46-10.32 3-15.13-16.5-4.99-30.47 21.02-43.84 9.13zm794 12.09c2.42-3.62 12.5-14 6-16.63-.59 5.94-9.29 11.73-5.97 16.63zm-621.58-12.09c-6.28-1.45-.31 4.53 0 0 6.28 1.44.3-4.53 0 0zm148.22 4.53c1 1-.64-.63 0 0zm429.53 0c1 1-.64-.63 0 0zm137.63 1.52c.93 2.19 1.83-.16 0 0-.94-2.2-1.83.15 0 0zm-139.15 1.51c1 1-.63-.64 0 0zm95.29 28.75c2-8.09 9-19.15 4.53-28.73-2.36 8.48-10.99 20.66-4.53 28.73zm-114.95 15.13c14.09-10.11 26.91-21.5 34.79-37.81-2.05-.48-2.89-2.15-6.05-1.52-7.37 15.31-19.29 26.08-28.74 39.31zm-824.27-27.25c4.67 3.57 8.9-3.41 12.1-6-4.29 1.72-9.96 2.05-12.1 6zm107.38 7.57c15.3.17 24.75-5.5 31.76-13.62-11.12 4.01-26.19 4.06-31.76 13.62zm-46.89 4.55c-.13 4.13 2.52 3 0 6a36.29 36.29 0 0 0 19.65-12.07c-3.52-1-4-5-7.57-6-5.49 2.5-5.18 10.88-12.08 12.07zm992.16-10.58c-5.1-4.6-4.58 5.59 0 0zm-1060.21 6.03c-3.63.6.83-6.89-4.54-4.54-2.08 4.31 2.71 9.09 4.54 4.54zm62 63.52c-4.77-7.7-11.86-5.08-16.63 1.51 4.43-1.36 4.64-1.36 9.07 0 0 3.56 2.61 4.45 1.52 9.08 39.22-25.81 88-42.11 122.5-72.6-5.75-.81-8.38-4.72-15.12-4.54-24.33 31.64-74.33 37.58-101.34 66.58zm-39.3-49.91c5.07-.48 9.54-1.56 12.1-4.54-6.1-.52-11.1.03-12.1 4.54zm860.57 16.64c7.58-3.14 7.48-14.67 6-19.67a54.6 54.6 0 0 0 -6.02 19.67zm-812.17-1.52c14.67-3.48 28.62-7.67 39.32-15.12-17.8.36-35.03 1.28-39.34 15.12zm840.91-7.56c4.5 1.8 6.5-6.37 3-7.56-.64 2.88-4.31 2.74-3.02 7.56zm-881.75 12.1c13.78-2.86 25.51-7.77 31.76-18.15-15.22.43-29.32 10.04-31.78 18.15zm821.25-9.07c4.83.15 10.18-7.86 4.54-9.08-.76 3.98-8.35 5.09-4.56 9.08zm252.58-3q-.27-5.77-6-6c-1.11 4.99 2.47 5.45 5.98 5.97zm12.1 7.56c4.44-.1 5.62-3.45 7.56-6-3.92-1.62-5.62-5.47-10.58-6 .06 4.79 4.28 5.65 3 11.97zm-75.62-4.53c.22-1.79 2.69-3.43 0-4.54-.24 1.75-2.71 3.4-.02 4.51zm-760.77 49.88c-.54 2-2.67 2.37-3 4.53-2.2.93.15 1.83 0 0 3.64.62 3.29-2.76 7.56-1.51 1.35 2.69 4.23 3.84 3 9.07-2.6 3.46-7.28 4.82-9.08 9.08 16.21-7 28-18.39 39.33-30.25 5.4-.65 8.3-3.8 10.58-7.56-4.79 1.26-7.68 4.41-10.58 7.56-9.54 5.59-18.7 11.55-33.28 12.1.71-3.23-2.16-2.88-4.53-3 17.88-11.13 42-31.23 62-30.25 4.45-8.16 12.35-12.87 15.13-22.69-17.65 4.53-33 11.36-39.32 27.22-3.94-.6-4.57-4.51-9.08-4.53-18 17.82-50 29.69-60.5 49.91 8.77-8.4 20.16-14.15 31.77-19.68zm778.9-49.91c2.5 0 .85 4.19 3 4.53.65-2.88 3.26-3.8 3-7.56-2.77.21-5 .99-6 3.03zm-133.1 13.61c5.08-2 12.35-9.77 9.08-15.13-3.59 4.48-7.43 8.71-9.08 15.13zm-606.48-10.59c-4.52 4.55-11.68 6.47-15.13 12.1 6.23-2.84 14.34-3.82 15.13-12.1 2.2-.93-.16-1.83 0 0zm775.88 10.59c.81-3.62 6.53-10.06 0-12.1-1.6 1.57-3.13 10.84 0 12.1zm-1087.44-6a4.19 4.19 0 0 0 4.54-3 4.19 4.19 0 0 0 -4.54 2.95zm175.44 1.51c-38.35 6.16-74.93 21.57-86.21 52.93 33.12-7.21 56.63-37.14 86.21-52.93 3.45.42 5.68-.36 6.05-3-2.82.13-5.06.92-6.05 2.95zm795.54 3h4.53c.28-3.29-1.23-4.81-4.53-4.53zm225.35-1.51c7.74 5.39 6.86 27.41 21.18 21.18-3-4.76-4.72-7.43-3-13.62-5.2-1.35-6.57-6.53-13.61-6 0-1.47-1.85-1.17-3-1.51-.91-2.77-4.26-.31-1.57-.08zm-376.59 16.61c1.73-5.84 6.51-8.61 7.56-15.13-5.9.71-11.07 10.04-7.56 15.13zm201.15-13.61c-2.2.93.15 1.83 0 0 2.25-.93-.15-1.83 0 0zm169.39 10.58c-1.31-4.74-3.75-8.35-7.56-10.58-.05 6.09 3.42 8.64 7.56 10.58zm-397.77 15.16c.89-8.7 6.89-12.27 7.56-21.18h-4.53c.68 7.77-8.67 13.43-3.03 21.18zm178.47 9c9-3.82 18.75-22.34 13.61-30.25-3.07 11.6-13.66 15.62-13.61 30.25zm-685.13-27.18c-2.2.93.15 1.83 0 0 2.2-.93-.16-1.82 0 0zm721.43 0c1 1-.64-.63 0 0zm234.42 39.32c.39-18-4.57-30.71-16.63-36.3 5.26 12.39 9.13 26.16 16.63 36.3zm-158.8-33.27c1.75 6 1.75-6 0 0zm46.89 9.07c2.18-.36 3.51-12.44-1.52-10.58 2.06 4.64-5.64 10.32 1.52 10.58zm-919.56-7.56c-11.26 4.89-18.85 13.42-27.23 21.18 12.65-3.49 21.65-10.62 27.23-21.18 2.19-.93-.16-1.83 0 0zm706.3 12.1c-1.28-.28-1.42.59-1.51 1.51-2.2.93.15 1.83 0 0 1.29.28 1.43-.59 1.51-1.51h7.61c-1.71-6 4.57-10.51-1.51-12.1-2.28 3.82-5.39 6.76-6.1 12.1zm-167.88-9.07c-3.66 5.07 5.08-3.66 0 0zm142.17 13.59c5.49-.62 10.45-9.64 6-15.13-3.38 3.65-5.68 8.36-6 15.13zm-916.54-4.54c9.09 0 15.07-3.08 18.16-9.07-8.3.82-14.03 4.14-18.16 9.09zm1036 15.12c8.69-4.41 12.19-14 15.12-24.19-9.2 3.12-15.16 16.79-15.1 24.21zm71.09-19.66c1 1-.64-.63 0 0zm99.82 7.57c3-1.18.81-9.75-3-9.08.95 3.14-2.45 10.53 3.02 9.1zm-128.56-6c1 1-.63-.64 0 0zm-1002.72 21.14c14.1-.16 33-11.13 30.25-18.15-9.56 6.58-21.27 11-30.25 18.15zm-25.71 9.07c6.13-.42 12.3-.8 12.1-7.56-6 .59-8.23 4.89-12.1 7.56-6.43.88-7-4.07-9.08-7.56 2.35-8.25 18.69-10.51 16.64-18.15-10 9.15-24.36 14-34.79 22.69v9.07c-11.45 4.18-21.27 10-28.74 18.15 22.41.23 27.1-17.27 40.84-25.71 6.07-.81 10.9 9.81 15.13 1.51zm620.09-24.19c-1.28-.28-1.42.59-1.51 1.51-2.57-.56-2.85 1.18-3 3-1.29-.28-1.43.59-1.51 1.52-1.35.67-2.71 1.32-3 3-4.15 2.46-13.55 7.55-10.59 12.1 3.65.19 8.11-6.66 10.59-12.1 2.57.56 2.85-1.18 3-3 1.28.27 1.42-.6 1.51-1.52 1.34-.67 2.7-1.32 3-3 1.29.28 1.43-.59 1.51-1.51 2.2-.93-.15-1.83 0 0zm95.29 33.27c11.42-7.74 25.38-21 25.71-34.79-6.82 13.35-19.77 20.57-25.71 34.79zm46.88-31.78c1.75 6 1.75-6 0 0zm261.68 6.07c.87-.92 3.54-7.18 0-7.56-.9.91-3.56 7.17 0 7.56zm216.28 40.83c4.47-18.55 4.09-42.56-12.1-48.39-8.7 18.34 11.22 29.96 12.07 48.39zm-458.28-42.34c-1.47 0-1.17 1.85-1.51 3-4.53.3 1.45 6.28 0 0 1.47 0 1.17-1.85 1.51-3 2.18-.93-.17-1.83 0 0zm25.71 1.51c-6 .43.29 6.66 0 0 2.18-.93-.17-1.83-.02 0zm-845.44 6c-4.54.3 1.44 6.28 0 0a14 14 0 0 0 9.07-6c-5.72-.66-6.91 3.19-9.09 6.05zm686.64-3c-1.29-.28-1.43.59-1.51 1.51-1.29-.27-1.43.6-1.51 1.52-1.29-.28-1.43.59-1.52 1.51-1.28-.28-1.43.59-1.51 1.51h-1.51c-4.5 3.56-9.15 7-10.59 13.61-2.2.94.15 1.83 0 0 6.82-1.74 10.38-6.76 12.1-13.61 1.28.28 1.43-.59 1.51-1.51 1.29.28 1.43-.59 1.52-1.51 1.28.28 1.42-.59 1.51-1.52 1.29.28 1.42-.59 1.51-1.51 5.94-.4-.3-6.64-.02.02zm405.33 1.51c.22-1.78 2.7-3.42 0-4.53-.24 1.8-2.71 3.45-.02 4.55zm96.8 16.64c1.64-7 7.14-14.43 4.54-21.17h-4.58c.33 6.66-7.3 17.09 0 21.19zm-1132.83-18.13c1 1-.64-.63 0 0zm606.48 1.51c-1.29-.27-1.43.6-1.51 1.52-1.29-.28-1.43.59-1.51 1.51-1.29-.28-1.43.59-1.52 1.51-1.28-.28-1.42.59-1.51 1.51h-1.51c-19.41 28-56.3 38.48-59 83.19 2.55 8 6.75 14.42 10.58 21.17 40 30.56 137.15 14.56 216.28 18.15 78.32 3.56 161.2-6.8 232.92-12.1 6.43-.89 10 1.09 15.12 1.52 81.13-17.69 188.5-9.12 223.84-72.6-1.65-6.42-1.14-15-4.54-19.66-3.36 9.23-.28 24.93-12.1 25.71-.24-1.77-2.76-1.28-4.54-1.52 1.18-3.36 3.18-5.89 3-10.58-4.39 2-8.7 1.23-10.59-3 5.67-3.78 2.1-16.09-1.51-19.66-9.27 10.89-17.88 28.83-34.79 27.22-6 11.63-7.91 27.38-22.68 30.26a11.37 11.37 0 0 1 -9.08-7.57c11.8 1.31 19.6-9.31 19.66-24.2-8.37.61-8.78 1.08-15.12-1.51-5.82 9.81-4.85 26.41-18.15 28.74-2.25-1.79-6.76-1.31-6-6 5-4.54 10.56-8.6 10.59-18.15-5.52 1-8.06-1-10.59-3-6.89 14.8-10.75 32.61-25.71 39.33-3.87-.17-5.3-2.78-7.56-4.54 7.88-5.73 13.19-14 16.63-24.2-11.38-5.54 7.91-25.13-3-34.79-3.74 19.29-9.22 51.83-27.22 46.89 3.26-7.82 8.93-13.24 9.07-24.2-21.39 1.15-17.26 42.74-39.32 33.28 1.2-10.42 14-17.27 12.1-25.72-6 6.74-9.52 22-22.69 16.64-6.32 7.8-8.61 19.62-22.69 19.66.43-2.44-1.42-2.6-1.51-4.53 7.67-18.87 32.81-35.32 28.74-56-18.23 16.55-32.86 36.71-52.94 51.42-.16-2.86-5-1.05-4.53-4.54 4.19-10.43 14.17-15.06 18.15-25.71a18.24 18.24 0 0 0 -9.08-7.56c-12.48 11.21-20.51 26.88-33.28 37.81-7.35-1.22-6.82-10.32-12.1-13.61 3.51-4.16 11.51-11.69 9.06-16.69-2.57 4.68-14.61 9.3-16.63 1.51 6.79-10 21.73-19.42 22.68-30.25-28.82 18.07-37.59 56.19-62 78.65a7.62 7.62 0 0 1 -4.53-4.54c7.83-20.39 23.3-33.16 33.27-51.42-7.13.85-11.46 2.17-18.15 0-9 10.73-15 32.22-27.23 34.79-5-20.87 22.76-34.57 27.23-56 1.28.28 1.42-.58 1.51-1.51 1.47 0 1.18-1.85 1.51-3 1.29.27 1.43-.59 1.51-1.52 2.34-.36 7.25-5.62 3-7.56 1.13 4.66-4.15 2.91-3 7.56-1.28-.27-1.42.59-1.51 1.52-1.47 0-1.17 1.85-1.51 3-1.29-.27-1.43.59-1.51 1.51-16.36 8.91-24 48.81-45.38 37.81 3.81-6.59 14.43-11.64 10.59-21.17-11.68 6.47-14.67 21.63-28.74 25.71-4.24-.8-2.94-7.14-7.56-7.56-4 7.57-7.51 15.67-16.63 18.15a13.52 13.52 0 0 1 -6-6.05c10-12.15 19.07-25.29 25.71-40.83-6.68.62-11.69-.42-15.13-3-10 21.21-18.89 43.62-39.32 54.45-2-1.52-5.63-1.43-6.05-4.54 9.58-14.62 24.44-24 28.74-43.86 1.28.28 1.43-.59 1.51-1.51 2.2-.93-.15-1.83 0 0-1.29-.28-1.43.59-1.51 1.51-22.4 7.69-34.52 55.06-60.5 39.32 2.66-12.46 13.52-16.72 16.64-28.73-16.28 9.94-16.75 35.67-34.79 43.86-1.37-2.67-5.57-2.5-6-6 8.64-8.51 13.2-21.08 19.66-31.77-19.45 14.84-26.51 42.06-45.37 57.48-6.49-5 .66-9 1.51-15.13-3.11-1.92-7.67-2.41-7.56-7.56 6.63-6.83 11.51-15.21 10.59-25.71-20.42 16.39-25.39 48.22-54.45 56-1.35-2.68-6.14-1.93-4.54-7.56 14.88-8.89 31.35-24 34.79-39.32-14.06 1.41-17.64 25.46-33.27 30.24-6-3.07-16.93-1.22-18.15-9.07-8.47 1.61-8.12 12-16.64 13.61-5.7-1.36-3.23-10.88-9.08-12.1-5.14 3.93-8 10.19-16.63 10.59-.54-2-2.66-2.38-3-4.54 1.45-9.63 9.45-12.74 12.1-21.17 2.59-1.95 6-3.13 6.05-7.56 2.2-.94-.15-1.83 0 0h-1.51c-.46 3.56-5.25 2.81-4.54 7.56-9.11 10.05-21.29 17-33.27 24.2-6.39-6.66 2.48-11.45 6-16.64.32-5.36-7.1-3-6-9.07a210.77 210.77 0 0 1 33.27-39.33c-5.84-9.41 4.43-15.7 6.05-22.69 1.29.28 1.43-.58 1.51-1.51 1.29.28 1.43-.59 1.52-1.51 1.29.28 1.42-.59 1.51-1.51 1.28.28 1.42-.59 1.51-1.52 2.06-1.03-.29-1.93-.14-.11zm376.59 15.13c5.72 3.29 7.35-1.43 12.1-3-.33-5.71 1.54-13.63-4.53-13.61-2.11 5.93-7.5 8.6-7.57 16.61zm-760.75-13.61c-32.38 25.59-70.33 45.61-95.28 78.65 6.56-1 11.15-.06 9.08 7.56 16.92-4.25 27-15.33 36.29-27.23 1.87-4.89-4.89-1.15-3-6.05 16.25-19 39.45-31.13 52.93-52.93 2.18-.93-.17-1.83-.02 0zm933.17 9.07c.15-4.69-.68-8.39-3-10.59-.92 1.09-1.82 10.69 3 10.59zm-352.39-7.56c-2.33.36-7.25 5.62-3 7.56.65-2.88 3.26-3.8 3-7.56 2.19-.93-.16-1.83 0 0zm160.32 12.1c5.45-.59 8.25-9.32 3-12.1-2.18 2.86-7.22 7.43-3 12.1zm-13.63-6.05c-6 .43.27 6.66 0 0 2.21-.93-.14-1.83 0 0zm59 15.13c1.78-3.83 9-10.08 4.54-15.13-.95 4.67-9.44 9.63-4.54 15.13zm177 3c5.71-1.36 6.21-15.43 0-18.15-4.18 5.25 1.45 10.84 0 18.17zm-512.71-12.1h6v-4.54c-3.78-.23-4.74 2.35-6.05 4.56zm-635.29-1.49c6.28 1.44.3-4.53 0 0zm-3 1.51c-1.28-.28-1.43.59-1.51 1.51-24.8 6.46-37.84 24.68-51.42 42.35 8.61-2.28 25.07-4.91 31.76-13.61-2.65-1.38-5.26-2.81-4.54-7.56 7.52-7.61 16.46-13.79 24.2-21.18 1.28.28 1.43-.59 1.51-1.51 2.19-.93-.16-1.83 0 0zm65 12.1c2.79 19.95-17.31 41.82-22.69 57.47 23.77-17.06 45.23-44.5 54.45-71.08-9.12 6.24-20 14.45-31.76 13.61zm775.87 3c8-.4 19.26-10.81 12.11-16.64a63.41 63.41 0 0 0 -12.08 16.67zm-157.29-1.52c1.93-5.13 8.39-5.73 9.08-12.1-6.25-5.5-14.43 6.18-9.05 12.13zm16.64 6h-1.51a7.18 7.18 0 0 0 -1.52 4.54c-2.2.93.16 1.83 0 0a4.17 4.17 0 0 0 3-4.54c3.31-5.79 12.75-13.42 10.58-19.66-2.63 7.47-11.23 8.95-10.52 19.74zm-71.09-12.1c3.25.08 10.4-3.52 6-6-1.28 2.7-5.49 2.53-5.97 6.08zm314.59 12.1c1.83-5.77 14.27-8.86 9.08-16.64-2.18 5.48-12.13 11.06-9.05 16.72zm-1002.72-2.94c4.68-4.39 11.49-6.66 16.63-10.59-7.9.22-18.63 5.46-16.63 10.59zm1031.48 6c0-2.71 4.07-8.8 0-10.59 2 4.74-4.48 8.44.01 10.64zm-1014.84 57.52c29.92-16 63-41.86 90.75-65-35.07 16.82-72.54 31.27-90.75 65zm34.79-59c1 1-.64-.63 0 0zm586.82 0c1 1-.63-.63 0 0zm0 28.74c13-1.5 30.68-18.49 33.28-30.25-14.66 7.43-26.64 12.62-33.28 30.26zm-682.11 9.08c7.88-2.34 15.9-9.77 24.21-3 9.41-8.83 27-25.31 27.22-33.27-18.31 10.91-35.76 22.7-51.43 36.28zm727.49-28.71c-2.59-.07-3.92 1.12-4.54 3 2.59.07 3.92-1.12 4.54-3 5.95-.45-.29-6.69 0 0zm399.28 1.51c1 1-.64-.63 0 0zm-487 24.2c6.38-5.12 9.23.24 15.12-1.51.4-7.16 6.61-8.52 9.08-13.62-4.1-.93-3.77-6.31-9.08-6-4.53 7.5-11.71 12.42-15.12 21.11zm-496.08-12.1c-26 22.93-55.58 42.23-72.6 74.11-2.2.93.15 1.83 0 0 16.36-5.9 24.67-27.65 43.86-25.71 8.89-16.82 20.61-30.81 28.74-48.4 2.17-.95-.16-1.85 0-.02zm16.64 48.4c2.15-3.39 8.2-2.89 10.58-6-.58-15.7 11.87-18.38 15.12-30.25-14.91-1.24-24.36 23.87-25.7 36.24zm-122.47-16.66c-1.76-.24-2.69.34-3 1.51-26.74 10.57-46.34 36.34-56 59 20-18.33 36.29-40.35 56-59 1.76.25 2.69-.33 3-1.51 6.24 1.45.26-4.53 0 0zm39.28 75.65c-1.29-.28-1.43.59-1.51 1.52-2.2.93.15 1.82 0 0 1.28.27 1.42-.59 1.51-1.52 6-3.48 15.34-15.88 21.17-6-19.18 20.92-28.51 42.4-39.32 71.09-1.47 0-1.17 1.85-1.51 3-6.18 4.41-8 13.19-12.1 19.67-7.36 2.31-5.69-4.4-10.59-4.54-.5 3.53-1.55 6.51-4.53 7.56-26.76 3.74-34.62 38.8-49.91 59 21-5.74 21.11-32.32 39.32-40.83 7.89 2.39.56 9.34 3 12.1 17-13.57 35-26.13 34.79-52.94 1.47 0 1.17-1.85 1.51-3h1.51c29.27-31.24 46.36-74.64 77.14-104.36-2.66-.36-3.45-2.6-3-6.05 12.65-5 15.47-19.82 21.18-31.76-22.18 15.63-33.16 42.47-57.48 56-.53-2-2.66-2.38-3-4.54.65-8.92 8.08-11.08 9.07-19.66-7.64 2.94-11.5 9.67-16.63 15.12 3.16 1.38 4.61 4.47 4.53 9.08-5.43 6.53-12.05 12.06-15.15 21.06zm-68.06-25.71c-1.29-.28-1.43.59-1.51 1.51-1.29-.27-1.43.59-1.52 1.52-1.28-.28-1.42.59-1.51 1.51-2.2.93.16 1.83 0 0 1.29.28 1.43-.59 1.51-1.51 1.29.27 1.43-.59 1.52-1.52 1.28.28 1.43-.59 1.51-1.51 15.44-14.43 39-28.35 46.89-45.37-20.21 4.53-35.5 26.94-46.89 45.34zm69.57-42.35c-1.28-.27-1.42.59-1.51 1.52-2.2.93.15 1.83 0 0 1.29.27 1.43-.59 1.51-1.52 2.21-.94-.15-1.85 0-.03zm89.21 30.22c-3.26-1.28-5.36-3.72-4.54-9.07-7.84 2.24-13 7.19-21.18 9.07-1.71 27-30.9 38.34-39.32 63.52 24-5.22 27.3-31.17 46.89-40.83 3.3-.28 4.81 1.24 4.53 4.54 21.15-16.66 44.82-30.81 57.48-56-17.36 6.84-26.33 22.08-43.86 28.77zm-101.31-19.66c-1.28-.28-1.42.59-1.51 1.51-1.28-.27-1.43.59-1.51 1.52-2.2.93.15 1.82 0 0 1.28.27 1.42-.59 1.51-1.52 1.29.28 1.43-.59 1.51-1.51 2-1.52 5.63-1.43 6-4.54-2.84.64-6.46.55-6 4.54zm-92.25 4.5c6.57 1 8.37-2.72 10.58-6-5.53 0-8.1 3-10.58 6zm-16.64 6a4.16 4.16 0 0 0 4.53-3 4.16 4.16 0 0 0 -4.53 3.09zm104.36 44c1.28.28 1.42-.59 1.51-1.51 2.2-.93-.16-1.83 0 0-1.29-.28-1.43.59-1.51 1.51-6.74 3.85-9.78 11.4-16.64 15.12-10-2.47-5.19-10.72-9.08-18.15 6-10.65 15.12-18.16 19.67-30.25-9.83 8.41-23 19.58-21.18 34.79-5.39 4.69-10 10.19-15.12 15.12.39 4.65 3.28 6.81 4.54 10.59-4.29 10.84-12.1 18.15-16.64 28.74 21.34-15.52 42.18-31.47 54.45-55.96zm-105.88-25.71c-10.07 5-18.79 11.44-25.71 19.66 9.72-5.41 22.47-7.78 25.71-19.66 2.2-.98-.15-1.88 0-.05zm75.63 1.51c-19.43 18.47-48.5 35.07-54.45 62 26.25-12.57 39.09-38.55 54.45-62 2.2-.98-.16-1.88 0-.05zm-113.44 25.71c4.75.72 6.19-1.89 7.57-4.54-3.77.24-4.69-2.37-7.57-3-2.83 2.81-.16 3.73 0 7.49zm9.08-4.54c1 1-.64-.63 0 0zm242 0c-18.31 11.94-33.2 27.3-46.89 43.86-8.92 2.88-6.22-5.87-9.07-9.07-10.29 11.39-26 17.34-30.25 34.78 7.34-.75 10.8-13.34 16.64-10.58-30.33 34.21-59.38 69.68-77.14 116.46 41.87-30.73 58.64-86.56 95.29-122.51 12.6 1.88-.32 16.36 3 21.17 17.62-23.21 34.25-47.42 48.4-74.11 2.21-.97-.14-1.88.01-.05zm-228.38 27.23c13.65 1.85 20.27-18.78 15.12-25.71-6.07 7.51-10.36 16.82-15.13 25.66zm229.89-4.54c-23.43 33.54-49.69 72.31-60.5 113.43 14.73-19.55 25.61-43 40.84-62 .82-5.35-5.36-3.72-4.54-9.07 12.29-17 39.43-27.06 43.86-46.89-5.33-3.28-10.63 11.01-19.67 4.48zm-217.79 25.71c4.49-.55 7.46-2.62 9.07-6-4.76.73-1.13-6.93-4.53-7.56-2.45 3.51-2.42 9.59-4.55 13.51zm71.09 15.13c3.82 1.59 6.7-5.1 3-6-.01 2.9-4.12 1.82-3.01 5.95zm-65 12.09c3.57.47 2.81 5.26 7.56 4.54 1.71-3.44 10.6-13.76 4.54-15.12-1.87 5.69-10.54 4.58-12.15 10.53zm-10.64-7.59c2.21 5 3.77-5.89 0 0zm267.7 28.74c7.16-3.43 11.88-9.3 18.15-13.61-5.24.71-.86-8.21-4.54-9.08-4.09 7.95-9.36 14.82-13.61 22.67zm-285.85-6c1.71-4.34 13.25-13.29 7.57-15.13-3.37 3.17-13 8.05-7.57 15.06zm57.48-4.54c3.11 2 10-2.27 9.07-9.07-5.53.45-6.92 5.11-9.07 9zm77.13 95.29c-4.1 28.2-19.13 58.47-37.81 77.13-5.81-7.43 7.33-15.4 3-21.17-8.18 10.48-18.37 18.93-21.18 34.78-23.77 4-22.37 33.09-31.76 51.42 5.52-1 8.06 1 10.59 3 11.92-11.27 9.25-37.13 22.68-46.89 9.6 3.55 5.31 19 3 27.23 3.51 3 7.6 5.5 9.07 10.58-5.37 7.23-8.74 16.46-12.1 25.71 3.75.79 5.39 3.69 7.57 6 3.68-15.47 9.76-28.54 15.12-42.34-7.29.73-10.43-2.68-12.1-7.57 31.74-49.92 57.43-105.91 86.21-158.8-1-3.07-7.07-1-7.56-4.54-1.72-25.41 20.52-34.92 16.63-57.47-14.01 38.06-41.73 69.27-51.36 102.86zm183-96.8c-1.29-.28-1.43.59-1.52 1.51-43.94 25.8-58.26 73.41-87.66 114.88 2.15-.13 4.28-.25 4.54 1.51-3.29 5.79-9.89 8.25-12.1 15.12 4.37 11.65-10.29 37.9-10.59 49.91 9.23 2.18 9-5.12 10.59-10.58 19-21.88 32.15-57.58 43.86-81.67-1.24 4.8-11.21 6.36-13.61 1.51 14.65-26.69 31.79-50.88 52.93-71.09 3.82 9.18-4.63 11.58-6.05 19.67 6.7-1.66 7.52 2.56 12.1 3 2.28-7.81 8.33-11.84 9.08-21.17-3.11-3-7.38-4.72-7.56-10.59 1.25-3.79 4.14-5.94 4.53-10.59 1.29.28 1.43-.59 1.52-1.51 2.14-.91-.24-1.81-.05.02zm-229.89 3c-2.2.93.15 1.82 0 0 6.29 1.4.31-4.58.01-.04zm-69.58 19.66c5.23.6 8.76-8.27 6-10.59-1.35 4.1-4.58 6.41-5.99 10.55zm-43.86 10.58c4.28-1.25 3.92 2.14 7.56 1.51 1.35-4.7 5.06-7 6.05-12.09a28.76 28.76 0 0 0 -13.6 10.54zm57.48 15.07c-2.19.93.16 1.83 0 0 14.14-3 18.9-15.39 25.72-25.71-12.48 4.71-18.51 15.79-25.72 25.71zm1.52-21.18c-2.2.93.15 1.83 0 0 2.59.07 3.91-1.12 4.53-3-3.03-.51-4.73.31-4.53 3.02zm192.08 28.74c-2.2.93.15 1.83 0 0 4-2.14 10.45-9.63 7.56-13.61-2.83 4.25-6.74 7.4-7.56 13.63zm-226.87 0c0-2.26 5.62-6.19 1.51-7.56.03 2.28-5.57 6.21-1.51 7.58zm39.32 89.23c25.35-13.47 20.49-57.15 48.4-68.06-.2-7.17 12.73-15.94 6.05-19.66-26.49 20.93-39.06 55.74-54.45 87.74zm-19.66-74.11q5.78-.27 6-6c-4.72-.68-4.21 3.78-6 6.02zm193.59 6h-1.51c.19 2.72-1.85 3.19-1.51 6-1.47 0-1.17 1.86-1.51 3-1.47 0-1.18 1.85-1.52 3-1.75.48-7.12 4.69-3 6.05 0-3 4.13-1.92 3-6.05 1.48 0 1.18-1.85 1.52-3 1.47 0 1.17-1.85 1.51-3 2.66-.36 3.45-2.6 3-6h1.52c1-1.21 2.35-4.14 0-4.53a7.12 7.12 0 0 0 -1.5 4.6zm13.62 0c-20 25.35-32.16 58.6-48.4 87.72 29.77-20.13 50.33-57.56 62-90.74-3.26 4.56-7.26 4.94-13.6 3.09zm-137.63 48.4c16 .92 11.75-18.49 22.68-22.68 10.57 10.79-5.61 29.44-10.58 39.32 16.06-9.37 29-38.36 21.17-57.47-12.57 11.18-32.71 22.81-33.27 40.9zm-28.74 16.64c9-2.12 14.05-8.13 21.17-12.1-1-5.09-7.36-4.74-6.05-12.1 1.17-6.81 15.86-13.11 7.57-19.66-11.85 13.57-10.35 31.14-22.69 43.93zm-19.66-40.72c-10.24 5.9-19.22 13-19.66 28.74 13.55-2.58 13.55-18.71 19.66-28.74 2.19-1-.16-1.88 0 0zm1122.22 16.64c-.34 65.56-.85 101.16 0 161.83 20.69 16.62 32.74 41.87 51.43 60.5-4.81-39.85-64.75-58.79-42.36-101.34 48.81 1.17 68.14 60.87 99.83 74.12-22.94-47.14-72.85-67.31-102.85-107.39-.13-10.21 6.38-13.79 12.1-18.15 65.82-.4 105.19 37.7 143.68 69.57-23.94-63.77-91.86-83.57-149.73-113.43 13.74-25.58 46.61-32 84.7-33.27-31.77-12.08-68.78-1.35-96.8 7.51zm-1161.55 4.54c5.28-.83 11.38-8.72 7.57-13.62-2.28 4.73-7.65 6.44-7.57 13.57zm134.61 89.23c-2.2.93.15 1.83 0 0 26.24-26.2 39-65.83 59-98.31-15.37 12.87-20.43 36-37.82 46.89-2.52-11.13 9.81-15.36 6-22.69-15 17.29-35 29.52-42.34 54.45 2.58-.07 3.91 1.12 4.53 3 7.27.72 3.32-9.78 10.59-9.07 13.65.42 2.61 16.26.04 25.68zm-104.36 6.05c12.66-16.08 14.27-43.21 31.76-54.45a12.68 12.68 0 0 1 3 15.13c6.29-10 19.58-28.65 16.64-37.81-29.22 10.78-56.68 46.79-51.4 77.08zm-48.4-72.6c-5.4 5.41 7.51-7.5 0 0zm30.24 9.08h-1.51c-1.05 1.22-2.35 4.14 0 4.54a7.11 7.11 0 0 0 1.51-4.54c2.21-.94-.14-1.88.01-.05zm251.07 145.19c-5.86 1.31-5.38-3.7-9.08-4.54-15.95 30.44-63.23 52-54.45 92.26-46.72 89.68-73.87 191.67-108.89 290.39 16.59-3 15.59-35.49 28.74-46.89 12.43 15.47 19.68-14.45 21.17-22.68-1.14 3-11.19 2.25-10.59-1.51-2.12-11.64 5.3-16.32-3-25.72 31-51.36 32.6-114.19 69.57-160.31.24-4.28-4.54-3.53-4.54-7.56 19.22-42.3 46.61-76.41 71.09-113.44 4.64-4.43 11.87-6.28 15.12-12.1-4.6-29.3 28.92-45.32 37.81-71.08-6.64 1.09-7.84-3.25-9.07-7.57 10.61-15.6 24-28.45 31.76-46.88-4.75.72-4-4.07-7.56-4.54-22.41 47.63-52.25 87.87-68.07 142.12zm-187.54 263.11c2.2-.92-.15-1.82 0 0-5.34 4.24-6.57 12.59-16.63 12.1-3.11-.42-3-4-4.54-6 17.87-68 44.66-119.36 68.06-183-4.87 2.46-8.19.72-13.61 0-6.59 9-9.42 21.83-13.61 33.28-6.43 1.37-7.62-2.47-9.08-6 10.37-32.5 22-63.76 37.81-90.75 2.6 1.94 5.95 3.12 6 7.56-1.07 14.06-12.5 25.8-10.58 37.81 28.71-25.23 37.26-70.62 56-105.87-7.2 1.65-6.18-4.92-6-10.59-18.11 2.8-6 26.43-21.18 31.76 6.19-40.21 30.83-83.08 42.35-118-55.24 54.89-71.69 150.64-110.41 217.8a7.66 7.66 0 0 1 -4.54-4.54c2.43-14.73 16.08-26.26 10.59-43.86-7.49 19.74-18.55 44-19.66 65 1.28-3.25 3.73-5.34 9.07-4.53 1.37 2.66 5.57 2.5 6.06 6.05-1.31 21.38-12.6 32.77-16.64 51.41-8 14.69-6.93 38.46-22.69 45.38 3.14-34.25 24.13-66.51 22.69-95.29-2.89 6.2-2.58 15.58-10.59 16.65-6.09 1.55-6.72-2.36-9.07-4.55-6.25 8.38-14.92 14.32-16.64 27.23 4 0 8.91-.84 9.07 3-1.33 18.07-15.64 35.59-19.66 56 21.17 7.57-2.69 37.81 1.52 45.37 8.66 2.08 4.46-21.74 13.61-24.2 2.85 2.19 7.86 2.22 9.07 6 2.13 7.24-4.36 13.69 0 18.15 4.31-11.32 7.58-23.67 16.64-30.25 3.75-.22 7.34-.28 7.56 3-11.83 29.17-31.93 63.92-37.81 89.23.87-3.16 5.71 2.18 9.07 1.51 7.82-8.82 8.91-24.36 19.67-30.25a13.6 13.6 0 0 1 6 6c-2.86 4.7-6.72 8.4-7.56 15.13 2.71 8.38 14.16 8 19.66 13.61 2.34-6.24 5.19-12 6.06-19.66-4.29 1.85-10 1.23-12.11-3-1.32-12.87 5.94-17.21 6.05-28.69zm-54.44-382.64c1 1-.64-.63 0 0zm-18.15 22.69c3.56-6.77 18.91-17.07 15.12-21.18-3.9 7.22-16.21 14.01-15.12 21.18zm-42.35-9.08c-1.1 4.63 2.61 4.45 1.51 9.08 4.6-1 7.73-3.36 7.57-9.08-5.24 1.23-6.39-2.82-9.08 0zm226.87 4.54c-1.48 0-1.18 1.85-1.52 3-1.47 0-1.17 1.85-1.51 3h-1.51c-2.63 6.48-9.88 16.3-7.56 22.68 3.64-6.94 7.16-14 9.07-22.68 1.47 0 1.17-1.85 1.51-3 1.47 0 1.18-1.85 1.52-3 2.19-.93-.12-1.83 0 0zm160.31 40.83c17.66-4.1 38.3-21.08 31.76-39.32-13.25 9.44-27.19 26.26-31.76 39.32zm-90.74-33.27c1 1-.64-.63 0 0zm87.72 0c-2.2.93.15 1.83 0 0 2.2-.93-.15-1.82 0 0zm-344.84 18.15c7.9 3.52 2 12.21 1.52 19.66 7.36-1.71 12.7-5.44 15.12-12.09-8.7-3.22-5.87-12-7.56-19.67-2.45 4.64-7.59 6.52-9.08 12.1zm298 46.88c17.08-9.14 32.38-41.22 40.84-59-12.52 19.86-36.87 35.75-40.89 59zm-314.58-52.93a3.58 3.58 0 0 0 6.05-3c-2.87.18-5.11.97-6.1 3zm-27.28 13.59c1.94.08 2.1 1.93 4.54 1.5v-3c-.17-3.69-5-.31-4.54 1.5zm139.15 81.67c-1.78.24-1.28 2.75-1.51 4.53-4.53.31 1.44 6.28 0 0 1.77-.24 1.27-2.75 1.51-4.53 19.3-19.52 32.68-53 37.81-81.67-5.32 4.76-7 13.15-18.15 12.09-10.4 24.15-17.89 42.91-19.66 69.61zm166.36-72.6c1.72 3.32 5.06 5 6.06 9.07-4.91 5.69-7.62 13.56-12.11 19.67 2.88.64 3.8 3.25 7.57 3 4-7.62 6.31-16.88 10.59-24.2-8.64-.2-6.83-11-7.57-15.13-.47 3.62-5.25 2.87-4.54 7.62zm-282.82 13.64c-6.64 2.46-17.25 8.92-12.1 18.15 11.05-4.71 25-22.19 18.15-34.79-1.82 5.74-8.8 6.33-6.05 16.64zm347.86 7.56c6-7.65 13.58-13.65 18.15-22.69-2.86.34-3.34-1.7-6-1.51-4.08 7.09-14 16.27-12.15 24.2zm-95.26-16.64c-4 4-10.77 8.46-18.15 4.54-2.68 9.44-13.57 18.67-12.1 27.22 7.57-13.09 23.92-17.41 30.25-31.76 4.51-.3-1.47-6.28 0 0zm-216.28 72.6c9.4-3.21 20.23-18.07 24.2-31.76 18 .39 21.38-13.91 25.71-27.23-28.58-23.52-42.38 32.7-49.93 58.99zm328.2-52.94c-5 4.63-11.17 8-13.61 15.13 8.51-1.06 13.21-5.94 13.61-15.13 4.18-4.89 11.94-6.2 13.61-13.61-8.53.59-10.29 7.88-13.63 13.61zm-257.14 375.09c-4.53.3 1.45 6.28 0 0h1.52c19.87-47.17 31.87-102.23 59-142.17 6.76-45.17 20.56-83.29 42.35-113.43-4.08-1.46-7.3-3.79-7.56-9.07 20.37-43.16 45.82-81.23 68-122.52-20.94 9.21-29 24.18-45.37 39.33-5.55 0-5.79-5.3-9.07-7.56-10.68 14.52-16.2 34.21-25.71 49.91-2.48 7.1-.59 18.57-12.1 16.64 0-18.89 12.91-37.31 18.15-56-23.53 34-36.24 78.71-54.45 118 3 2.94 5.2-7.84 13.61-4.55 3.9 2.16 8.56 3.55 9.08 9.08-7.47 21.27-14.2 43.28-33.28 52.94-8.22-.92-1.33-12.06-4.54-15.13-4.94 35.15-25.6 62.89-33.27 99.82 3.23-.71 2.88 2.16 3 4.54 12.09-11 10.27-42.64 30.25-40.83 10.29-24.51 22.77-46.81 34.79-69.58 8 18.8-2.37 56.58-22.69 62-11.1 41.31-27.93 84.95-31.71 128.58zm-81.67-376.6c.56 4.49 2.62 7.47 6.05 9.08 2.21-4.9 8.89-13.23 6.05-18.15-2.01 5.05-8.56 5.56-12.1 9.07zm24.2 110.41c-.16 6.21 6.05 6.06 4.54 13.61-15.06 25.28-35.31 53.43-39.33 84.7 2.84-4.72 3.94-14.07 12.11-9.07 16.51-23.89 20.7-67.93 49.9-74.11 2.64-7.45 6.05-14.12 6.05-24.21 4.53-.3-1.44-6.27 0 0-4.11 1.62-7.08 1-9.07-3-1.85-7.81 6.59-16.6 0-19.66-5.77 10.87-9.06 24.21-15.13 34.78-4.75.73-5.91-2.15-9.07-3 2.49-19.19 7.71-35.65 18.15-46.89h4.54c4.45.59 3 7.13 6 9.08 20.55-18 24.54-42.76 31.76-66.54-13-.71-21.51 15.66-25.72 28.73-6.88 1.85-5.93-4.15-12.09-3-14.36 20.94-17.42 53.17-33.28 72.6-2-2.52-6.72-2.35-9.07-4.53-4.76 8.85-13.4 13.81-18.15 22.68-.47 6 3.49 7.6 3 13.61 14.19-5.21 18.7-27.69 34.86-25.78zm-43.86-78.65c5.27-2.32 10.93-12.2 7.56-18.15-4.13 3.48-11.36 11.78-7.56 18.15zm313.07 19.66c-2.2.93.16 1.83 0 0 7.28-9.35 14.75-18.52 19.67-30.24-3.17.64-4-1-6.05-1.52-4.26 10.88-9.87 20.38-13.62 31.76zm-311.52 21.18c-4.63 1.1-4.45-2.61-9.07-1.51 1.42 16.69-17.27 28.93-12.1 39.32 13.9-.66 6.11-42.68 30.25-33.27 5.2-18.49 13.06-34.33 18.15-52.94-15.9 3.31-15.23 36.2-27.23 48.4zm-31.76-7.56c-4.62-15.78 10.72-26.87 12.1-39.33-9.01 6.96-23.55 26.38-12.14 39.33zm311.56 10.58c5.14-2.61 8.45 1.59 10.59 6.06-2.56 16.09-14.6 22.71-18.15 37.81 4.13-1.11 3 3 6 3 20.36-25.44 16.82-55.89 24.2-86.21-12.79 9.83-10.63 27.39-22.68 39.34zm71.09-36.29c-15.19 4.48-18 21.33-25.71 33.27 11.76-7.9 17.55-21.77 25.71-33.27 2.16-.93-.2-1.83-.04 0zm-328.24 43.89c-2.2.92.15 1.82 0 0 1.79-1.75 5.34-1.72 9.07-1.51-1.27-6.32 2.94-7.15 3-12.11-6.66 1.86-9.72 7.41-12.07 13.62zm252.57 0c-4.14 5.28-13.86 11.87-10.58 19.66 6.76-3.32 8.35-11.82 10.58-19.66 2.2-1-.15-1.86 0 0zm77.14 4.54c-1.29-.29-1.43.58-1.51 1.5-2.2.93.15 1.83 0 0 1.28.29 1.42-.59 1.51-1.5 2.2-.97-.15-1.86 0-.03zm-334.25 3h-1.51c-6.48 4.61-12.67 9.51-15.13 18.15-2.19.93.16 1.82 0 0 6.26-5.34 12.65-10.54 16.64-18.15 2.2-.94-.11-1.84 0-.01zm196.62 57.46c-2.2.93.15 1.83 0 0 3.19-1.34 4.47-4.6 9.07-4.53.54 2 2.66 2.37 3 4.53-30.6 44.13-40.78 91.48-60.5 143.68 1.14 3 4.83-4.1 10.59-1.51 3 2.07 1 9.12 6.05 9.07 14-30.91 6.86-90.85 33.27-104.35-1 7.56-8.4 16.76-4.54 24.2 22.18-28.26 44-64.85 54.45-99.82-21.6 14.7-17.73 54.86-43.86 65-.79-2.24-2.24-3.81-3-6 11-21.77 23.47-42.08 31.77-66.54-3.38-3.19-7.74-5.38-9.08-10.6-9.53 14.35-24.4 30.78-27.22 46.87zm124-43.86c-1.29-.28-1.43.59-1.51 1.52-1.29-.29-1.43.59-1.52 1.5h-1.51c-5.66 6.94-9 16.21-24.2 13.62-.93-2.2-1.83.15 0 0-3.81 19.39-26.62 27.81-24.2 48.4 17.52-19.8 38.21-36.4 49.91-62 1.29.29 1.43-.58 1.52-1.5 1.28.27 1.42-.6 1.51-1.52 2.27-.95-.14-1.85.02-.02zm-22.69 62c-29.39 69.93-80.66 126-95.28 205.69 1.55-6 3.82-11.3 12.1-10.59 4.77 22.54-16.06 44-25.71 62-17 1.61-25.86 11.46-28.74 27.23 6.12-2.68 20.41-18.74 30.25-13.61 13-29.31 28.65-56 40.83-86.21-3.74-1.81-5.91-5.18-7.56-9.08 15.79-58.17 48.14-107.84 74.11-160.31 20.22-6.44 39.79-41.54 45.37-57.48-17.35 10.41-18.99 50.85-45.35 42.37zm-36.3-37.81q.29 5.78 6 6.05c-.23-3.76 2.38-4.68 3-7.56-3.63-.19-7.19-.22-8.98 1.52zm-307 10.58c1 1-.64-.63 0 0zm46.89 1.52c-12.43 19.16-44.84 31.64-37.82 60.5 19-13.79 28.47-37.07 37.82-60.5 2.19-.92-.16-1.82 0 .01zm326.68 33.27c16.35-6.13 22-22.57 25.71-34.79-8.58 11.61-19.16 21.18-25.71 34.8zm-373.57-31.7c-6.05 4-6.27 13.9-10.59 19.66 8.91-1.17 10.28-9.88 10.59-19.66 2.2-1-.15-1.88 0 0zm264.67 148.22c-1.37.42-5.07 5.63-1.51 6 1.18-1.34 1.63-3.42 1.51-6 26.45-26.55 21.18-75.56 51.43-98.31 1.49-7.61 9.08-17.09 7.56-22.68-33.8 31.3-41.78 78.7-58.99 120.94zm31.76-114.94c-1.28-.29-1.42.58-1.51 1.51-10.31 4.32-20.87 16.41-16.63 30.25 6.24-9.39 13-18.27 16.63-30.25 1.29.28 1.43-.59 1.51-1.51 2.2-.98-.17-1.88 0-.05zm63.53 19.66c.55 14.68-12.82 23.46-12.1 33.27 7.69-19.54 35.41-27.1 37.81-46.88-7.68 5.37-14.48 11.67-25.71 13.56zm-334.25 40.83c8.66.41 2.84 15.31 4.54 22.69 10.38-1.17 18.78-24.05 16.64-37.81 8.44-6.69 12.68-17.57 16.63-28.74-17.05 9.6-17.43 42.35-37.81 43.81zm349.37-10.58c5-6.57 14.57-8.62 15.13-19.66-.34-1.19-1.27-1.76-3-1.52-3.6 6.49-13.54 14.64-12.13 21.13zm-148.22 60.44c7-21.68 24.42-41.12 24.2-65-12.91 18.75-24.07 38.24-24.2 65zm137.64-54.44c3.78.25 4.73-2.33 6-4.54-3.91-.43-6.46.55-6 4.54zm-19.67 0h-1.51c-1 1.22-2.35 4.14 0 4.53a7.09 7.09 0 0 0 1.51-4.53c2.2-.93-.15-1.83 0 0zm77.14-1.52c-7.71 12-27.19 20.07-27.23 34.79 9.81-3 32.44-21.8 27.23-34.79zm-60.5 4.54c1.75 6 1.75-6 0 0zm-376.6 19.66c9.19-.93 15.63-12.57 13.62-19.66-4.16 6.94-12.23 9.93-13.62 19.66zm335.77 7.56c4.69.16 4.31-4.75 10.58-3-.74-4.88 7.06-8.94 3-12.1-6.31 3.23-11.45 7.67-13.58 15.1zm127-9.07c4.27.24 3.79-4.27 6.05-6-4.7-.76-4.22 3.75-6.01 6zm-411.38 37.81c-6.27 1.73-5.9-3.18-10.59-3-3.5 3.36.51 5.89 0 10.58-12.5 8.6-32.63 35.22-21.17 48.4 8.09-14.59 13.94-31.43 22.68-45.37 4.08 1.46 5.87 5.22 10.59 6 11.08-9.79 12.76-31.46 13.61-48.4-5.46 10.15-8.84 22.41-15.12 31.79zm189.05 36.3c-4.6.43-5.88-4.85-9.07-1.51-1.23 30-15.89 46.62-28.74 65 5.58 1 7.93 5.17 9.07 10.59-4 10.1-11.53 16.7-13.61 28.73 26.61-14.23 18.16-63.51 39.33-83.18 20.55 13-15 35.57-1.52 56 .49 6.09-9.81 9.26-6 13.61 20.78-13.72 13.87-51.9 27.23-75.62-2-4-8-4.13-7.56-10.59 4.62-24 25.86-46.2 19.66-71.08-10.65 21.58-21.04 43.49-28.75 68.05zm62 40.83c-25 12.63-26.81 69.71-46.89 92.27-8.3 9.33-17.37 7.92-19.66 21.17 18.57-5.49 21.85-33.11 42.35-31.77 5.08-13.57 12-25.36 16.64-39.32-12.11-13.4 5.57-28.74 7.56-42.35 10.28-10.9 14.94-27.41 27.23-36.29 2.25 1.77 1.78 6.28 6 6 16.47-18.31 22.89-46.68 48.39-56-7.82-9.58 2.94-15.3 6.05-22.69-26.4 13.92-32 48.64-54.44 66.55-5.66 1.62-4.32-3.76-9.08-3-7.2 15.59-22.95 28.56-24.1 45.43zm146.71-83.18c4.62-1.09 5.51 1.55 9.07 1.51 7.73-7.39 16-14.2 21.18-24.2-13.83-1.79-23.82 12.08-30.2 22.69zm-428-13.61c-4.37 4.37 4.36-4.37 0 0zm373.57 46.88c12.59-14.62 27.81-26.63 36.3-45.37-15.92 4.3-31.41 29.98-36.27 45.37zm-96.8 24.2c12.71-12 13.62-35.79 33.28-40.83-.27-4.4 5.31-10.68 1.51-13.61-13.15 15.55-29.18 36.32-34.76 54.44zm71.09 19.66c-1.29-.27-1.43.59-1.51 1.52-1.29-.28-1.43.59-1.52 1.51h-1.51c0 3-4.12 1.92-3 6-2.2.93.15 1.83 0 0 2.21-1.32 4.79-2.26 4.53-6 1.29.28 1.43-.59 1.52-1.51 1.28.28 1.42-.59 1.51-1.52 3.55-3.57 7.43.25 12.1 0 16.3-24.53 35.29-46.37 52.93-69.57-22.54 22.32-50.13 39.6-65.02 69.57zm-360-62c1 1-.64-.63 0 0zm266.19 0c1 1-.64-.63 0 0zm-270.73 7.57c.22-1.79 2.69-3.43 0-4.54-.15 1.78-2.62 3.42.07 4.53zm425 21.17c-1.79-2.25-1.31-6.76-6-6 1.1 4.13-3 3-3 6h9.08c1.5 2 4.08 3 4.53 6-11.07 12.62-24.45 22.93-31.76 39.32a7.68 7.68 0 0 1 4.54 4.54c8.47-1.61 12.57-7.59 18.15-12.1-3.26-1.28-5.35-3.72-4.54-9.07 15-14.23 31-27.46 51.42-36.3 2.22 1.31 4.8 2.27 4.54 6-11.58 17.66-35.5 23-48.4 39.32 15.3 6.3 27.64-12.67 42.35-16.63-1.28-16.23 24.62-26.5 30.25-45.38-23.39 8.48-43.7 19.93-71.09 24.31zm4.53-13.63c5.08 0 8-2.08 10.59-4.54-4.63-2.26-10.47-1.76-10.52 4.55zm-57.47 12.1c0-2.26 5.62-6.19 1.51-7.56.1 2.27-5.55 6.19-1.44 7.57zm-72.6 68.06c14.1 29.85-20.08 55.31-25.71 84.69a32.83 32.83 0 0 1 13.61-1.51c8.84-21.41 14.26-46.24 31.77-59 9.18 19.39-16.34 39-19.67 60.49 21.19-8.77 27.74-52.66 33.28-77.13 14.71-.93 19.79-19.51 21.17-28.74-14 8.64-22.34 23-30.25 37.81-1.47 5.51 7.37.71 4.54 7.57-5.09-1-11-1.07-13.61-4.54 5.71-35.12 28.17-53.5 37.81-84.7-.34-1.17-1.27-1.76-3-1.51-17.48 21.37-31.72 45.91-49.87 66.58zm-102.84-57.47c-2.2.93.15 1.82 0 0h1.51c.44-.93 3.76-5.83 0-6-1.11 1.3-1.56 3.37-1.44 6.01zm93.8 7.53c1 1-.64-.63 0 0zm-231.36 42.42c12-3.8 20.42-26.8 15.12-37.81-4.46 13.15-16.6 18.65-15.12 37.81zm140.65-21.18c5.28-1.59 11.3-10.46 6.05-13.61-1.84 4.72-5.1 7.97-6.05 13.58zm-86.21 3a7.11 7.11 0 0 1 4.54 1.51c.34-3.31 6.82-8.14 3-10.59-2.39 3.13-6.3 4.76-7.54 9.08zm-69.57-6c-2.2.93.16 1.83 0 0 2.2-.98-.15-1.88-.01-.05zm-13.61 16.58c-.07-7.17 12.83-9.28 9.07-15.12-3.27 3.83-14.73 7.39-9.07 15.12zm432.6-15.12c-8.48 6.64-20.13 10.12-28.74 16.64 10 7.7 5.26 23 4.54 31.76 8.26-13.95 25.72-34.68 24.2-48.4zm-48.44 25.72c2.86.17 1.05 5 4.54 4.54 2.13-3.92 5.11-7 7.56-10.59a26.82 26.82 0 0 0 -12.1 6.05zm-344.84 19.66c-3.31 6.49-.58 14.2 6 15.13 7.32-8 21.46-24.74 16.64-34.79-8.16 5.9-8 20.17-22.64 19.65zm98.31 1.51c4.24-6.34 12.19-9 12.1-19.66-11.52-1.93-13.57 13.61-12.13 19.65zm-68.03 13.61c4.22-8.39 13-12.23 16.64-21.18-10.43 1.22-18.78 12.48-16.64 21.18zm284.34-1.52c10.38 0-1.31 11.27 3 13.62 2.88-11.25 13-23.33 12.1-33.28-4.44 7.16-12.78 10.4-15.13 19.66zm-213.25 10.59c-5.28 3.3-10.35 6.8-13.62 12.1 5.7-1.16 7.23 1.85 12.1 1.51 5.79-13.38 18.24-28.12 18.15-42.35-5.3 9.68-20.43 14.73-16.66 28.74zm196.61-25.71c-17.35 18.94-28.87 43.73-34.78 74.11 20.34-16 23.11-49.49 34.78-74.11 4.5-.31-1.47-6.28-.03 0zm-21.17 83.18c-10.85 3.77-24.06 5.19-24.2 19.66 35.24-8.61 45.22-50.57 54.45-80.15-14.7 15.57-21.47 39.06-30.28 60.49zm-225.36-33.27c-2.19.93.16 1.83 0 0 5.64-9 19.27-10 19.67-24.2-10.24 4.42-17.28 12-19.7 24.2zm254.1 7.57c2.83-5.78 9.47-15.7 7.56-21.18-1.18 7.45-11.41 13.78-7.59 21.18zm-231.41 3c2.5-5.11 10-13.12 7.57-18.15-2 5.66-10.21 12.98-7.6 18.17zm329.71 6c-.61 17.32-16.29 31.89-21.17 49.91-.29 6.84-1.24 14.34 7.56 12.1-.64-27.89 35.7-59.69 37.81-84.7-8.22 7.51-17.86 13.49-24.23 22.76zm-39.32-9.07c-2.2.92.15 1.82 0 0a30.79 30.79 0 0 0 9.07-9.08c-6.59-.47-7.96 4.23-9.1 9.15zm28.75 71.15c7.92.14 13.61 2.51 22.68 1.51 6-14.17 20.16-28.23 18.15-45.37-11.41 16.85-26.32 30.16-40.83 43.86zm-16.64-36.3c-13.92 5.24-20.72 17.6-25.71 31.76 6.42 1.14 11.59 3.53 19.66 3-2.8-14.53 11.32-27.67 6.01-34.76zm-154.27 6c2.27-.26 5.58.54 6.05-1.52-2.05-1.88-5.67-1.94-6.09 1.57zm205.69 30.25c1.52 0 1.8 1.22 3 1.51 0-1.52 1.22-1.8 1.51-3-1.52 0-1.8-1.23-3-1.52-.03 1.55-1.29 1.83-1.55 3.06z" fill="#0e5256"></path><path d="m1387.4 489.44c-9.94 15.83-33.74 25.67-48.4 31.76 9.35-17.37 31.38-22.07 48.4-31.76z" fill="#0e5256"></path><path d="m1342 507.59c1.53 4.54-3.36 2.68-6 3 1-2.01 3.21-2.79 6-3z" fill="#0e5256"></path><path d="m1526.54 516.66c8.91-.81 19.56 4.59 18.15 9.07-3.61 9.33-19.83.98-18.15-9.07z" fill="#0e5256"></path><path d="m1334.46 524.22c-18.72 18.08-49.13 24.48-74.11 36.3-.64-2.88-3.25-3.8-3-7.56q32.31-20.59 77.11-28.74z" fill="#0e5256"></path><path d="m1432.77 566.57c-10.13 13.14-36.3 18.06-52.94 19.66.2-2.71-1.85-3.19-1.51-6.05 17.07-5.69 34.42-13.79 54.45-13.61z" fill="#0e5256"></path><path d="m1331.44 590.77c-15.84 12.19-45.6 25.59-66.55 22.69 16.25-12.54 43.6-21.88 66.55-22.69z" fill="#0e5256"></path><path d="m1264.89 624c-5.85 7.24-27.2 18.09-34.78 9.08 5.89-8.08 25.79-13.56 34.78-9.08z" fill="#0e5256"></path><path d="m1556.79 628.58c50-6.37 61.23 101-1.51 93.77-43.69-5.42-42.76-88.94 1.51-93.77zm3 10.59c-22.45-.15-34.72 49-12.11 63.52.62-20.61 28.18-21.83 34.79-6.05 7.53-22.51-2.15-57.33-22.65-57.47z" fill="#0e5256"></path><path d="m1399.5 646.73c68-5.05 59.62 121.66-13.62 104.36-42.43-15.49-30.4-99.6 13.62-104.36zm10.58 12.1c-40.44-4.08-49.6 64.73-19.66 78.65-10.2-26.47 28.91-42.13 34.79-15.13 17.68-18.99 5.06-55.99-15.13-63.52z" fill="#0e5256"></path><path d="m1213.46 675.47c-8.16 13-26.12 16.22-40.83 22.68-1.17-1.34-1.62-3.41-1.51-6 9.1-9.89 27.54-17.48 42.34-16.68z" fill="#0e5256"></path><path d="m1165.07 717.81c-2.8 12.36-32.11 25.72-45.38 22.69 9.84-12.85 28.86-16.5 45.38-22.69z" fill="#0e5256"></path><path d="m1127.26 761.67c4.55 4.4-12.26 12.69-18.15 16.64-26.06 17.86-40.89 54.82-74.11 60.5 23.39-33.08 56.15-56.81 92.26-77.14z" fill="#0e5256"></path><path d="m983.58 926.53c-.32-1.69-1.68-2.35-3-3 23.66-57.65 75.91-79.19 121-113.44-34.16 44-88.17 68.13-118 116.44z" fill="#0e5256"></path><path d="m959.38 953.75h6c-9.81 21-28.41 33.1-37.81 54.45-1.29-.27-1.43.59-1.52 1.52-2.19.92.16 1.82 0 0 1.29.27 1.43-.59 1.52-1.52 22-21.38 37.23-49.48 59-71.08 21.29-20.58 37.82-53.9 68.06-60.5-24.51 31.38-58.25 53.64-81.63 86.21 28.3-16.58 45.29-57.56 81.67-71.09-15.89 20.41-35.17 37.43-49.91 59 2.7 2 11.76 1.68 6 7.56 14.23-7.46 27.42-29 42.35-40.83-3.32 17.86-22.8 32.65-33.28 48.4 3.64 1.9 8.05 3 10.59 6-25.41 24.5-48 51.81-74.11 75.63 12.71-26.63 40.76-51 60.5-75.63-3-2.5-9.18-1.91-10.59-6-18 11.29-23.72 34.75-46.88 40.83a10.7 10.7 0 0 0 -3-4.54c6.18-12.47 20.25-17.06 27.23-28.73-5.75.6-5.74 7-12.1 3-1.74-1.79-1.72-5.34-1.52-9.07-19.75 12.64-28.95 51.64-51.41 51.43-5.06 6.53-13.42 9.77-13.61 21.17-26.1 12.38-31.51 61-60.5 60.5 1.62-10 9.94-13.25 13.62-21.17-20.5-9.39-23.41 19.22-36.3 24.2-15.12-18.89 33.12-30.77 18.15-49.91 28.35-18.54 45.64-48.14 72.59-68.07-2.36 12.77-14.81 15.44-18.15 27.23 27.4-6.06 44.66-37.27 65.04-58.99zm-104.38 113.44c16.93-12.36 40.58-34 45.37-48.4-14.76 15.47-41.37 27.21-45.37 48.4z" fill="#0e5256"></path><path d="m1205.91 900.82c-1.88 7.7-6 13.14-10.59 18.15-5.18.64-4.55-4.53-7.56-6.05 4.03-5.39 9.57-16.16 18.15-12.1z" fill="#0e5256"></path><path d="m1219.52 903.84c.58 11.87-13.39 21.78-19.66 31.76-4.83 1.3-4.68-2.37-7.57-3 5.76-12.92 13.41-23.92 27.23-28.76z" fill="#0e5256"></path><path d="m983.58 926.53c0 1.52 1.22 1.8 1.51 3-5.48 11.15-19.57 13.7-25.71 24.19-10.94 2.17-13.75 12.47-27.23 12.11 11.85-18.37 33.13-27.35 51.43-39.3z" fill="#0e5256"></path><path d="m1836.59 959.81c14.3 12.14 0 37.58-15.12 39.32-4.58-1-8.73-2.37-9.08-7.57 16.17 2.28 22.13-15.26 24.2-31.75z" fill="#0e5256"></path><path d="m1015.34 1015.77c-18.21 16.57-30.72 38.85-52.94 51.42 16.03-18.77 28.86-40.72 52.94-51.42z" fill="#0e5256"></path><path d="m966.94 1020.3c-8.74 12.44-15.51 26.84-33.27 30.25.2-13.69 17.33-37.21 33.27-30.25z" fill="#0e5256"></path><path d="m994.17 1065.67c-3.07 18.33-20.55 34.76-37.82 43.87 4.43-16.83 18.04-37.37 37.82-43.87z" fill="#0e5256"></path><path d="m947.28 1085.34c-12.66 10-18 27.37-34.79 33.27-1.87-16.51 19.29-43.89 34.79-33.27z" fill="#0e5256"></path><path d="m1609.73 1095.92c3.86 15-2.84 31.29 0 42.35-108.22-2.19-204.71 19.71-307 9.08-3.66-14 1.61-31.52 6-42.35 91.73-5 201.33-7.87 301-9.08zm-30.26 12.1c-2.83 5.24-5.41 10.72-4.53 19.66 7.57 1 11.7-1.4 18.15-1.51a91.6 91.6 0 0 0 4.54-18.15c-6.94-2.42-10.28-.11-18.16-.02zm-45.36 19.66c10.51 3.74 17-.21 27.22 0-1.16-8.21 2.39-11.72 1.51-19.66-18.84-2.74-30.24 2.03-28.73 19.66zm-40.84-16.63c-2.16 5.41-4.32 10.8-4.54 18.15 7.62 2.34 22.63 2.34 30.25 0-1.23-9.3 4.77-11.37 4.53-19.66-11.63-1.05-18.61 2.55-30.24 1.51zm-48.4 1.51c-1.14 6.42-3.53 11.59-3 19.66 10.87-.23 23.09.9 31.76-1.51-1.25-8.32 3.8-10.33 3-18.15-9.89-2.2-19.81-1.7-31.76 0zm-39.32 1.51a114.87 114.87 0 0 0 -4.54 21.18h24.2c2.45-8.57 3.94-13.75 4.53-21.18-7.07-4.35-15.32 1.31-24.19 0zm-86.21 1.51c-3.91 4.11-3.72 18.85-3 22.69 8.83 2.36 22 1.16 33.28-1.51-5.36-6.94 3.92-12.16 1.51-21.18-13.23-1.82-16.97-.34-31.79 0zm42.35 21.18c7.92 3.42 18.58.47 27.22 0-4-9.08 2.64-12.4 1.51-22.69-21.61-4.47-28.49 5.79-28.73 22.69z" fill="#0e5256"></path><path d="m991.14 1109.54c-6.37 23.42-27.38 45.18-46.89 60.49 8.65-21.15 23.96-48.6 46.89-60.49z" fill="#0e5256"></path><path d="m935.18 1117.1c-7.13 17.06-16.68 31.72-33.27 39.32 6.45-16.15 17.02-42.9 33.27-39.32z" fill="#0e5256"></path><path d="m898.88 1139.78c-4.63 10.49-12.94 17.31-18.15 27.23-.42 6 6.47 4.62 6 10.58-33.18 14.71-36.85 58.94-59 84.7-21.2 9.29-31.74 41.69-39.33 69.57-16.69-7.81-1.56-32.25 4.54-45.37 7.23-15.57 17.51-31.66 24.2-42.35 3.86-.79 5.29-2 7.56 1.52 25-34 38.06-79.92 66.55-110.41 4.82-.72 4.07 4.07 7.63 4.53z" fill="#0e5256"></path><path d="m936.69 1147.35c-12.84 19.92-22.63 42.9-42.35 56-3.06-23.75 23.9-42.27 34.79-62 4.43.05 5.62 3.4 7.56 6z" fill="#0e5256"></path><path d="m885.27 1203.31c-9.47 15.74-19.25 31.16-33.27 42.35 0-1.48-1.86-1.18-3-1.52-.62-13.14 19-45.58 36.27-40.83z" fill="#0e5256"></path><path d="m859.56 1247.17c1.25 28-26.21 40.3-28.74 69.57-18.42-17.88 12.57-56.89 28.74-69.57z" fill="#0e5256"></path><path d="m1944 1880.88c1.35 2.67 3.64 4.41 4.53 7.56-7.3 15.89-32.08 14.3-40.84 28.73 22 20.26 79.4 6.41 99.82-7.55-12.3-16.94-44.47-14-43.86-43.86-7.41 6.25-13.65-7.51-18.15-7.57a104.33 104.33 0 0 0 -36.29 0c.83 9.9-9 20.49-21.18 16.64-3-11.12 4.91-11.23 7.56-16.64 2.58-9.64-6.25-7.86-6-15.13 2.48-5.08 5.87-9.25 12.1-10.58 5.86.7 4.77 8.34 7.57 12.1 9.7 1.12 15.37-1.77 24.19-1.52 1-14.56-8.54-18.68-18.14-22.68.17-11.49-1.8-18.68 1.51-28.74 1.29.28 1.43-.59 1.51-1.51 22.61-1.36 59.83-16.17 83.18-3 6.37 36.3-39.71 43.6-24.2 84.69 8 16.16 32.32 16.09 42.36 30.25v12.1h24.2c16.16-17.89 3.07-59.24 6-87.72-2.4-4.66-11-3.14-13.61-7.56-.77-38.38-5.17-64.09-28.74-78.65-9.28-9.87-23.91-14.4-30.25-27.22-.2-28-23.39-33.07-31.76-52.94 3.56-52.83 11.22-106.53 57.48-124-30.34-55.37-35.24-136.18-42.35-214.76-14.17.18-38.5 6.37-56 0-1.49 38.7 2 69.27 1.51 102.84-1.42 99.2-57.64 190.77-21.17 290.39 9.34 12.33 17.72 25.63 34.78 30.25 1.24 7.77.62 10.15 6 15.12 8.4-.68 5-13.18 12.11-15.12 7.72.34 6.71 9.41 12.09 12.1 8.34-2.26 9-12.14 18.15-13.62s9.08 6 12.1 10.59c7.12-3.47 9.24-11.93 19.66-12.1a10.76 10.76 0 0 0 4.54 3c-.2 8.76 2.85 14.29 3 22.68a21.34 21.34 0 0 0 -7.56 7.57c-26.15.06-56.38 7.78-83.18 12.1-8.93-7.71-12.22-21.06-15.13-34.79-19.33-19-35.08-41.54-40.83-74.11-12.56-81.82 27.19-143.2 31.76-210.23 3.69-54.1 0-109.67-3-164.85 17-17.88 53.55-24.9 77.14-12.1 15.39 81.4 12 181.58 48.4 242 12.13-9 34.7-15 49.9-4.53 23.83-8.4 50.13 1.69 59 21.18 13.65 2 20.56 10.69 28.74 18.14 4.4 13.2 10.43 27.81 9.07 42.35 25.55 69.08-43.85 77.95-48.39 131.58-6.94 9.2-17.17 15.1-25.71 22.69-3.27 19.14 1.66 35.52 0 51.42-3.67 2.38-6.47 5.64-13.62 4.54 1.2 37.61 19.71 120.51-42.34 111.92 4.16 12.91 25.06 27.12 18.14 51.42-32.44 40-147.76 40.92-183 3-1.29-31.53 10.81-49.68 31.76-59-3.11-2.43-3.51-7.58-3-13.61 9.44-16.82 35.94-24.48 48.44-33.26zm-36.31-573.22c12.65 6.84 46.07 8 51.43-6.05-14.42-9.39-42.92-9.27-51.45 6.05zm127 231.4c25.64 11.17 37.29 36.32 54.45 56-2.5-31.58-23.39-67.98-54.42-56zm52.94 0c12.31 15 28.49 34.31 28.73 63.53 12.03-24.35-4.14-65.83-28.7-63.53zm-104.37 25.72c37.93-10.12 57.32 22.92 75.63 42.35-1.06-29.92-49.16-79.72-75.6-42.35zm148.23 7.56h4.53c.26-3.79-2.32-4.73-4.53-6zm12.09 49.91c-2.19.93.16 1.83 0 0 7.23-8.3 6.56-35.68-1.51-42.35 5.4 14.85 4.67 24.72 1.54 42.35zm-180-16.64c34.59-11.44 53.8 16.09 72.6 30.25 2.72-38.86-58.86-79.55-72.55-30.25zm-4.53 49.91c24.2-25.83 55.7 14.41 66.55 19.67 8.5-39.56-70.6-69.64-66.5-19.67zm169.39 13.62c14.71-2.05 31.79-17.46 22.69-33.28-6.37 11.24-22.13 21.21-22.64 33.28zm-163.34-3c1.75 6 1.75-6 0 0zm22.69 40.84c3 6.56 9 10.19 15.12 13.61-1.17-5.7 1.84-7.23 1.51-12.1 6.67-1.9 13.18-4 19.66-6-5.95-15.99-34.95-14.93-36.24 4.51zm-4.55 105.87c.23-1.79 2.7-3.43 0-4.54-.16 1.76-2.64 3.4.05 4.51zm-80.15 127c-3.54 4.53-12.12 4-13.62 10.59 27.66 29.65 107.16 28.45 139.15 3-4.56-5.53-5.06-15.11-9.07-21.18-25.55 15.83-86.38 28.15-116.41 7.6z" fill="#0e5256"></path><path d="m812.67 1316.74c-9.53 20.71-21.47 39-31.76 59-17.65-18.65 16.07-46 24.2-63.52 4.75-.73 4 4.05 7.56 4.52z" fill="#0e5256"></path><path d="m626.64 1455.89c7.79-.74 13 1.15 15.13 6-6.28 14.89-12.36 30-24.2 39.32-11.64-13.59 14.54-28.12 9.07-45.32z" fill="#0e5256"></path><path d="m700.75 1493.7c-12.48 38.94-34.61 68.23-45.37 108.89.13 9.2 3.47 15.33-4.54 18.15-14.85-17.29 3.08-44.44 10.59-63.53 8.66-22 17.61-43.93 27.22-60.49a7.66 7.66 0 0 0 4.54-4.54c4.27-1.25 3.92 2.13 7.56 1.52z" fill="#0e5256"></path><path d="m582.78 1637.38c-6.18 19.08-16.93 41.46-31.76 46.88 3.54-15.02 13.24-51.78 31.76-46.88z" fill="#0e5256"></path><path d="m1022.9 1832.48c-1 44.6-30.19 86.61-52.94 119.48 2.48-36.91 40.39-72.47 42.35-114.94-.42-2.45 1.43-2.61 1.51-4.54z" fill="#0e5256"></path><path d="m1080.37 1886.92c3.08.45 4 3 6.05 4.54-8.38 25.21-23.3 49.15-30.25 71.09-12.05-22 15.11-54.84 24.2-75.63z" fill="#0e5256"></path><path d="m1062.22 1899c-2.94 24.94-19.31 49.15-33.27 68.06.54-21.17 15.62-53.89 33.27-68.06z" fill="#0e5256"></path><path d="m1125.74 1921.71c-6.67 19.52-22.06 35-22.68 56-17.2-11.71 9.65-69.5 22.68-56z" fill="#0e5256"></path><path d="m1183.22 1924.74c9.45 9.34 2.51 32.41 0 43.86-12.46 3.4-7.65-38.9 0-43.86z" fill="#0e5256"></path><path d="m1207.42 1936.84c5.48 4.09 4.72 14.44 4.54 24.19-4.46 2-9.37 1.9-12.1-1.5 8.2-13.8-14.86-24.21 7.56-22.69z" fill="#0e5256"></path><path d="m1159 1945.91c.1 10.27-5.19 26.64-21.18 25.71-.08-9.9 8.58-23.55 21.18-25.71z" fill="#0e5256"></path><path d="m1134.82 1950.45c-7.32 9.83-7.51 26.77-22.68 28.74-.67-1.35-1.33-2.71-3-3 4.31-11.56 11.64-33.71 25.68-25.74z" fill="#0e5256"></path></g></svg> 