<svg viewBox="0 0 100 26" xmlns="http://www.w3.org/2000/svg"><g><path d="m4.88.26c0-.08.11-.19.22-.19s.22.11.27.3.11.35.24.79.14.51.3 1.05.3.89.3.92c.3.87.49 1.73.79 2.57a.75.75 0 0 0 0 .16 20.09 20.09 0 0 0 1 3.06s.32 1.08.32 1.08c.62 2.06.78 2.65.78 2.65h.06l.7-2.65s0-.05 0-.1c.27-.9.46-1.84.73-2.76a.6.6 0 0 1 .08-.14 9.05 9.05 0 0 1 .41-1.84 1.84 1.84 0 0 1 .08-.3c.32-.89.51-1.78.76-2.7a2 2 0 0 0 .1-.41c.25-.86.38-1.46.38-1.49s.06-.19.19-.19.16.09.19.19.22 1 .54 2.47v.16c.22 1 .49 2.05.65 3.08.05.33.27 1 .38 1.65s.43 2.14.7 3.55a13.32 13.32 0 0 1 .46 2 16.05 16.05 0 0 0 .54 2.57c.17.73.3 1.41.44 2.08a.5.5 0 0 1 0 .17c.25 1 .46 2 .63 3a.5.5 0 0 1 0 .17c.11.62.19 1.24.33 1.86.08.3.21.49.29.89a1.51 1.51 0 0 1 .09.38c0 .08-.06.14-.25.14s-.81-.06-.89-.06-.43.06-.54.06-.22-.14-.46-.06a1.17 1.17 0 0 1 -.46.06c-.35 0-.38-.11-.57-.11s-.22.08-.32.08-.46-.08-.6-.08a3.49 3.49 0 0 1 -.49.08c-.24 0-.38-.05-.4-.35a3.35 3.35 0 0 0 -.19-.87c-.14-.24-.41-1.83-.57-2.35a6.18 6.18 0 0 1 -.16-.95c-.25-1.11-.46-2-.46-2h-.06l-1.08 3.6s-.27.89-.4 1.49c-.09.38-.41 1.51-.41 1.51l-.32 1a.21.21 0 0 1 -.17.17c-.08 0-.11-.06-.13-.17s-.11-.32-.35-1.32c-.14-.57-.38-1.16-.55-1.73-.29-1.06-.56-2-.91-3.06-.17-.46-.3-1.08-.46-1.54h.01c0 .46-.54 2.57-.62 3.06s-.14 1.16-.3 1.73a7 7 0 0 1 -.22.84 6.71 6.71 0 0 0 -.16.73c0 .27-.3.21-.48.21s-.44-.05-.74-.05-.18.08-.45.08a1.55 1.55 0 0 1 -.38-.06c-.11 0-.54.06-.65.06s-.22-.06-.35-.06c-.3 0-.17.06-.41.06a1.85 1.85 0 0 1 -.41-.06c-.1 0-.24.06-.32.06s-.15-.12-.41-.12h-.16a.13.13 0 0 1 -.13-.13.86.86 0 0 1 0-.24 26.18 26.18 0 0 0 .55-2.71c0-.05.19-.59.35-1.38s.16-1.27.4-2.49v-.11a30.32 30.32 0 0 0 .76-4.11c.11-.51.19-1 .3-1.54 0 0 .08-.6.13-.87.14-.7.09-.67.19-1.4s.25-1.25.41-1.84a.2.2 0 0 0 0-.11 4.16 4.16 0 0 1 .1-.38.08.08 0 0 1 0-.08c.21-1.11.43-2.39.51-2.79s.11-.81.16-1l.22-.89a16.18 16.18 0 0 1 .35-1.98z"></path><path d="m31.19 1.86a7.51 7.51 0 0 1 3.2 3 14.94 14.94 0 0 1 1.81 5.14 21.25 21.25 0 0 1 .24 2.89c0 .57-.08 1.11-.08 1.65a9.25 9.25 0 0 1 -.57 3.46c-.57 1.43-.92 3.19-2.24 4.24a18.32 18.32 0 0 1 -2.17 1.57 6.88 6.88 0 0 1 -3.49.95 8 8 0 0 1 -3.65-.81 11 11 0 0 1 -3-2.65 11.45 11.45 0 0 1 -2-4.87 15.31 15.31 0 0 1 -.32-3c0-3.9.35-5.14 1.95-8.15a8.43 8.43 0 0 1 1.92-2.29 7 7 0 0 1 4.91-1.94 7 7 0 0 1 3.49.81zm-.16 14c0-.87.27-1.87.27-3s-.21-2-.21-2.87a5 5 0 0 0 -.82-2.62 3.15 3.15 0 0 0 -2.57-1.56 2.53 2.53 0 0 0 -1.46.46 5.47 5.47 0 0 0 -1.19 1.73c-.86 1.51-.86 2.84-1 4.84a13 13 0 0 0 .67 4.49 9.41 9.41 0 0 0 .57 1.25 2.63 2.63 0 0 0 2.41 1.22c2.17 0 3.3-2.41 3.3-3.95z"></path><path d="m50.86 1.86a7.45 7.45 0 0 1 3.19 3 15 15 0 0 1 1.82 5.14 21.25 21.25 0 0 1 .24 2.89c0 .57-.08 1.11-.08 1.65a9.45 9.45 0 0 1 -.57 3.46c-.57 1.43-.92 3.19-2.25 4.24a18.18 18.18 0 0 1 -2.16 1.57 6.9 6.9 0 0 1 -3.49.95 8 8 0 0 1 -3.65-.81 11 11 0 0 1 -3-2.65 11.45 11.45 0 0 1 -2-4.87 14.6 14.6 0 0 1 -.32-3c0-3.9.35-5.14 1.94-8.15a8.8 8.8 0 0 1 1.92-2.29 7 7 0 0 1 4.9-1.87 7 7 0 0 1 3.51.74zm-.16 14c0-.87.27-1.87.27-3s-.22-2-.22-2.87a5 5 0 0 0 -.81-2.62 3.17 3.17 0 0 0 -2.57-1.57 2.51 2.51 0 0 0 -1.46.46 5.47 5.47 0 0 0 -1.19 1.74c-.87 1.51-.87 2.84-1 4.84a13 13 0 0 0 .67 4.49 8.17 8.17 0 0 0 .61 1.2 2.62 2.62 0 0 0 2.38 1.27c2.16 0 3.32-2.41 3.32-3.95z"></path><path d="m61.81.26c0-.08.11-.19.21-.19s.22.11.28.3.1.35.24.79.13.51.3 1.05.29.89.29.92c.3.87.49 1.73.76 2.57 0 .06 0 .11.06.16a19 19 0 0 0 .94 3.06s.35 1.08.35 1.11c.63 2.06.79 2.65.79 2.65s.3-1.11.71-2.68c0 0 0-.05 0-.1.27-.9.46-1.84.73-2.76a.39.39 0 0 1 .13-.14 8.41 8.41 0 0 1 .4-1.84l.08-.3a27.69 27.69 0 0 0 .76-2.7 2.08 2.08 0 0 0 .16-.41c.24-.86.38-1.46.38-1.49s0-.19.19-.19.16.09.19.19.21 1 .54 2.47v.16c.21 1 .48 2.05.65 3.08 0 .33.27 1 .37 1.65s.44 2.14.71 3.55a13.32 13.32 0 0 1 .46 2 16.05 16.05 0 0 0 .51 2.54c.16.73.3 1.41.43 2.08a.34.34 0 0 1 0 .17c.24 1 .46 2 .62 3a.34.34 0 0 1 0 .17c.11.62.19 1.24.32 1.86a9.16 9.16 0 0 1 .3.89 1.51 1.51 0 0 1 .08.38c0 .08 0 .14-.24.14s-.81-.06-.89-.06-.44.06-.55.06-.21-.14-.46-.06a1.12 1.12 0 0 1 -.46.06c-.35 0-.37-.11-.56-.11s-.22.08-.33.08-.46-.08-.59-.08a3.78 3.78 0 0 1 -.49.08c-.24 0-.38-.05-.41-.35a2.69 2.69 0 0 0 -.19-.87c-.13-.24-.4-1.83-.56-2.35a5.35 5.35 0 0 1 -.17-.95c-.24-1.11-.46-2-.46-2l-1.08 3.6s-.27.89-.41 1.49c-.08.38-.4 1.51-.4 1.51l-.33 1a.21.21 0 0 1 -.16.17c-.08 0-.11-.06-.14-.17s-.1-.32-.35-1.32c-.13-.57-.38-1.16-.54-1.73-.3-1.06-.57-2-.92-3.06-.16-.46-.3-1.08-.46-1.54 0 .46-.54 2.57-.63 3.06a16.43 16.43 0 0 1 -.29 1.73c-.06.27-.14.56-.22.84a6.71 6.71 0 0 0 -.16.73c0 .27-.3.21-.49.21s-.43-.05-.73-.05-.19.08-.46.08-.27-.06-.38-.06-.54.06-.65.06-.21-.06-.35-.06c-.3 0-.16.06-.4.06a1.85 1.85 0 0 1 -.41-.06c-.11 0-.24.06-.32.06s-.19-.06-.41-.06h-.16a.14.14 0 0 1 -.14-.13.93.93 0 0 1 .06-.24 23.71 23.71 0 0 0 .48-2.71c0-.05.19-.59.35-1.38s.17-1.27.41-2.49v-.11a30.32 30.32 0 0 0 .76-4.11c.11-.51.19-1 .3-1.54 0 0 .08-.6.13-.87.14-.7.08-.67.19-1.4a18.21 18.21 0 0 1 .41-1.84.28.28 0 0 0 0-.11c0-.16.06-.3.08-.43a.08.08 0 0 1 0-.08c.22-1.11.43-2.39.52-2.79s.1-.81.16-1l.21-.89a16.22 16.22 0 0 1 .35-1.96z"></path><path d="m81.64 24.29h-.24c-.22 0-.22 0-.35 0h-.49a1.05 1.05 0 0 1 -.46-.08c-.16-.08-.3 0-.46 0a1.42 1.42 0 0 1 -.46 0c-.16-.08-.16 0-.33 0h-.27a.91.91 0 0 0 -.46 0 2 2 0 0 1 -.35 0c-.13 0-.24.05-.32.05a2.53 2.53 0 0 1 -.49 0c-.08 0-.11-.1-.11-.1s0-1.22 0-1.57 0-.65 0-1.11 0-1.38 0-1.71 0-1.62 0-1.65a11.92 11.92 0 0 0 0-1.35v-.16c0-.79 0-1.6 0-2.38v-2.23c0-1.08 0-1.17 0-2.3a8.25 8.25 0 0 1 0-1.08v-2.24c0-.06 0-1.11 0-1.17 0-1.1 0-1.24 0-2.32 0-.06 0-.52 0-.7s0-.65 0-.65.11-.19.33-.19h.48c.19 0 .14-.06.38-.06h.73.38.35c.11 0 .25.08.38 0s.16 0 .27 0h.27.27s.19 0 .3 0 .3-.06.6-.06.4.16.4.25v1.92 1.27 3.71s0 .87 0 .89v.73 2.3 1.19.46.56.95.11c0 .35.06.73.08 1.11a16.68 16.68 0 0 1 0 2c0 .41-.06.68-.06 1v1.71.76 1 .65s0 .19 0 .36 0 .18-.13.18-.02-.05-.24-.05z"></path><path d="m94.67 1.35c.25 0 .16.1.41.1s.27-.1.49-.1a3 3 0 0 0 .37 0h.63s.38 0 .51 0 .3-.08.43-.08.3.05.44.05.29-.05.43-.05a3.73 3.73 0 0 0 .41.05 1.77 1.77 0 0 1 .35-.05.32.32 0 0 1 .32.3v2 3.59 1.49c0 1.49 0 3-.05 4.57v2.14 2.16 1.84s0 1.47-.08 2.2v3.08a.15.15 0 0 1 -.16.16.3.3 0 0 1 -.19-.08c-.27-.41-.65-.7-1-1.16a18.2 18.2 0 0 0 -2-2.33 16 16 0 0 1 -1.49-1.78l-.39-.45c-.27-.32-.21-.27-.48-.59l-.08-.08a16.2 16.2 0 0 1 -1.65-1.92c-.14-.17-.41-.44-.54-.6s-1.2-1.46-1.2-1.46 0 6.38 0 8.93v.7s-.13.32-.27.32-.21.06-.37.06-.27-.06-.41-.06-.32.14-.51.11h-.52-.43c-.14 0-.24-.05-.38-.05s-.22 0-.46 0-.24-.11-.38-.11-.3.08-.46.08-.57-.06-.67-.06-.19 0-.19-.24c0-.05 0-.24 0-.38 0-.29-.05-.62-.05-1 0-.81 0-1.62 0-2.54v-1.04s0-.95 0-1.33v-3c0-1.43 0-2.92 0-4.35v-5.69a18 18 0 0 1 0-2.84v-.76a.15.15 0 0 1 .16-.16.3.3 0 0 1 .19.08s.73.84 1.7 2c.79 1 1.68 2.14 2.73 3.3a29.76 29.76 0 0 1 2.66 3.09c.56.83 1.94 2.4 1.94 2.4v-5.57c.11-1.19 0-2.41 0-3.6v-1.08a.19.19 0 0 1 .24-.21z"></path></g></svg>
